<mxfile host="65bd71144e">
    <diagram id="mkQ_-pYzSorV3spDVNJz" name="Seite-1">
        <mxGraphModel dx="2311" dy="1973" grid="1" gridSize="10" guides="1" tooltips="1" connect="1" arrows="1" fold="1" page="1" pageScale="1" pageWidth="827" pageHeight="1169" math="0" shadow="0">
            <root>
                <mxCell id="0"/>
                <mxCell id="1" parent="0"/>
                <mxCell id="Yr3t7ejNtm0bVkwtEUdj-1" value="" style="shape=image;verticalLabelPosition=bottom;labelBackgroundColor=default;verticalAlign=top;aspect=fixed;imageAspect=0;image=data:image/png,iVBORw0KGgoAAAANSUhEUgAABMQAAANaCAYAAABm+5BHAAABSGlDQ1BJQ0MgUHJvZmlsZQAAKJFjYGASSSwoyGFhYGDIzSspCnJ3UoiIjFJgf8bAwiDOIMggxGCdmFxc4BgQ4ANUwgCjUcG3awyMIPqyLsgsPtWzVeum9hlMe3Kw4m9l1ldM9SiAKyW1OBlI/wHi9OSCohIGBsYUIFu5vKQAxO4AskWKgI4CsueA2OkQ9gYQOwnCPgJWExLkDGTfALIFkjMSgWYwvgCydZKQxNOR2FB7QYDXKTUvUMHVx8jC3CCUgHtJBiWpFSUg2jm/oLIoMz2jRMERGEqpCp55yXo6CkYGRkYMDKAwh6j+HAgOS0axMwix/EUMDBbAcGSegBBLmsnAsL2VgUHiFkJMZQEDA38LA8O28wWJRYlwBzB+YylOMzaCsHmcGBhY7/3//1mNgYF9MgPD3wn///9e9P//38VA8+8wMBzIAwByn2J9ux33gQAAAIplWElmTU0AKgAAAAgABAEaAAUAAAABAAAAPgEbAAUAAAABAAAARgEoAAMAAAABAAIAAIdpAAQAAAABAAAATgAAAAAAAACQAAAAAQAAAJAAAAABAAOShgAHAAAAEgAAAHigAgAEAAAAAQAABMSgAwAEAAAAAQAAA1oAAAAAQVNDSUkAAABTY3JlZW5zaG90KvRK6gAAAAlwSFlzAAAWJQAAFiUBSVIk8AAAAddpVFh0WE1MOmNvbS5hZG9iZS54bXAAAAAAADx4OnhtcG1ldGEgeG1sbnM6eD0iYWRvYmU6bnM6bWV0YS8iIHg6eG1wdGs9IlhNUCBDb3JlIDYuMC4wIj4KICAgPHJkZjpSREYgeG1sbnM6cmRmPSJodHRwOi8vd3d3LnczLm9yZy8xOTk5LzAyLzIyLXJkZi1zeW50YXgtbnMjIj4KICAgICAgPHJkZjpEZXNjcmlwdGlvbiByZGY6YWJvdXQ9IiIKICAgICAgICAgICAgeG1sbnM6ZXhpZj0iaHR0cDovL25zLmFkb2JlLmNvbS9leGlmLzEuMC8iPgogICAgICAgICA8ZXhpZjpQaXhlbFlEaW1lbnNpb24+ODU4PC9leGlmOlBpeGVsWURpbWVuc2lvbj4KICAgICAgICAgPGV4aWY6UGl4ZWxYRGltZW5zaW9uPjEyMjA8L2V4aWY6UGl4ZWxYRGltZW5zaW9uPgogICAgICAgICA8ZXhpZjpVc2VyQ29tbWVudD5TY3JlZW5zaG90PC9leGlmOlVzZXJDb21tZW50PgogICAgICA8L3JkZjpEZXNjcmlwdGlvbj4KICAgPC9yZGY6UkRGPgo8L3g6eG1wbWV0YT4KtfAVbgAAABxpRE9UAAAAAgAAAAAAAAGtAAAAKAAAAa0AAAGtAAB56cwnRZAAAEAASURBVHgB7N0LfFxlnf/xX4WWOwVTritLKQ2XcOlGExsUKMglyNUuBBQpaDBREagvcEVW8b8rq6wVsAXNctmApEW0FBYU2VBIlotrm5cgESKBxIRioRRMl3JHKuTPM/ikM5kzc56Z5Jznd3I+eb12mznzzHl+5/07fez5MnNm0vB7P8IPAggggAACCCCAAAIIIIAAAggggAACKRGYRCCWkk5zmAgggAACCCCAAAIIIIAAAggggAACGQECMU4EBBBAAAEEEEAAAQQQQAABBBBAAIFUCRCIpardHCwCCCCAAAIIIIAAAggggAACCCCAAIEY5wACCCCAAAIIIIAAAggggAACCCCAQKoECMRS1W4OFgEEEEAAAQQQQAABBBBAAAEEEECAQIxzAAEEEEAAAQQQQAABBBBAAAEEEEAgVQIEYqlqNweLAAIIIIAAAggggAACCCCAAAIIIEAgxjmAAAIIIIAAAggggAACCCCAAAIIIJAqAQKxVLWbg0UAAQQQQAABBBBAAAEEEEAAAQQQIBDjHEAAAQQQQAABBBBAAAEEEEAAAQQQSJUAgViq2s3BIoAAAggggAACCCCAAAIIIIAAAggQiHEOIIAAAggggAACCCCAAAIIIIAAAgikSoBALFXt5mARQAABBBBAAAEEEEAAAQQQQAABBAjEOAcQQAABBBBAAAEEEEAAAQQQQAABBFIlQCCWqnZzsAgggAACCCCAAAIIIIAAAggggAACBGKcAwgggAACCCCAAAIIIIAAAggggAACqRIgEEtVuzlYBBBAAAEEEEAAAQQQQAABBBBAAAECMc4BBBBAAAEEEEAAAQQQQAABBBBAAIFUCRCIpardHCwCCCCAAAIIIIAAAggggAACCCCAAIEY5wACCCCAAAIIIIAAAggggAACCCCAQKoECMRS1W4OFgEEEEAAAQQQQAABBBBAAAEEEECAQIxzAAEEEEAAAQQQQAABBBBAAAEEEEAgVQIEYqlqNweLAAIIIIAAAggggAACCCCAAAIIIEAgxjmAAAIIIIAAAggggAACCCCAAAIIIJAqAQKxVLWbg0UAAQQQQAABBBBAAAEEEEAAAQQQIBDjHEAAAQQQQAABBBBAAAEEEEAAAQQQSJUAgViq2s3BIoAAAggggAACCCCAAAIIIIAAAggQiHEOIIAAAggggAACCCCAAAIIIIAAAgikSoBALFXt5mARQAABBBBAAAEEEEAAAQQQQAABBAjEOAcQQAABBBBAAAEEEEAAAQQQQAABBFIlQCCWqnZzsAgggAACCCCAAAIIIIAAAggggAACBGLKzoHHHntMDjzwQGVVUQ4CCCCAAAIIIIAAAggggAACCCAwcQQIxBT18v7775crr7xSfvGLXyiqilIQQAABBBBAAAEEEEAAAQQQQACBiSVAIKaon4ceeqg89NBDsmzZMjn55JMVVUYpCCCAAAIIIIAAAggggAACCCCAwMQRIBBT0svrr79empubM9XMmjVLuru7lVRGGQgggAACCCCAAAIIIIAAAggggMDEEiAQU9DPDRs2yN577y1PP/30SDXf//735etf//rIY35BAAEEEEAAAQQQQAABBBBAAAEEEBgfAQKx8XEc014uvvhi+fd///ecfUybNk0ef/xx2XnnnXO28wABBBBAAAEEEEAAAQQQQAABBBBAYGwCBGJj8xvzq5944gkxH5H861//mrevL37xi3LNNdfkbWcDAggggAACCCCAAAIIIIAAAggggED5AgRi5duNyytPO+00Wbp0acF9mZvsH3zwwQWf5wkEEEAAAQQQQAABBBBAAAEEEEAAgdIECMRK8xrX0Xfeead86lOfKrrP+vp6aW9vLzqGJxFAAAEEEEAAAQQQQAABBBBAAAEE3AUIxNytxn3kQQcdJCtXrgzd74033iif+9znQscxAAEEEEAAAQQQQAABBBBAAAEEEEAgXIBALNwokhFXXnmlXHjhhU773nfffeX3v/+9TJ482Wk8gxBAAAEEEEAAAQQQQAABBBBAAAEECgsQiBW2ieyZtWvXSm1trTz77LPOc1xyySXyne98x3k8AxFAAAEEEEAAAQQQQAABBBBAAAEEggUIxIJdIt163nnnyY9+9KOS5pg6dar85je/kaqqqpJex2AEEEAAAQQQQAABBBBAAAEEEEAAgVwBArFcj8gf/frXv5ZDDjkkdJ66urq8+4udccYZsnjx4tDXMgABBBBAAAEEEEAAAQQQQAABBBBAoLAAgVhhm0ieOeGEE+Suu+7K2fexxx4rd999d842E4itXr1annvuuZztd9xxh5x00kk523iAAAIIIIAAAggggAACCCCAAAIIIOAuQCDmbjXmkT/5yU/k85//fN5+nnzySdlnn31ytptA7Oyzz5ampqac7ebdZQ8++GDONh4ggAACCCCAAAIIIIAAAggggAACCLgLEIi5W41p5IYNGzI30jffFpn9861vfUsuvfRSmTRpUvZmMYHYihUrpL6+XpYvX57z3BVXXCEXXHBBzjYeIIAAAggggAACCCCAAAIIIIAAAgi4CRCIuTmNedS3v/3tTPCVvaP99ttPenp6MpsKBWK//e1v5aMf/Wj2y2SPPfbI3GB/5513ztnOAwQQQAABBBBAAAEEEEAAAQQQQACBcAECsXCjcRkxY8YMefrpp3P2tWTJEvnsZz+b2VYoEDNPXnjhhXLllVfmvLa1tVUaGxtztvEAAQQQQAABBBBAAAEEEEAAAQQQQCBcgEAs3GhcRvz93/995ib5dmdz586V22+/3T4s+JFJM2DdunVy0EEHSX9//8h4+1HLkQ38ggACCCCAAAIIIIAAAggggAACCCDgJEAg5sQ09kHNzc1y/fXXZ3ZUU1MjN954o+y///4jOy72DjEz6KabbpLPfe5zmfHbb7+9rFmzRjbffPPMY/4fAggggAACCCCAAAIIIIAAAggggIC7AIGYu9WYR/7nf/6nPPPMM/K1r31Npk6dmrO/0YGYeUfYb37zm5wxJhT785//LHvttZeceOKJOc/xAAEEEEAAAQQQQAABBBBAAAEEEEDATYBAzM0p0lHDw8PygQ98IGeOoEAsZwAPEEAAAQQQQAABBBBAAAEEEEAAAQTKEiAQK4ttfF9EIDa+nuwNAQQQQAABBBBAAAEEEEAAAQQQKCZAIFZMJ6bnCMRigmYaBBBAAAEEEEAAAQQQQAABBBBA4D0BAjEFpwGBmIImUAICCCCAAAIIIIAAAggggAACCKRGgEBMQasJxBQ0gRIQQAABBBBAAAEEEEAAAQQQQCA1AgRiClpNIKagCZSAAAIIIIAAAggggAACCCCAAAKpESAQU9BqAjEFTaAEBBBAAAEEEEAAAQQQQAABBBBIjQCBmIJWE4gpaAIlIIAAAggggAACCCCAAAIIIIBAagQIxBS0mkBMQRMoAQEEEEAAAQQQQAABBBBAAAEEUiNAIKag1QRiCppACQgggAACCCCAAAIIIIAAAgggkBoBAjEFrX733Xdlk002yalk//33l8svvzyzbcaMGVJZWSn9/f0yODiYM848qK+vl3Xr1snDDz+c91xNTY1UVFRIV1eXrF+/Puf57bbbTmbPnl10v+YF99xzT87rzANbU7H9htXkY79JMyxWr+lD0gyD6nU5D8POpWLnoUbDoHpNP13+LgcZ2r+PxY51PA3XrFkju+66qyl55CfuGuzExsz8FHMJ8g477+zaWe5+w7yL7TeuPmYbFqrX9rUcw7H2plBNLr0Zi2FQb8LOF5e/u0kzDKrXnDMuxxpkaM+lsfQmqKZCvQlapwqNzf67YH4vVn+xGsZyzgbt19SSFG9Tq/kZ69/7QueHy9/7IEPb87H0plBNLr0pVlM5+7V/j8rdr+mRj/O7nGMt1nPb17HsV4Oh7afpCz8IIOBJ4L13J/HjWeCdd94Zfq/9Bf/va1/7WqZC82fQOPPkf//3fwc+Z7abn/eCr7znzTbzU2y/5vmgOW1NxfYbVpOP/RY71rB6ix1rsf2OxTCq/YYda7HeFKupnP26nIdh+/XRm7CaihkG1WvGm5+x7HcsvQmqKaw32cdo5jY/cdeQmfS9/5ddi/3d1lTOsZk+mB+7r+w/XfabpD6a4yxUr8uxFut5Eg2ze21/D/u7UMzQnkvlnIdmv+bH1pH9p0tvCvXV1pS9P/t7sf2aMeZnLPstdr6E7bccQ3tc5k+XPprjy36N/b2Yi91vWP12X9l/FtuvGWd+xrLfuL0zBb/3/7KP0f5e7FitYaF6jYH5sfvK/tNlv0kzLFSvy7EWMswAJtAwu9f297DzxRxrIUN7Lpl92P3ZP132a/Ztx2f/6dKboJpsPWa//CCAQPwCvEPsvZXM90/QO8S233572WuvvTKlnXnmmXLOOedIS0uLtLW15ZW7cuXKzDvA5s+fn/fcokWLMu8Ca2pqkscffzzn+QMOOECuv/76ovs1L6irq8t5nXlgayq2X/NfXorV5GO/STMsVq/pQ9IMg+p1OQ/DzqVi56FGw6B6TT9d/i4HGdq/j8WOdbwMBwYGZGhoSPbdd1/ZdtttTdmZnzhrsHOaP42Z+SnmEuQddt7ZtbPc/YZ5F9tvHH3MoP3t/xU772xfyzEca298GQb1Jux8KWZoz6WkGQbVa04Zl2MNMrTnUhznd6F1yqWP5hiL1R/kYvc7lnM2aL9J8TZ12p+x/r0vdH7Yv0c+elOoJpe/C0F9tedLOfu1f4/K3a/pU9IMg+odi6E9l3wbmnexrl69Wt4LxOSYY46xf4X4EwEEYhYgEIsZPGi6oEDsYx/7mPzv//5v0HC2IYAAAt4E2tvbpaOjQ5qbmzMf5fZWCBMjgAACBQRYpwrAsBkBBNQIsE6paQWFpFyAQEzBCUAgpqAJlIAAAk4C5r+o9vT0yIoVK5zGMwgBBBCIW8CuUwsXLsy8Sz7u+ZkPAQQQQAABBJIhQCCmoE8EYgqaQAkIIOAkMHPmTDEfRzIfFXnvXhtOr2EQAgggEKeAXadMIBZ064Y4a2EuBBBAIEjAfGR28eLFQnAfpMM2BOITIBCLz7rgTARiBWl4AgEElAn8/d//Pfe8UNYTykEAgVwBu07927/9m3zzm9/MfZJHCCCAgAKBf/qnf5LLL7+ce4gp6AUlpFuAQExB/wnEFDSBEhBAwEnAXmhyE1gnLgYhgIAHAbtOEYh5wGdKBBBwEiAQc2JiEAKRCxCIRU4cPgGBWLgRIxBAQIeAvdAkENPRD6pAAIF8AbtOEYjl27AFAQR0CBCI6egDVSBAIKbgHCAQU9AESkAAASeB6upq6e7u5i3+TloMQgABHwJ2neIeYj70mRMBBFwECMRclBiDQPQCBGLRG4fOQCAWSsQABBBQImBuAtvW1iaLFi3ipvpKekIZCCCQK8A6levBIwQQ0CfAOqWvJ1SUTgECMQV9f+edd2TTTTfNqeTjH/+4/PrXv87ZxgMEEEDAt4D5B9yqVatkwYIFvkthfgQQQCBQwK5TTU1NUllZGTiGjQgggAACCCCAAIGYgnOAQExBEygBAQScBOxHkYaGhqSiosLpNQxCAAEE4hSw69TSpUuloaEhzqmZCwEEEHAS6O/vl8HBQampqeHfU05iDEIgGgECsWhcS9orgVhJXAxGAAGPAvZm1dxU32MTmBoBBIoK2HWKm+oXZeJJBBDwKMA9xDziMzUCWQIEYlkYvn4lEPMlz7wIIFCqgL3QJBArVY7xCCAQl4BdpwjE4hJnHgQQKFWAQKxUMcYjEI0AgVg0riXtlUCsJC4GI4CARwF7oUkg5rEJTI0AAkUF7DpFIFaUiScRQMCjAIGYR3ymRiBLgEAsC8PXrwRivuSZFwEEShWwF5oEYqXKMR4BBOISsOsUgVhc4syDAAKlChCIlSrGeASiESAQi8a1pL0SiJXExWAEEPAoMG/ePFmyZIkQiHlsAlMjgEBRAbtOcVP9okw8iQACHgUIxDziMzUCWQIEYlkYvn4lEPMlz7wIIFCqgPlWpIGBAamtreVbkUrFYzwCCMQiwDoVCzOTIIDAGARYp8aAx0sRGEcBArFxxCx3VwRi5crxOgQQiFugrq5Ourq6ZHh4OO6pmQ8BBBBwErDrFO9kdeJiEAIIIIAAAqkVIBBT0HoCMQVNoAQEEHASsPfm4ULTiYtBCCDgQcCuU9xDzAM+UyKAgJMAH5l0YmIQApELEIhFThw+QVAgdvDBB8tDDz0U/mJGIIAAAjEK2AtNArEY0ZkKAQRKErDrFIFYSWwMRgCBGAUIxGLEZioEiggQiBXBieupDRs2yJQpU3KmIxDL4eABAggoEbAXmgRiShpCGQggkCdg1ykCsTwaNiCAgBIBAjEljaCM1AsQiCk4BQjEFDSBEhBAwEnAXmgSiDlxMQgBBDwI2HWKQMwDPlMigICTAIGYExODEIhcgEAscuLwCQjEwo0YgQACOgTq6+tl+fLlQiCmox9UgQAC+QJ2nWptbZXGxsb8AWxBAAEEPAsQiHluANMj8DcBAjEFpwKBmIImUAICCDgJtLe3S0dHhzQ3N0tlZaXTaxiEAAIIxCnAOhWnNnMhgEA5AqxT5ajxGgTGX4BAbPxNS94jgVjJZLwAAQQ8CTQ1NUlPT4+sWLHCUwVMiwACCBQXsOvUwoULZfbs2cUH8ywCCCCAAAIIpFaAQExB6wnEFDSBEhBAwEmgqqpKent7pa+vj3eIOYkxCAEE4haw6xQfmYxbnvkQQMBVwLxDrLOzU0yAzzvuXdUYh8D4CxCIjb9pyXskECuZjBcggIAnAXuzau4h5qkBTIsAAqECdp3ipvqhVAxAAAFPAtxDzBM80yIwSoBAbBSIj4cEYj7UmRMBBMoRsBeaBGLl6PEaBBCIQ8CuUwRicWgzBwIIlCNAIFaOGq9BYPwFCMTG37TkPRKIlUzGCxBAwJOAvdAkEPPUAKZFAIFQAbtOEYiFUjEAAQQ8CRCIeYJnWgRGCRCIjQLx8ZBAzIc6cyKAQDkC1dXV0t3dLQRi5ejxGgQQiEPArlPmpvrz58+PY0rmQAABBEoSIBAriYvBCEQmQCAWGa37jt9++23ZbLPNcl5w8MEHy0MPPZSzjQcIIICAbwH+Aee7A8yPAAJhAqxTYUI8jwACvgVYp3x3gPkReF+AQEzBmUAgpqAJlIAAAk4CXV1dsn79eqmvr3cazyAEEEAgbgG7TtXU1EhFRUXc0zMfAggggAACCCREgEBMQaMIxBQ0gRIQQMBJwH4UaWhoiAtNJzEGIYBA3AJ2nVq6dKk0NDTEPT3zIYAAAqEC/f39Mjg4KAT3oVQMQCBSAQKxSHnddk4g5ubEKAQQ8C9gb1bNPcT894IKEEAgWMCuU9xUP9iHrQgg4F+Aj0z67wEVIGAECMQUnAcEYgqaQAkIIOAkYC80CcScuBiEAAIeBOw6RSDmAZ8pEUDASYBAzImJQQhELkAgFjlx+AQEYuFGjEAAAR0C9kKTQExHP6gCAQTyBew6RSCWb8MWBBDQIUAgpqMPVIEAgZiCc4BATEETKAEBBJwE7IUmgZgTF4MQQMCDgF2nCMQ84DMlAgg4CRCIOTExCIHIBQjEIicOn4BALNyIEQggoENg3rx5smTJEiEQ09EPqkAAgXwBu05xU/18G7YggIAOAQIxHX2gCgQIxBScAwRiCppACQgg4CRgvhVpYGBAamtr+ZZJJzEGIYBA3AKsU3GLMx8CCJQqwDpVqhjjEYhGgEAsGteS9kogVhIXgxFAwKNAXV2ddHV1yfDwsMcqmBoBBBAoLGDXKd7JWtiIZxBAAAEEEECAb5lUcQ4QiKloA0UggICDgL03DxeaDlgMQQABLwJ2neIeYl74mRQBBBwE+MikAxJDEIhBgHeIxYAcNsVf/vIX2XzzzXOGHXLIIfLggw/mbOMBAggg4FvAXmgSiPnuBPMjgEAhAbtOEYgVEmI7Agj4FiAQ890B5kfgfQECMQVnAoGYgiZQAgIIOAnYC00CMScuBiGAgAcBu04RiHnAZ0oEEHASIBBzYmIQApELEIhFThw+AYFYuBEjEEBAh4C90CQQ09EPqkAAgXwBu04RiOXbsAUBBHQIEIjp6ANVIEAgpuAcIBBT0ARKQAABJ4H6+npZvny5EIg5cTEIAQQ8CNh1qrW1VRobGz1UwJQIIIBAcQECseI+PItAXAIEYnFJF5mHQKwIDk8hgIAqgfb2duno6JDm5maprKxUVRvFIIAAAkaAdYrzAAEEtAuwTmnvEPWlRYBATEGnCcQUNIESEEDASaClpUVWrVolCxYscBrPIAQQQCBuAbtONTU1EdzHjc98CCCAAAIIJEiAQExBswjEFDSBEhBAwEmgqqpKent7pa+vjwtNJzEGIYBA3AJ2neIjk3HLMx8CCLgKmHeIdXZ2CsG9qxjjEIhGgEAsGteS9kogVhIXgxFAwKOAvVk19xDz2ASmRgCBogJ2neKm+kWZeBIBBDwKcA8xj/hMjUCWAIFYFoavXwnEfMkzLwIIlCpgLzQJxEqVYzwCCMQlYNcpArG4xJkHAQRKFSAQK1WM8QhEI0AgFo1rSXslECuJi8EIIOBRwF5oEoh5bAJTI4BAUQG7ThGIFWXiSQQQ8ChAIOYRn6kRyBIgEMvC8PVrUCB26KGHygMPPOCrJOZFAAEEAgXshSaBWCAPGxFAQIGAXacIxBQ0gxIQQCBQgEAskIWNCMQuQCAWO3n+hG+99ZZsscUWOU8QiOVw8AABBJQI8A84JY2gDAQQKCjAOlWQhicQQECJAOuUkkZQRuoFCMQUnAIEYgqaQAkIIOAk0NXVJevXr5f6+nqn8QxCAAEE4haw61RNTY1UVFTEPT3zIYAAAggggEBCBAjEFDSKQExBEygBAQScBKqrq6W7u1uGhoa40HQSYxACCMQtYNeppUuXSkNDQ9zTMx8CCCAQKtDf3y+Dg4NCcB9KxQAEIhUgEIuU123nBGJuToxCAAH/AvbePNxDzH8vqAABBIIF7DrFPcSCfdiKAAL+BfjIpP8eUAECRoBATMF5QCCmoAmUgAACTgL2QpNAzImLQQgg4EHArlMEYh7wmRIBBJwECMScmBiEQOQCBGKRE4dPQCAWbsQIBBDQIWAvNAnEdPSDKhBAIF/ArlMEYvk2bEEAAR0CBGI6+kAVCBCIKTgHCMQUNIESEEDAScBeaBKIOXExCAEEPAjYdYpAzAM+UyKAgJMAgZgTE4MQiFyAQCxy4vAJCMTCjRiBAAI6BObNmydLliwRAjEd/aAKBBDIF7DrFDfVz7dhCwII6BAgENPRB6pAgEBMwTlAIKagCZSAAAJOAuZbkQYGBqS2tpZvmXQSYxACCMQtwDoVtzjzIYBAqQKsU6WKMR6BaAQIxKJxLWmvBGIlcTEYAQQ8CjQ1NUlPT4+sWLHCYxVMjQACCBQWsOvUwoULZfbs2YUH8gwCCCCAAAIIpFqAQExB+998803ZcsstcyqZM2eO3H///TnbeIAAAgj4Fpg5c2bmHWIrV67kQtN3M5gfAQQCBew6ZQKx+fPnB45hIwIIIOBToKWlRRYvXiwE9z67wNwIiBCIKTgLCMQUNIESEEDAScDerJp7iDlxMQgBBDwI2HWKm+p7wGdKBBBwEuAeYk5MDEIgcgECsciJwycgEAs3YgQCCOgQsBeaBGI6+kEVCCCQL2DXKQKxfBu2IICADgECMR19oAoECMQUnAMEYgqaQAkIIOAkYC80CcScuBiEAAIeBOw6RSDmAZ8pEUDASYBAzImJQQhELkAgFjlx+AQEYuFGjEAAAR0C1dXV0t3dLQRiOvpBFQggkC9g1ynuIZZvwxYEENAhQCCmow9UgQCBmIJzgEBMQRMoAQEEnATMTWDb2tpk0aJF3FTfSYxBCCAQtwDrVNzizIcAAqUKsE6VKsZ4BKIRIBCLxrWkvRKIlcTFYAQQ8Chg/gG3atUqWbBggccqmBoBBBAoLGDXqaamJqmsrCw8kGcQQAABBBBAINUCBGIK2k8gpqAJlIAAAk4CVVVV0tvbK319fVxoOokxCAEE4haw61Rra6s0NjbGPT3zIYAAAqEC7e3t0tnZKQT3oVQMQCBSAQKxSHnddk4g5ubEKAQQ8C9gb1bNPcT894IKEEAgWMCuU9xUP9iHrQgg4F+Ae4j57wEVIGAECMQUnAcEYgqaQAkIIOAkYC80CcScuBiEAAIeBOw6RSDmAZ8pEUDASYBAzImJQQhELkAgFjlx+AQEYuFGjEAAAR0C9kKTQExHP6gCAQTyBew6RSCWb8MWBBDQIUAgpqMPVIEAgZiCc+CNN96QrbbaKqeSww47TP7nf/4nZxsPEEAAAd8C9kKTQMx3J5gfAQQKCdh1ikCskBDbEUDAtwCBmO8OMD8C7wsQiCk4EwjEFDSBEhBAwEmAf8A5MTEIAQQ8CrBOecRnagQQcBJgnXJiYhACkQsQiEVOHD4BgVi4ESMQQECHQFdXl6xfv17q6+t1FEQVCCCAwCgBu07V1NRIRUXFqGd5iAACCCCAAAIIvC9AIKbgTCAQU9AESkAAASeBuro6MRebw8PDTuMZhAACCMQtYNcpPtodtzzzIYAAAgggkCwBAjEF/SIQU9AESkAAAScBe28eLjSduBiEAAIeBOw6xT3EPOAzJQIIOAnwkUknJgYhELkAgVjkxOETEIiFGzECAQR0CNgLTQIxHf2gCgQQyBew6xSBWL4NWxBAQIcAgZiOPlAFAgRiCs4BAjEFTaAEBBBwErAXmgRiTlwMQgABDwJ2nSIQ84DPlAgg4CRAIObExCAEIhcgEIucOHwCArFwI0YggIAOAXuhSSCmox9UgQAC+QJ2nSIQy7dhCwII6BAgENPRB6pAgEBMwTlAIKagCZSAAAJOAubbJZcvXy4EYk5cDEIAAQ8Cdp1qbW2VxsZGDxUwJQIIIFBcgECsuA/PIhCXAIFYXNJF5iEQK4LDUwggoEqgvb1dOjo6pLm5WSorK1XVRjEIIICAEWCd4jxAAAHtAqxT2jtEfWkRIBBT0OmgQOzwww+Xzs5OBdVRAgIIILBRoKmpSXp6emTFihUbN/IbAgggoEjArlMLFy6U2bNnK6qMUhBAAAEEEEBAkwCBmIJuvP7667L11lvnVEIglsPBAwQQUCIwc+ZMGRgYkJUrV3KhqaQnlIEAArkCdp0ygdj8+fNzn+QRAgggoECgpaVFFi9eLAT3CppBCakWIBBT0H4CMQVNoAQEEHASsDer5h5iTlwMQgABDwJ2neKm+h7wmRIBBJwEuIeYExODEIhcgEAscuLwCQjEwo0YgQACOgTshSaBmI5+UAUCCOQL2HWKQCzfhi0IIKBDgEBMRx+oAgECMQXnAIGYgiZQAgIIOAnYC00CMScuBiGAgAcBu04RiHnAZ0oEEHASIBBzYmIQApELEIhFThw+AYFYuBEjEEBAh0B1dbV0d3cLgZiOflAFAgjkC9h1inuI5duwBQEEdAgQiOnoA1UgQCCm4BwgEFPQBEpAAAEnAXMT2La2Nlm0aBE31XcSYxACCMQtwDoVtzjzIYBAqQKsU6WKMR6BaAQIxKJxLWmvBGIlcTEYAQQ8Cph/wK1atUoWLFjgsQqmRgABBAoL2HWqqalJKisrCw/kGQQQQAABBBBItQCBWITtf/TRR2WfffaRLbbYougsBGJFeXgSAQQUCdiPIg0NDUlFRYWiyigFAQQQeF/ArlNLly6VhoYGWBBAAAF1Av39/TI4OCg1NTX8e0pddygoTQIEYhF1+5133pFjjz1Wrr32Wpk+fXrRWQjEivLwJAIIKBKwN6vmHmKKmkIpCCCQI2DXKW6qn8PCAwQQUCTAPcQUNYNSUi1AIFZm+81Hhi677DLp6uqS9evXy4YNG3L2tGbNmszjp59+mkAsR4YHCCCQZAF7oUkgluQuUjsCE1vArlMEYhO7zxwdAkkWIBBLcveofSIJEIiV2c0999wz8zbXsJe7BGKvvvqqbLvttjm7+sQnPiEdHR0523iAAAII+BawF5oEYr47wfwIIFBIwK5TBGKFhNiOAAK+BQjEfHeA+RF4X4BArIwz4bHHHpNZs2bJjBkz5PLLL8/csHXKlCk5e3rllVfkzDPPlLvvvjv0HWIEYjl0PEAAAcUC9kKTQExxkygNgZQL2HWKQCzlJwKHj4BiAQIxxc2htFQJEIiV0e4XX3xRdtppJ7nqqqvkvPPOK7iH6667TubOnSs77LBDwTHmCQKxojw8iQACigT4B5yiZlAKAggECrBOBbKwEQEEFAmwTilqBqWkWoBArMz2m6Brm222kba2toJ7uOGGG+TEE0+UadOmFRxjniAQK8rDkwggoEjAfCvSwMCA1NbW8q1IivpCKQggsFGAdWqjBb8hgIBOAdYpnX2hqvQJEIiF9NzcLP/ll1/OG2VCrMMPP1wuueQSOemkk3KeHx4elqGhIfnMZz4jd9xxBx+ZzNHhAQIIJFmgrq4u82UiZp3jBwEEENAoYNcpPtqtsTvUhAACCCCAgB4BArGQXixevDhzL7CQYQWf5qb6BWl4AgEEEihg783DhWYCm0fJCKREwK5T3EMsJQ3nMBFIoAAfmUxg0yh5QgoQiIW01bzTK+weYMV2QSBWTIfnEEAgaQL2QpNALGmdo14E0iNg1ykCsfT0nCNFIGkCBGJJ6xj1TlQBAjGHzp5xxhlSVVUlF198sUyaNMnhFe/fF+zoo4+WW265hY9MOokxCAEEkiBgLzQJxJLQLWpEIJ0Cdp0iEEtn/zlqBJIgQCCWhC5RYxoECMQcutzd3Z25j9icOXMcRm8c0tnZmbnxtLn5frEfbqpfTIfnEEBAk4C90CQQ09QVakEAgWwBu04RiGWr8DsCCGgSIBDT1A1qSbMAgdgYun/nnXfKqlWr5JxzzpHJkydn9nTqqafKYYcdJvPmzct8C6XL7gnEXJQYgwACGgTq6+tl+fLlQiCmoRvUgAACQQJ2nWptbZXGxsagIWxDAAEEvAoQiHnlZ3IERgQIxEYoSvtl0aJF8tWvfjXzogceeEAOPfTQzO8vvviinH322fLUU0+JCcz23Xff0B0TiIUSMQABBJQItLe3S0dHhzQ3N0tlZaWSqigDAQQQ2CjAOrXRgt8QQECnAOuUzr5QVfoECMTK7PkBBxwgPT09MmvWLLn//vtlu+22G9nT66+/Ln/3d38nu+66q5iPW06ZMmXkuaBfXnnlFZk6dWrOU0cccYTcd999Odt4gAACCPgWaGpqyqx9K1as8F0K8yOAAAKBAnadWrhwocyePTtwDBsRQAABBBBAAAECsTLOgYGBAZk5c2Ym7DKBWNDPpz/9afn5z3+e+WjRUUcdFTRkZBuB2AgFvyCAgHIBs/aZNXDlypVcaCrvFeUhkFYBu06ZQGz+/PlpZeC4EUBAsUBLS4ssXrxYCO4VN4nSUiFAIFZGm5988kkxN9hfs2aNbLLJJoF7OPzwwzPvHPvxj3+cucdY4KC/bSQQK6bDcwggoEnA3qyae4hp6gq1IIBAtoBdp7ipfrYKvyOAgCYB7iGmqRvUkmYBArEyuj88PCzbb7+9XH311Zmb54/exfe//335xje+kdlsPk4Z9u2UBGKjBXmMAAJaBeyFJoGY1g5RFwII2HWKQIxzAQEEtAoQiGntDHWlTYBArMyOmzDs/PPPz9xA3wReW2+9deZjREuWLJHf//73mb2aj1M+8sgjBd9FZqcmELMS/IkAAtoF7IUmgZj2TlEfAukVsOsUgVh6zwGOHAHtAgRi2jtEfWkRIBAbQ6e//vWvyw9+8IPAPdTU1Mhtt90m5h9lYT8EYmFCPI8AAloEqqurM/dPJBDT0hHqQACB0QJ2neIeYqNleIwAAloECMS0dII60i5AIDbGM8B8i+SyZcvE3FfsjTfeyNxs/+Mf/7iceuqpMmnSJKe9E4g5MTEIAQQUCJibwLa1tcmiRYu4qb6CflACAgjkC7BO5ZuwBQEEdAmwTunqB9WkV4BATEHvCcQUNIESEEDASaCrq0vWr18v9fX1TuMZhAACCMQtYNcp8279ioqKuKdnPgQQQAABBBBIiACB2BgatWHDBrn++uszX5nb29ub+UeXeXfYEUccIWeeeSbvEBuDLS9FAAGdAvajSENDQ1xo6mwRVSGQegG7Ti1dulQaGhpS7wEAAgjoE+jv75fBwUEhuNfXGypKlwCBWJn9fv311+Xwww+X3/72t4F7MP8AMx8r2nzzzQOfz97IO8SyNfgdAQQ0C9ibVXMPMc1dojYE0i1g1yluqp/u84CjR0CzAPcQ09wdakuTAIFYmd027wBbvHhx5tVnn3227LfffrLbbrvJm2++KebdYq2trVJbWyt33XVX6Awvv/yybLfddjnjjjzySLn33ntztvEAAQQQ8C1gLzQJxHx3gvkRQKCQgF2nCMQKCbEdAQR8CxCI+e4A8yPwvgCBWBlngg2wTj75ZLnmmmtk2rRpeXtZu3atfOQjH5EnnnhCpk6dmvd89ga7v+xtBGLZGvyOAAJaBOyFJoGYlo5QBwIIjBaw6xSB2GgZHiOAgBYBAjEtnaCOtAsQiJVxBjz88MNy3HHHybPPPiuTJ08uuIcTTjhBzjrrLDnllFMKjjFPEIgV5eFJBBBQJGAvNAnEFDWFUhBAIEfArlMEYjksPEAAAUUCBGKKmkEpqRYgECuj/SYImzNnjgwMDBR8tbkvWGVlpXzve98T85HKYj8EYsV0eA4BBDQJzJs3T5YsWSIEYpq6Qi0IIJAtYNcpbqqfrcLvCCCgSYBATFM3qCXNAgRiZXa/qqpKvvzlL8t5552Xt4eVK1dKY2Nj5l5i3d3dMmvWrLwx2RsIxLI1+B0BBDQLmG9FMv8xwNwjsaKiQnOp1IYAAikVYJ1KaeM5bAQSJMA6laBmUeqEFiAQK7O9N954Yyb02n///eXAAw+UXXfdVZ5//nn53e9+lwnCzG7Nxyq5qX6ZwLwMAQRUCtTV1UlXV5cMDw+rrI+iEEAAAbtO8U5WzgUEEEAAAQQQKCZAIFZMJ+S5ZcuWSUNDQ+Co+vp6ue2222SrrbYKfD57I+8Qy9bgdwQQ0Cxg783DhabmLlEbAukWsOsU9xBL93nA0SOgWYCPTGruDrWlSYBAbIzdXr16tdx3333ywAMPyIsvvigzZsyQuXPnyhFHHOG8ZwIxZyoGIoCAZwF7oUkg5rkRTI8AAgUF7DpFIFaQiCcQQMCzAIGY5wYwPQJ/EyAQi/BUePTRR2WfffaRLbbYougsBGJFeXgSAQQUCdgLTQIxRU2hFAQQyBGw6xSBWA4LDxBAQJEAgZiiZlBKqgUIxCJq/zvvvCPHHnusXHvttTJ9+vSisxCIFeXhSQQQUCRgLzQJxBQ1hVIQQCBHwK5TBGI5LDxAAAFFAgRiippBKakWIBArs/2rVq2Syy67LHNz6fXr18uGDRty9rRmzZrM46effppALEeGBwggkGQBc3/E5cuXC4FYkrtI7QhMbAG7TrW2tma+AGliHy1HhwACSRQgEEti16h5IgoQiJXZ1T333FMGBwdDX+0SiJlAbfvtt8/Z11FHHZW56MzZyAMEEEDAs0B7e7t0dHRIc3OzVFZWeq6G6RFAAIF8AdapfBO2IICALgHWKV39oJr0ChCIldH7xx57TGbNmpW5gf7ll1+euSicMmVKzp5eeeUVOfPMM+Xuu+8OfYcYgVgOHQ8QQECxQEtLi5h3yC5YsEBxlZSGAAJpFrDrVFNTE8F9mk8Ejh0BBBBAAIEQAQKxEKCgp823Se60005y1VVXyXnnnRc0JLPtuuuuy3zj5A477FBwjHmCQKwoD08igIAigaqqKunt7ZW+vj4uNBX1hVIQQGCjgF2n+MjkRhN+QwABXQLmHWKdnZ1CcK+rL1STPgECsTJ7PnfuXNlmm22kra2t4B5uuOEGOfHEE2XatGkFx5gnCMSK8vAkAggoErA3q+YeYoqaQikIIJAjYNcpbqqfw8IDBBBQJMA9xBQ1g1JSLUAgFtJ+c7N88y2Qo39effVVOfzww+WSSy6Rk046Kefp4eFhGRoaks985jNyxx138JHJHB0eIIBAkgXshSaBWJK7SO0ITGwBu04RiE3sPnN0CCRZgEAsyd2j9okkQCAW0s3Fixdn7gUWMqzg09xUvyANTyCAQAIF7IUmgVgCm0fJCKREwK5TBGIpaTiHiUACBQjEEtg0Sp6QAgRiIW017/QKuwdYsV0QiBXT4TkEEEiagL3QJBBLWueoF4H0CNh1ikAsPT3nSBFImgCBWNI6Rr0TVYBAzKGzZ5xxhpgbtF588cUyadIkh1eImI9UHn300XLLLbfwkUknMQYhgEASBPgHXBK6RI0IpFuAdSrd/efoEUiCAOtUErpEjWkQIBBz6HJ3d3fmPmJz5sxxGL1xiPnmkNra2szN9zduzf+Nm+rnm7AFAQR0CnR1dWW+CKS+vl5ngVSFAAKpF7DrVE1NjVRUVKTeAwAEEEAAAQQQCBYgEAt2iXUrgVis3EyGAAJjEKiurhbzHwnMx8m50BwDJC9FAIHIBOw6tXTpUmloaIhsHnaMAAIIlCvQ398vg4ODQnBfriCvQ2B8BAjExsdxTHshEBsTHy9GAIEYBey9ebiHWIzoTIUAAiUJ2HWKe4iVxMZgBBCIUYCPTMaIzVQIFBEgECuCE9dTL730knzwgx/Mmc7cf+yee+7J2cYDBBBAwLeAvdAkEPPdCeZHAIFCAnadIhArJMR2BBDwLUAg5rsDzI/A+wIEYgrOBAIxBU2gBAQQcBKwF5oEYk5cDEIAAQ8Cdp0iEPOAz5QIIOAkQCDmxMQgBCIXIBCLnDh8AgKxcCNGIICADgF7oUkgpqMfVIEAAvkCdp0iEMu3YQsCCOgQIBDT0QeqQIBATME5QCCmoAmUgAACTgLz5s2TJUuWCIGYExeDEEDAg4Bdp7ipvgd8pkQAAScBAjEnJgYhELkAgVjkxOETEIiFGzECAQR0CJhvRRoYGJDa2lq+ZVJHS6gCAQRGCbBOjQLhIQIIqBNgnVLXEgpKqQCBmILGE4gpaAIlIICAk0BdXZ10dXXJ8PCw03gGIYAAAnEL2HWKd7LGLc98CCCAAAIIJEuAQExBvwjEFDSBEhBAwElg5syZmXeIrVy5UmbPnu30GgYhgAACcQrYdWrhwoUyf/78OKdmLgQQQMBJoKWlRRYvXixmneLfU05kDEIgEgECsUhYS9spgVhpXoxGAAF/AvZm1bzzwl8PmBkBBIoL2HWKm+oXd+JZBBDwJ8A9xPzZMzMC2QIEYtkann4nEPMEz7QIIFCygL3QJBArmY4XIIBATAJ2nSIQiwmcaRBAoGQBArGSyXgBApEIEIhFwlraTgnESvNiNAII+BOwF5oEYv56wMwIIFBcwK5TBGLFnXgWAQT8CRCI+bNnZgSyBQjEsjU8/b5u3TqZNm1azuxHH3203HPPPTnbeIAAAgj4Fqiurpbu7m4hEPPdCeZHAIFCAnad4h5ihYTYjgACvgUIxHx3gPkReF+AQEzBmUAgpqAJlIAAAk4C5iawbW1tsmjRIm4C6yTGIAQQiFuAdSpuceZDAIFSBVinShVjPALRCBCIReNa0l4JxEriYjACCHgUMP+AW7VqlSxYsMBjFUyNAAIIFBaw61RTU5NUVlYWHsgzCCCAAAIIIJBqAQIxBe0nEFPQBEpAAAEngaqqKunt7ZW+vj4uNJ3EGIQAAnEL2HWqtbVVGhsb456e+RBAAIFQgfb2duns7BSC+1AqBiAQqQCBWKS8bjsnEHNzYhQCCPgXsDer5h5i/ntBBQggECxg1yluqh/sw1YEEPAvwD3E/PeAChAwAgRiCs4DAjEFTaAEBBBwErAXmgRiTlwMQgABDwJ2nSIQ84DPlAgg4CRAIObExCAEIhcgEIucOHwCArFwI0YggIAOAXuhSSCmox9UgQAC+QJ2nSIQy7dhCwII6BAgENPRB6pAgEBMwTlAIKagCZSAAAJOAvZCk0DMiYtBCCDgQcCuUwRiHvCZEgEEnAQIxJyYGIRA5AIEYpETh09AIBZuxAgEENAhwD/gdPSBKhBAoLAA61RhG55BAAEdAqxTOvpAFQgQiCk4BwjEFDSBEhBAwEmgq6tL1q9fL/X19U7jGYQAAgjELWDXqZqaGqmoqIh7euZDAAEEEEAAgYQIEIgpaBSBmIImUAICCDgJVFdXS3d3twwNDXGh6STGIAQQiFvArlNLly6VhoaGuKdnPgQQQCBUoL+/XwYHB4XgPpSKAQhEKkAgFimv287NheUOO+yQM9i8+6K9vT1nGw8QQAAB3wL23jzcQ8x3J5gfAQQKCdh1inuIFRJiOwII+BbgI5O+O8D8CLwvQCCm4EwgEFPQBEpAAAEnAXuhSSDmxMUgBBDwIGDXKQIxD/hMiQACTgIEYk5MDEIgcgECsciJwycgEAs3YgQCCOgQsBeaBGI6+kEVCCCQL2DXKQKxfBu2IICADgECMR19oAoECMQUnAMEYgqaQAkIIOAkYC80CcScuBiEAAIeBOw6RSDmAZ8pEUDASYBAzImJQQhELkAgFjlx+AQEYuFGjEAAAR0C8+bNkyVLlgiBmI5+UAUCCOQL2HWKm+rn27AFAQR0CBCI6egDVSBAIKbgHCAQU9AESkAAAScB82UfHR0d0tzcLJWVlU6vYRACCCAQpwDrVJzazIUAAuUIsE6Vo8ZrEBh/AQKx8TcteY8EYiWT8QIEEPAk0NTUJD09PbJixQpPFTAtAgggUFzArlMLFy6U2bNnFx/MswgggAACCCCQWgECMQWtJxBT0ARKQAABJ4GZM2fKwMCArFy5kgtNJzEGIYBA3AJ2nTKB2Pz58+OenvkQQACBUIGWlhZZvHixENyHUjEAgUgFCMQi5XXbOYGYmxOjEEDAv4C9WTX3EPPfCypAAIFgAbtOcVP9YB+2IoCAfwHuIea/B1SAgBEgEFNwHhCIKWgCJSCAgJOAvdAkEHPiYhACCHgQsOsUgZgHfKZEAAEnAQIxJyYGIRC5AIFY5MThExCIhRsxAgEEdAjYC00CMR39oAoEEMgXsOsUgVi+DVsQQECHAIGYjj5QBQIEYgrOgT//+c+y44475lRyzDHHiLng5AcBBBDQJFBdXS3d3d2Z9cmsU/wggAAC2gTsOsU9xLR1hnoQQMAKEIhZCf5EwK8AgZhf/8zsBGIKmkAJCCDgJGBuAtvW1iaLFi3ipvpOYgxCAIG4BVin4hZnPgQQKFWAdapUMcYjEI0AgVg0riXtlUCsJC4GI4CARwHzD7hVq1bJggULPFbB1AgggEBhAbtONTU1SWVlZeGBPIMAAggggAACqRYgEFPQfgIxBU2gBAQQcBKoqqqS3t5e6evr40LTSYxBCCAQt4Bdp1pbW6WxsTHu6ZkPAQQQCBVob2+Xzs5OIbgPpWIAApEKEIhFyuu2cwIxNydGIYCAfwF7s2puqu+/F1SAAALBAnad4qb6wT5sRQAB/wLcQ8x/D6gAASNAIKbgPCAQU9AESkAAAScBe6FJIObExSAEEPAgYNcpAjEP+EyJAAJOAgRiTkwMQiByAQKxyInDJyAQCzdiBAII6BCwF5oEYjr6QRUIIJAvYNcpArF8G7YggIAOAQIxHX2gCgQIxBScAwRiCppACQgg4CRgLzQJxJy4GIQAAh4E7DpFIOYBnykRQMBJgEDMiYlBCEQuQCAWOXH4BARi4UaMQAABHQL8A05HH6gCAQQKC7BOFbbhGQQQ0CHAOqWjD1SBAIGYgnOAQExBEygBAQQQQAABBBBAAAEEEEAAAQRSI0AgpqDVL774ouy00045lRxzzDFiPpLEDwIIIKBJoK6uTrq6umR4eFhTWdSCAAIIjAjYdYqPdo+Q8AsCCCCAAAIIBAgQiAWgxL0pKBD75Cc/KXfffXfcpTAfAgggUFTA3puHC82iTDyJAAIeBew6xT3EPDaBqRFAoKgAH5ksysOTCMQmQCAWG3XhiQjECtvwDAII6BKwF5oEYrr6QjUIILBRwK5TBGIbTfgNAQR0CRCI6eoH1aRXgEBMQe8JxBQ0gRIQQMBJwF5oEog5cTEIAQQ8CNh1ikDMAz5TIoCAkwCBmBMTgxCIXIBALHLi8AkIxMKNGIEAAjoE7IUmgZiOflAFAgjkC9h1ikAs34YtCCCgQ4BATEcfqAIBAjEF5wCBmIImUAICCDgJ1NfXy/LlyzNf+mG+/IMfBBBAQJuAXadaW1ulsbFRW3nUgwACCAiBGCcBAjoECMQU9IFATEETKAEBBJwE2tvbpaOjQ5qbm6WystLpNQxCAAEE4hRgnYpTm7kQQKAcAdapctR4DQLjL0AgNv6mJe+RQKxkMl6AAAKeBJqamqSnp0dWrFjhqQKmRQABBIoL2HVq4cKFMnv27OKDeRYBBBBAAAEEUitAIKag9QRiCppACQgg4CQwc+ZMGRgYkJUrV3Kh6STGIAQQiFvArlMmEJs/f37c0zMfAgggECrQ0tIiixcvFoL7UCoGIBCpAIFYpLxuOycQc3NiFAII+BewN6vmpvr+e0EFCCAQLGDXKW6qH+zDVgQQ8C/APcT894AKEDACBGIKzgMCMQVNoAQEEHASsBeaBGJOXAxCAAEPAnadIhDzgM+UCCDgJEAg5sTEIAQiFyAQi5w4fIIXXnhBdt5555yBxx57rPzqV7/K2cYDBBBAwLeAvdAkEPPdCeZHAIFCAnadIhArJMR2BBDwLUAg5rsDzI/A+wIEYgrOBAIxBU2gBAQQcBKorq6W7u5uIRBz4mIQAgh4ELDrFPcQ84DPlAgg4CRAIObExCAEIhcgEIucOHwCArFwI0YggIAOAXMT2La2Nlm0aBE31dfREqpAAIFRAqxTo0B4iAAC6gRYp9S1hIJSKkAgpqDxBGIKmkAJCCDgJNDV1SXr16+X+vp6p/EMQgABBOIWsOtUTU2NVFRUxD098yGAAAIIIIBAQgQIxBQ0ikBMQRMoAQEEnATsR5GGhoa40HQSYxACCMQtYNeppUuXSkNDQ9zTMx8CCCAQKtDf3y+Dg4NCcB9KxQAEIhUgEIuU123nBGJuToxCAAH/AvZm1dxDzH8vqAABBIIF7DrFTfWDfdiKAAL+BbiHmP8eUAECRoBATMF5QCCmoAmUgAACTgL2QpNAzImLQQgg4EHArlMEYh7wmRIBBJwECMScmBiEQOQCBGKRE4dPQCAWbsQIBBDQIWAvNAnEdPSDKhBAIF/ArlMEYvk2bEEAAR0CBGI6+kAVCBCIKTgHCMQUNIESEEDAScBeaBKIOXExCAEEPAjYdYpAzAM+UyKAgJMAgZgTE4MQiFyAQCxy4vAJCMTCjRiBAAI6BObNmydLliwRAjEd/aAKBBDIF7DrFDfVz7dhCwII6BAgENPRB6pAgEBMwTlAIKagCZSAAAJOAuZbkQYGBqS2tpZvmXQSYxACCMQtwDoVtzjzIYBAqQKsU6WKMR6BaAQIxKJxLWmva9eulV122SXnNccdd5zcddddOdt4gAACCPgWqKurk66uLhkeHvZdCvMjgAACgQJ2neKdrIE8bEQAAQQQQACBvwkQiCk4FQjEFDSBEhBAwEnA3puHC00nLgYhgIAHAbtOcQ8xD/hMiQACTgJ8ZNKJiUEIRC5AIBY5cfgEBGLhRoxAAAEdAvZCk0BMRz+oAgEE8gXsOkUglm/DFgQQ0CFAIKajD1SBAIGYgnOAQExBEygBAQScBOyFJoGYExeDEEDAg4BdpwjEPOAzJQIIOAkQiDkxMQiByAUIxCInDp+AQCzciBEIIKBDwF5oEojp6AdVIIBAvoBdpwjE8m3YggACOgQIxHT0gSoQIBBTcA4QiCloAiUggICTQH19vSxfvlwIxJy4GIQAAh4E7DrV2toqjY2NHipgSgQQQKC4AIFYcR+eRSCIsG+SAAA5qUlEQVQuAQKxuKSLzEMgVgSHpxBAQJVAe3u7dHR0SHNzs1RWVqqqjWIQQAABI8A6xXmAAALaBVintHeI+tIiQCCmoNMEYgqaQAkIIOAk0NTUJD09PbJixQqn8QxCAAEE4haw69TChQtl9uzZcU/PfAgggAACCCCQEAECMQWNIhBT0ARKQAABJ4Gqqirp7e2Vvr4+3iHmJMYgBBCIW8CuU3xkMm555kMAAVcB8w6xzs5OMQE+77h3VWMcAuMvQCA2/qYl75FArGQyXoAAAp4E7M2quYeYpwYwLQIIhArYdYqb6odSMQABBDwJcA8xT/BMi8AoAQKxUSA+Hj7//POy66675kx93HHHyV133ZWzjQcIIICAbwF7oUkg5rsTzI8AAoUE7DpFIFZIiO0IIOBbgEDMdweYH4H3BQjEFJwJQYHY8ccfL7/85S8VVEcJCCCAwEYBe6FJILbRhN8QQECXgF2nCMR09YVqEEBgowCB2EYLfkPApwCBmE/9v81NIKagCZSAAAJOAvZCk0DMiYtBCCDgQcCuUwRiHvCZEgEEnAQIxJyYGIRA5AIEYpETh09AIBZuxAgEENAhwD/gdPSBKhBAoLAA61RhG55BAAEdAqxTOvpAFQgQiCk4BwjEFDSBEhBAwEmgq6tL1q9fL/X19U7jGYQAAgjELWDXqZqaGqmoqIh7euZDAAEEEEAAgYQIEIgpaBSBmIImUAICCDgJVFdXS3d3twwNDXGh6STGIAQQiFvArlNLly6VhoaGuKdnPgQQQCBUoL+/XwYHB4XgPpSKAQhEKqAmEHv33XdlzZo1mW9b/MAHPpB30Ob5t99+WzbffPO855K+gUAs6R2kfgTSI2DvzcM9xNLTc44UgaQJ2HWKe4glrXPUi0B6BPjIZHp6zZHqFlATiPX29kpVVZU88cQTsu++++apPfXUU3LaaafJTTfdJLNmzcp7PskbCMSS3D1qRyBdAvZCk0AsXX3naBFIkoBdpwjEktQ1akUgXQIEYunqN0erVyAxgZghvPbaa+Xb3/62rF27ViZNmqRXtcTKggKxD3/4w3LKKadk9rTzzjtn3jln30H36quvinmbrf0xY80287PNNtuICQ9ff/31zOPKysrMNvta86fxMz9bbbWV7L333iPvzAvarxlnto/e7+iagvZrX2f28bvf/c78kfkZXVN2vaP3m12TrddsMz+mpvHYr9nXaMOg/b722muy9dZbZ7ziMrR9MzVm12TqNT/2+WKGhXpjXl+OoXXI7o3Zl4uhrTeoJvtc2H6zj3X0uVTqfk3ddt7s/Y4+D4P2a+o0fuYnuzejayq237BjLbbf7JpG1zte+7V/56yR2W9zc7O89NJL8t3vfld22WWXkfUkzhpGr3+mB7YfxbyzzUYf23j10e7X1GN+yvk7lu09+ljD9mv/fhY7VrOPYvsdL0PWqfH732F7TpTaG/v3YrzOb7Ofctf68VgjXM9vu059/vOfl0MOOWRknbJ/P61n0N8Fc4z2+bR7Wwfzp+9/95T7v62252Frpz3WYj0POl/C9ut6zrImh//vZannYXZvsvs6+lwqdb9mjTD7Nv/7nr3f0Wtc0H7t68w+LrvsMnnggQeE/8BoNPhBwJ+A10DsK1/5ivT19WWO3vwPxsqVK6Wuri4TOowmeeutt+Txxx+Xl19+WR555JHMP8hGj0nq46BAbLyPZfvtt89cxKZ9v2M5/t12201Wr149ll0EvjZpvYnKIRDHcWPSDKOq15ErcJiGmqKqIWn7DWyQ48ao/n4mzTAqB8c2BA5LmmFU9QbiOG7U0NeoXKLaryNt4LCoakrafgNxHDdGdc4mzTAqB8c2BA7TYsg7WQPbw0YEYhPwGog9+eSTcvrpp8ujjz5a0gGbxN28M2Gi/AQFYrvuuqtssskmmUM070radttt5ZVXXpHjjjsu81/pzH9RsD9m7F/+8hfZf//9xfzXifvuu0/WrVuXedp8u9Jmm20mkydPzoSNjz32mJiPp5qfKVOmyLRp04ru14wz/yVl9H5tTcX2a2o68sgjzS7k5z//eeZP8/9sTVOnTpUDDzwwp97R+zX/RdIeq603+1hL3a+rYdB+99hjD/nQhz4kcRraeo1bdk2m5+bHxTCo3rEYfvCDH5T99tsv9DzMrnd0z4Nqssea3XNzjFGf32MxHM/zO+hYXQ3t3xtXw6D9Fvu7nL3f2267Td5880056aSTMn/a9STOGuyaYM3Mn+WuU/bYzD6CXFzOj+xzNqnrVPaakP2/IbavLufHaEPWqfH732GX8zBoXR3v/x02PR69Jhf7e5Ndkz2X7N+57L83rvt1/d/hO+64Q8x/aDXvtDfz2XXK/v0sVoOpBW9//3a0vTF9KHZuFVunss8t2/PsNa7U/dqasvdr6nP5u+B6zo7+37Xseosda/bfMXustt7RhqzJ47cml/tvjuw1ubW1NfNmBfNnY2OjaRc/CCDgQcBrIGaOd8OGDXLBBRfIj370I6fDP/nkk2XZsmVOY5My6LnnnssELdn1nnDCCfKLX/wiexO/I4AAAt4FzMc6BgYGpLa2lm+Z9N4NCkAAgSAB1qkgFbYhgIAmAdYpTd2gljQLeA/ELP5nP/tZ+elPfyrmfg877LCD3Tzy56abbiozZ86Us846S4K+hXJkYAJ/IRBLYNMoGYGUCpiPtXd1dcnw8HBKBThsBBDQLmDXKe7No71T1IcAAggggIBfATWB2Ntvv535Fskf/vCHMn369IIq5uOFO+6448jHCQsOTNATBGIJahalIpByAfvtbVxopvxE4PARUCxg1ynuzaO4SZSGQMoF+JbJlJ8AHL4aATWB2BtvvCGrVq2SqqqqgjgmNPvoRz8q5t4QxUKzgjtQ+gSBmNLGUBYCCOQJ2AtNArE8GjYggIASAbtOEYgpaQhlIIBAngCBWB4JGxDwIqAmEDM3PP3qV78q99xzTyCE+Zy1uQH/ww8/LE8//TSBWKASGxFAAIFoBeyFJoFYtM7sHQEEyhew6xSBWPmGvBIBBKIVIBCL1pe9I+AqoCoQM+8Ou/nmmzPBV/YBtLS0yFe+8pWRTQRiIxT8ggACCMQqYC80CcRiZWcyBBAoQcCuUwRiJaAxFAEEYhUgEIuVm8kQKCigLhAzldoLrWeffTZzk33zdcPZPwRi2Rr8jgACCMQnUF9fL8uXLx9Zp+ObmZkQQAABNwG7TrW2tkpjY6PbixiFAAIIxChAIBYjNlMhUERAVSB20kknybx58+SKK66QL3/5y/If//Ef8vLLL4+UP3XqVNlss80y33DGPcRGWPgFAQQQiE3AvGO3ra1NFi1aJLNnz45tXiZCAAEEXAVYp1ylGIcAAr4EWKd8yTMvArkCagIxE3x1d3fLnDlzMu88OPbYY3MqPfHEE+X666/PBGS77767TJkyJef5JD/gpvpJ7h61I5AuAfMPOPMFKAsWLEjXgXO0CCCQGAG7TjU1NUllZWVi6qZQBBBAAAEEEIhXQE0gNvqwf/WrX8nxxx+f2fyTn/xEzjrrrMzvCxculDPOOEOmTZs2+iWJfUwgltjWUTgCqRMw93o0X4LS19fHhWbqus8BI5AMAbtO8ZHJZPSLKhFIo0B7e7t0dnYKwX0au88xaxLwFojdcMMN8uijjxa1uPvuu2VwcFC+9KUvyaabbiovvfRS5qb73EOsKBtPIoAAApEJ2JtV23s9RjYRO0YAAQTKFLDrFDfVLxOQlyGAQOQC3EMscmImQMBJwFsgdvLJJ8vtt9/uVOToQRMtEDNfHrDbbrvlHKb5iOidd96Zs40HCCCAgG8Be6FJIOa7E8yPAAKFBOw6RSBWSIjtCCDgW4BAzHcHmB+B9wUIxBScCQRiCppACQgg4CRgLzQJxJy4GIQAAh4E7DpFIOYBnykRQMBJgEDMiYlBCEQu4DUQMzfR33vvvWXy5MmhB/ruu+/Ka6+9Jvfff7/wDrFQLgYggAACkQjYC00CsUh42SkCCIyDgF2nCMTGAZNdIIBAJAIEYpGwslMEShbwFoh961vfytwb7EMf+lBJRV900UVywQUXyE477VTS6zQP5h1imrtDbQggkC3AP+CyNfgdAQQ0CrBOaewKNSGAQLYA61S2Br8j4E/AWyDm75D1zUwgpq8nVIQAAsECXV1dsn79eqmvrw8ewFYEEEDAs4Bdp2pqaqSiosJzNUyPAAIIIIAAAloF1AViDz/8sFxxxRXyyCOPyIwZM8R8Je0bb7whs2fPlu985zsyd+5crZZl10UgVjYdL0QAgZgFqqurxXzcfWhoiAvNmO2ZDgEE3ATsOrV06VJpaGhwexGjEEAAgRgF+vv7ZXBwUAjuY0RnKgQCBFQFYldffbWcf/75I2Ueeuih8sADD2Qem6DsyCOPlEsvvVTOO++8kTET4RcCsYnQRY4BgXQI2HvzcA+xdPSbo0QgiQJ2neIeYknsHjUjkA4BPjKZjj5zlPoF1ARi5kb55h1h9mfq1KlywAEHyEMPPWQ3yRe+8AVZtmyZrFu3TjbZZJOR7Un/hUAs6R2kfgTSI2AvNAnE0tNzjhSBpAnYdYpALGmdo14E0iNAIJaeXnOkugXUBGLXXHON/OAHP5Cbb7458/HIlStXyje+8Y2Rd4gZxhNOOEHuuuuuzDdNzpkzR7dsCdURiJWAxVAEEPAqYC80CcS8toHJEUCgiIBdpwjEiiDxFAIIeBUgEPPKz+QIjAioCcRuvPFGaWlpEROEmXd/rVixYiQQe+utt+S73/2umH/YmJ9rr71WmpubRw4i6b8QiCW9g9SPQHoE7IUmgVh6es6RIpA0AbtOEYglrXPUi0B6BAjE0tNrjlS3gJpA7KmnnpJ99tlHzEclzQ30d9llFzEXXOY+Yg8++KC8+OKLI5L333+/TKR3iK1evVrMP96yf0488US58847szfxOwIIIOBdYN68ebJkyZLM+nzMMcd4r4cCEEAAgdECdp3ipvqjZXiMAAJaBAjEtHSCOtIuoCYQM40wN8v/0Y9+VLQnn/70p+WWW24pOiZpTwYFYieddJLccccdSTsU6kUAgQkuYL4VaWBgQGpra/mWyQneaw4PgaQKsE4ltXPUjUB6BFin0tNrjlS3gKpA7O2335YLL7ywYChmvpbWvDtsq6220q1aYnUEYiWCMRwBBLwJNDU1SU9PT+Zj7d6KYGIEEECgiIBdpxYuXJj51EGRoTyFAAIIIIAAAikWUBWI2T709vbKvffeKyY5f/XVVzMfJzzkkEPkqKOOskMm1J8EYhOqnRwMAhNaYObMmZl3iJn7PZqPt/ODAAIIaBOw65QJxObPn6+tPOpBAAEEMvfOXrx4sRDcczIg4FdAZSDmlyT+2QnE4jdnRgQQKE/A3qyam+qX58erEEAgegG7TnFT/eitmQEBBMoT4B5i5bnxKgTGW4BAbLxFy9gfgVgZaLwEAQS8CNgLTQIxL/xMigACDgJ2nSIQc8BiCAIIeBEgEPPCzqQI5Al4C8Ruuukm+X//7/9lvlny5ptvltdee02OP/74vAILbdh2221l+vTp8r3vfU923333QsMSsZ1ALBFtokgEEHhPwF5oEohxOiCAgFYBu04RiGntEHUhgACBGOcAAjoEvAViO+20k7z44osZhSuvvFKOOeYYqaqqKlll6tSp0t7eLnV1dSW/VssLCMS0dII6EEAgTKC6ulq6u7uFQCxMiucRQMCXgF2nuIeYrw4wLwIIhAkQiIUJ8TwC8Qh4C8QOOuggMTdlNj+//OUvZc899ywrEDOvP/fcc+Xqq682vybyh0AskW2jaARSKdDS0iJtbW2yaNEibqqfyjOAg0ZAvwDrlP4eUSECaRdgnUr7GcDxaxHwFoiZEOiGG26QAw44QObOnStPPvmkHHbYYZlwy7zrK+hn0qRJsskmm8imm24qW2yxhZh3mT322GNiPn75+OOPB70kEdsIxBLRJopEAIH3BMw/4FatWiULFizAAwEEEFApYNeppqYmqaysVFkjRSGAAAIIIICAfwFvgdjoQzcfnzQfwTnrrLNGPxX4uKenR84444zMhdkRRxwht912W+C4JGwkEEtCl6gRAQSMgPloe29vr/T19XGhySmBAAIqBew61draKo2NjSprpCgEEEi3gLnlT2dnpxDcp/s84Oj9C6gJxEqluPfee+Xoo4/OvMzclP/0008vdRdqxv/pT3/K+2KAT33qU/Jf//VfamqkEAQQQMAI2JtVcw8xzgcEENAqYNcpbqqvtUPUhQAC3EOMcwABHQIqA7Hf/e53mfuLmXuMvfXWWzJz5szMN1B+7GMfy1F78MEHZeedd5a99torZ3vSHhCIJa1j1ItAegXshSaBWHrPAY4cAe0Cdp0iENPeKepDIL0CBGLp7T1HrktAVSA2PDwsF154ofzwhz8MVDrxxBPl1ltvlSlTpgQ+n9SNBGJJ7Rx1I5A+AXuhSSCWvt5zxAgkRcCuUwRiSekYdSKQPgECsfT1nCPWKaAqEDP3ebjxxhuLSs2bNy/zDWdFByXsSQKxhDWMchFIsYC90CQQS/FJwKEjoFzArlMEYsobRXkIpFiAQCzFzefQVQmoCcReffVV2XbbbTM4NTU1st1222W+UXLDhg3y9ttvywsvvCD9/f2Z502AtNtuu6mCHEsxBGJj0eO1CCAQpwD/gItTm7kQQKAcAdapctR4DQIIxCnAOhWnNnMhUFhATSBmbiB/0UUXyX333Ze5aXNQyYODg3LUUUfJ97//fTnllFOChiRyG4FYIttG0QgggAACCCCAAAIIIIAAAgggkFABNYHY9ddfLz/+8Y/l0UcflUmTJgVymnuMffSjH5Wzzz5bvvSlLwWOSeJGArEkdo2aEUinQF1dnXR1dYlZj/lBAAEENArYdYqPdmvsDjUhgAACCCCgR0BNIPbwww9LbW2t7L///mK+TXKHHXaQrbfeOvOxyddff13WrVsnd999t5h3iZlvlzzkkEP0KI6xEgKxMQLycgQQiE3A3puHC83YyJkIAQRKFLDrFPcQKxGO4QggEJsAH5mMjZqJECgqoCYQM/cKmz17duYdYsUq3nfffeUPf/hDwXeRFXut1ucIxLR2hroQQGC0gL3QJBAbLcNjBBDQImDXKQIxLR2hDgQQGC1AIDZahMcI+BFQE4iZw1+9erUcdthhmXeBBXHsvvvu0tHRIXvuuWfQ04ndRiCW2NZROAKpE7AXmgRiqWs9B4xAYgTsOkUglpiWUSgCqRMgEEtdyzlgpQKqAjFjZL5RsqWlRe68807p6+uTv/71r7LPPvvICSecIOeee65svvnmSinLL+uZZ56R6dOn5+zgU5/6lJgvGuAHAQQQ0CRgLzQJxDR1hVoQQCBbwK5TBGLZKvyOAAKaBAjENHWDWtIsoCYQe/fdd6Wzs1PWr18vxx57rGy55Zap6UtQIDZ37ly5/fbbU2PAgSKAQDIE6uvrZfny5UIglox+USUCaRSw61Rra6s0NjamkYBjRgAB5QIEYsobRHmpEVATiJl3hJl3RZmfL37xi3LNNdekpgkEYqlpNQeKQOIF2tvbMx9db25ulsrKysQfDweAAAITT4B1auL1lCNCYKIJsE5NtI5yPEkVUBOI3XrrrXLqqadmHC+44AK54oorkmpact0EYiWT8QIEEPAk0NTUJD09PbJixQpPFTAtAgggUFzArlMLFy7MfGFT8dE8iwACCCCAAAJpFVATiL355psyc+ZMWbNmjaxdu1Z22mmnwJ6Y8GjXXXeVyZMnBz6fxI0EYknsGjUjkE4Bs04PDAzIypUrudBM5ynAUSOgXsCuUyYQmz9/vvp6KRABBNInYO6ZvXjxYiG4T1/vOWJdAmoCMcPy9NNPy5FHHikHHnig/PM//3PmZvrbbLPNiNjw8LAcc8wxcu211+bdhH5kUAJ/IRBLYNMoGYGUCtibVXMPsZSeABw2AgkQsOsUN9VPQLMoEYGUCnAPsZQ2nsNWJ6AmEBscHJSDDjpIXnzxxRykqVOnymabbZbZZp8zwdnob2XMeVHCHhCIJaxhlItAigXshSaBWIpPAg4dAeUCdp0iEFPeKMpDIMUCBGIpbj6HrkpATSDW29srVVVVTjgEYk5MDEIAAQTGXcBeaBKIjTstO0QAgXESsOsUgdg4gbIbBBAYdwECsXEnZYcIlCVAIFYW2/i+iHeIja8ne0MAgegEqqurpbu7WwjEojNmzwggMDYBu05xD7GxOfJqBBCIToBALDpb9oxAKQKqArFPfvKTmXuHbb/99nnH8O6778q6devkX//1X6Wrq4uPTOYJsQEBBBCIXsDcBLatrU0WLVrETfWj52YGBBAoQ4B1qgw0XoIAArEKsE7Fys1kCBQUUBOIvfzyy5l3HcyZM6dgseaJe++9Vz72sY/JVlttVXRckp7kHWJJ6ha1IpBuAfMPuFWrVsmCBQvSDcHRI4CAWgG7TjU1NUllZaXaOikMAQQQQAABBPwKqAjE1q5dK3/84x9lr732kh133NGviIfZzcXlHnvskTPz3Llz5fbbb8/ZxgMEEEDAt4D9KNLQ0JBUVFT4Lof5EUAAgTwBu04tXbpUGhoa8p5nAwIIIOBboL+/X8yXytXU1PDvKd/NYP5UC3gNxMwF1WmnnSadnZ0jTTjrrLOktbVVNtlkk5FtE/2XoEDsH//xH+W2226b6IfO8SGAQMIE7M2quYdYwhpHuQikSMCuU9xUP0VN51ARSJgA9xBLWMMod8IKeA3EjjjiiJwwzCr/+Mc/lnPOOcc+nPB/EohN+BZzgAhMGAF7oUkgNmFayoEgMOEE7DpFIDbhWssBITBhBAjEJkwrOZCEC3gLxB5++GGpra0N5DMfm+zr65OpU6cGPj/RNhKITbSOcjwITFwBe6FJIDZxe8yRIZB0AbtOEYglvZPUj8DEFSAQm7i95ciSJeAtEDM3ZL7ooosyWscff3zm3mF/+tOf5L777stsu/nmm+X0009PlmaZ1RKIlQnHyxBAIHYBe6FJIBY7PRMigICjgF2nCMQcwRiGAAKxCxCIxU7OhAgECngLxObPny9XXXWVPPnkk7L33nuPFGe+RfLoo4+Wyy67TL7xjW+MbLe/mPuNzZ49e0J9yySBmO0ufyKAgHaBefPmyZIlS4RATHunqA+B9ArYdYqb6qf3HODIEdAuQCCmvUPUlxYBb4HYqaeeKuvWrZOOjo4866qqKjE3lTf/ZW/0j3mdeXfZ9OnTRz+V2McEYoltHYUjkDoB861IAwMDmY+88y2TqWs/B4xAIgRYpxLRJopEINUCrFOpbj8Hr0jAWyB28skny5tvvilHHXVUHsftt98um266qZx44okjz73zzjvywgsvyOWXXy5PP/00gdiIDL8ggAAC8QnU1dVJV1eXDA8PxzcpMyGAAAIlCNh1ineyloDGUAQQQAABBFIo4DUQM8FXOT8EYuWo8RoEEEBg7AL23jxcaI7dkj0ggEA0Anad4h5i0fiyVwQQGLsAH5kcuyF7QGA8BAjExkNxjPvgI5NjBOTlCCAQm4C90CQQi42ciRBAoEQBu04RiJUIx3AEEIhNgEAsNmomQqCoAIFYUZ54niQQi8eZWRBAYOwC9kKTQGzsluwBAQSiEbDrFIFYNL7sFQEExi5AIDZ2Q/aAwHgIeA3EZsyYIaeddppsvvnmocfy17/+VdauXStnnXVW5v41E+mm+uYjoMYi+8d8qcBtt92WvYnfEUAAAe8C9kKTQMx7KygAAQQKCNh1ikCsABCbEUDAuwCBmPcWUAACGQGvgdh1110npX5L2ec+9zn5l3/5lwl1U/2gQMx86cCyZcs4TRFAAAFVAvX19bJ8+XIhEFPVFopBAIEsAbtOtba2SmNjY9Yz/IoAAgjoECAQ09EHqkDAWyD2pz/9Scx/wSv157nnnpMdd9xRJk+eXOpL1Y4nEFPbGgpDAIFRAu3t7dLR0SHNzc1SWVk56lkeIoAAAv4FWKf894AKEECguADrVHEfnkUgLgFvgVhcB5iEeQjEktAlakQAASPQ1NQkPT09smLFCkAQQAABlQJ2nVq4cKHMnj1bZY0UhQACCCCAAAL+BQjE/PdACMQUNIESEEDASWDmzJkyMDAgK1eu5ELTSYxBCCAQt4Bdp0wgNn/+/LinZz4EEEAgVKClpUUWL14sBPehVAxAIFIBArFIed12TiDm5sQoBBDwL2BvVs09xPz3ggoQQCBYwK5T3FQ/2IetCCDgX4B7iPnvARUgYAS8BWLvvvuu/OxnP5OamhrZa6+9Ut0NArFUt5+DRyBRAvZCk0AsUW2jWARSJWDXKQKxVLWdg0UgUQIEYolqF8VOYAFvgdj5558vV199tcyYMSPz8ZsJbBx6aARioUQMQAABJQL2QpNATElDKAMBBPIE7DpFIJZHwwYEEFAiQCCmpBGUkXoBb4GYeVdYf3+/TJ06Vf7v//5PhoeH5dlnn5XddttNPvCBDxRszPr162XbbbctOqbgi5U+QSCmtDGUhQACeQLV1dXS3d0tBGJ5NGxAAAElAnad4h5iShpCGQggkCdAIJZHwgYEvAh4C8QmTZokV155pXzkIx+RQw89VHp7e6WqqkqefPJJ2XvvvQtinHDCCZl3lk2fPr3gGC1P3HTTTXLcccfJtGnTipZEIFaUhycRQECRAP+AU9QMSkEAgUAB1qlAFjYigIAiAdYpRc2glFQLeAvEzDvEdtllF9l9991lw4YN8tJLL8k999wjn/zkJzPvGgvqypo1a+TBBx/MfCtjXIGYqe2VV14JKqfgNvNut7Vr18oZZ5whd9xxh4TVOjg4KHvuuWfO/k4++WRZtmxZzjYeIIAAAr4Furq6xLxTt76+3ncpzI8AAggECth1ytyntqKiInAMGxFAAAEEEEAAAW+B2EUXXSQLFiwoqwPmHVVhIVNZOw54kfk63DPPPDPgGbdNLrUSiLlZMgoBBPwL2I8iDQ0NcaHpvx1UgAACAQJ2nVq6dKk0NDQEjGATAggg4FfA3DrIXAMS3PvtA7Mj4C0Qe/XVV+UTn/iEPPzwwyV3wSVkKnmnBV6wbt260I88FnhpZrNLrQRixQR5DgEENAnYm1VzDzFNXaEWBBDIFrDrFDfVz1bhdwQQ0CTARyY1dYNa0izgLRAz6ObjiD/96U+lp6dHnnnmGbn11lsz/yWv0Nvbzccqf/7zn8f6kUlTp3mH2D777CMXX3yxmHufufyYjxSddNJJYu4jFvZuNgIxF1HGIICABgF7oUkgpqEb1IAAAkECdp0iEAvSYRsCCGgQIBDT0AVqQEDEayCW3QBzM/19991XnnrqKTH3Fyv084UvfEEuueSSzL3HCo0Z7+2///3vxbyj7eCDDy5p17/5zW9k1qxZstVWWxV9HYFYUR6eRAABRQL2QpNATFFTKAUBBHIE7DpFIJbDwgMEEFAkQCCmqBmUkmoBNYGY6cIbb7whW265ZdGGmHeVTZ48ueiYOJ987LHHpK+vT0455ZTMtHfffXfmmzN32mkn5zIIxJypGIgAAp4F7IUmgZjnRjA9AggUFLDrFIFYQSKeQAABzwIEYp4bwPQI/E1AVSDm0pVvfvObMn/+fNlxxx1dhkc2xnyL5Gc/+1np7OzMzGG+WdL8fO973xNT47nnnpv50oAtttgis73Y/yMQK6bDcwggoElg3rx5smTJEiEQ09QVakEAgWwBu05xU/1sFX5HAAFNAgRimrpBLWkWUBOIPf/883LOOecU7MW7774r5r5cDz74YOz3EAsqqr6+XpYvXz7ylA3EzAbzEct/+Id/kE9/+tNyyy23jIwp9AuBWCEZtiOAgDYB861IAwMDUltby7dMamsO9SCAQEaAdYoTAQEEtAuwTmnvEPWlRUBNINbb2ytVVVVO7i7f3Oi0ozIHmXeH7bLLLlJXVyeXXnpp5p1iL7zwQs7ePv7xj4u5h9gjjzwiH/7wh3OeG/2AQGy0CI8RQECrgFn3urq6JPs/AmitlboQQCCdAnad4p2s6ew/R40AAggggICrAIGYq1TWuF//+tdyyCGHyGuvvZa5Yb75FslVq1ZljRA54ogjMh+nNN8yab6lstgPgVgxHZ5DAAFNAvbePFxoauoKtSCAQLaAXae4h1i2Cr8jgIAmAT4yqakb1JJmAXWB2Omnny7bbbedTJo0Kacvf/jDH+T++++XhoYGue666zJjcgbE+ODPf/6zVFZWynPPPRcYiHV3d0t1dXWmol/+8pdy/PHHF62OQKwoD08igIAiAXuhSSCmqCmUggACOQJ2nSIQy2HhAQIIKBIgEFPUDEpJtYCaQMx8DPG2226Tr3zlK4ENMfcQM/fkWr16deY+Yr6/adJ8DNK8C+w73/mO7LvvviPvEDPfMmnuhfbMM89kjsOEZ9OmTQs8JrvR3I9n5syZ9mHmz5NPPlmWLVuWs40HCCCAgG8Be6FJIOa7E8yPAAKFBOw6RSBWSIjtCCDgW4BAzHcHmB+B9wXUBGKmnA0bNhTsy8svv5z5Bscf/vCHsmLFisz9uwoOjuGJJ554Qvbbbz+ZOnWqmNrMu8CeeuopMTdItD8/+clP5KyzzrIPC/4ZFIidcsopcuuttxZ8DU8ggAACPgTshSaBmA995kQAARcBu04RiLloMQYBBHwIEIj5UGdOBPIF1ARiJkzaZ5998isM2GI+MtnU1BTwTLybzLvAzGI2OriqqamRyy+/XObMmeNUEIGYExODEEBAgYD9hl0CMQXNoAQEEAgUsOtUa2urNDY2Bo5hIwIIIOBTgEDMpz5zI7BRQE0glqRvmdzIt/G3559/Xl555RXZY489ZMqUKfLWW2/J5ptvvnFAkd8IxIrg8BQCCKgSaG9vl46ODmlubs7cS1FVcRSDAAIIvCfAOsVpgAAC2gVYp7R3iPrSIpC4QOyqq66S8847z3t/amtrM/cy22KLLfJqef311+XII4+U7373u/KJT3wi7/nRGwjERovwGAEEtAq0tLRk7pm4YMECrSVSFwIIpFzArlPm0wTmS5D4QQABBBBAAAEEggRUBWLmPlxXXnll3rdMbrLJJrLllltmbjy/zTbbBB1H7NvMt2Cad4QVqqetrU3OP/98MV8WEPZOMQKx2NvHhAggUKZAVVWVmHf09vX1caFZpiEvQwCBaAXsOsVHJqN1Zu8IIFC+gHmHWGdnZ+Y2QAT35TvySgTGKqAmEDPvqvrjH/8os2bNGusxRfL6F154QX7wgx+M7PuKK66Qc889VzbbbLORbfaXoaEhuffee2XNmjVy//33h95LjEDMyvEnAghoF7A3q+YeYto7RX0IpFfArlPcVD+95wBHjoB2Ae4hpr1D1JcWATWBmAv4/Pnz5TOf+YyXb5g034D5s5/9TC699NKcb5IsVveOO+6YCfkKvYvMvpZA7P+zd6+xUVT/H8e/KdKEgKIWCxUbG23BogWqRbwk9YEQTJSLFywmQKShTYwoUIiXGhF5UsWobYMNmJRIqwFFCX0gaY1i6q0gEgtZAWmKLRgba4ByKYLS9vc/4/9sdtu9lu3smZ33PmF3ZnbmzOvbnOx8mDlHS/AvAgiYLqAvNAnETK8U7UPAvQK6nyIQc+/fAGeOgOkCBGKmV4j2uUXAuECsrq5Ompub5dKlS9LX1+etQ29vr3XX1bFjx6Szs9MauN670sY3586dk/nz50tDQ4OUlpZKoDHEkpKS5KabbpKZM2dKWlpa2NYRiIUlYgMEEDBEQF9oEogZUhCagQACAwR0P0UgNoCGBQggYIgAgZghhaAZrhcwKhBTd4CpQfPDvX744Qe59957w202ZOvV452TJ0+WgwcPysiRI6/4OARiV0zIDhBAwCYBfaFJIGYTOIdBAIGoBXQ/RSAWNR1fQAABmwQIxGyC5jAIhBEwJhA7efKkjBkzJkxz/1t96tQpue666yLadqg2WrFihahZ1pKTkwccQgVmxcXFUl5eLjfccMOA9f0XEIj1F+EzAgiYKsAPOFMrQ7sQQEAL0E9pCf5FAAFTBeinTK0M7XKbgDGB2CeffCIFBQXWrGXp6enS0dFhzWQ2Y8YMqyZqtkaPxyO1tbWycOHCuNcp3CyT6k63iooKawwxtW2oV0tLi0yYMMFvkyeeeEK2b9/ut4wPCCCAQLwF9u7dK11dXTJr1qx4N4XjI4AAAgEFdD+Vl5cnKSkpAbdhIQIIIIAAAgggYEwgVlVVJe+//77s379fhg0bJr///ruoYExPmX369Gm5/vrrvZ/tLp266+vrr7/2Hnb27NnWIPuBHplUd7vV1NRYU+lG8nhnoEBMjVOmQkJeCCCAgEkCubm51jiPajZdLjRNqgxtQQABLaD7KfU7Sv2e4oUAAgiYJqCu/9TY2AT3plWG9rhNwJhArLGxUVavXi3ffPONFQRNnz5dNmzYIO+99541s+PYsWOtxxBHjx4tf/31lwwfPtzWWp05c0ZKSkpk8+bNUR1XBXvjx48P+R0CsZA8rEQAAYME9Ng8jCFmUFFoCgII+AnofooxxPxY+IAAAgYJ8MikQcWgKa4WMCYQU4/gqHHBVOClwqfU1FTZt2+fNXi9+uz7+umnn+Suu+7yXWTb+wMHDsjcuXOlvb1d8vPzA44hpmaZVCHYU089Zc00Ga5xBGLhhFiPAAKmCOgLTQIxUypCOxBAoL+A7qcIxPrL8BkBBEwRIBAzpRK0w+0CxgRiqhBvv/22dZeYeq+CsT///FM+/PBDWbp0qVrkfanxxcaNG+f9bPebtrY2mTp1qpw4cUKuvvrqKz48gdgVE7IDBBCwSUBfaBKI2QTOYRBAIGoB3U8RiEVNxxcQQMAmAQIxm6A5DAJhBIwKxHp6emTTpk3WYPKLFy+WJUuWWM1XA9S/+eabcvnyZSswUx1IvF/qTrGcnBxRd4MFe/39998yYsSIYKu9ywnEvBS8QQABwwX0hSaBmOGFonkIuFhA91MEYi7+I+DUETBcgEDM8ALRPNcIGBWIhVPv6+uTcDM2htuHnesLCwtlzZo1kpGREfKwBGIheViJAAIGCSxatMi6c5dAzKCi0BQEEPAT0P0Ug+r7sfABAQQMEiAQM6gYNMXVAo4KxOJRKTVjZHFxsUyZMsUKt1Qb1Iwg6vHOYC91p5t63HPnzp3y22+/EYgFg2I5Agg4TkAF+K2trTJt2jRmmXRc9WgwAu4QoJ9yR505SwScLEA/5eTq0fZEEiAQC1PNuro6mTdvnrXVP//8Y81uqWaOTE9PD/PN/1YTiEXExEYIIOAQgaKiIvF4PNLU1OSQFtNMBBBwm4Dup8rLy0XNWs4LAQQQQAABBBAIJEAgFkjFZ1l3d7esXbtWsrOzRT0CqV+zZ8+WQ4cOWTNJjho1ym8sMfVo5x9//CFbtmyR5uZm7hDTaPyLAAKOF8jMzLTuENuzZw8Xmo6vJieAQGIK6H5KBWLLly9PzJPkrBBAwNECVVVVUltbKwT3ji4jjU8AAQKxQRZx165d8uWXX8o777wTdA8rVqyQkpISUYO7hnoxhlgoHdYhgIBJAnqwasYQM6kqtAUBBHwFdD/FoPq+KrxHAAGTBBhDzKRq0BY3CxCIDbL66i6wixcvhpxFUj0uOX78eElOTg55lKNHj8rEiRP9tpk/f76owWB5IYAAAiYJ6AtNAjGTqkJbEEDAV0D3UwRiviq8RwABkwQIxEyqBm1xs4CxgVhHR4ecPXvWGxS1tbWFffTQtELOnTtXKioqwrabQMy0ytEeBBAIJqAvNAnEggmxHAEE4i2g+ykCsXhXguMjgEAwAQKxYDIsR8BeAaMCsX///VcqKyutxxDVGFz5+fnS2NgoFy5csMaqefDBB+Wtt96yBra3l2ng0dTYYu+++64cPHhQVHjX29vr3Ui97+zstGajjGRQ/UCB2JNPPikff/yxd5+8QQABBEwQyM3NtcZGJBAzoRq0AQEEAgnofooxxALpsAwBBEwQIBAzoQq0AQERowKxhQsXykcffeStiw7E1ILTp09LXl6ePPDAA7J582bvNvF6M3XqVDlw4EDYwxOIhSViAwQQcJCAGgS2pqbGuvuV2dscVDiaioCLBOinXFRsThUBhwrQTzm0cDQ74QSMCcT27dsnd999t6SmpsrkyZOtu8KSkpLk22+/9aI/99xzsmHDBjl//ryMHDnSu9zuN/qOrtGjR8sLL7xgzUDZvz1dXV2ycuVK+f777wf1yCR3iNldVY6HAAKRCKgfcOoR9vXr10eyOdsggAACtgvofqqoqEiysrJsPz4HRAABBBBAAAFnCBgTiKnHD3fs2CH19fVW2NXU1CQvvfSS9cikolSPU6q7EX7++Wf57LPP5LHHHoub8LFjx+TWW2+12ldWVha0HevWrRP1YywtLS3oNmqFDth8NyIQ89XgPQIImCIwadIkOXz4sNVvcaFpSlVoBwII+Arofqq6uloKCwt9V/EeAQQQMEJAXfPu3r3bulbk95QRJaERLhUwJhBTYZi6A2znzp1y5513yo8//ugNxJqbm2XVqlVWp6HqpB6ZXLJkSVxLpn5szZkzR954442g7fjuu+9EjWPR/+6x/l8gEOsvwmcEEDBVQA9WzRhiplaIdiGAgO6nGFSfvwUEEDBVgDHETK0M7XKbgDGBmBqEfuzYsZa/ehQxIyPDGqNLPUKp1vm+Dh06ZD2m6LvM7vfqDokZM2ZIQ0OD3HHHHQEP/9BDD8nGjRt5ZDKgDgsRQMCJAvpCk0DMidWjzQi4Q0D3UwRi7qg3Z4mAEwUIxJxYNdqciALGBGIKV93avnTp0pDOatwa1YHE+3X8+HF5/PHHpaWlRdLT0/2a09PTIydPnrSCPAbV96PhAwIIOFxAX2gSiDm8kDQfgQQW0P0UgVgCF5lTQ8DhAgRiDi8gzU8YAaMCMaX66aefyurVq6W9vX0Asuo4TBnIOScnRzwez4A29l9AINZfhM8IIOBkAX2hSSDm5CrSdgQSW0D3UwRiiV1nzg4BJwsQiDm5erQ9kQSMC8QUrhpA/9dff5UjR47IxYsX5cYbb7TGFbv22muNsFftys7OFvVo56uvvip5eXkDxgk7deqUPPPMM/LVV1/xyKQRVaMRCCAQCwF+wMVCkX0ggMBQCtBPDaUu+0YAgVgI0E/FQpF9IHDlAkYGYqFOS83wqB5RHD58eKjNhnRda2urZGZmyuuvvy5r1qwJeiw14P7TTz8t48aNC7qNWqHCv9tuu81vG2aZ9OPgAwIIGCKwd+9e6erqklmzZhnSIpqBAAII+Avofkr9h2VKSor/Sj4hgAACCCCAAAL/L2BcINbb2ysdHR3S3d0t6r3vS12Eqemzd+3aFfauK9/vDcX7+++/X/Lz86WsrCzo7hsbGwPePdb/C4ECsYKCAtm2bVv/TfmMAAIIxFXgnnvuEXWx2dfXF9d2cHAEEEAgmIDup3i0O5gQyxFAAAEEEEBACRgViFVVVUlpaamcOXMmZHUiGZcr5A5isFLdqTZz5kzZsWOHTJkyJeAeI51lkkAsIB8LEUDAQAE9Ng8XmgYWhyYhgIAloPspxhDjDwIBBEwV4JFJUytDu9wmYEwgph9DjKQA8Q7E9u/fL+qRRhWKqXHEAt2Or2aZVMFeJG0lEIuk6myDAAImCOgLTQIxE6pBGxBAIJCA7qcIxALpsAwBBEwQIBAzoQq0AQGD7hDbuHGjNQh9JEWJJGSKZD+D3ebChQvWQP/h7mRT+4+krQRig60E30MAAbsF9IUmgZjd8hwPAQQiFdD9FIFYpGJshwACdgsQiNktzvEQCCxgzB1in3/+uTzyyCPy7LPPyvPPPy8jRoyQpKQkb6vVeGInTpyQRYsWRTRzo/eLQ/Rm2bJl0tLSImvXrrVmmLzqqqu8R9LjoKlz+eKLL8KOd0Yg5qXjDQIIGC6gLzQJxAwvFM1DwMUCup8iEHPxHwGnjoDhAgRihheI5rlGwJhATA2if8stt0hJSYm8+OKLQQtQW1src+bMsR5VDLqRDSs8Ho80NDTIqlWrgh5ty5Yt8vDDD8uYMWOCbqNWEIiF5GElAggYJKBml1RBP4GYQUWhKQgg4Ceg+6nq6mprMia/lXxAAAEEDBAgEDOgCDQBgf8TMCYQU9VoamqS++67TyorK2XChAl+BVIzmqlHFNXdY2qGs4yMDL/1Tv5AIObk6tF2BNwlUF9fb92lW1xcLFlZWe46ec4WAQQcIUA/5Ygy0UgEXC1AP+Xq8nPyBgkYFYjppDycTyTjcoXbh0nrCcRMqgZtQQCBUAJFRUWi7pBV/4HBCwEEEDBRQPdT5eXlMn36dBObSJsQQAABBBBAwAABYwIxdYGVk5MTEQmBWERMbIQAAgjEXCAzM1PUrMB79uzhQjPmuuwQAQRiIaD7KRWILV++PBa7ZB8IIIBATAWqqqpEDQVEcB9TVnaGQNQCxgRiqlNQg9BH8iIQi0SJbRBAAIHYC+jBqhlDLPa27BEBBGIjoPspBtWPjSd7QQCB2AvoJ6P4PRV7W/aIQDQCxgRiepbJ1157TUpLSyU5OXnAeZw7d84aUP+DDz6Qm2++ecB6py44cuSIZGdn+zW/oKBAtm3b5reMDwgggEC8BfSFJj/g4l0Jjo8AAsEEdD9FIBZMiOUIIBBvAQKxeFeA4yPwn4AxgZiaZfL222+XxYsXy7p164LWZ/v27aJmD7rmmmuCbuO0FYECsQULFsjWrVuddiq0FwEEElxAX2gSiCV4oTk9BBwsoPspAjEHF5GmI5DgAgRiCV5gTs8xAsYEYmfPnpWXX35Z1KOTK1euFDX+g+9LzTJ5/Phx2bRpkzQ3NyfULJMEYr6V5j0CCJgskJuba/XBBGImV4m2IeBuAd1PMYaYu/8OOHsETBYgEDO5OrTNTQLGBGKHDx+WSZMmRWSfaGOIEYhFVHY2QgABAwTUf1rU1NRIRUUFg+obUA+agAACAwXopwaasAQBBMwSoJ8yqx60xr0CBGIG1J5AzIAi0AQEEIhIQP2Aa2trk/Xr10e0PRshgAACdgvofqqoqEiysrLsPjzHQwABBBBAAAGHCBgXiKWmpsqoUaNk2LBhfoQ9PT1y/vx56ezsFO4Q86PhAwIIIGCbgLqTV93Re/ToUS40bVPnQAggEI2A7qeqq6ulsLAwmq+yLQIIIGCLQH19vezevVsI7m3h5iAIBBUwJhBrbW2VV155JezMio8++qhUVlZKenp60JNy2gruEHNaxWgvAu4V0INVM4aYe/8GOHMETBfQ/RSD6pteKdqHgHsFGEPMvbXnzM0SMCYQM4vF3tYQiNnrzdEQQGDwAvpCk0Bs8IZ8EwEEhlZA91MEYkPrzN4RQGDwAgRig7fjmwjEUsBxgdiyZcusO8nS0tJi6RDXfRGIxZWfgyOAQBQC+kKTQCwKNDZFAAFbBXQ/RSBmKzsHQwCBKAQIxKLAYlMEhlDAqECsq6tLysrK5JdffpHu7m65fPmy36mr9R6PhzHE/FT4gAACCNgnoC80CcTsM+dICCAQnYDupwjEonNjawQQsE+AQMw+a46EQCgBYwKxS5cuycSJE6W9vT1Ue611iTaovhqgWg0A6/tasGCBbN261XcR7xFAAIG4C/ADLu4loAEIIBBGgH4qDBCrEUAg7gL0U3EvAQ1AwBIwJhCrq6uTefPmRVQWArGImNgIAQQQiLlAS0uLqElQpk2bJikpKTHfPztEAAEErlSAfupKBfk+AggMtQD91FALs38EIhP4HwAAAP//70X9xgAAQABJREFU7N0LfBTV3f/xH/p4bSsq3pAKiERralFqkMS23jVYbesNtV7Qogn1QlW0aLVWam2rKAoqEVBUAvrUG9aqbVBDvVVIvcEDNQr/BBCNgCjBem2V/e9v9CS7yW52ZrMzc2bnM6+XZXf2zDln3mcznf3uzNkeieQiFix33nmnnHXWWVJSUiLHHHOMbLbZZtKjR4+2nmk3W1tb5dZbb5Vly5ZJ//79216L+oPGxkYpLS1N242f/vSncu+996at4wkCCCAQtkB5ebk0NDSIJf/XETYH7SOAgIUC5jj1t7/9TYYNG2ZhD+kSAggggAACCNgg0MOWQGzFihVOyDV16lSprq7OanPXXXfJcccdJz179sxaJmovEIhFbcToLwLxFejbt6+sXLlS+KAZ3/cAe46A7QLmOHXNNdfIFVdcYXt36R8CCMRQ4Je//KXccMMNnE/FcOzZZbsEQgvEPvjgA/nkk0/SNCZPniwaiD300EPOlWKpL+rVCOvXr5cTTjhBHn30Ua4QS8XhMQIIIBCQgPmgSSAWEDjNIICAZwFznCIQ80zHBgggEJAAgVhA0DSDQA6B0AKx448/XmbPnp2je5lf5pbJzC6sRQABBPwWMB80CcT8lqZ+BBDIV8AcpwjE8hVkOwQQ8FuAQMxvYepHwJ0AgZg7J19Lccukr7xUjgACBRQwHzQJxAqISlUIIFBQAXOcIhArKCuVIYBAAQUIxAqISVUIdEOAQKwbeIXalECsUJLUgwACfgtUVlbKE088wZwXfkNTPwII5C1gjlPTp0+XkSNH5l0PGyKAAAJ+CRCI+SVLvQh4Ewg1ENt///3lsMMOk0022SRnrzds2CA679iZZ57pfBjjVyZzklEAAQQQKLhAXV2d1NfXOz9+or8KzIIAAgjYJsBxyrYRoT8IINBRgONURxGeIxCOQGiBmF4Vtccee8hGG23kac+XLl0q/fr1k0033dTTdjYX5goxm0eHviGAQKpAVVWVLF68WObNm5e6mscIIICANQLmODVx4kQZOnSoNf2iIwgggAACCCBgl0BogVg+DBdccIH89Kc/lfLy8nw2t3YbAjFrh4aOIYBAB4GBAwdKU1OTzJ8/nw+aHWx4igACdgiY45QGYnruyIIAAgjYJlBTUyMzZ84UgnvbRob+xE3AukDskUcekQULFshnn30miUSibTz0lsknn3xSmpubZc2aNUV1hdhrr70m3/72t9v2VR9o8HfvvfemreMJAgggELaAmayaSfXDHgnaRwCBbALmOMWk+tmEWI8AAmELMIdY2CNA+wh8KWBVIKbf4t188805x+aFF16QioqKnOWiUiBTIHbKKafIPffcE5VdoJ8IIBATAfNBk0AsJgPObiIQQQFznCIQi+Dg0WUEYiJAIBaTgWY3rRewJhB77733ZLvttnMF9v7778s222zjqmwUChGIRWGU6CMCCKiA+aBJIMb7AQEEbBUwxykCMVtHiH4hgACBGO8BBOwQsCYQu//+++Wkk04S/dWyXXbZRd555x3RubX0Vyh1WbVqlTORs95rfdppp9mhV6BeEIgVCJJqEEDAd4HBgwc7t7UTiPlOTQMIIJCngDlOMYdYnoBshgACvgsQiPlOTAMIuBKwJhDTiQWnTZsmL7/8smy88cby1ltvOcHY9OnTZeTIkbJu3TrZdtttxTx3tXcRKUQgFpGBopsIICB6rK6trZVJkyYxqT7vBwQQsFKA45SVw0KnEEAgRYDjVAoGDxEIUcCaQOyZZ56RSy65RJ599lnRq8X0Z7JvvfVWmTx5svzud7+THXfcUaqrq6Vnz57y7rvvyiabbBIiW2GbJhArrCe1IYCAfwINDQ3S2toqlZWV/jVCzQgggEA3BMxxqqysTHr16tWNmtgUAQQQQAABBIpZwJpATD9g6bxgGnitX79edthhB3nxxRdl0KBBzvPUQXjppZdk3333TV0V6ccEYpEePjqPQKwEzK1Ia9eu5YNmrEaenUUgOgLmOKVfsA4fPjw6HaenCCAQG4GlS5dKc3OzENzHZsjZUUsFrAnE1GfChAnOVWL6WIOx1atXy6xZs+Tss8/WVW2Lzi+20047tT2P+gMCsaiPIP1HID4CZrJq5hCLz5izpwhETcAcp5hUP2ojR38RiI8Ac4jFZ6zZU7sFrArEvvjiC5k6dao88MADMmLECPnZz37m6N18881y3XXXyeeff+4EZnoAKaaFQKyYRpN9QaC4BcwHTQKx4h5n9g6BKAuY4xSBWJRHkb4jUNwCBGLFPb7sXXQErArEcrElEgnp0aNHrmKRe51ALHJDRocRiK2A+aBJIBbbtwA7joD1AuY4RSBm/VDRQQRiK0AgFtuhZ8ctE4hUIKZ2o0ePlssvv1x69+5tGWX+3SEQy9+OLRFAIFgB80GTQCxYd1pDAAH3AuY4RSDm3oySCCAQrACBWLDetIZANgGrAjGdG0znEXv99dflk08+kQ0bNrT1Wx/rZPsLFy6UZcuWSf/+/dtei/qDf/3rX7LXXnul7cYpp5wi99xzT9o6niCAAAJhC5x++unO3I4EYmGPBO0jgEA2AXOcYlL9bEKsRwCBsAUIxMIeAdpH4EsBawIxDcD0qi8NvXItcQjETj31VOdDZy4LXkcAAQSCFNBfRWpqapIhQ4bwK5NBwtMWAgi4FuA45ZqKggggEJIAx6mQ4GkWgQ4C1gRiDz74oOufxiYQ6zCKPEUAAQQCEigvL5eGhgbROR1ZEEAAARsFzHGKK1ltHB36hAACCCCAgD0C1gRiM2bMkDPPPFMGDBggxxxzjGy++eZpSvrhq6WlRbQcgVgaDU8QQACBwATM3Dx80AyMnIYQQMCjgDlOMYeYRziKI4BAYALcMhkYNQ0h0KWANYHYm2++Kf369ZMpU6bIqFGjsnb6rrvukuOOO0569uyZtUzUXsg0hxi3TEZtFOkvAvEQMB80CcTiMd7sJQJRFDDHKQKxKI4efUYgHgIEYvEYZ/bSfgFrAjG9AmzcuHFOIPbwww/Lbrvtlqanr69bt040KJo9e3bRT6pPIJY2/DxBAAFLBMwHTQIxSwaEbiCAQCcBc5wiEOtEwwoEELBEgEDMkoGgG7EXsCYQa2xslNLSUlcDwi2TrpgohAACCBRcwHzQJBArOC0VIoBAgQTMcYpArECgVIMAAgUXIBArOCkVIpCXAIFYXmyF3YhbJgvrSW0IIOCfQGVlpTzxxBNCIOafMTUjgED3BMxxavr06TJy5MjuVcbWCCCAgA8CBGI+oFIlAnkIEIjlgVboTQjECi1KfQgg4JdAXV2d1NfXS3V1tZSUlPjVDPUigAACeQtwnMqbjg0RQCAgAY5TAUHTDAI5BKwKxE488USZOnWqbL311p26vWHDBvnggw+cX6LUqxP69+/fqUxUVxCIRXXk6DcC8ROoqamR5cuXy/jx4+O38+wxAghEQsAcp6qqqgjuIzFidBIBBBBAAIFwBKwJxD777DN5++23ZcCAAV1KLF261Pk1yk033bTLclF6cfHixfKd73wnrctMqp/GwRMEELBEQOd61DkflyxZwgdNS8aEbiCAQLqAOU5xy2S6C88QQMAeAb1CbO7cuUJwb8+Y0JN4ClgTiGXjf/PNN+Wxxx6Tzz//XA4//HDZc889sxWN7HoCscgOHR1HIHYCZrJq5hCL3dCzwwhERsAcp5hUPzJDRkcRiJ0Ac4jFbsjZYUsFrAnE/vSnP8lll10mra2tstlmm8lzzz0n8+bNc26RTLW77bbb5Oc//3nqqsg/zhSInXbaaTJz5szI7xs7gAACxSVgPmgSiBXXuLI3CBSTgDlOEYgV06iyLwgUlwCBWHGNJ3sTXQFrArGPPvpIvv71r8sxxxwjd955p7zxxhtSUVGRUXblypXyzW9+M+NrUVxJIBbFUaPPCMRTwHzQJBCL5/iz1whEQcAcpwjEojBa9BGBeAoQiMVz3Nlr+wSsCcSeeuopOeGEE2T16tXy6aefyt577y0rVqxoE9NfNNN7rH/yk5/IddddJ3oFVbEsBGLFMpLsBwLFL2A+aBKIFf9Ys4cIRFXAHKcIxKI6gvQbgeIXIBAr/jFmD6MhYE0gNmnSJJk1a5a88MILTjD2l7/8pU3wkEMOEf1lyR49ejiT7t94441y3HHHtb0e9QcEYlEfQfqPQHwEOIGLz1izpwhEVYDjVFRHjn4jEB8BjlPxGWv21G4BawIx/aWNI488spPWDjvsIIsWLRL996abbpIxY8bImjVrZPvtt+9UNqorCMSiOnL0G4H4CTQ0NDhzPVZWVsZv59ljBBCIhIA5TpWVlUmvXr0i0Wc6iQACCCCAAALBC1gTiG3YsMEJxPRKMLP07NlT9Lac3r17O7dL6m2Vurz44ouiJznFshCIFctIsh8IFL/A4MGDZcGCBbJ27Vo+aBb/cLOHCERSwByn7r//fhk+fHgk94FOI4BAcQssXbpUmpubnc+0BPfFPdbsnd0C1gRihkl/WfKhhx6SPfbYQ0466STZaqutnADs73//uzPpvk68/4Mf/EB23XVXs0nk/yUQi/wQsgMIxEbAzM3DHGKxGXJ2FIHICZjjFHOIRW7o6DACsRHglsnYDDU7armAdYGY5V6+dI9AzBdWKkUAAR8EzAdNAjEfcKkSAQQKImCOUwRiBeGkEgQQ8EGAQMwHVKpEIA8BawKxN954Q/7xj3/Ihx9+6Px3xhlnOFeE6cHikUcecXbt4IMPlltvvVW22267PHbV3k0IxOwdG3qGAALpAuaDJoFYugvPEEDAHgFznCIQs2dM6AkCCKQLEIile/AMgbAErAnEXnrpJRkyZIjjcMUVV8hFF13kzCmm84WlLnvttZe88sorsskmm6SujvTj//u//5O99947bR9OO+00mTlzZto6niCAAAJhC5gPmgRiYY8E7SOAQDYBc5wiEMsmxHoEEAhbgEAs7BGgfQS+FLAmEGtqapKBAwfK008/LQceeKCMHj3auRrMDJROsP/9739fHn/8cXnuueecx+a1qP+bKRA7/fTTpba2Nuq7Rv8RQKDIBPTYNGvWLOcHT4YNG1Zke8fuIIBAMQiY4xST6hfDaLIPCBSnAIFYcY4rexU9AWsCsenTp8vUqVPln//8pzz22GPyox/9KE3z1VdflX322ce5iqyqqkqqq6vTXo/yEwKxKI8efUcgXgL6q0j6BYZe0cuvIsVr7NlbBKIiwHEqKiNFPxGIrwDHqfiOPXtul4A1gdhdd93l3CZ58cUXy4QJE2T9+vVtUnfffbfonGJvvvmm9OvXT/T2yn333bft9ag/IBCL+gjSfwTiI1BeXi4NDQ2SSCTis9PsKQIIRErAHKe4tTtSw0ZnEUAAAQQQCFzAmkBsxYoV0r9//04AI0eOFL16TG+THDVqlDQ2NsrHH38sW2yxRaeyUV1BIBbVkaPfCMRPQG9t1yvE5s+fL0OHDo0fAHuMAALWC5jj1MSJE+WCCy6wvr90EAEE4idQU1PjzBetxynOp+I3/uyxPQLWBGJK8tRTT8n1118vTzzxhHMlmM4B8Zvf/EZmz57thGGbbbaZ88uTN9xwgxx77LH2KHazJwRi3QRkcwQQCEzATFbNlReBkdMQAgh4FDDHKSbV9whHcQQQCEyAOcQCo6YhBLoUsCoQMz197733ZNttt5UePXqYVUX9L4FYUQ8vO4dAUQmYD5oEYkU1rOwMAkUlYI5TBGJFNazsDAJFJUAgVlTDyc5EWMDKQKwrT71a7LDDDpOtttqqq2KReo1ALFLDRWcRiLWA+aBJIBbrtwE7j4DVAuY4RSBm9TDROQRiLUAgFuvhZ+ctErAmENNJ9HVi/WyLTuDc2toqkyZNkgULFmScbyzbtravJxCzfYToHwIIGIHKykrntnYCMSPCvwggYJuAOU7pHLQ6Fy0LAgggYJsAgZhtI0J/4ipgTSCmk+WXlpa6Godly5YRiLmSohACCCBQWAGdBLa2ttb5coJJYAtrS20IIFAYAY5ThXGkFgQQ8E+A45R/ttSMgBcBAjEvWj6V5Qoxn2CpFgEECi6gJ3DLly+X8ePHF7xuKkQAAQQKIWCOU1VVVVJSUlKIKqkDAQQQQAABBIpQwLpAbOedd5aePXvKxhtvnMa9Zs0a0f/0xObZZ5+VnXbaKe31KD9ZuHCh7LPPPmm7oL+wqVdhsCCAAAI2CeiVvHpF75IlS/igadPA0BcEEGgTMMcpbplsI+EBAghYJlBXVydz584VgnvLBobuxE7AmkCsublZxo0blzUEevfdd+Xwww8XvUVn6tSpRTVQmQKxESNGyIwZM4pqP9kZBBCIvoCZrJo5xKI/luwBAsUqYI5TTKpfrCPMfiEQfQHmEIv+GLIHxSFgTSDmhnPixIly0UUXOVcnfOtb33KzSSTKEIhFYpjoJAIIJAXMB00CMd4OCCBgq4A5ThGI2TpC9AsBBAjEeA8gYIeANYHYypUr5eSTT86osmHDBvnwww9l8eLFzuvFdgk8gVjGYWclAghYKGA+aBKIWTg4dAkBBBwBc5wiEOMNgQACtgoQiNk6MvQrbgLWBGJefmVy3rx5Ul5eXjRjRSBWNEPJjiBQ9ALmgyaBWNEPNTuIQGQFzHGKQCyyQ0jHESh6AQKxoh9idjAiApELxI4//nh58MEHI8LrrpsEYu6cKIUAAuELcAIX/hjQAwQQ6FqA41TXPryKAALhC3CcCn8M6AECKmBVIFZRUSEjR46UrbbaSnr06NE2QvqLk1tuuaXstddecsQRR7StL5YHBGLFMpLsBwLFL9DQ0CCtra1SWVlZ/DvLHiKAQCQFzHGqrKxMevXqFcl9oNMIIIAAAggg4L+ANYGY/orknDlz5LTTTvN/ry1rgUDMsgGhOwggkFVg8ODBsmDBAlm7di0fNLMq8QICCIQpYI5T999/vwwfPjzMrtA2AgggkFFg6dKl0tzcLAT3GXlYiUBgAtYEYm73eNq0aaK3TRbTN34EYm5Hn3IIIBC2gJmbhznEwh4J2kcAgWwC5jjFHGLZhFiPAAJhC3DLZNgjQPsIfCkQWiCmV4MtWbLE9TgkEglZsWKF6C9M6tUJ/fv3d72t7QUJxGwfIfqHAAJGwHzQJBAzIvyLAAK2CZjjFIGYbSNDfxBAwAgQiBkJ/kUgXIHQAjG9ymv27Nl57f2yZcuKKhDTgE8v709dRowYITNmzEhdxWMEEEAgdAHzQZNALPShoAMIIJBFwBynCMSyALEaAQRCFyAQC30I6AACjgCBmAVvBAIxCwaBLiCAgCsB80GTQMwVF4UQQCAEAXOcIhALAZ8mEUDAlQCBmCsmCiHgu0Bogdhxxx0nDz/8sHzzm9+Ub3zjG6529L333pM1a9ZIHK4QO+OMM+Tuu+925UIhBBBAICiB008/XWbNmiUEYkGJ0w4CCHgVMMcpJtX3Kkd5BBAISoBALChp2kGga4HQArFvfetb8sYbb8iAAQOkqamp616mvHr44YfLHXfcIf369UtZG+2Hma4QIxCL9pjSewSKVaCurk7q6+ulurpaSkpKinU32S8EEIiwAMepCA8eXUcgJgIcp2Iy0Oym9QKhBWK777676M/N9uzZU95//33RSfPfeust2WWXXWSjjTbKCvfuu+86vzDZVZmsG1v6AoGYpQNDtxBAoJNAVVWVLF68WObNm9fpNVYggAACNgiY49TEiRNl6NChNnSJPiCAAAIIIICAhQKhBWI9evSQG2+8Ufbdd1854IADpLGxUUpLS+X111+XPfbYIyvVj370I7nllluKflJ9rhDL+hbgBQQQCFFg4MCBzlW98+fP54NmiONA0wggkF3AHKc0ELvggguyF+QVBBBAICSBmpoamTlzphDchzQANIvAVwKhBWJ6hVjv3r2dWx//+9//yrp162TOnDly5JFHOleNZRqhlpYWefbZZ5lDLBMO6xBAAIEABMxk1cwhFgA2TSCAQF4C5jjFpPp58bERAggEIMAcYgEg0wQCLgRCC8QuvfRSGT9+vIsudi7CpPqdTViDAAIIBCFgPmgSiAWhTRsIIJCPgDlOEYjlo8c2CCAQhACBWBDKtIFAboHQArF///vfcsghh8hLL72Uu5cdShCIdQDhKQIIIBCQgPmgSSAWEDjNIICAZwFznCIQ80zHBgggEJAAgVhA0DSDQA6B0AIx7ZfeKnnvvfc6EzSvWLFCHnjgARk+fLgzaX6mfuttlffddx+3TGbCYR0CCCAQgMDgwYNFfwiEQCwAbJpAAIG8BMxxijnE8uJjIwQQCECAQCwAZJpAwIVAqIFYav90Mv0999xT3njjDdH5xbItZ599tlx55ZXO3GPZykRtPb8yGbURo78IxFdAJ4Gtra2VSZMmMal+fN8G7DkCVgtwnLJ6eOgcAggkBThO8TZAwA4BawIx5fj4449lyy237FJGryrbZJNNuiwTtRdfffVV+e53v5vWbX5lMo2DJwggYImAnsAtX7487zkgLdkNuoEAAkUsYI5TVVVVUlJSUsR7yq4hgAACCCCAQHcErArE3OzI6NGj5fLLL3d+odJN+SiUyRSInXnmmXLXXXdFofv0EQEEYiRQWloqjY2NsmTJEj5oxmjc2VUEoiRgjlPTp0+XkSNHRqnr9BUBBGIiUFdXJ3PnzhWC+5gMOLtprYBVgdg777wjEyZMEL198pNPPpENGza0wenj9evXy8KFC4tuDjECsbZh5gECCFguYCarZg4xyweK7iEQYwFznGJS/Ri/Cdh1BCwXYA4xyweI7sVGwJpATAOw3r17O6FXLv1i+5VJArFcI87rCCBgi4D5oEkgZsuI0A8EEOgoYI5TBGIdZXiOAAK2CBCI2TIS9CPuAtYEYg8++KDzC5NuBiQOgZj+wMBee+3lcOyzzz6y7777yuOPPy6bb765fPrpp7Jq1SrntZ122kmOOuooaWlpEQ3W9HV9TcvocuSRR8rOO+8s99xzj2jZ1tZW5z99zdT78ssvO+tS69XXzzrrrJz16qW+iUQirV7TJ1Ov1qVzDpnF1Dtv3jzZeuut0/pr+mTqTe1Tar26j7qvHevVNh566KGs9bo1TK3XGJp6C22YaWxS91Xb0yW1T10Zmv4aw9T+ptabr6GpN9PYpL4PU/tr+tSVYaax0f02++rX+zvT+9D01+xrNsNsY6P9Nvua+vfYnfe36ZOpN7VPpt5MhmbMc41Npvehqdf8LeuY6y1IOt+j/iKw/v0aA1M2iD6oqVncvD/yHUc1y/T+MPtq6s30t6Bm+f6Ndcewq/dH6jh6Ncz0/jDvLVOvjknq370Zm0yG5v1sDFPfz6n15mto6s00Nrn+FroyzDQ2ut9mXzlOfXnO4dXQjHl3xsa8D1OPUwceeKDzQ00dj1OpZTP9LXTnPWva6vi3oO8T46Jtaj916c7xxPwdmXpT/45MvZnes269M/3dm3pzGXb1t2D+PlP7a/pk6lWbjoYck7s+r++OoXkv5RqbKByTjUPq8ST1b87sa9jvb/3bfO211/jVbv1jZ0EgRAFrArEZM2aIzps1YMAAOeaYY5ywI9VFQxc9sGm5OARiqftu8+NtttlG1q1bV/Au+lVvwTtqcYV+GfpVr42Ufu2rX/XaaGhDn/zy9qteG8yC6oNfhn7VG5SLl3b82le/6vWybzaW9cvFr3oxtFHA3j759T70q14bJb3uK1ey2jiK9ClOAtYEYm+++ab069dPpkyZIqNGjco6BjrR/HHHHSc9e/bMWiZqL+i3aB1/ZXLIkCGOh+6LXoVhrqQ69dRTnWBQb1fSRa+S0m9C9JvGwYMHO1eD6TcO5htPfc1cVaZXkuk3bwsWLHC2NfXqN3THH398Wr1aoH///jnr3WijjeTggw9Oq9f0ydSrdelVJWYx9WrfzJVvpr+mT6ZeDUE77qvWW1FR4exrx3q1Da0jW73ajhvD1HqNoam30IY6dh3HpjuGpr/GMLW/qfXma2jqzTQ2qe9Dr4aZxkbH07xf/Hp/Z3ofujXUvxtdUvdV+6uLeb+k/j125/1t+mTqTR1XU28mQzPmucYm0/vQ1Gv+lnXM9RL/999/X/QETpeOx5Mg+mCOCdq+m/eHec+mmhkXs29aV8dxVJNM7w/jYurN9LfAcap9bDIZmvezMcw2Nhynvvz/4e4YFtNxqqvjn/lb1r/HSy+9VNauXZv1OJVaNtPxBG/OHfX/E8yxvjv/v+b2PZvpfej1vKc7/79WTMdk45B63pN6Lmb21e15j9exyfX/a+aYPGbMGOdHiu6//37Xd0np+5IFAQQKK2BNIKZXgI0bN84JxB5++GHZbbfd0vZUX9crkTTMmD17tvMhKK1AhJ9kCsT4lckIDyhdRwABBBBAAAEEEEAAAQQQQAABqwWsCcQaGxtFfybbzRKHWyYJxNy8EyiDAAJBC/To0cNpUr+kYEEAAQRsFCgvL5eGhgZnjlMb+0efEEAAAQQQQMAOAQIxC8aBK8QsGAS6gAACrgRMIKa3EAwbNszVNhRCAAEEghTYdtttnbsKOE4FqU5bCCDgRYBfmfSiRVkE/BMgEPPP1nXNr7zyijPnVeoGXCGWqsFjBBCwRYBAzJaRoB8IIJBNgEAsmwzrEUDAFgECMVtGgn7EXcCqQOzEE0+UqVOnOpNYdhyYDRs2yAcffCAaFD3xxBNFNYcYgVjH0eY5AgjYKkAgZuvI0C8EEDACBGJGgn8RQMBWAQIxW0eGfsVNwJpA7LPPPpO3335bBgwY0OUYLF261Pn1xU033bTLclF6MVMg9rOf/UzuvPPOKO0GfUUAgRgIEIjFYJDZRQQiLkAgFvEBpPsIxECAQCwGg8wuRkLAmkDMrdZ5550nl19+ufTp08ftJtaXIxCzfojoIAIIfCXQt29fWblypTA3D28JBBCwVWDgwIHS1NTEccrWAaJfCCAgBGK8CRCwQyC0QKy+vl7+8Ic/OL8see2118q///1vGT16dFYV/UWzFStWyEsvvSTF9iuTBGJZh50XEEDAMoGamhrnGFxdXS0lJSWW9Y7uIIAAAiIcp3gXIICA7QJ1dXWin4c5n7J9pOhfsQuEFojttttu0tzc7PhOnjxZDj74YCcccwNOIOZGiTIIIIBA4QUqKiqcSufNm1f4yqkRAQQQKIBAVVWVLF68WDhOFQCTKhBAAAEEEChigdACsd133110PjBd7rjjDtl///0JxFLeaMwhloLBQwQQsEbAzCE2f/58GTp0qDX9oiMIIICAEdBpNVpaWoTjlBHhXwQQsE1Ar2SdOXOmTJw4kfMp2waH/sRKILRATE9SJkyYIHvuuaczJ5he9VVaWiqHHXaY7LrrrhkHYd26dfLggw9yy2RGHVYigAAC/guYQIw5xPy3pgUEEMhPgEn183NjKwQQCE6AOcSCs6YlBLoSCC0Q69ipN998U6ZNmybXXHNNx5fSno8dO1bGjBkjO+20U9r6KD9hDrEojx59RyBeAgRi8Rpv9haBKAoQiEVx1OgzAvESIBCL13izt/YKWBOI2Uvkf88IxPw3pgUEECiMAIFYYRypBQEE/BMgEPPPlpoRQKAwAgRihXGkFgS6K2B9IKa/PNnQ0OD8mpn+jLb+d8IJJ8gWW2zR3X23ZnsCMWuGgo4ggEAOAT5o5gDiZQQQCF3AzCHGrd2hDwUdQACBLAIEYllgWI1AwAKhBWLnn3++PPbYY227O3jwYHn44Yfbnqc+MD9Ja36Vsth+ZfLll1+WsrKy1F0WJtVP4+AJAghYIqC/3rZo0SKZNGkSk8BaMiZ0AwEE0gU4TqV78AwBBOwT0En1a2trOZ+yb2joUcwEQgvEjj/+eJk9e7ZoEKYHhPLy8i7p3333XRkyZIisWLGi6CbVJxDrcuh5EQEELBKYM2eO05vKykqLekVXEEAAgXYBvbOgtbVVOE61m/AIAQQQQAABBDoLhB6I6VVf2X5VsmN377zzTjnrrLNiEYiNHDlSpk+f3pGA5wgggECoAmYOsbVr10qvXr1C7QuNI4AAApkEBg0a5FzJynEqkw7rEEDABoGlS5eKfg7Wu4Q4n7JhROhDXAVCDcS23357mTJlijz//PNy1VVXZR2DESNGyBlnnCGrVq2S3r17E4hlleIFBBBAwF8BE4gxN4+/ztSOAAL5CzDXYf52bIkAAsEIMIdYMM60gkAugVADsaFDh8rYsWOdPq5Zs8aZU+zKK6+UlpYWZ50eKE466STntsqNNtrIWacfxuIwhxhXiOV66/I6AgiEIUAgFoY6bSKAgBcBAjEvWpRFAIEwBAjEwlCnTQQ6C4QaiB144IHyi1/8Iq1XL7zwgnzve9+TcePGdbpqLJFIiAZjBGJpZDxBAAEEAhMgEAuMmoYQQCBPAQKxPOHYDAEEAhMgEAuMmoYQ6FIg1EBs5513luHDh6d1UEOvgw46SK677rq0ifY///xzmT9/vlxxxRUEYmliPEEAAQSCEyAQC86alhBAID8BArH83NgKAQSCEyAQC86alhDoSiDUQEx/ZTKfhSvE8lFjGwQQQKD7AqWlpdLY2CjMIdZ9S2pAAAF/BMyk+hyn/PGlVgQQ6L4AgVj3DakBgUIIEIgVQrGbdbz88svOL4ykVsMcYqkaPEYAAVsEGhoaZN26dTJkyBB+FcmWQaEfCCCQJsBxKo2DJwggYKGA/spkU1MT51MWjg1dipcAgZgF400gZsEg0AUEEHAlYG6Z1NvbWRBAAAEbBcrLy0VDMY5TNo4OfUIAAQQQQMAegVADMb318bDDDpNNN900p8iGDRtk1apVctdddzGHWE4tCiCAAAL+CJhAjFuR/PGlVgQQ6L4Ac4h135AaEEDAXwFumfTXl9oRcCsQaiB2/fXXy4ABA9z21Sl34oknyvjx46V///6etrO58EsvveRcLpvaR26ZTNXgMQII2CJAIGbLSNAPBBDIJkAglk2G9QggYIsAgZgtI0E/4i4QWiB2zz33yKmnnurZ/69//avsv//+svXWW3ve1tYNMgViZ511ltxxxx22dpl+IYBATAUIxGI68Ow2AhESIBCL0GDRVQRiKkAgFtOBZ7etEwgtELNOIsQOEYiFiE/TCCDgSYBAzBMXhRFAIAQBArEQ0GkSAQQ8CRCIeeKiMAK+CRCI+UbrvmICMfdWlEQAgXAF+vbtKytXrhTmEAt3HGgdAQSyCwwcOND59TaOU9mNeAUBBMIVIBAL15/WETACBGJGIsR/CcRCxKdpBBDwJFBTU+P8sEl1dbWUlJR42pbCCCCAQBACHKeCUKYNBBDojkBdXZ3U19cL51PdUWRbBLovQCDWfcNu10Ag1m1CKkAAgYAEKioqnJbmzZsXUIs0gwACCHgTqKqqksWLFwvHKW9ulEYAAQQQQCBuAgRiFow4gZgFg0AXEEDAlYCZQ2zJkiVcIeZKjEIIIBC0gLllkuNU0PK0hwACbgX0CrG5c+eKBvhcce9WjXIIFF6AQKzwpp5rJBDzTMYGCCAQkoAJxJibJ6QBoFkEEMgpwKT6OYkogAACIQswh1jIA0DzCHwlQCBmwVuBQMyCQaALCCDgSoBAzBUThRBAIEQBArEQ8WkaAQRcCRCIuWKiEAK+CxCI+U6cuwECsdxGlEAAATsECMTsGAd6gQAC2QUIxLLb8AoCCNghQCBmxzjQCwQIxCx4D7z44ouy3377pfXkrLPOkjvuuCNtHU8QQACBsAX4oBn2CNA+AgjkEujTp4+0tLQIt3bnkuJ1BBAIS4BALCx52kUgXYBALN0jlGcEYqGw0ygCCOQhUF5eLg0NDXzQzMOOTRBAIBgBjlPBONMKAgjkL0Aglr8dWyJQSAECsUJq5llXpkDs7LPPlttvvz3PGtkMAQQQ8Edgzpw5TsWVlZX+NECtCCCAQDcFNLRvbW0VjlPdhGRzBBBAAAEEilyAQMyCASYQs2AQ6AICCLgSMHOIrV27Vnr16uVqGwohgAACQQoMGjRIFi1aJBynglSnLQQQ8CKwdOlSaW5ulrKyMs6nvMBRFoECCxCIFRg0n+oIxPJRYxsEEAhDwARizM0Thj5tIoCAGwHmOnSjRBkEEAhTgFsmw9SnbQTaBQjE2i1Ce0QgFho9DSOAgEcBAjGPYBRHAIHABQjEAienQQQQ8ChAIOYRjOII+CRAIOYTrJdqCcS8aFEWAQTCFCAQC1OfthFAwI0AgZgbJcoggECYAgRiYerTNgLtAgRi7RahPSIQC42ehhFAwKMAgZhHMIojgEDgAgRigZPTIAIIeBQgEPMIRnEEfBIgEPMJ1ku1BGJetCiLAAJhCpSWlkpjY6Mwh1iYo0DbCCDQlYCZVJ/jVFdKvIYAAmEKEIiFqU/bCLQLEIi1W4T2iEAsNHoaRgABjwINDQ2ybt06GTJkCL+K5NGO4gggEIwAx6lgnGkFAQTyF9BfmWxqauJ8Kn9CtkSgIAIEYgVh7F4lBGLd82NrBBAITsDcMplIJIJrlJYQQAABDwLl5eWioRjHKQ9oFEUAAQQQQCCGAgRiFgy6nrTpyVvqcvbZZ8vtt9+euorHCCCAQOgCJhDjVqTQh4IOIIBAFgHmEMsCw2oEELBGgFsmrRkKOhJzAQIxC94ABGIWDAJdQAABVwIEYq6YKIQAAiEKEIiFiE/TCCDgSoBAzBUThRDwXYBAzHfi3A1kCsSqqqpk2rRpuTemBAIIIBCgAIFYgNg0hQACeQkQiOXFxkYIIBCgAIFYgNg0hUAXAgRiXeAE9RKBWFDStIMAAt0VIBDrriDbI4CA3wIEYn4LUz8CCHRXgECsu4Jsj0BhBAjECuPYrVoIxLrFx8YIIBCgQN++fWXlypXCHGIBotMUAgh4Ehg4cKDz620cpzyxURgBBAIUIBALEJumEOhCgECsC5ygXiIQC0qadhBAoLsCNTU1smzZMqmurpaSkpLuVsf2CCCAQMEFOE4VnJQKEUCgwAJ1dXVSX1/P+VSBXakOAa8CBGJexXwoTyDmAypVIoCALwJjx4516h0/frwv9VMpAggg0F0BDcSWL18uHKe6K8n2CCCAAAIIFLcAgZgF40sgZsEg0AUEEHAlYOYQW7JkCVeIuRKjEAIIBC1gbpnkOBW0PO0hgIBbAb1CbO7cuaI/pMYV927VKIdA4QUIxApv6rlGAjHPZGyAAAIhCZhAjLl5QhoAmkUAgZwCTKqfk4gCCCAQsgBziIU8ADSPwFcCBGIWvBUIxCwYBLqAAAKuBAjEXDFRCAEEQhQgEAsRn6YRQMCVAIGYKyYKIeC7AIGY78S5GyAQy21ECQQQsEOAQMyOcaAXCCCQXYBALLsNryCAgB0CBGJ2jAO9QIBAzIL3wPz586WioiKtJ3o/+bRp09LW8QQBBBAIW4BALOwRoH0EEMglQCCWS4jXEUAgbAECsbBHgPYR+FKAQMyCd0KmQKy6ulqmTp1qQe/oAgIIINAuUF5eLnpVK3OItZvwCAEE7BLgOGXXeNAbBBDoLEAg1tmENQiEIUAgFoZ6hzYJxDqA8BQBBKwVmDNnjtO3yspKa/tIxxBAIN4CGtq3trYKx6l4vw/YewQQQAABBHIJEIjlEgrgdQKxAJBpAgEECiJgbplcu3at9OrVqyB1UgkCCCBQSIFBgwbJokWLhONUIVWpCwEECimwdOlSaW5ulrKyMs6nCglLXQh4FCAQ8wjmR3ECMT9UqRMBBPwQMIEYt0z6oUudCCBQCAHmECuEInUggICfAtwy6acudSPgXoBAzL2VbyUJxHyjpWIEECiwAIFYgUGpDgEECi5AIFZwUipEAIECCxCIFRiU6hDIU4BALE+4Qm5GIFZITepCAAE/BQjE/NSlbgQQKIQAgVghFKkDAQT8FCAQ81OXuhFwL0Ag5t7Kt5IEYr7RUjECCBRYgECswKBUhwACBRcgECs4KRUigECBBQjECgxKdQjkKUAglidcITcjECukJnUhgICfAqWlpdLY2CjMIeanMnUjgEB3BMyk+hynuqPItggg4KcAgZifutSNgHsBAjH3Vr6VJBDzjZaKEUCgwAINDQ2ybt06GTJkCL+KVGBbqkMAgcIIcJwqjCO1IICAfwL6K5NNTU2cT/lHTM0IuBIgEHPF5G+hefPmyf7775/WSHV1tUydOjVtHU8QQACBsAUqKiqcLuhxiwUBBBCwUaCqqkoWL14sHKdsHB36hAACCCCAgD0CBGIWjAWBmAWDQBcQQMCVgJlDTK9sHTp0qKttKIQAAggEKdCnTx9paWkRjlNBqtMWAgh4EaipqZGZM2fKxIkTOZ/yAkdZBAosQCBWYNB8qssUiI0aNUqmTJmST3VsgwACCPgmYAIx5ubxjZiKEUCgmwJMqt9NQDZHAAHfBZhDzHdiGkDAlQCBmCsmfwsRiPnrS+0IIFA4AQKxwllSEwII+CNAIOaPK7UigEDhBAjECmdJTQh0R4BArDt6BdqWQKxAkFSDAAK+CxCI+U5MAwgg0E0BArFuArI5Agj4LkAg5jsxDSDgSoBAzBWTv4UIxPz1pXYEECicAB80C2dJTQgg4I+AmUOMW7v98aVWBBDovgCBWPcNqQGBQggQiBVCsZt1EIh1E5DNEUAgMAH99bZFixbJpEmTmAQ2MHUaQgABLwIcp7xoURYBBMIQ0En1a2trOZ8KA582EUgRIBBLwQjrIYFYWPK0iwACXgXGjh3rbDJ+/Hivm1IeAQQQCERAP2guX75cOE4Fwk0jCCCAAAIIRFaAQMyCoSMQs2AQ6AICCLgSMHOILVmyREpKSlxtQyEEEEAgSIGBAwdKU1OTcJwKUp22EEDAi0BdXZ3MnTtX9IpWzqe8yFEWgcIKEIgV1jOv2gjE8mJjIwQQCEHABGLMzRMCPk0igIArAeY6dMVEIQQQCFGAOcRCxKdpBFIECMRSMMJ6SCAWljztIoCAVwECMa9ilEcAgaAFCMSCFqc9BBDwKkAg5lWM8gj4I0Ag5o+rp1pfeOEF+d73vpe2zahRo2TKlClp63iCAAIIhC1AIBb2CNA+AgjkEiAQyyXE6wggELYAgVjYI0D7CHwpQCBmwTuBQMyCQaALCCDgSoBAzBUThRBAIEQBArEQ8WkaAQRcCRCIuWKiEAK+CxCI+U6cu4FMgdjPf/5zue2223JvTAkEEEAgQIHy8nJpaGgQ5hALEJ2mEEDAkwDHKU9cFEYAgRAECMRCQKdJBDIIEIhlQAl6FYFY0OK0hwAC+QrMmTPH2bSysjLfKtgOAQQQ8FVAQ/vW1lbhOOUrM5UjgAACCCAQeQECMQuGkEDMgkGgCwgg4ErA3DKZSCRclacQAgggELSAuUKM41TQ8rSHAAIIIIBAtAQIxPIcr8bGRvnoo4+krKysyxrefvtt2WijjaR3795ZyxGIZaXhBQQQsEzABGLcMmnZwNAdBBBoE2AOsTYKHiCAgKUC3DJp6cDQrdgJEIjlOeRjxoyRlStXygMPPJC1hhEjRsjMmTOd148++miZNWuW9OzZs1N5ArFOJKxAAAFLBQjELB0YuoUAAm0CBGJtFDxAAAFLBQjELB0YuhU7AQKxPIf8wgsvlEcffVRKS0vlueeek913312uueYaOeKII5waTch11FFHycMPPyyjRo2SDz/8UO6///5OLZqyqS8wqX6qBo8RQMAWAQIxW0aCfiCAQDYBArFsMqxHAAFbBAjEbBkJ+hF3AQKxPN8B1dXVcvvtt3faWsOx73//+/Lb3/5Wxo0bJ9dff71ccsklsm7dOtETtKeeekoOPfTQtO0IxNI4eIIAAhYLEIhZPDh0DQEEHAECMd4ICCBguwCBmO0jRP/iIkAgludI77bbbrLxxhvLsGHDnIBL5wq75557ZMstt5Qnn3xSLr74Yrnxxhtl+vTpMnLkSKeV/fbbT4YMGSKTJ09Oa5VALI2DJwggYLFA3759ndvFmUPM4kGiawjEXGDgwIHS1NQkHKdi/kZg9xGwWIBAzOLBoWuxEiAQy2O4m5ubpaKiQpYvXy5bbLFFWw2rV6+WoUOHOuvPOeccmTJlitx3331y4oknOmU0PPvss8/k73//e9s2+oBALI2DJwggYLFATU2NLFu2TPQq2ZKSEot7StcQQCCuAhyn4jry7DcC0RGoq6uT+vp6zqeiM2T0tEgFCMTyGNiFCxdKVVWV/POf/0zbWtfrHGIajJ1xxhlSW1srjz/+uPzwhz90yukVYq2trbJkyZK07f7xj384t1mmrmQOsVQNHiOAgC0C+mWALvPmzbOlS/QDAQQQSBPQc7TFixdznEpT4QkCCCCAAAIIdBQgEOso4uK5XuW1+eabi17qqr8e+fnnn8ucOXPkwQcfdCbO/9e//iXDhw+Xp59+Wl588UUpKyuTjz/+WHbeeWfZe++95ZlnnklrJVMgpleY6TecLAgggIBNAmYOsfnz5ztXxNrUN/qCAAIIqECfPn2kpaVFOE7xfkAAAVsF9HPezJkzZeLEiZxP2TpI9CsWAgRieQ7z73//e/n1r3/daWu9MuzPf/6zrF+/3nntyCOPdG6d1IPeddddJ5mu/CIQ68TICgQQsFTABGLMzWPpANEtBBBwfsRIf8yI4xRvBgQQsFWAOcRsHRn6FTcBArE8RzyRSMiECRPkpptucr6F1KvA9NckTzrpJOdWyWuvvVaOPfZY54qxm2++ua0Vva1y0KBBbc/1AYFYGgdPEEDAYgECMYsHh64hgIAjwK9M8kZAAAHbBQjEbB8h+hcXAQKxAoz0f/7zH9l0002z1jRr1iznFyd1cv3LLrusUzkCsU4krEAAAUsFCMQsHRi6hQACbQIEYm0UPEAAAUsFCMQsHRi6FTsBAjEfh1znrtCrwbbccssuWyEQ65KHFxFAwCIBPmhaNBh0BQEEMgqYOcS4ZTIjDysRQMACAQIxCwaBLiCQFCAQ8+lt8MUXX8iwYcPk9ttvl/79+3fZCoFYlzy8iAACFgnor7ctWrRIJk2axCSwFo0LXUEAgXYBjlPtFjxCAAE7BXR+6draWs6n7BweehUjAQKxPAd7+fLlcs0114j+ouQ777wj//3vf9Nq0l830mXZsmUEYmkyPEEAgSgLjB071un++PHjo7wb9B0BBIpYQD9o6nkax6kiHmR2DQEEEEAAgQIIEIjlgagT6u+6666yYsWKnFsTiOUkogACCERIwMwhtnbtWunVq1eEek5XEUAgLgI6XYVeycpxKi4jzn4iED2BpUuXSnNzs+gPs3E+Fb3xo8fFI0AglsdY6i9F7rPPPrLDDjvIH//4R2eeMJ1XJ3V5//33ZcSIEfLXv/6VK8RSYXiMAAKRFjCBGHPzRHoY6TwCRS3AXIdFPbzsHAJFIcAcYkUxjOxEEQgQiOUxiHqL5M477yxXXXWVjBs3LmsN06ZNk2OPPVa23377rGX0heeff15+8IMfpJU555xzRC/5Z0EAAQRsEiAQs2k06AsCCGQSIBDLpMI6BBCwSYBAzKbRoC9xFiAQy3P0TzjhBNEPhg888EDWGmbMmCFHHXWUbLfddlnL6AsEYl3y8CICCFgkQCBm0WDQFQQQyChAIJaRhZUIIGCRAIGYRYNBV2ItQCCWx/Bv2LBBVq5cKQceeKD85je/EQ3HUhedY2zNmjVyyimnOIFZrl+ZzBSInXvuuTJ58uTUanmMAAIIhC5AIBb6ENABBBDIIUAglgOIlxFAIHQBArHQh4AOIOAIEIjl8UaYP3++VFRUuNrSzaT6BGKuKCmEAAIWCJSXl0tDQ4Mwh5gFg0EXEEAgowDHqYwsrEQAAYsECMQsGgy6EmsBArE8hv+LL76Qvn37SktLS86tCcRyElEAAQQiJKBh2Lp162TIkCH8KlKExo2uIhAnAY5TcRpt9hWBaAror0w2NTVxPhXN4aPXRSRAIJbnYOqE+suXL5c77rhDNtlkk061rFixQn7yk5/In//855y/MskVYp34WIEAApYKmFsm9dZwFgQQQMBGAXOFGMcpG0eHPiGAAAIIIGCPAIFYnmPx9ttvO5Phn3TSSVlrePLJJ0VPyr7xjW9kLaMvEIh1ycOLCCBgkYAJxLhl0qJBoSsIIJAmwBxiaRw8QQABCwW4ZdLCQaFLsRQgEPNx2EeOHOlMus+k+j4iUzUCCAQqQCAWKDeNIYBAHgIEYnmgsQkCCAQqQCAWKDeNIZBVgEAsK82XL7z33ntSXV0te++9txNu6drm5maZMGFC1i11jrHVq1c7t0syh1hWJl5AAIEIChCIRXDQ6DICMRMgEIvZgLO7CERQgEAsgoNGl4tSgEAsx7A+8sgjcswxxzil/vOf/zjzhb311luyyy675Njyy5cJxFwxUQgBBCIiQCAWkYGimwjEWIBALMaDz64jEBEBArGIDBTdLHoBArEcQ/zRRx/JuHHjZM899xS9BdIsP/rRj+S1116Tn/70p/L1r39dNtpoI/OS6CSu+guUM2bMkAULFjCpfpsMDxBAIOoC+gu7K1euFOYQi/pI0n8Eildg4MCBzq+3cZwq3jFmzxCIugCBWNRHkP4XiwCBWJ4j+de//lWeeuopufHGG7PWcOGFF8qYMWNEP0B2tTz33HNywAEHpBU599xzZfLkyWnreIIAAgiELVBTUyN65aveSl5SUhJ2d2gfAQQQ6CTAcaoTCSsQQMAygbq6Oqmvr+d8yrJxoTvxEyAQy3PMn376adFfmjz11FPzrKF9s0yB2HnnnSe33npreyEeIYAAAhYIVFRUOL2YN2+eBb2hCwgggEBngaqqKlm8eLFwnOpswxoEEEAAAQQQaBcgEGu3cP1Ig7BvfvObTvmmpiYZMGCA620zFSQQy6TCOgQQsFHAzCE2f/58GTp0qI1dpE8IIBBzgT59+jhTV3Ccivkbgd1HwGIBvZJ15syZMnHiRM6nLB4nulb8AgRieYzxqlWrpHfv3s7tQq+//nra/GGp1elru+66q2y22Wapqzs9JhDrRMIKBBCwVMAEYszNY+kA0S0EEBAm1edNgAACtgswh5jtI0T/4iJAIJbnSP/617+WOXPmiM4ltv3222esRSfev+WWW3JOqk8glpGPlQggYKEAgZiFg0KXEEAgTYBALI2DJwggYKEAgZiFg0KXYilAIJbHsOuE0jqZ/v333+9sfeKJJ4r5kKgrvvjiC9Grw+bOnetMPt2/f3+nXLb/IRDLJsN6BBCwTcAc67hCzLaRoT8IIGAECMSMBP8igICtAgRito4M/YqbAIFYHiP+1ltvyS677OJqSw3PCMRcUVEIAQQiIMAHzQgMEl1EIOYCZg4xgvuYvxHYfQQsFiAQs3hw6FqsBAjE8hxuvR3ytddek9NOO0222GKLtHnEEomEvP/++zJ16lRZsGABgViexmyGAAL2Ceivty1atEgmTZrEJLD2DQ89QgCBpADHKd4GCCBgu4BOql9bW8v5lO0DRf+KXoBALM8h1rnD6uvrZcKECVlrOPPMM+Xqq6+Wvn37Zi2jL3DLZJc8vIgAAhYJ6NyJulRWVlrUK7qCAAIItAs0NDRIa2srx6l2Eh4hgAACCCCAQAYBArEMKG5W6VVgH3/8sTQ1NcmSJUvkhBNOcDbToGzfffeVHXfc0U01ThkCMddUFEQAgZAFzBxia9eulV69eoXcG5pHAAEEOgsMGjTIuZKV41RnG9YggIAdAkuXLpXm5mYpKyvjfMqOIaEXMRUgEMtz4FetWiWnnnqqM3G+VqEBmS5/+MMf5IorrpDzzz9fxo8f79xO6bzQxf88++yzcuCBB6aVOO+88+TWW29NW8cTBBBAIGwBE4gxN0/YI0H7CCCQTYC5DrPJsB4BBGwRYA4xW0aCfsRdgEAsz3eA3i70xBNPtG1tAjFdsXDhQtlnn33k5JNPlv/93/9tK5PtAYFYNhnWI4CAbQIEYraNCP1BAIGOAgRiHUV4jgACtgkQiNk2IvQnrgIEYnmMvF4d1rt3bzS4DGIAAEAASURBVCkvL5ff/e53zpViq1evTqvpe9/7nrzwwgvy8ssvy3e/+9201zo+yRSI6RVmt9xyS8eiPEcAAQRCFSAQC5WfxhFAwIUAgZgLJIoggECoAgRiofLTOAJtAgRibRTuHzz//PPygx/8QD788EP52te+5vyK5PLly9MqOPTQQ53bKWfMmCEjRoxIe63jEwKxjiI8RwABWwUIxGwdGfqFAAJGgEDMSPAvAgjYKkAgZuvI0K+4CRCI5THi7777rpSUlMjbb7+dMRBbsGCBDB482Kn50UcflaOPPrrLVgjEuuThRQQQsEigtLRUGhsbhTnELBoUuoIAAmkCZlJ9jlNpLDxBAAGLBAjELBoMuhJrAQKxPIdfb4PUq8Cuvvpq2XPPPcVcIaa/MnnuuefKihUrnJo1PNtuu+26bIVArEseXkQAAYsEGhoaZN26dTJkyBB+FcmicaErCCDQLsBxqt2CRwggYKeA/spkU1MT51N2Dg+9ipEAgVieg/3aa6/Jt7/9benZs6esX7/euQrsjTfeED24meXuu++WM844wzzN+i+BWFYaXkAAAcsEzC2TqT8kYlkX6Q4CCMRcQOd41VCM41TM3wjsPgIIIIAAAjkECMRyAHX1sl4Fppe7PvDAA2nFysrK5IYbbpADDzwwbX22JwRi2WRYjwACtgmYQIxbkWwbGfqDAAJGgDnEjAT/IoCArQLcMmnryNCvuAkQiBVoxN955x354IMPZNddd5VNN93UU60EYp64KIwAAiEKEIiFiE/TCCDgSoBAzBUThRBAIEQBArEQ8WkagRQBArEUDC8Pb7rpJlm1apVcd911WTd79dVXZcqUKc4l+yNHjhS9hD/TQiCWSYV1CCBgowCBmI2jQp8QQCBVgEAsVYPHCCBgowCBmI2jQp/iKEAglueoX3jhhfLWW2/JFVdcIc8995zsvvvucsQRR8hGG23k1KhXi/Xt21c222wzOeecc+S2225zwrFjjz22U4sEYp1IWIEAApYKEIhZOjB0CwEE2gQIxNooeIAAApYKEIhZOjB0K3YCBGJ5DrkGYpMmTUrb+oADDhD9lcmvfe1rTvilQdivfvUr+cMf/iD19fVyyimnOJPub7XVVmnbPfPMM3LQQQelrTv//PPllltuSVvHEwQQQCBsAQ36V65cKcwhFvZI0D4CCGQTGDhwoPPrbRynsgmxHgEEwhYgEAt7BGgfgS8FCMTyfCcMGzZM5syZ42w9ePBgefvtt2XNmjVy2WWXyR//+EfnX72dcvLkyXLuuec65XbbbTfRWyf1qrLUhUAsVYPHCCBgs0BNTY0sW7ZMqqurpaSkxOau0jcEEIipAMepmA48u41AhATq6uqcCyY4n4rQoNHVohQgEMtjWD/99FPZYostZNq0aXLcccdJr169nFpmzZrlzCm2aNEiGT16tNx6661SW1srp59+uvP6oYceKnoZf8dfpcwUiOn2N998cx69YxMEEEDAP4GxY8c6lY8fP96/RqgZAQQQ6IaABmLLly8XjlPdQGRTBBBAAAEEYiBAIJbHIM+fP1/0MledOyx1+eSTT6R///6yevVqOfvss2X69Okye/ZsMfOGaSCmV5FpYJa6EIilavAYAQRsFjBziC1ZsoQrxGweKPqGQIwFzC2THKdi/CZg1xGwXECvEJs7d65UVVVxPmX5WNG94hYgEMtjfPXXJb/1rW853z5uvfXWTg0fffSRM1eYXv2lJ2Ann3yy3Hfffc6lsIcccohTRife33LLLWXBggVprRKIpXHwBAEELBYwgRhz81g8SHQNgZgLMKl+zN8A7D4CERBgDrEIDBJdjIUAgView7zffvvJiy++6EyGv2HDBtFfijTLpZdeKnfddZdzNdhDDz3k3Fa5ePFi+c53viNHH320PProo6ao8y+BWBoHTxBAwGIBAjGLB4euIYCAI0AgxhsBAQRsFyAQs32E6F9cBAjE8hzp1157TX74wx/KihUr2moYMmSIPPjgg/LjH/9YFi5cKDvssIP8z//8jxx++OHy5JNPSktLi0ydOtWZjLpto+QDArFUDR4jgIDNAgRiNo8OfUMAARUgEON9gAACtgsQiNk+QvQvLgIEYt0Y6dbWVtErwJqammT//fcXnSNMJ9vX2ycff/xx0avIPvvsMznhhBNErxDr16+fvP7667L55puntUoglsbBEwQQsFiAQMziwaFrCCDgCBCI8UZAAAHbBQjEbB8h+hcXAQKxAEZaQ7H6+nrZd999Zccdd+zUIoFYJxJWIICApQLl5eXS0NAgzCFm6QDRLQQQEI5TvAkQQMB2AQIx20eI/sVFgEDMgpEmELNgEOgCAgi4EpgzZ45TrrKy0lV5CiGAAAJBC2hor1fxc5wKWp72EEAAAQQQiJYAgZgF40UgZsEg0AUEEHAlYG6ZXLt2rfTq1cvVNhRCAAEEghQYNGiQLFq0SDhOBalOWwgg4EVg6dKl0tzcLGVlZZxPeYGjLAIFFiAQKzBoPtU9/fTTcvDBB6dtOnr0aLn55pvT1vEEAQQQCFvABGLcMhn2SNA+AghkE2AOsWwyrEcAAVsEuGXSlpGgH3EXIBCz4B2QKRD7xS9+IZMmTbKgd3QBAQQQaBcgEGu34BECCNgpQCBm57jQKwQQaBcgEGu34BECYQoQiIWp/1XbBGIWDAJdQAABVwIEYq6YKIQAAiEKEIiFiE/TCCDgSoBAzBUThRDwXYBAzHfi3A0QiOU2ogQCCNghQCBmxzjQCwQQyC5AIJbdhlcQQMAOAQIxO8aBXiBAIGbBe4BAzIJBoAsIIOBKoLS0VBobG4U5xFxxUQgBBEIQMJPqc5wKAZ8mEUDAlQCBmCsmCiHguwCBmO/EuRsgEMttRAkEELBDoKGhQdatWydDhgzhV5HsGBJ6gQACHQQ4TnUA4SkCCFgnoL8y2dTUxPmUdSNDh+ImQCBmwYgTiFkwCHQBAQRcCZhbJhOJhKvyFEIAAQSCFigvLxcNxThOBS1PewgggAACCERLgEDMgvEiELNgEOgCAgi4EjCB2Pz582Xo0KGutqEQAgggEKRAnz59pKWlRThOBalOWwgg4EWgpqZGZs6cKRMnTuR8ygscZREosACBWIFB86mOQCwfNbZBAIEwBEwgxtw8YejTJgIIuBFgUn03SpRBAIEwBZhDLEx92kagXYBArN0itEcEYqHR0zACCHgUIBDzCEZxBBAIXIBALHByGkQAAY8CBGIewSiOgE8CBGI+wXqpdu7cuXLooYembfKLX/xCJk2alLaOJwgggEDYAgRiYY8A7SOAQC4BArFcQryOAAJhCxCIhT0CtI/AlwIEYha8EwjELBgEuoAAAq4E+KDpiolCCCAQooCZQ4xbu0McBJpGAIEuBQjEuuThRQQCEyAQC4w6e0OZArELLrjAmWQx+1a8ggACCAQvUFVVJYsWLXKuYGVS/eD9aREBBHILcJzKbUQJBBAIV0An1a+treV8KtxhoHUEhEDMgjcBgZgFg0AXEEDAlcDYsWOdcuPHj3dVnkIIIIBA0AL6QXP58uXCcSpoedpDAAEEEEAgWgIEYhaMF4GYBYNAFxBAwJWAmUNsyZIlUlJS4mobCiGAAAJBCgwcOFCampqE41SQ6rSFAAJeBOrq6kQ/A+oVrZxPeZGjLAKFFSAQK6xnXrURiOXFxkYIIBCCgAnEmJsnBHyaRAABVwLMdeiKiUIIIBCiAHOIhYhP0wikCBCIpWCE9ZBALCx52kUAAa8CBGJexSiPAAJBCxCIBS1Oewgg4FWAQMyrGOUR8EeAQMwfV0+1Eoh54qIwAgiEKEAgFiI+TSOAgCsBAjFXTBRCAIEQBQjEQsSnaQRSBAjEUjDCekggFpY87SKAgFcBAjGvYpRHAIGgBQjEghanPQQQ8CpAIOZVjPII+CNAIOaPq6daCcQ8cVEYAQRCFCgvL5eGhgZhDrEQB4GmEUCgSwGOU13y8CICCFggQCBmwSDQBQSSAgRiFrwNCMQsGAS6gAACrgTmzJnjlKusrHRVnkIIIIBA0AIa2re2tgrHqaDlaQ8BBBBAAIFoCRCIWTBe9fX1cthhh6X15IILLpCJEyemreMJAgggELaAuWVy7dq10qtXr7C7Q/sIIIBAJ4FBgwbJokWLhONUJxpWIICAJQJLly6V5uZmKSsr43zKkjGhG/EUIBCzYNwJxCwYBLqAAAKuBEwgxi2TrrgohAACIQgwh1gI6DSJAAKeBLhl0hMXhRHwTYBAzDda9xVnCsQuvPBCuemmm9xXQkkEEEAgAAECsQCQaQIBBLolQCDWLT42RgCBAAQIxAJApgkEXAgQiLlA8rsIgZjfwtSPAAKFEiAQK5Qk9SCAgF8CBGJ+yVIvAggUSoBArFCS1INA9wQIxLrnV5CtCcQKwkglCCAQgACBWADINIEAAt0SIBDrFh8bI4BAAAIEYgEg0wQCLgQIxFwg+V2EQMxvYepHAIFCCZSWlkpjY6Mwh1ihRKkHAQQKLWAm1ec4VWhZ6kMAgUIJEIgVSpJ6EOieAIFY9/wKsjWBWEEYqQQBBAIQqKmpkWXLlkl1dbWUlJQE0CJNIIAAAt4EOE5586I0AggEL1BXVyf6GZDzqeDtaRGBVAECsVSNkB4TiIUET7MIIOBZoKKiwtlm3rx5nrdlAwQQQCAIgaqqKlm8eLFwnApCmzYQQAABBBCIrgCBmAVjRyBmwSDQBQQQcCVg5hCbP3++DB061NU2FEIAAQSCFOjTp4+0tLQIx6kg1WkLAQS8COiVrDNnzpSJEydyPuUFjrIIFFiAQKzAoPlURyCWjxrbIIBAGAImEGNunjD0aRMBBNwIMKm+GyXKIIBAmALMIRamPm0j0C5AINZuEdojArHQ6GkYAQQ8ChCIeQSjOAIIBC5AIBY4OQ0igIBHAQIxj2AUR8AnAQIxn2C9VPvUU0/J4YcfnrbJhRdeKDfddFPaOp4ggAACYQsQiIU9ArSPAAK5BAjEcgnxOgIIhC1AIBb2CNA+Al8KEIhZ8E7IFIhddNFFcuONN1rQO7qAAAIItAvwQbPdgkcIIGCngJlDjFu77RwfeoUAAiIEYrwLELBDgEDMgnEgELNgEOgCAgi4EtBfb1u0aJFMmjSJSWBdiVEIAQSCFuA4FbQ47SGAgFcBnVS/traW8ymvcJRHoMACBGIFBs2nOgKxfNTYBgEEwhAYO3as0+z48ePDaJ42EUAAgZwC+kFz+fLlwnEqJxUFEEAAAQQQiLUAgZgFw08gZsEg0AUEEHAlYOYQW7JkiZSUlLjahkIIIIBAkAIDBw6UpqYm4TgVpDptIYCAF4G6ujqZO3eu6BWtnE95kaMsAoUVIBArrGdetRGI5cXGRgggEIKACcSYmycEfJpEAAFXAsx16IqJQgggEKIAc4iFiE/TCKQIEIilYIT1kEAsLHnaRQABrwIEYl7FKI8AAkELEIgFLU57CCDgVYBAzKsY5RHwR4BAzB9XT7USiHniojACCIQoQCAWIj5NI4CAKwECMVdMFEIAgRAFCMRCxKdpBFIECMRSMMJ6SCAWljztIoCAVwECMa9ilEcAgaAFCMSCFqc9BBDwKkAg5lWM8gj4I0Ag5o+rp1oJxDxxURgBBEIUKC8vl4aGBmEOsRAHgaYRQKBLAY5TXfLwIgIIWCBAIGbBINAFBJICBGIWvA2efPJJOeKII9J6ctFFF8mNN96Yto4nCCCAAAIIIIAAAggggAACCCCAAALdFyAQ675ht2sgEOs2IRUggEBAAuaWyUQiEVCLNIMAAgh4EzBXiHGc8uZGaQQQQAABBOImQCBmwYhnCsTGjBkjEyZMsKB3dAEBBBBoFzCBGLdMtpvwCAEE7BJgDjG7xoPeIIBAZwFumexswhoEwhAgEAtDvUObBGIdQHiKAALWChCIWTs0dAwBBL4SIBDjrYAAArYLEIjZPkL0Ly4CBGIWjDSBmAWDQBcQQMCVAIGYKyYKIYBAiAIEYiHi0zQCCLgSIBBzxUQhBHwXIBDznTh3AwRiuY0ogQACdggQiNkxDvQCAQSyCxCIZbfhFQQQsEOAQMyOcaAXCBCIWfAeIBCzYBDoAgIIuBLo27evrFy5UphDzBUXhRBAIASBgQMHSlNTE8epEOxpEgEE3AkQiLlzohQCfgsQiPkt7KJ+AjEXSBRBAAErBGpqamTZsmVSXV0tJSUlVvSJTiCAAAKpAhynUjV4jAACNgrU1dVJfX0951M2Dg59ipUAgZgFw00gZsEg0AUEEHAlUFFR4ZSbN2+eq/IUQgABBIIWqKqqksWLFwvHqaDlaQ8BBBBAAIFoCRCIWTBeBGIWDAJdQAABVwJmDrH58+fL0KFDXW1DIQQQQCBIgT59+khLS4twnApSnbYQQMCLgF7JOnPmTJk4cSLnU17gKItAgQUIxAoMmk91BGL5qLENAgiEIWACMeYQC0OfNhFAwI0Ak+q7UaIMAgiEKcAcYmHq0zYC7QIEYu0WoT164oknpLKyMq39MWPGyIQJE9LW8QQBBBAIW4BALOwRoH0EEMglQCCWS4jXEUAgbAECsbBHgPYR+FKAQMyCdwKBmAWDQBcQQMCVAIGYKyYKIYBAiAIEYiHi0zQCCLgSIBBzxUQhBHwXIBDznTh3A5kCsYsvvlhuuOGG3BtTAgEEEAhQgA+aAWLTFAII5CVg5hDj1u68+NgIAQQCECAQCwCZJhBwIUAg5gLJ7yIEYn4LUz8CCBRKQH+9bdGiRTJp0iQmgS0UKvUggEBBBThOFZSTyhBAwAcBnVS/traW8ykfbKkSAS8CBGJetHwqSyDmEyzVIoBAwQXmzJnj1Nlx3sOCN0SFCCCAQJ4CDQ0N0tra2ml+1jyrYzMEEEAAAQQQKFIBAjELBpZAzIJBoAsIIOBKwMwhtnbtWunVq5erbSiEAAIIBCkwaNAg50pWjlNBqtMWAgh4EVi6dKk0NzdLWVkZ51Ne4CiLQIEFCMQKDJpPdQRi+aixDQIIhCFgAjHm5glDnzYRQMCNAHMdulGiDAIIhCnAHGJh6tM2Au0CBGLtFqE9IhALjZ6GEUDAowCBmEcwiiOAQOACBGKBk9MgAgh4FCAQ8whGcQR8EiAQ8wnWS7UEYl60KIsAAmEKEIiFqU/bCCDgRoBAzI0SZRBAIEwBArEw9WkbgXYBArF2i9AeEYiFRk/DCCDgUYBAzCMYxRFAIHABArHAyWkQAQQ8ChCIeQSjOAI+CRCI+QTrpVoCMS9alEUAgTAFSktLpbGxUZhDLMxRoG0EEOhKwEyqz3GqKyVeQwCBMAUIxMLUp20E2gUIxNotQns0Z84cGTZsWFr7F198sdxwww1p63iCAAIIhC3Q0NAg69atkyFDhvCrSGEPBu0jgEBGAY5TGVlYiQACFgnor0w2NTVxPmXRmNCVeAoQiFkw7pkCsUsuuUSuv/56C3pHFxBAAIF2AXPLZCKRaF/JIwQQQMAigfLyctFQjOOURYNCVxBAAAEEELBQgEDMgkEhELNgEOgCAgi4EjCBGLciueKiEAIIhCDAHGIhoNMkAgh4EuCWSU9cFEbANwECMd9o3VdMIObeipIIIBCuAIFYuP60jgACuQUIxHIbUQIBBMIViHIgtmDBAjnrrLPklVdeEd2PK664Qnr27BkuKK0jkKcAgViecIXcjECskJrUhQACfgoQiPmpS90IIFAIAQKxQihSBwII+CkQ5UBsv/32kxdffLGNZ4899pDRo0fLeeed17aOBwhERYBAzIKRIhCzYBDoAgIIuBIgEHPFRCEEEAhRgEAsRHyaRgABVwJRDsS22WYbaW1t7bSfBx98sOgPwx111FGdXmMFArYKEIhZMDIEYhYMAl1AAAFXAn379pWVK1cKc4i54qIQAgiEIDBw4EDn19s4ToWAT5MIIOBKIMqB2NixY7v88bfTTz9drrzySikpKXFlQSEEwhQgEAtT/6u2CcQsGAS6gAACrgRqampk2bJlUl1dzYmOKzEKIYBA0AIcp4IWpz0EEPAqUFdXJ/X19ZE9n7r22mvllltukZaWloy7vt122zn79vvf/z7j66xEwBYBAjELRoJAzIJBoAsIIOBKoKKiwik3b948V+UphAACCAQtUFVVJYsXLxaOU0HL0x4CCMRJQL8g1SvB7rnnnqy7vddeezm3UZ555plZy/ACAmEKEIiFqf9V2wRiFgwCXUAAAVcCZg6xJUuWcIWYKzEKIYBA0ALmlkmOU0HL0x4CCLgV0CvE5s6dKxrgR/3Wwr/85S9y9dVXy8svv5x194844ggZN26cmC9WsxbkBQQCFiAQCxg8U3N6QDzyyCPTXrrkkku6vDc7rTBPEEAAgYAETCDG3DwBgdMMAgh4FmBSfc9kbIAAAgELRHkOsWxU1113neitlJkm3DfbjBo1yimz9dZbm1X8i0CoAgRiofJ/2XimQMyCbtEFBBBAAAEEEEAAAQQQQAABBAom0Lt3bxkzZozoBSAsCIQtQCAW9ggk2ycQs2AQ6AICCCCAAAIIIIAAAggggEAgAmVlZXLVVVfJ0UcfHUh7NIJAJgECsUwqAa/TQEwXnWxw9erVAbdOcwgggAACCCCAAAIIIIAAAggELzB8+HDRX6OM+lxqwcvRYiEECMQKoVigOhoaGqS8vLxAtVENAggggAACCCCAAAIIIIAAAvYJcIWYfWMSxx4RiFk26mPHjnV6lEgk8u5ZGNuG0aYCRa3dqPUXY/d/hnEa2zjta1h/AxgH87cX1vi637vMJcN4f4TRZpjjk+/+5rtdFPe1O33ujlPmvwp3a7vTbhjbhtFmd8Y1rG3DcnL3rstcKow+B9Xm+vXrpbGxMfOOJ9cyh1hWGl4IQYBALAR0mkQAAQQQQAABBBBAAAEEEECgGATefPNNOffcc+Xxxx/vcnf4lckueXgxBAECsRDQaRIBBBBAAAEEEEAAAQQQQACBqAtceumlMnnyZPnoo4+y7soRRxwh48aNk4qKiqxleAGBMAQIxMJQp00EEEAAAQQQQAABBBBAAAEEIiowa9YsueGGG2ThwoVZ92CvvfaSiy++2PnxuKyFeAGBEAUIxELEp2kEEEAAAQQQQAABBBBAAAEEoiRw8skny3333Ze1y9ttt51UV1c7vx6ZtRAvIGCBAIGYBYNAFxBAAAEEEEAAAQQQQAABBBCwXeCss86SO++8M2s3Tz/9dLnyyiulpKQkaxleQMAWAQIxW0aCfiCAAAIIIIAAAggggAACCCBgscA222wjra2tnXp48MEHO7dHHnXUUZ1eYwUCtgoQiNk6MvQLAQQQQAABBBBAAAEEEEAAAYsE9ttvP3nxxRfberTHHnvI6NGj5bzzzmtbxwMEoiJAIBaVkaKfCCCAAAIIIIAAAggggAACCIQsMGLECPn000+lf//+csUVV0jPnj1D7hHNI5CfAIFYfm5shQACCCCAAAIIIIAAAggggAACCCAQUQECsYgOHN1GAAEEEEAAAQQQQKAYBT744ANJJBJcdVKMg8s+IYAAAhYJEIhZNBh0xX4BPTk77rjjZMWKFWmd3XjjjeXrX/+67LjjjnLQQQeJ/vrKJptsklaGJwgggAACCCCAAAKZBV5++WUZN26cLFq0qO08a8CAAaLzFf32t7+V3XffPfOGrEUAAQQQQCBPAQKxPOHYLN4Cc+bMkWHDhjkIGpDpr6ksWLBAamtrZf369VJeXi733nuv7LrrrkUB9frrr8suu+wiX/va14pif9gJBBAIXmD58uXypz/9SX72s585Xx7k6sG8efPk2WeflUsvvTRXUV5HAIEIC/z3v/+Vyy67TG688UYpKyuTW265Rb773e/Kxx9/LHPnzpVzzjlH1qxZI9OmTZOqqqoI76l/XV+7dq189NFH0q9fP/8aoWYEEECgCAUIxIpwUNmlYAR69OjhNHTHHXc4V4Tpk5deekmGDBnirD/kkEOkvr7eeRz1/9F9mjFjhpSWlkZ9V+g/AggELKBXfeiEu/pFgi76y1T6oTfb8sADD8jvf/97WbhwoXO7VKafds+2LesRQCB6Ahp6jx8/3vky8emnn5bNNtssbSfeeecd2XPPPZ0vHKdPny4jR45Me50nIpdcconzJSy/8se7AQEEEPAmQCDmzYvSCLQJbL311s7JWWogpi+eeuqpztVh+nj16tWyww476MPILnfeeacT+P3rX/8iEIvsKNJxBHIL6C3hr776qnNlRu7S7kssW7ZMlixZ0nZVba5ATPvw97//XS6++GICMffMlEQgkgJPPvmkHHHEEU7f9UtE/TIx06K3Uuptk/pLdm+88Yarq0wz1VOM6xYvXizf+c535NZbbxUCsWIcYfYJAQT8FCAQ81OXuotaIFsgpt9ymlt8/vznP8tPfvITZ2JYvey/T58+ssceezi3AOh8Y3vttVea0XvvvSd6m5Ce8O27776y5ZZbpr2uT959913nyrOTTz5ZvvjiC/nHP/4h69atk8MPP7ytvN5+8M9//tNZf/DBB2e91VF/Llm3/89//uNc2bbddtultffII4/IMccc46x75plnnEDsG9/4Rtq3t3obg14Zp7c2DB48WHbbbbe0Oj755BN5/PHHnf7pt75/+9vfpKKiQnbaaae0cjxBAIFwBR577DG5++675cEHH/SlI3psaG5uznmFmDb+5ptvOrf+6LGQK8R8GQ4qRcAKAT0fmD9/vnPVqIbl2RY9z9l2222dl6urq2Xq1KnOYw3y9dZqvYJMv4DUKR50DjI9h9L5x1IXL2XNdrqNXuW6cuVK2WeffTJOhbFhwwbnvKxv377OOZ7evqhXuu29995SUlJiqkr7N9e5k9s6dX912g49tuqVtWqj51p6rsaCAAIIIOBCIHmgZ0EAgTwEkh/UEsk/sUTyCrG0rc8//3xnvb6WnFcs8cc//jGRPClz1l177bWJ73//+22vJ28JcrZNnjwlDjjggMTOO++cOProoxPJkzqnzPXXX99WdzIoSwwfPrxt2+QVF4nkyVbbc9Pec88959Sjz/U/7Wfyw2VbPfogeaKVSJ40Oe1UVlYmkidsTtlkyJZIBltO2UcffdTZNrUerevmm292Xk+GaImxY8c62yVvqWzrh9b7+eefJ5InZwm1ME4PPfRQ237p/un2LAggYIfAhx9+mEgG9Injjz/etw6Z40zyQ2/ONlpaWtqOXzkLUwABBCIpkPzCrO3cITm3YM59MMcQPffR86bU86vkF5DO+ZM5Z9F/f/WrXzl1eimb2olk6Oact+h5mzl307aT8yE6xZJzxiauueaaRHLeLmc/brrppkTy9vC2fdI+6LrUJde5k5c69Tip542p+6znXCeddFJqkzxGAAEEEOhCQK9cYUEAgTwETNCTGoi99tprbScmGnCtWrUqkbyEve1kSU9aNHRKzp/jlNPyGkDtv//+Tpn333/f6Ulyvoy2EO3yyy931iWvskqMGTOmrX49MbzhhhsSyfl22oKx5DekzsmRrp85c2ZCn2ubyds40/bwoosuctZryKaLnqAlrwRz1ulJnwZmZjFhXvKWSbPK+Tc5X4UTdv2///f/nOfJWxjawq8JEyYkkleoJZIT5Lb1V70uuOACp39ap4ZmLAgUq0DySs6E+S850bGzm/p3Zdbpv8krNNN2XwP05FUFzjp9Tf/m9W80eSVoWjnzREOs5JURzt968irNtL9bU8ZNnckrLxIajOuxInmlgdNH/QBpls8++yyRvJUpkZwQ3wn59W9e/947LskruZxyGqbrB92OizkeaSCmFvqFgB6/tP2Oix47tT963Mi06PZaz+zZs53wPVMZXafB/P33359Izl+WSN7CnnjiiSfSirrdt1zWOkZad/JqDad+HV/dN/3iggUBBDIL6PFO/871v6uuuipzoZS1hx12WFv55K3VzjmQ2V7PK/Tc6pe//GXbl3z6mh6PkleMuS5rmtMv8XR7PZ8xS/IOAGedfqmn52l6TNFzPBNK6fEqecunc0weMWJEW1/1+GGWXOdO+dSZnFPNaUv7woIAAggg4E2AQMybF6URaBMwgZiGWfotpF4ZZdZpqJR6VdYZZ5zhnKxoWfPh1nwY1sBLT7puu+22trr1gQZa5kRv2bJlzmt6omTWaZhmFj3hM+tTP6jqBzJdryeJZknO1+Gs06vNUhf9xtPUMWvWrLaXMgVipqyeeKYuZj/1ShOz9Pvqm1O9mkwXDcK4Oszo8G8xCuiHHw2hzd+THht0eeuttxIHHXRQ2/qJEyc665Pz9CWSv0zrrNdgWq90MMcSrUPXdVz0b1TL6N+auaJUjzv6IU0XL3WaKx9Mf7Ve/bvV5YMPPnCCdW0n+Yu6bX1P/eCl4dR1113nvKblzDHj9NNPTwvGTCCm4VSqg7arH25Tl64CsVxXbZh6pkyZ4hjpVW/aL21HrcziZt+0bFfWXq7mMO3yLwIIfClwzz33tB1TOp4DZTJKDZnMVVrmC8Yf//jHCQ24ddFw3oRUegW7WdyW1WN4x+OF1qHnb+YqteSvXZpqE6eccopTXo/75hxPz3PMMdV8oejl3MltndoJArG2oeABAggg4FmAQMwzGRsg8KWA+cA6atSoxOTJk53L5pM/CZ54/vnnOxHpB2I9MUr9ptEUMrcbJufoMqucfzU4Mm1o/broBzhzguWs+Op/NHzT9Vo+ddFvRXW9nhiaxdzmmJyg1qxq+1evDtHyJ5xwQts68+HWnNDpC6lhnX5wNv9pO/pYP/iaxZw8vvLKK2YV/yIQCwG9EkD/nkwgZnZaryDQ9SYQ0w+CZp3+Devfj4Y5yQmknXJa9qmnnjKbJ5JzfTnr9QoGXfQqU/NBT2+51sVrnbW1tU6dHW+Z1OAr9RZnvXJM/85TAzFzi5Dpjx6nzLHr6quvdvqj/2MCMd0fvZ1ar4BLTqbttKv7n7pkC8TcXLWh9eiH0Y791NAuNRBzs2+5rPO5miN1P3mMQJwF9ApYPR7of26uEEudNsJ8saZX4+v2ejxJXfR8y9Stob0ubssm5zp1ttXgvuOiU1lovanHEhNImWO62cZMa6FX2Ori5dzJbZ1arymbelzW9SwIIIAAArkFCMRyG1ECgYwC5gNf6i2TGQsmV2popidQHQMx8y2kvqbhVcclOUm9s93o0aOdl1LLp5bV23O0jo6BmF4tputTAzETwJm5wFLrMbdk6kmcWTIFYnriqvXed999pljWf82HYAKxrES8UKQCeuuy/p10DMT0ygJdn/rhScN0Xad/L+bWaWUxQVnqBx0NmVOv+tRyycnwne21Dj0e6OKlzmyBmLl6LDUQ19uGTH/0lkBtU68eS13OPfdcZ72GZWYxxwIT8Ot6vcVQt+947MoUiJnjX+oHUa0j01Ub+gFU69Wr1FKv2FA7s+TaNy3n1trL1Rymff5FIO4CeoWl/p3qf27mEDNX0uoVn2bJFnLptA2mbg2udXFb1nxx2PELAq0j9Yp8c7u3+dIz9ZiuZc0xRq/M18XLuZPbOrVeAjFVYEEAAQTyEyAQy8+NrRBouwKiO4FY8leG2k7YOs5to8Tmii29skEX84FQT/JSFy+BmPlQaiabTa3HfPOp8wmZJVMgpttqH37961+bYmn/mm9udaVpj0AsjYgnMRDIFohl+qBjAqmOt0dqGJ76t6a3XZoPeebKTP3XXJ2pj82PdbitU4fClO34AdC0r20mf8HMOQbpFWDmA6aGW/qa/mBIx0X7mrqYY0HqpPrZjmmZAjEvV22YY6L2TT9Em/kSU+f0yrVvXqzNB9KOH4g7XiGS6sFjBBBIJPSYZf5Ou/LQq7w0DNeyGnSbJVvIlfr3a+YsdVv25z//udOOTnPRcdH5GrUPGuKbejMd03W7joGYl3Mnt3VqO+b4Y76o0HUsCCCAAALuBNI/VbvbhlIIIJAUKMQVYgpp6skULpmTtxdeeMExz/bh0Xz463iVRaYrxFInz3cqTfmf3/zmN86Jnn7wNUumQMxcjaInp/oNb+qiz1O/vTUfggnE/n97ZwJ3x3T+8QeNIEQQtJbYE2tbSlvRoIml9qLKRyzFRzT20hJtUVvtVKsfsba2Ikq1glgrgqb2pBGliSWW2BVVS9T8z/f0/0zPnXfu+977Lsm9N7/z+dzMzJmzfmfm5s7vfZ7npJS0PzcQqEcQ81g6RUHM3RF9cQ0PQs0LW0ep1jZpp5oghoDkL6z+EnjeeeflXfuqusy1o+TfBakgRswf2uXjL5e0UyaI1Wu14S+f3j5C//Tp0/NhdjS3eljX8/KaD0A7IiACMd6hP6MuXJdhYQENL5c+x/47CcutNPGHAcrzveOp1rKsDOl98bsrTf69gLu3p1qf/3p+O9XaJmOQIOZXQlsREAERqJ+ABLH6mamGCEQCLmSl7j/V0PgPmzIrCn+h5KUztaxiH8GJj+en7gUeE4M+U0uzdAzujkQbnjzQPj/2fEU0P0dQWvIfffRRz8oDyLrJPyvM8WPUfyzyA5P+Saymx19u0xhkHkOsvR+6eWfaEYEWItATghiWpDx7WB6UJf+u4Fx3CGK0g1vQkUcemT/z9O8CnX9/pQGmqeOJ4NaeygQxxuvfJR0JYvVabdAvvNxKi36wpPNg3Jxvb271sPbv+KKFWNFChD6VREAEKgn4IhupdXpaAuHcQ0gUf0e5yEV8rjS59SqxGD3VWvbFF1/Mv5dYxCNNvno2opmnvf9/4aRiWAwszPjeGTduXCxaz2+nWtukYf/+8e/l1BLWx6itCIiACIhAOQEJYuVclCsC7RLgx4a/xPFC2FEi0DXliys7Ug9LCF7SOM8PIH8pJBg1eamQ5H/xJJ8fbJ5YoY08PqnFlv8lk3xf1ZI6vnQ5llweA8PLFl/oPOg1P1gRu9x9s/iCnL50+o8xfsQixtF/LStI+Xy0FYFWIMCzxL3PX+/T5C8vvFh5qlW8euGFF/JnvWwBD75rnnjiidhsrW1SuJqFGGP0ldsQkvy7g3l9+OGHGdZi7PMHAlwp08R3URqUuquCWD1WG0899VRcrZPxEEOMeGr+R4xjjz02DrOjudXD2q9p8ftTglh6R2hfBMoJ8HvGn5Xddtst/nHNS/IceuxTVrb230h+3kUufoP4dxV/pOOPjHz4nvJUT9mTTjop/27zVXBZwIg2cS1P/yjpsc34XeSJ825hn4pqtfx2oo162sSqn+9h+jv66KMzX1zFx6KtCIiACIhAdQISxKqz0RkRaEOAHzge14sfH/7hh1jRXJ/KuDL6jxovy/HMmTMr2ibWhZfjpY0fNbR500035eV4YeWHmLdDGV7yTj311Fx04hz5mOWziqSLUeRjqeUrWfKj0f/6yDleVKmXrgjnHfsqa5RD0PMA1fwoHTVqVD4eziPsIayRCGrt1mGc47Prrrt6s9qKQMsTGDNmTLzvEZE88Z3glg6pa7K70hRfZNztj5ccUvqSxfPm7oc8l1hE8Mz7M1prm7R7zTXXxLF6zBy+k1i9kuPUChYrUBeWeIn1lWx5vrEwdQs1vuM4Tq0z/PuAYNee+C7y7wd/meVcaqHhZdO89AWT80WrDSxa4ZO26S+4Hn+oo7nVw9q/TzuyEPG5aCsCIlBJgO+t9PcMv4H4XcL3A3+84zdFWXKRi+8+vpv4Ix77iGipNSh16ylLeRf8GQPfX3ynINjx3Uji+9DFOv8ew8rtgQceyL/nyWdcuHyTOvrt1Jk2mSdjoy/+f+H7W0kEREAERKA2AhLEauOkUiIwWwjwsoygVBTMeqpzfngRn2zq1KntdkE5xlaWsArBUoVAs/4yXFZOeSIwtxFIxSJWcGXRCl7wXKjmJQ/BiOcGwYuXmeLqkay8Rj4vYZ7SVc44h6DtbaZuQ/W0yfcAbfHB7YaXPKxHEY140XL3aixN6YuXQ0/77bdfXpdzLu4zV7dAZY4upBELyFNqheWWpZzjhdLHk373uKhFW+1ZbSCI+VxcFGN1TPI8JmMtc6uVtc+5FgsRn7u2IiAC5QT4DcQzPGHChLiQR3mp/+a6yMWzym+Zu+66q40Q5vXrKet1ELCIgcofH4rWaV6mM9vu/u3E2LBgUxIBERABEaiPgASx+niptAiIgAiIgAjUTOCwww7LhR1EnKuuuiqP94I7ITH9iL/l4g9bhBoEodQ9kXwsH9z667rrrssFJq+bBrt3Fz4/11GbiEZDhw6N40AA81VvqedtIPpwDgHuySefzBlQ1+N7eVmEPdwWSQhQ7i7JeTggHGHlVbR6veGGG7LLL788t3agPMJaKvR1ZLVBny6IUR+Rzl+Ejz/+eE7HVMvcKNge685Yc/y3d/0rAiLQHQT82b7llls6bK6esh02pgIiIAIiIAItQWAeZhF+MCqJgAiIgAiIgAj0AIHwV3sLLiy23nrr2QILLGBTpkyxXr162aBBg7rU26xZsyzEFbRgfWXrrLOOLbLIIl1qj8rBLdGWXXZZm3feeWNbwVLDll56aWMOzz77rPXr18+CK5PNN998bfp666234tyCABXn5m20KdgNGUEYtMmTJxvb4CLUZjzBks1C7CCbf/75LQhzFoQrC6KcMTZP9cytJ1j7OLQVARHoPIEhQ4ZYsFK38McFCwv6tNtQPWXbbUgnRUAEREAEWoaABLGWuZSaiAiIgAiIgAiIgAiIgAjMHQQQ6oN7t4Ug+nbooYdacIu23r17l06+nrKlDShTBERABESgJQlIEGvJy6pJiYAIiIAIiIAIiIAIiEBrEhg3bpydf/75FZNbeOGF7dprr63I46Cesm0qK0MEREAERKClCUgQa+nLq8mJgAiIgAiIgAiIgAiIgAiIgAiIgAiIgAgUCUgQKxLRsQiIgAiIgAiIgAiIgAiIgAiIgAiIgAiIQEsTkCDW0pdXkxMBERABERABERABERABERABERABERABESgSkCBWJKJjERABERABERABERABERABERABERABERCBliYgQaylL68mJwIiIAIiIAIiIAIiIAIiIAIiIAIiIAIiUCQgQaxIRMciIAIiIAIiIAIiIAIiIAIiIAIiIAIiIAItTUCCWEtfXk1OBERABERABERABERABERABERABERABESgSECCWJGIjkVABERABERABERABERABERABERABERABFqagASxlr68mpwIiIAIiIAIiIAIiIAIiIAIiIAIiIAIiECRgASxIhEdi4AIiIAIiIAIiIAIiIAIiIAIiIAIiIAItDQBCWItfXk1OREQAREQAREQAREQAREQAREQAREQAREQgSIBCWJFIjoWAREQAREQAREQAREQAREQAREQAREQARFoaQISxFr68mpyIiACIiACIiACIiACIiACIiACIiACIiACRQISxIpEdCwCIiACIiACIiACIiACIiACIiACIiACItDSBCSItfTl1eREQAREQAREQAREQAREQAREQAREQAREQASKBCSIFYnoWAREQAREQAREQAREQAREQAREQAREQAREoKUJSBBr6curyYmACIiACIiACIiACIiACIiACIiACIiACBQJSBArEtGxCIiACIiACIiACIiACIiACIiACIiACIhASxOQINbSl1eTEwEREAEREAEREAEREAEREAEREAEREAERKBKQIFYkomMREAEREAEREAEREAEREAEREAEREAEREIGWJiBBrKUvryYnAiIgAiIgAiIgAiIgAiIgAiIgAiIgAiJQJCBBrEhExyIgAiIgAi1P4J133rHFFlus5eepCbY2gffff98WWmghm2+++Vp7opqdCIiACIiACIiACPQAAQliPQBVTYqACIiACPQcgb333tv+9re/1dzBQQcdZPvtt19e/oADDrCLLrrIVlttNXvooYesX79++blG29luu+3s5ZdfzofF3A877DCrlp8X1E63E7j00kvtwgsvtE8//bRN2wsuuKAtvvjitsEGG9i+++5ryy23XJsy3Z1x9tln2w9/+ENbZpll7K677rI11lij5i5ee+0123bbbe0///lPXufaa6+1gQMH5sfaEQEREAEREAEREIFWJyBBrNWvsOYnAiIgAi1IYPLkyfalL30pn9lSSy1ll112WRQr3nvvPRs/frwhYJCOP/54+9nPfhb3sQxDuPBEGQSMnk6HHHKIbbLJJvad73ynrq4++OADW3nlle3111+P9Y488kg766yzrFp+XY2rcN0EPvroIxsyZIg98sgjeV2EqVtuucXuueeePG/EiBFRPMszemBn2WWXtVdeeSW2fPTRR9tpp51WVy88I5tuumle59FHH7X11lsvP25vp7P3c3ttzulz06dPj9ds9913ty9/+ctzejjqXwREQAREQAREYHYQyJREQAREQAREoAkJBBEsC/9Pxk8QjdrM4C9/+Uu26KKLZkEQqzi39tpr5/X+/ve/V5zriYOxY8fG/q6++upONR9Ei3y8QRDL26iWnxfQTo8QOPjgg/Prwf33z3/+M/YTrMcq8s8999we6d8bHT58eN7fuHHjPLvm7RtvvJHXZx5BEKupblfv55o6mY2FuG6DBw/OWfzoRz+ajb2rKxEQAREQAREQgTlJQBZis0N1VB8iIAIiIALdTiC1kMGKCgsP0tSpU22eeeaJLmTh5db69OmTW4hxnrhLN910k4WXYFtllVXI6rH01FNPRSscLLyCIGZYn9SbttxyS7vjjjtiNbcQ46Bafr3tq3x9BI444ggLYldeKQhiFoTXeF/17ds3z994442jpWKe0c07s2bNsltvvTXew0Hkrbt1xp3G0avFQqw77ue6B9oDFe699167+OKL43P15ptvGtcN683vfve78bnqgS7VpAiIgAiIgAiIQAMSkCDWgBdFQxIBERABEeiYQDVB7IQTTrCVVlrJ9tprL3v44YejQEbsrX//+99tBIqvfvWrtsQSS9iUKVPsxRdfzDvFBXPNNde0P/zhD/bYY4/Z17/+9RhzaYEFFsjLsHP77bcbL9fEkBo6dKg988wzNmzYMFthhRWiC91OO+1k7777bqxDvCfKLLnkkrb++uvn7dx///1xXAh1iChbb711fo6dasJXWf6MGTPsySefzOsTcB1XzYkTJxruop4QEAcNGmQff/xxhasf57/xjW/Yc889Z8ESKMaY2mWXXWz11Vf3qvkWcYT5UxbeuNv1798/P0+Mtl69euXHvlN2Hfycb1ddddUoMBHrytPyyy9va621Vuwz/CXRs2PcLvpF2OB6e0IUhdF9991nd999t3Httt9+e3PxCBdHPsSQ22GHHWJMOa/b3raaIMaY5p133rwq8+d+ePDBB/N7gJPMjXO4LCJocb25Rp64FxnzCy+8YF/5ylds8803rxCuKAf3zz77zKtELgMGDMiP2YEHrpy4F3M/7rzzzsYz46maIFYcb+/eveN9C6ta7mdvv9G2M2fOtNGjR0fm7vLKvUB8wT322KPi3m20sWs8IiACIiACIiACPURgTpqnqW8REAEREAER6CyBEEw8d3NKXSZDbLHs8ssvb9NsEAiyIO7kdcJ/q1kQJGK5G2+8MUtdMEOA8mzdddetKBvElIo2zzjjjHgeF8wQoDwvG8SXDFdM2i/7bLbZZrGdDz/8MAvxy2KZIJRlW2yxRdzfbbfdsiB25H15Pm2lLpNl+WGRgIyxe78wIv3yl7/M8zj3gx/8IOb/61//yoJQUnGO/r2+b4OAEMv7Pz/+8Y/zMpQPweTzY6/zxBNPePGKbVgQIZbFnZU57LnnnhXsqX/FFVfEa0gZby9Y12UhoH0WxM08j3PB2i+2HywEsyBcVpwLsbwqjik/YcKE2Ke369ta3Wdh53XYusvktGnTKvLhSgoiTEX+UUcdlaVul9x3Ibh9LHv66afHssybsfv8aSNNtJGO4cwzz0xPZ0Fsi0ypzz1DWfph7p6CQFrRhrtMXnDBBXm/PFeMqZb72dtttG1YLCDbddddsyCa5vMNAmj25z//udGGqvGIgAiIgAiIgAjMZgI2m/tTdyIgAiIgAiLQLQRSQSxYwGTBYimKCLz8lwlidFqMm+SCGOfC6pP5CzNtHHjggdmYMWMq8oIFEkWjgOH9h8D8MS9Y9cSyLtAgeKUiWwj6n5H3ySefxPIhEHreNqLK22+/nR//9re/jWX4p0z4ai//17/+dd6OC2KUD9Zneb4LYuQHK6w834WTm2++OQvWVXn+NttsQ9GYrrrqqjyfsZGCNVOeF6yfsuDimYXA//Fc8R8EMYQa6pDSuvSPqOWCYHBjy9tFECMhHlHOP86bc8FyKs/nPOIg1ywVLMmHxQMPPFAh5CFO1pLKBDHmgGDqY2L7+OOP580Fq7v8XHpPUM4FsWuuuSYvwzUkpWJaOk/Owdn7SwWx4J6bC1rBmo2iGXGxKEsdv/+qCWJhUYqM54kYdcG6Mdbnn47u57xgA+xwjx133HFZsMTMGQVL0MghuEpGYZDnTUkEREAEREAERGDuJiBBbO6+/pq9CIiACDQtARekXBRIt9UEMSablksFMbek4Twv0p5SAeO6666L2Ygs3g7iDsIZCcufNHh+WjfND+6ZeX0s2jy5dVeaV68ghpjmY0sFsa222irPTwUxrMS8PFvEMNL555+f5zMuT6lQlgYgd2sm2njppZe8eJvt008/nR166KF5fnDDy/uhbiokpdZgLohRMR1vKhQF99OKcy66pQHvGSdzJh1zzDF5eaz0aklFQSwNyM64uHdSSyzaTJlRBjEOqytE0TvvvDOKfFhj+bxceA3x8PI8xKw0pRaMqSCGkOvtOBuspIp5ZYIYohccuFfCipppd3G/2v3cpmADZHAffeELX8jn7fNPtzwfG264YRZcJrPgap3xfE+aNCkXDRtgGhqCCIiACIiACIhADxKQINaDcNW0CIiACIhAzxFIBTH2sQrB/Y4X3q4KYm75xOjTfrxdhINUAKJPLIxwy0yFhGoCwg033JC/qGOthNUVn7Qvd6Ob3YIYq3OSUhEpdUlNx4MVjqd07O5+5+eqbW+77bacAwwPOeSQiqJdFcT8WlQTCRFBXCDBMq2WVBTEzj777Iz2EZ9CzLDSJlJBDCGrmHD39HGwff7552MRhMU0P7VqqiaI4cLrdc4777x4XyFAet7JJ58c2y4KYoh4iGGUQ7QsS9Xu57KyjZDH9cdFmTkh6u6zzz7ZkCFDshCPLufhXNLt5z73uWhNF+K3ZSNHjszOOeec6F4d4uU1wrQ0BhEQAREQAREQgW4iIEGsm0CqGREQAREQgdlLIBVgXLDBHYwXXxeuykaUvvhWsxCrJoilroypyOBt4hrn1kf0XU1AOOWUU/IXcsog5KWfsCBAFoLPx+GnAlRHMcSoUE38qdVCzAWxiy66KB8jLnSeUpdMrJFIxPZyBszHXR69TtkWsSK1iqJe6qJHne4SxLgffHzcN55OPPHEPL+zgpjHEPM2y7apIEYcu2IKwe/zcTBO3B5Jr776akU+LqGeygQxuPs82XLvpPcV+wivpKIglt6riLRl1zAtk1o8+pgadesuozAhRhqJe5Y4d8zj2GOPjXHGsO4Li15UMEx5sh9W5syw4Nxxxx1zF0wsE3HHVhIBERABERABEWguAhLEmut6abQiIAIiIAL/T6BMEONUWM2xQhC76667ooWHg0tfcLsiiCG+ff/732/z8jxq1Cjvqqogllompe6RecVkp9EEMYQUHxPXIKxqmfkCA7BNRcNkGm12UzGKegTSL6ZWFMRSN1OfL/doel+6uBJWDa3Ip5ynMkGsvfhqXs+3RUHM3XV9HFhFFVOzCmLMIxWK999//+LUKo4RORG5iDeGCE18uLDCabbwwgtXXA9n5duwimeGCy0umNzf7oLp4nZFJzoQAREQAREQARGY4wQkiM3xS6ABiIAIiIAIdIZANUEMtzVc0DwREP6SSy7xw4oX2s4KYgQed0sT4jOl7pOpwFXoSqQGAAAmdklEQVRNQEhfznmZTsfLQHGZcwsdF58oV4uF2JVXXpnPMbWG6i4LMQcJVxcCmCcB8D32lZeptsX1zOuyxSLJ04MPPhhXSeR4v/32y8uxmqWntK7HyeJcMYaYu0w2koUYK0QWUxpTjrm5ax6ui+lcPSYa9csEMfJTqztcBNP08ccf5/HdioIYbq7FVVhZqCJN1e7ntEwj7xO7beDAgZEpFoHVXFzbmwNurFjqnXvuudGdEpfMlHl6vXy/V69e0QWTZ9ldMHEXLj737fWrcyIgAiIgAiIgAt1PQIJY9zNViyIgAiIgArOBQCqIpS59ade8tPJSeu+99+bZ/pLK1gPIc5IV+fwcL66eUhGAlSJJvlqlx8rCSsrrYiHiKR0johxWZYylaPmDSx1iBemRRx6JL9i+SmMqiKXB8KvlIxD5WNiSGC+MPD8Nal8Mqo8gRULw8/JFvr6iYirQxEo1/lNc9ZH4byREQOblItdhhx2WjwFGJMbn42J74403xnz+IQ5Wes7dV1MBkuvpiRhoXn6DDTbw7Ha3xDnzOmyJG9dRSq9VmSBG/XQlyoceeig2OX78+Lyv4viqCWIjRozI6zA+v/dhi6joAfjTVU0ph5jJXNL7HRdCX5WSAVW7n+Ngm+QfngXcHZkz7o/uQtodw2ehBO5HXKJxe95oo40qmNFn8bP44ovnLpjcG3xPIOziLqskAiIgAiIgAiLQswQkiPUsX7UuAiIgAiLQAwSKL/O8ZOJORj5WH8RkSkUXX/WwaBWTuoXxAusvq4gNJILnex7b008/vSIfazDEHMQGVgGkzGmnnRbL8E9qRYVQxphYvZF0wAEHVLRNfY81dc0118Qy/JMKH7TnqVo+1mXpmLGySgOtcy61tiqWdzEK109vBws4D/KfWmHxAk+ssdGjR0dhgWvwyiuv+BBLt4iQ3i5brN6w5HrsscfiuMjzOGaptRv5uBum1njkEfzfE2IEef5xoY3r5nlsXXwkppbnexw6b6va1q+R1/OxVitPPveJly9abXm9VOhDnCWlgqALW14+vf4ucnEOq7IiI6wDcYnkPnCBq2h95taS3Hs+VrashOmpvfvZyzTLNhXAU8vLnhg/zBHPcQv+yU9+Eq0puX5LLLFEBeuUO/u4YCKqcZ/igslqtqyeiYWqkgiIgAiIgAiIQNcJSBDrOkO1IAIiIAIiMBsJEFcqtVQpvkSWHTM8rLKK9RAOEF2K8axoAyuq1GrH273++uvjbDl2axoXIBDVXDjyPr0NyqSrKFLuoIMOqnghRpRJBZ5NN9204jx9UqdafhxY+Aehz8fL9uCDD87FNs8njhnWMj4Hz2ecaeB8z8daiHTppZdWtO3n0y2WedVSKg6lddJ9dxlEaCy68SEqOG/qsI8LG8JUms85rjfuksV8OCNcpn2ynwqOxfEz77Kx0zZuc26NVqxXHD/9sCJpWUJs9HvUBVas88pEN66Hjz8VxGgX8YV6fp4tYuxrr70Wu8X6qOy6U49VKNN67LuAyjNU7X4um0+j53Gf9+nTJ853+PDhc2S4iPT33XdfFJUPP/zweA8iXi644IJtroNfl/nnnz93wWRhC543XDAROdPvnzkyIXUqAiIgAiIgAk1EYB7GGv6DVRIBERABERABEaiDQHBttCBK2MyZMy3EWrIvfvGL1r9//9IWgiuaBeHEQiyhNudDwG2bNGmS9evXz8KLcJvznc0IL9o2efJkCyJObLuz7RTrMZdg7Wb/+Mc/iqcqjsOKkda3b9+KvM4eBIHMgphjwarGevfu3dlmmqZesNqzZ5991lZddVUbMGBA6bg33HBDmzhxYjwXBBELYkqbcnALIpYFd0tbaKGF2pzvbEZ793Nn25xT9e644w4LQrXtsMMOFhaHmFPDKO03xJazKVOmxO+XIHbFZ457g+taLQUXzHjPBNE33j+DBg2KW46XW265atWULwIiIAIiIAJzJQEJYnPlZdekRUAEREAERKBzBEJcK/vud78bK++0004W3L5s3nnnNYS9YMlkwfUvnps6dWq3CnydG21r1ULcCos4WLBEtOBGZ8FFNU4wxMGyYOHUWpPVbNolEOKV5WJZcBO3adOmGWJZsP6rWg9BLFgO2iqrrGLBAtHCAgOGUMZxiKdWtZ5OiIAIiIAIiECrEpAg1qpXVvMSAREQAREQgR4gMGzYMLvnnnvsmGOOsZ///OcVPQR3rSiQIZKFFfQqzumg6wQQIoPLroWYaNGq8He/+11sNATEj9aKXe9BLTQ7gRCvzELsvPjBqgyxjGcRMRWr0bIUXDBtxRVXjB+sEhHKEMlcLJsbrDLLuChPBERABESg9QlIEGv9a6wZioAIiIAIiEC3EQgB9G3kyJHRBTQEI7e11lrLZs2aFa1VQiwve/nlly0EZreNN9642/pUQ/8lEGKFWVjIwEKsMwuLF1gIsG4hSL+F1U+FSAQ6JOBu1GFVXHOxDNdcXDB5hssS4vbyyy8fBTLEMj4rrbRSPEZEUxIBERABERCBZiYgQayZr57GLgIiIAIiIAJzgEBYEdL+9Kc/GTGOEMCIFbbmmmtGceyb3/xm1Vhqc2CoLdVlWI0zio3EvcKqB2Fsu+22sxCAvaXmqcnMfgJYkBGvzMUyYgTigkl+tYRQhgsmlmRYlSGUuVXZkksuWa2a8kVABERABESgYQhIEGuYS6GBiIAIiIAIiIAIiIAIiEBjEWDRENwwiQvo8cpeeOEFe/3110sHioslQhkCGRZluF+6WMZxdy7wUDoAZYqACIiACIhAjQQkiNUISsVEQAREQAREQAREQAREQAT+S+Djjz/O45UhmiGW4YKJVRmrzJYlVuLFsgxLMne/dBdMhDMlERABERABEZidBCSIzU7a6ksEREAEREAEREAEREAEWpzAW2+9lYtlxCvDBROxjM9nn31WOnt3wfSA/sQocxfML3zhC6V1lCkCIiACIiACXSEgQawr9FRXBERABERABERABERABESgZgK4WxKvjM/f//53mzZtWoxX9tJLL5W2gQsm4hgfrMrcHdPFskUXXbS0njJFQAREQAREoCMCEsQ6IqTzIiACIiACIiACIiACIiACPU6AOGXEK/Pg/tOnTzcEtDfffLO0b1wwBwwYEGOU4XqJaObxyrA069WrV2k9ZYqACIiACIgABCSI6T4QAREQAREQAREQAREQARFoWAKssDpp0qQolHlwfxfLPvjgg9JxuwsmlmRYlSGWuVUZ55REQAREQAREQIKY7gEREAEREAEREAEREAEREIGmJID12OTJk6MLJsH9PV7Zc889VzqfBRdcMLcqQyjjg1DmnyWWWKK0njJFQAREQARaj4AEsda7ppqRCIiACIiACIiACIiACMz1BJ5//vk8Xhlimccre+WVV0rZpC6YuGJ6vDLcL/kssMACpfWUKQIiIAIi0JwEJIg153XTqEVABERABERABERABERABDpJgDhlHq/Mg/vPmDHD3n777dIWcbPE7dKFMvaJV4ZQxlZJBERABESg+QhIEGu+a6YRi4AIiIAIiIAIiIAIiIAI9ACBDz/8sCJeGWLZs88+a7hgfvzxx216XGihhaJIhlCWimUer2zppZduU0cZIiACIiACjUFAglhjXAeNQgREQAREQAREQAREQAREoIEJvPHGGxXxyp555pkolOGaWZZwwcTtcrnllsvFsnQVzEUWWaSsWkvksdjB7373Oxs4cKBtsskm3Tane+65J7q+fu9737P555+/rnYRO++77z7bcsst66rXSoX/+c9/Wp8+fWpegfW9996zvn371oTg3XfftUUXXbSmsu+8844ttthibcpyfb/+9a8bQnMrpyuuuCKy2mGHHebYNLvyLM2xQfdAxxLEegCqmhQBERABERABERABERABEZh7CGBB5i6YxCtDLEMoe+2110ohYE2GGyZiGaKZu2BiWbbaaqvZPPPMU1qv0TMRRUaNGmXXXHONsf/Tn/7UTjrppG4Z9n/+8x9j0QPavf766+073/lOze1OmDDBDjjgADv66KMN19g//elPRntpQijq16+fLbXUUrbbbrvZ5ptvnp5u2v3PPvvMfvWrX9kZZ5xhHj8P0encc8+N4lNxYlhCnnjiiXb11VfbCy+8YF/60pfsnHPOsaFDhxaLxuPLLrvMRo8ebQ8//HC8l3/wgx/YYYcd1qYs1+3AAw+0u+66y15//XVbZpllbOTIkfaTn/wkv9/Hjh1rxxxzjF188cWlY2vTaDsZRx11VOzLi6yxxhpxTn5cbXvrrbfG+9bPc89deumlUdT2vK5sJ06caBtuuGFsAg5LLrlkV5rrVN2uPEud6rCRK2VKIiACIiACIiACIiACIiACIiACPUIgCGVZEBey8OKf7bzzzlkQGLIgvGThHbHNJ1jGZKuvvno2bNiwLFhBZccff3z2m9/8Jhs/fnz20ksv9cj4urPRjz76KLvjjjuyILjEuQVBrDubz/bZZ59s7bXXzoLYWHO7N910UxzLDTfckNcJAmYWBJmYv+6662ZBwIvXiPb9uuy7774Z82n2FMStfE5B7Mv3mecDDzxQMb1PP/0022KLLWKZIDpm//73v7NddtklHgehqKIsB952ELGyYBWYBZEtlj322GMrygbrynjduPe5j4MQFK8lY9hrr70qyt57771ZsDTLfvvb31bkd+YgCNOxLb+mf/nLXzpsZvDgwTkjnr8gEHZYp1qBII5n//rXvypOB2EwW3/99bNgqZgFsbLiXE8c0Mejjz7apunOPEttGmmBDGuBOWgKIiACIiACIiACIiACIiACItBUBBAQHnzwwSxYw2TBqibbaqutsmAdlvXq1St/IfcXebbBkiSKadtss00WLG2y008/PRszZkz2yCOPZMEFraHmfsQRR8Q5dLcgVu8kp06dGgWR8847r01VOMI1WINVnHNRh3MIZc2cEJ6YBwIV+yQXnMhHmElTsPSK5Q855JA8GwGLssF6MUMw8xQWpoj5iFwu7ATLowyBkfLTp0/3otnBBx8c84LLap7H/e+iJGNKE9cLUezFF19Mszu17+IsY/r2t7/dbhsIhJTzD2J2VxJ84TQn08033xyF+Dk5hkbuW4JYI18djU0EREAEREAEREAEREAERGCuIxBcLbM777wzWtyMGDEi23TTTbPgYpm/qPsLu285x4t/cCPMjjzyyOyXv/xlFtzPMgShrli4dBZ8cE2MY52TghjiTHCTi+PAKqeYYAW/oiBGPee67bbbFqs11fFVV12Vbb/99m3GfNFFF+VzTO8PRC/mfvfdd1fUQUgiP7XawoKOvKI1mAuKWCCRaN95poIa54I7bTy38cYbc5gnv3aIll1NCM2pZVxYKKNqk8wzLTtt2rSqZTs6Edws49zmpCCGdRoWlVimKpUTkCBWzkW5IiACIiACIiACIiACIiACItBwBLC8wQ3wlFNOyfbYY4/sq1/9asVLvIsPbENcrGh1hqC25557ZghUl1xySRQ86nE7rBcCLnT074JYiEWVXXfddVGgq9YWL+9YEF155ZXR6s2tjtLyuPDhyvf222+n2aX7WMYwhqJLnheuJohx3kWR1ILqk08+yXD98w/HJNwqPY9tOm72sX5C4CThQodVX2o9FU+Ef+op63U62oZ4aaWsuB6wwQrLxxsC6Mc88otufi5c4ebnyS3B4Jym+++/P2+HfLcko91i8mvEOIopxKKL7RSt9EIctHj/h0USilVKjxHEfvSjH+XXFCGvLD399NOxPywvGSufaoIYfYdYaBlupFzzYnI3XdrA3ZkyqfvtzJkz4/Pg9bif03sovb+55/1cmk/dsEhChiswbspF0RerUa4XY0BYpI0333zTu4zusO09S5Tl+vBMYs1XlrgWtEHiPsLiFSaMuVlS27uyWUaucYqACIiACIiACIiACIiACIiACOQEJk2alGEV9OMf/zhahXzxi1/MwiqB+Qu+v+izDatgZuuss072rW99K8MKDYGNWGfEWXL3urzhOndcEGObxuWi31133bXNCzZjRhTBmsXFqG984xsZwgHp2WefjW53lKGNEMC9wxFtttlmsextt91WWraaIJYKOoceemhe97HHHssFBsbgQg2WfLgNkseHa4CYcOqpp0Y3Q/IQSLA28zJsYUOqp2w+mC7uMBfGgFjkKXUX9DzfYhlGeVx6SakVXTEul4ttlH/11VezlGfxvsIlkXJ8ijHyEJLIx8ovTW71F4Lmp9lV95kjscCwZPO+EHKKiWeA+4/r5+WKghiiD+W4RxGb4EFZrAxdBEJE8vuUc+zzwWozLO4Qn0tv38eABZfnsQ0LQPipKKC65R7PDglBFas6XE7T++rXv/51Xo/nJ22TMaywwgodPkvcj2nb/jyeeeaZedtcG7capF3ERB8jfdJPUaDLKzfYjgSxBrsgGo4IiIAIiIAIiIAIiIAIiIAIdCcBLH4QPHCVO/zww6MIxst8WM2y4qXZX6CXXXbZbIMNNuj0EFwQoz0siVhQIKxSmPf1wx/+MG8b107KedB7hAUss8hzl0XipIWVDvP6HQliHjuLNrDKKktlghhihse1QnhBHCgmH5sLYpzH+oe++CCoIPScddZZeR5iAfWwVHIRhbL0V0/Z4lg6e4w4Q/9Y43m68MILYx7zLyaujc8PUcitqcgjcH2asEzyslgMpdcidbmkTirCFS0W03rpOe5L2sdqrZbkghgWUj6uopjmfTG+VKQrCmLE+qMNFwGxEnRhCAHKre0YlwtEqcskwqjHU6OdNPkzgwBVTIjK/ixwDovPdBypFV5q3XfFFVfEcqnLZHvPEs8eiwogaLk1GqK0zwWhnXTjjTfGOIbOk/NcD+4hf3545pshVV6FZhixxigCIiACIiACIiACIiACIiACItAtBLDiweUKwWn//ffPNtlkkxivjMD9nU3+cs9LvLsWIhbsvffeuSjhCwEgEKWuifTpFkm8cCNkeOJFnbyOBDGEGH9ZTwUCb4etC2IIEIgsbgnDC/1xxx2XVXPJc4ucVBCjPRe6EMQ8uXhGHC+P1YWbm4sGqehYT1lvvzNbxDs4EnMuFXAQ62BWtMiij9QFEMufW265JedbFA057+ypR/KVG2HE/D1hlehli/HFUiu0VLjjumDhVmtyQYzy3//+92N/WDWlFky49nJNuFerCWJYAjJWVt1ME2KdzwFLR08uIqWCGOeeCyucenkvyzYVErGq84S7IuNFyPLk92p6b1OGdrGm9FQmiPk57gHKp88Sghd5F1xwgReLW/j7mBk/CbHQ89J7/oQTToj5qQgXKzToPxLEGvTCaFgiIAIiIAIiIAIiIAIiIAIi0IwEXBDzGGI+B8Q3f4nGysZXMCSPF3T/IE74fvqy7aJT+hLvbadbhAnaRCSollwQw9oGAc1d8di6+1tZ3XoEMVzPGAcCUprOPvvsnIOLUvWUTduqd//kk0+OXIqWXVj0MFbcBosJV9qUJ/GzOOZTFMSwKPJziEskti7iIBQhjKZupmUiHPW8zhlnnMFhp1IqiOFq6GMjVhgJwYl+vI9qghhWZdT92c9+1mYcvmIp95SnaoJY+gx4Wd/ijkkf7hpJPladqXBK3qOPPhpj07GPIOdCFnXTRQPaE8TKniW3vsMlMk2IlS64uVsmK4DSX/EZc2tCLOaaIUkQa4arpDGKgAiIgAiIgAiIgAiIgAiIQJMQqCaIMXwXCgiyT8B5Xqqx3KkluWjVkSDmgdER1qolF8R8lUmEN8bCJ43hVKzfHYLYQw89lPflAferCWJlZYtjqvXYhaxx48a1qTJ69Og4pjJmviqlixyILs6q6FaYWg65dSCdIZQRxwvLIVwPEU5cZDnttNPajIcMv95FF8fSwlUyU0GMIh6vi3litXf++efHcbCoAKmaIOZiEe6mxXTEEUdEHoh8nvw+L1qIpa6bXta36T2IcEbCcvCyyy7zIvn28ccfj8HyEfMQnp1lrYKYs/VnCWszv6YuZOadhR1fROGQQw6J2S58FgUxv8ewCmyGJEGsGa6SxigCIiACIiACIiACIiACIiACTUKgPUEMCyRevBHDcNVk34WW4vRSQYVzxZf4Ynk/xuXLX+49r7gtCmKcP++88/J6xEkqS90hiKWWce4qWE0QKytbNq6O8hBKEC8uvfTS0qLuEgg33BXT5BZILlxiQed8iQOWJm+Ha9VectGSdlK32LSOi0pY1HU2FQUxBCAfOyIgfaSCWzVBzO897u1iIuA8baarcPrY6xHEaNfvAyzRGCvXrOi+y71Jf9yLLuRhUUleZwUxj6NGGzyXxeRWcG5ZJ0GsSEjHIiACIiACIiACIiACIiACIiACcz2B9gQxt2RBVElXJEzjJjlAXvifeOIJP6xZEHPBgJf7NM5S3lDYKRPEOO8v/owTt7Bi8iDquKOlyV3QsNzx5OIGwfPT5JZAqWhUT9m0rVr24YxA426BaR1iipEQ5txF0a2GvJzP2d3lyHdLq2Kbv/jFL6Iwk7oPeju+pU8stLg+xUD7XoYt5/lUEyfTstX2i4IY5TwovbefrjpZTRBzBmXiLTHnaIuYaJ46K4iNGTMmtgWfPffcMzvyyCO9ybh1V0WulYupnHBBLF1Eoj2XSRf40mvtz2bR1Zn2/f7EvZgkQSxi0D8iIAIiIAIiIAIiIAIiIAIiIAIi8D8C1QSx22+/Pb7s77777rEw8bNcOEAA8JdzLJQQX3jpT62VXHTyVf7+12PlXiq0eRDwyhJZvjpgMfg31kou1hB43oPhe30WG0D8SFc5JMi7iwkuGFDeRYQ0KDz5zI02CEDuqZ6yxP/C5bBoQedtpVuCrCOW4K5YTAh16YIGo0aNiuNKhR1ihDE3Pqkll1/LLbbYoqJZBCPmVmZl5AVxU6UMMbOqJYLvU4ZPKooyBtzyapk7bTO+olVXuigAKzimifhc3u/UqVPzU9dff32en1phUYBFE6hDXU9+r2IxR3LXUheSKF+WmJfff5Txel7WFzhIBTFY+f2HoEcfJBZ+oA13X8Ta0OPj+fjSZ8lXwOR+SfmyT398PN+fMfpNk1t98uw0Qyq/Cs0wco1RBERABERABERABERABERABESg4Qi4IIZ7pFusYNnCSzgCWLrCH6IML+3+wXKFF2+OUyGJF3F/6Sf+WEfJXTPvvvvuNkWxGnMLGcqlljYU9jhIjAE3OF7+PRFDinzGiCjmKxT6+LEkwhWP5CIXsaVcWMM1DcGBT+oKV2tZBCHvq8xaycfJ9umnn87FFe+TLYKLs0yFPcQSBDLOEdsMwfKggw6K/fmc0vZdQHHRh+vC2DwuW1qWfdz7XAxLRbdiOY5xNaQt7pdUFPXrVmbFVGyHgPnUL4qelPP7IxW9yE9XOEV0TNNmm20Wx0RdXyXV4+BhGZcmhDjGjzUall7uaogA5dePe6EsnXjiibFMUWykLAKl12detMs19TzuP6+XrraK2ytx0Bh3tWeJuGUuxrHwgT8XPp5UPCMOnfeZWmE6P9rxBSPK5tgoeRLEGuVKaBwiIAIiIAIiIAIiIAIiIAIi0AIEcEFzSypemt0aZZdddqmwMvKpIqS4QOMv2cTz8sSLeLoqIWIUqyW2ly688ML4wn700UdXFOPlvtgXL+9FgYZ6Pha2bvGCsMW+n0NwwU3S5zh8+PDMhQMXuRgvfSJUsI8wweqAaaq1bCqIMQYswKolF498rGXbVOyjHayLGAvjRWhB/CkL6k5ZBBMsrChLX3CEm1sRUYaEaMPcKYfAWOYe+9+S//uXOoy36JLpQlbZao//q51lxx9/fOzP58z1YbVMTwg3uMd6YgXK9Lp6PQQtZ8S1Ryjyc8yZ6889VUxjx47Ny3HfI+pxT7rgRBvUpVwxIUZyHmuwssTcYUkZrhGi77777huPeU7cQozxDh06NObTL9ZbHT1LWJE5B/pgjLSZjoVFFrx/xgBbVnZFIE3zEVeLMdTK5jMn8+ah8zAJJREQAREQAREQAREQAREQAREQARHoNgLBAsrCC7GxXWeddaxfv35V2541a5aF2FoWxJRYdpFFFqlattYT3/zmNy1Y1FhwI6u1Ss3lpkyZYow5iAU277zz2vjx422ttday/v37521ssskmdt9991mwgrNVVlnFglBoq666qgURIy/jO/WUDSKYBYs7C2KNBbHGBgwY4M102zaIMhbENwsCVIdtBssyC5ZWFlYitPnmm69N+dtuu80WW2wxGzRoUNy2KVCSMXDgQAsWVBaEw4r7JliZxb6+9rWv2TzzzFNSs+ezmC/3KvdzEMWqdkg5Puk9UbVw4cSECRNso402ivdW4VQ8fP/99+2tt96yFVdcMR4j63BfcJ8VE/fKsssuW7WtYnmOeW54drlmn//858uKtESeBLGWuIyahAiIgAiIgAiIgAiIgAiIgAiIQErABYJgGWQhbll6arbsu8gVYlbZ1ltv3W6f9ZSloWBtZCEAuwXroHbbbcaTiIuIfcwvWFc14xQ05iYhIEGsSS6UhikCIiACIiACIiACIiACIiACIlAfgRDbyU499VSbOHGirbTSSvVV7mLpIUOGWHAPtBCQ3cKqi+22VmtZLOhCgHwLLmrR8my99dZrt91mOzljxgwLsbosxMeK163Zxq/xNhcBCWLNdb00WhEQAREQAREQAREQAREQAREQgToI/P73v7fjjjvOsBTDrW92JISdECssuv0deuihFmJhWe/evUu7rqdsiPFkIeaajRw50hZaaKHS9po1MyzAYNtuu63tv//+dtRRR9Xl4tesc9a45ywBCWJzlr96FwEREAEREAEREAEREAEREAER6GECL7/8suG6OGLEiB7uySyswGfnn39+RT8LL7ywXXvttRV5HNRTtk3lFssIwftt8ODBtvrqq7fYzDSdRiUgQaxRr4zGJQIiIAIiIAIiIAIiIAIiIAIiIAIiIAIi0CMEJIj1CFY1KgIiIAIiIAIiIAIiIAIiIAIiIAIiIAIi0KgEJIg16pXRuERABERABERABERABERABERABERABERABHqEQM2C2NgZ79h7n37aI4NQoyIgAiIgAiIgAiIgAiIgAiIgAiIgAiIgAiLQEYHBS/e1FfuUL1LRUd30fM2C2KpXT7Tn3vsorat9ERABERABERABERABERABERABERABERABEZhtBC4etobtO3DpLvdXsyB20uMz7O2PZCHWZeJqQAREQAREQAREQAREQAREQAREQAREQAREoFMEhq+2tK3fv0+n6qaVahbE0kraFwEREAEREAEREAEREAEREAEREAEREAEREIFmJSBBrFmvnMYtAiIgAiIgAiIgAiIgAiIgAiIgAiIgAiLQKQISxDqFTZVEQAREQAREQAREQAREQAREQAREQAREQASalYAEsWa9chq3CIiACIiACIiACIiACIiACIiACIiACIhApwhIEOsUNlUSAREQAREQAREQAREQAREQAREQAREQARFoVgISxJr1ymncIiACIiACIiACIiACIiACIiACIiACIiACnSIgQaxT2FRJBERABERABERABERABERABERABERABESgWQlIEGvWK6dxi4AIiIAIiIAIiIAIiIAIiIAIiIAIiIAIdIqABLFOYVMlERABERABERABERABERABERABERABERCBZiUgQaxZr5zGLQIiIAIiIAIiIAIiIAIiIAIiIAIiIAIi0CkCEsQ6hU2VREAEREAEREAEREAEREAEREAEREAEREAEmpWABLFmvXIatwiIgAiIgAiIgAiIgAiIgAiIgAiIgAg0IIHPPvvMnn/+eVt55ZXj6D744AP78MMPrX///g0zWgliDXMpNBAREAEREAEREAEREAEREAEREAEREAERmLME7r77brvwwgvtrbfesl69esXPJ598Yp9++ql97Wtfs5///OftDvD666+3UaNG2TLLLGMTJkyIZffYYw+bNGmS/e1vf2u3bvHkjBkz7JxzzrGbb77ZNt10Uzv44INt3XXXLRazN998M47t4osvtqFDh7Y5X5YhQayMivJEQAREQAREQAREQAREQAREQAREQAREYC4l8Mc//tG+/e1v29ixY22bbbYxLL7uvfdeO/300+3222/vkMrw4cMNMcsFsaeffjoKbIMHD+6wblpgt912s6WWWsoWW2wxGz16tC244IL2j3/8I4p0abntttsujnXcuHG25ZZbpqeq7ksQq4pGJ0RABERABERABERABERABERABERABERg7iNw//3325AhQ3JBzAkghtUiOI0cOdKmTJmSC2Jev57tyy+/bFdffbUdddRRsdqYMWNs1113jdZi2267bd7Ub37zGxs/frxdfvnlJkEsx6IdERABERABERABERABERABERABERABERCBeggUBbGPPvrIrrjiChsxYkTeDFZkN954Y7QEGzZsmB1zzDE233zzxfMHHXSQTZ48OQpiL774ouHK+NJLL9lll10WzxNP7IQTTrCHH37Y1lxzTTvwwANtjTXWyNsu23nttdfs85//vD3yyCP2la98JRZ57rnnDHfMP/zhD7b00ktLECsDpzwREAEREAEREAEREAEREAEREAEREAEREIGOCbggts8++9jqq68eha1BgwbZWWedFSsjQB133HH217/+1aZNm2abb7657bjjjtGtkQKpIPbAAw/Y4YcfbvPPP7+xT9p5551jnQMOOMB23313e+ihh2z69OnxXLV/EOBcREN4w42Tfs8991xbccUVbdFFF517BDEUyjfeeMOWX375arxaKv+ZZ56xgQMHzrY5vfrqq7bIIotYnz59SvvEb3e11VYrPdcombNmzTLMLHk4uiOhbC+55JK2wAIL1N1cRzzrbrAJKnTmnuVLjb8cDBgwoMdmyF8W+vbtG/3Pe6yTBmu4uMpLIwyvuNIMzyvXfqWVVur24REEdObMmbbCCit0e9tqUAREYO4i0Ijfpz15BQhSzEsHsVvmpjQ7fo8Uec6JPotjaLTjrjCZ257VRrt2Gk/zE3BB7Kc//amtv/76MSD+e++9lwtiX/7yl2377be3E088MU4WKy3ijfGu1bt37wpBjAJYlj355JNRECO2GL/LySNo/1NPPWX33HNPtBajr7LEM73RRhtFCzO3JDvllFPiO90RRxxhjK1eQez/AIpOM2PuGYkrAAAAAElFTkSuQmCC;" parent="1" vertex="1">
                    <mxGeometry x="-90" y="-680" width="1030" height="724.38" as="geometry"/>
                </mxCell>
                <mxCell id="Yr3t7ejNtm0bVkwtEUdj-5" value="Projektteam" style="ellipse;whiteSpace=wrap;html=1;fontSize=14;" parent="1" vertex="1">
                    <mxGeometry y="-450" width="120" height="80" as="geometry"/>
                </mxCell>
                <mxCell id="Yr3t7ejNtm0bVkwtEUdj-6" value="Mitbewerber" style="ellipse;whiteSpace=wrap;html=1;fontSize=14;" parent="1" vertex="1">
                    <mxGeometry x="550" y="-200" width="120" height="80" as="geometry"/>
                </mxCell>
                <mxCell id="Yr3t7ejNtm0bVkwtEUdj-7" value="&lt;span style=&quot;color: rgba(0 , 0 , 0 , 0) ; font-family: monospace ; font-size: 0px&quot;&gt;%3CmxGraphModel%3E%3Croot%3E%3CmxCell%20id%3D%220%22%2F%3E%3CmxCell%20id%3D%221%22%20parent%3D%220%22%2F%3E%3CmxCell%20id%3D%222%22%20value%3D%22Endanwender%22%20style%3D%22ellipse%3BwhiteSpace%3Dwrap%3Bhtml%3D1%3BfontSize%3D14%3B%22%20vertex%3D%221%22%20parent%3D%221%22%3E%3CmxGeometry%20x%3D%22270%22%20y%3D%22-790%22%20width%3D%22120%22%20height%3D%2280%22%20as%3D%22geometry%22%2F%3E%3C%2FmxCell%3E%3C%2Froot%3E%3C%2FmxGraphModel%3E&lt;/span&gt;" style="text;html=1;align=center;verticalAlign=middle;resizable=0;points=[];autosize=1;strokeColor=none;fillColor=none;fontSize=14;" parent="1" vertex="1">
                    <mxGeometry x="50" y="155" width="20" height="30" as="geometry"/>
                </mxCell>
                <mxCell id="Yr3t7ejNtm0bVkwtEUdj-8" value="" style="shape=image;verticalLabelPosition=bottom;labelBackgroundColor=default;verticalAlign=top;aspect=fixed;imageAspect=0;image=data:image/png,iVBORw0KGgoAAAANSUhEUgAAAuQAAADOCAYAAAB2DBccAAABSGlDQ1BJQ0MgUHJvZmlsZQAAKJFjYGASSSwoyGFhYGDIzSspCnJ3UoiIjFJgf8bAwiDOIMggxGCdmFxc4BgQ4ANUwgCjUcG3awyMIPqyLsgsPtWzVeum9hlMe3Kw4m9l1ldM9SiAKyW1OBlI/wHi9OSCohIGBsYUIFu5vKQAxO4AskWKgI4CsueA2OkQ9gYQOwnCPgJWExLkDGTfALIFkjMSgWYwvgCydZKQxNOR2FB7QYDXKTUvUMHVx8jC3CCUgHtJBiWpFSUg2jm/oLIoMz2jRMERGEqpCp55yXo6CkYGRkYMDKAwh6j+HAgOS0axMwix/EUMDBbAcGSegBBLmsnAsL2VgUHiFkJMZQEDA38LA8O28wWJRYlwBzB+YylOMzaCsHmcGBhY7/3//1mNgYF9MgPD3wn///9e9P//38VA8+8wMBzIAwByn2J9ux33gQAAAIplWElmTU0AKgAAAAgABAEaAAUAAAABAAAAPgEbAAUAAAABAAAARgEoAAMAAAABAAIAAIdpAAQAAAABAAAATgAAAAAAAACQAAAAAQAAAJAAAAABAAOShgAHAAAAEgAAAHigAgAEAAAAAQAAAuSgAwAEAAAAAQAAAM4AAAAAQVNDSUkAAABTY3JlZW5zaG90LmSJFwAAAAlwSFlzAAAWJQAAFiUBSVIk8AAAAdZpVFh0WE1MOmNvbS5hZG9iZS54bXAAAAAAADx4OnhtcG1ldGEgeG1sbnM6eD0iYWRvYmU6bnM6bWV0YS8iIHg6eG1wdGs9IlhNUCBDb3JlIDYuMC4wIj4KICAgPHJkZjpSREYgeG1sbnM6cmRmPSJodHRwOi8vd3d3LnczLm9yZy8xOTk5LzAyLzIyLXJkZi1zeW50YXgtbnMjIj4KICAgICAgPHJkZjpEZXNjcmlwdGlvbiByZGY6YWJvdXQ9IiIKICAgICAgICAgICAgeG1sbnM6ZXhpZj0iaHR0cDovL25zLmFkb2JlLmNvbS9leGlmLzEuMC8iPgogICAgICAgICA8ZXhpZjpQaXhlbFlEaW1lbnNpb24+MjA2PC9leGlmOlBpeGVsWURpbWVuc2lvbj4KICAgICAgICAgPGV4aWY6UGl4ZWxYRGltZW5zaW9uPjc0MDwvZXhpZjpQaXhlbFhEaW1lbnNpb24+CiAgICAgICAgIDxleGlmOlVzZXJDb21tZW50PlNjcmVlbnNob3Q8L2V4aWY6VXNlckNvbW1lbnQ+CiAgICAgIDwvcmRmOkRlc2NyaXB0aW9uPgogICA8L3JkZjpSREY+CjwveDp4bXBtZXRhPgrQYeo4AAAAHGlET1QAAAACAAAAAAAAAGcAAAAoAAAAZwAAAGcAADkaiIyvoAAAOOZJREFUeAHsnQWQLcX1xvtBkCKQQBEkQB4WILg/CPDHJRAgBAkEAiShkODuLsHdAsFdCoI7wd2D68MDBHe///5NcqbO7TdzZe7dvbv7vq7a7bkzrV/3dH99+vSZYbXogpwQEAJCQAgIASEgBISAEBACPUFgmAh5T3BXpkJACAgBISAEhIAQEAJCIENAhFwdQQgIASEgBISAEBACQkAI9BABEfIegq+shYAQEAJCQAgIASEgBISACLn6gBAQAkJACAgBISAEhIAQ6CECIuQ9BF9ZCwEhIASEgBAQAkJACAgBEXL1ASEgBISAEBACQkAICAEh0EMERMh7CL6yFgJCQAgIASEgBISAEBACIuTqA0JACAgBISAEhIAQEAJCoIcIiJD3EHxlLQSEgBAQAkJACAgBISAERMjVB4SAEBACQkAICAEhIASEQA8RECHvIfjKWggIASEgBISAEBACQkAIiJCrDwgBISAEhIAQEAJCQAgIgR4iIELeQ/CVtRAQAkJACAgBISAEhIAQECFXHxACQkAICAEhIASEgBAQAj1EQIS8h+ArayEgBISAEBACQkAICAEhIEKuPiAEhIAQEAJCQAgIASEgBHqIgAh5D8FX1kJACAgBISAEhIAQEAJCQIRcfUAICAEhIASEgBAQAkJACPQQARHyHoKvrIWAEBACQkAICAEhIASEgAi5+oAQEAJCQAgIASEgBISAEOghAiLkPQRfWQsBISAEhIAQEAJCQAgIARFy9QEhIASEgBAQAkJACAgBIdBDBETIewi+shYCQkAICAEhIASEgBAQAiLk6gNCQAgIASEgBISAEBACQqCHCIiQ9xB8ZS0EhIAQEAJCQAgIASEgBETI1QeEgBAQAkJACAgBISAEhEAPERAh7yH4yloICAEhIASEgBAQAkJACIiQqw8IASEgBISAEBACQkAICIEeIiBC3kPwlbUQ+Oyzz8J9990X5ptvvvCjH/1IgAgBISAEhIAQEAKjIQKVCfl3330XHnnkkYaQ/eAHPwgTTjhh/tcwsB4KgdEIgaeeeiqceOKJ4eyzzw4fffRRuPrqq8MKK6xQGYHnnnsu3HTTTeHpp58Or776aph88snDjDPOGFZbbbUwzTTTZOluttlmYYMNNgjzzDNP5XwUUQgIASEgBISAEOg+ApUJ+VtvvRVWWmml8OCDD7ZUqkknnTQsssgiYdNNNw1LLbVUS3EUSAgMNQRef/31sM4664Tbb7+9rmpVCfmXX34Z9t1333DggQfWped/IH2fZZZZwllnnRWuvPLKsOKKK/rHuhYCQkAICAEhIAR6jEBlQm7lfuONN8Iee+wRTj/9dLsVpptuuox0jzXWWOGuu+4Kjz32WP6MC6R25513Xhh77LHr7uuHEBjqCKCictJJJ2XV3G677fLqViXkLIqvuuqqLJ311lsv7LDDDmHKKacMd999d7j55pvDueeeG9555508HxHyHApdCAEhIASEgBAYMAh0TMipyfPPP59tj1utDjnkkIwY2G+20//v//6vjhggpYMcyLWOAKoGxx13XFhooYVaj6SQAxaB6aefPrz00ktZ+aoQ8uOPPz5svvnmWfydd965UEr+7LPPhiWXXDK8+eabWTgR8gHbHVQwISAEhIAQGI0R6Aoh//jjj8OPf/zjHMaUkPPg4YcfzogB+rLmkOz9+te/tp/yGyBwww03hOWWWy6TekKw5AY/AiNGjAgPPPBAVpEqhHyuuebKd5+++uqr0h2nkSNHZupikHIR8sHfb1QDISAEhIAQGHoIdIWQf/PNN3VkoIiQAx26s6iqmFtzzTXDBRdcYD/llyDw+eefhwUWWCA88cQTIuQlGA3G2wsvvHCmWkLZ2yXkX3zxRRhvvPHyan/44Yd1i+L8wf8uTjjhhMChThHyFBn9FgJCQAgIASHQewT6hJAfeuihYfvttx+ldscee2zYcsst8/tzzjlnePTRR/PfuhgVgVqtFtZYY41wySWXZA/RC5aEfFScBuOdxRZbLD/c2S4hf/vttzNLKlbvI488Mmy99db2cxTfdrFEyEeBRjeEgBAQAkJACPQcgX4l5Ndee22dabeZZ545YP7NO8y2cRANiyy/+tWvwr///e/MNBxS+LXXXjtMO+20Pnh2zUE51F/QVcf94he/yCTKw4cPz36X/fv666/DpZdeGu6///6w//77ZxLH77//PqAewj3yxELFyiuvHIYNG5Yng3rAvffeG2655ZbMpCNqNzPMMEP+vOwCU5GYpnv88ccDBGnqqafOyokFjDHGGGOUaJ988knYYostwplnnpk/w1LGoosumv3GbvVEE02UP7OLqnhgsePCCy/MynfwwQeHMcccM1x++eWZFHfBBRfMrHNwUNc7sPjXv/4VHnrooQx/MJ9jjjmyMwNpWIsHmaRO448/fmZ1h/u0BdhgfQTMl1122bbscrNwee211wK+d5NNNlkYd9xxs1u0p+lSWxjataifIIE+//zzMzOC7PhY+6NiAqmdaqqpwvLLLx9+9rOfWVKlPvmCz5133hmoO/2e+nlrK+0ScjLzOuj8RqccK0Zljn5GXYqsrPznP//Jdq9mn332fMEHnrwf77//fph//vmzfteKrXTMLtKW+GCPag3xJ5544rKiZfe70S/oj2DJbhJ9arbZZgss/D/99NPMTOtGG21UWoaq5Qa7M844Ixs/2IWgDPTvl19+ORs7eHdSV+W9oU7sMC6xxBJhmWWWyZL84IMPwhVXXJGd42GhzlmdsvcuLYN+CwEhIASEwABCIBKYjl2c+GBB+V+UkBemGQlDHobwkWBn4SIRrEV7zLVIwvPnO+64Yy1aaKlF3fT8HnHi5JenHQluLVp4GSWMlSVOxrUXXnghD28XL774Yo30oynGPO1I1GpRz70299xz5/csnUi4LWrtoosuKsxv7733zsMUXRAvEvBR0iYP6hgXK3XRIgkqDW/lisSqLk5VPOIiqLbVVlvV1SsSmNpaa61VV14w8y5a8igtYyTVtSeffDIPHhc6tUjSatHCTp5mPJyaPY9WR+ryNkziAiuP3+wikqm69jSMTjnllDxqUX8inO8jcYFYi4uguvLQv+MCrbCucfGYp190ERc4eX2tTFY//zuSyKLoDe+tv/76o6Qdd1NqkUgXxqNucSFY9yzuuNSIY2WhH0T1l1pcMOT37NkUU0xRu+eee+ri+x/0WZ+WxTN/9dVXr9GvvOtmv4jfRajFhXFebspreePHhazPOr+uUm4ip9jFRUctWrSpMe74fK+55po8Ly7aeW8YGyO5r/GuWJq77LJL7dtvv61tvPHG+T17Rt7EkRMCQkAICIHBhQASxY5dK4SciZcJyyYOfAg6Lp04eRalh3WkyOJBcHDkGSWUeXpRpaMWda1rEOtoeSK/D9m9/vrrszj8u/jii/NnliZ+1GXP82NSTxcCUVJYO+aYY/K4UxeQ69tuuy3Px1/st99+eTyumbQhRhBRX4aDDjooj8akCpk8+eST6/CJKj/ZPe5DCMxVxSMtg5WHfOza/CjZtexq8aM22XNwiBLjjMRBPDwZAcNXXnkli5OSe9KEZET72Xk+foHEc/oLxKMdx6LKtx04pe6cc87J8yQfI/5lWLBYsjTNN0z4zWKgyNGeFu6II47I+mzcvagddthh+X17XoWQk2/Ru0OaBxxwQC1KYYuKld+LkuNRyhEl7KO8p1ZG8/1CyxKjnaO50yw9+gmkk7ZjEeAX2vSPaFnGoo2y6COPKv0Com/5x12AnPjTHygP6RYR8qrlRphgeJjPItQTZ7u/ySab5PVt970pat9tt922Fnft8vzTPhnNaeb56UIICAEhIAQGBwL9RsiRINsEhQ8ZMMLApB23q+vIHGGYvCGd6667bhaXCRfpHW7PPffM04uqBaOgjaTP52fEkIkbiWgRMV9llVVqUUUmSwvC7ImEpYWUD9KPi9vFNSZhexatoGT3/T/Kb8/jdrl/lF1fdtll+XPCsTBInc/Dk3Afrioe7777bkaaTz311LpyUBaIIyTVpI78xoGl1YndBu945om1SfEhj7QxCy2Laz5ljx/MyZKB3Nt9/Kg+5JNv6dqToiJCTiI+DyPktGdUM6j97W9/q3tO2FVXXbUWVY2y/Ok/vo5ILFNHO1oekOPU7bXXXvlzwlUh5KSJVDglZJYv7wv9vMzF8xs12s8voiwufZW+edppp+VE156l/ZzF9uKLL57Vh7JEU4t1WbK4jGobeX3JzxZa3eoXUZUrS592SR3jC2VPCXkn5aafsLD+05/+lNeLPKg/fXjXXXfNrvkd1bCyIlV5b5555pnsvbF30NqAdKmz7XjEMzt15UA4IScEhIAQEAKDB4E+IeRM2JDkW2+9Ndtu9ZJsJhSkqkVSNlQFbMLB9xM7RByVDBwSNguHFLXIQTSZtCwcElrvIAn2DB/JdeqQePsw8eBcGiQjLRaGennHhG9SO8KUTZKerBDeFiqWVjNC3g08IKNWD3zUIcxRD1sIcc/UEiABRS4lB7SFOVQ8fD6QvtT5nZTDDz88fdz0t1eLKSPkXvJohNwSZlHmy4haFBh4h/qOhbFFhz1nt8LanXyK2h0yZ/HxqxJy8oRw+j7i0+WahSVhylz8mFBdWdhB8A41Mfq2T9dIJuGMDPN8p5128lHz6+uuu64uPgs97zrtF74ORTsWSLRTQt6NcrMz53GJuuR5teI5hLq27+S9YYFk+dC3IOreRXOy+XPCsTMgJwSEgBAQAoMHgT4h5DZxpD7kBHJTRFCALH7cJJ9UNthgg1IUScPS/vOf/1wabptttsnDET6dqC0NfJN6+8RSkprqvxIW/WtLhwWAd146ziRa5lIpOfr03nmyVSQh7wYeqdqRSax9ObgGA6svBIe80790Z+GOO+7Ik/EScCTZRY62tzyQJLfrOiXkvo6UA2xSRxtZGZEOexc/3pQ/ow+WOa8y0gkhJ33KyILRL0KtfOZ7fXpfJt9/kPgWORY2lg4+qkbm6Af2DJJb5vz5jPR96LRfoKZiZUACH78OXFcMdlrSunWj3KjDWb5IsdOFmxXC96kq7w1qKJZP0Y4M+dgikHAIQ+SEgBAQAkJg8CDQJ4ScQ52QbqQ4HAJjciwj4R6q3XbbLZ900gOEPpzphDLxmBqFf27XHOKzSQw/JT2evBQRctLx8YsIOfF8GMsbH31ce5ZKUX04JnELh4+0z7tmhLwbeLD74MuAdK/IIXmzcKgHQCqb/XGY0xz62Ba/jJB76TOLtHZdp4Q83T0pIuToy1s92OHwjh0ie8a5gzLnCWHaN8viNLuP5J1FquWf+unhYdLz6jOoehU5MPC7CkZuU0l/tCZTFD27Fy0Z1ZULfXpznfYLdjnSuq633np1u2yWF363yk3ftnzLduvIr9P3xr8TZYTc7yz5czPkLycEhIAQEAIDG4E+I+RVqr377rvnk1sZIU/JayOJHFJemyzxU+sv3SDkqXqDr7e3VNFIkk8cL93yVl141oiQdwuPNJ0yQu6thhTp7lPeRs5LFMsIOYTD2q0XhBzyafnjFxFyJK4WJiXkXr2jSCXH8OkLQm5pQ4zTnQrKS59PF5+tEHLS9f2ZsuM4vGk44JdZeCGs31Ug7IMPPsjtzHWjX/iDjr5MqKuk5epWuf0uWCNC3ul743cPywi5PzshQm49S74QEAJCYHAgMOgIOSbK/GTLVnWZS0kmW/PeeUJuhzn9c659XkUS8kaE3B+WS0l2mk+0IZznZWTHwjQi5N3CI8WqjJB71QAknu26bhCvZnl2KiHvhJAj9fV9ptGipVNCbpaFyvCgTY8++ui68lA2Dmp61yoh93rMSy+9dJZEqkMd7bT7pOuuUV3y2Hj1q270Cw6K+sWcz4t33S+OulXuVgl5p++NCHldV9IPISAEhMCQQ2DQEfKUOJZtsVtLeWsY6QG/vibkXqKIWkcjt+aaa+ZkBYmed40IebfwSNMpI+QcWjOi00gNx8qfqip1g3hZ2mV+Lwk5Vi8MH3yva52Wt1NCTv+98cYb02RH+Y1uuS+TqZtYwFYJuSe7mBbFoZLm0/ak19I3HxU2H9bbf+9mv+CQM9aQfF52bYcdu1XuVgl5p++NCLn1IvlCQAgIgaGJwKAj5DSDPwwHWW3kbCLGZ5vau74m5Kktb6TZZc6T99RMXiNCTnrdwKNVQp4SGX43cmzjI400103iZWmmvidjqTUPC+v1oVOLFZ1IyEnfLwJT6z6WP74n5BxqbNfRfzl30YrzuzWp2UJPyLF0VOYg8vY+cXAVh/Udu4efnn/waXk1EcruVYE67Reov6T66/RNf5CU8mHppJvlbpWQd/reiJD7nqRrISAEhMDQQ6ArhBwzfX5SbqRG0gjCVnTIie+3zsm3zKSbV+dArxfS6V1fE3LUFTwu9iEkXwa79oQpte3tCbk/IGlxu4FHq4Q8tTyD/rQ/nGdlwje1ALMBz71OiRdpNHNmtx7syyTUnpCnJjg7JeRmk9vafuTIkYVF9oScD0+16+i/1MNsejeK78l0aprQE3L/EZs0Pa9W5Re33kY2i5Gy8lh/ABfayLtO+wXS+yK1MNrSH7LlPTPXjXK3Ssg7fW9EyK3V5AsBISAEhiYCXSHkqZSMD71Ucd7KCiSzzEFwjOzgb7bZZoVB/TZxKnUmgifk6aEvS9DnYx/hsGf4jaysQEy8BRQk2V4qaOl4O+JIylPn7ZSbTjJWUZCq4ncDj9TKyltvvZUWI//NB5Q8LtSLOphjgQb5At/0oBvWRCxuehjS4nvyUXa418IW+X5nIlX/oZ4+fcqCNR7vUj3w1C48YT2BTOuY6m0jsSff1BHPsPD2q9NwZb+t/6I+ki420zh+UZdK4z0hL1ND8h+1SSXs6WHNso8RrR9t21t9U8w77RemTpMeWAUHr7vOIshcN8rtrazwrjdynbw33s56uqCyPP04gRUgOSEgBISAEBg8CHSFkPMFQ5to8Zl4qzhvN9xPnEVppR8R4sMi3qG7bFJnJsqUCKMj7ctsX2H0aaTErMg2N3qwPp1UZ9pLBQlXtNDwdre9Xq2VxX9YCcsZHJyj/tTLyGKneKS6z0j+yly6ALD6ox6AlNKIIvdTlRb/RdAyAgPBtDSbWacpKiP2ti0+PuoVfJwI3LxqkIWhTXhmHwhK64eJvNT5dk1tarMQs75neUDG7ONKtBmLSHuGD8nly5mm45zmV/Tb4wzpt76Qhj344IPzvOhLqfOEnLKkbUZ4vwuTqviw2PBqU5Qr3bVi18fqW/SNgU77hRFyxo1UQo/ZVcvbk9lulDv9hkA6znis035lZWrlvfG7PmW7GL7PNbI+5cukayEgBISAEBgYCHREyJHKQSD9VjaTDBMyJKCRlNVXH+slEEBPMEiHT5jzlcAix6TrSQLhkXwiDUPaZhJBVFX4eI93bB979RjisqXvraggEfTEkDD89pJ0pMJIYHlmf3wyOy2zJxuEIw5SSr526D8lD8krct5Cg+WD7y1adIIHZIlJ3qeNtI1FSkpurHzph2J8XLtOrbCg5uClwoS76KKLcukxZAYy6PsBKhDUsxHRsTKZz0LKm5G08piPCTqvsmL36bO0Kfar7R4+H2Xxh1z5gqw3MUcYvm7p+09aD0uPRYhdF/nYrm/VeZxIizpB3GgbJNAXXHBB3QIETNK+SV4pISccixrCshjZdttt8zIXfa2WNAjnJbS8d3wjgLZD+m969VhnSXeautEvjJCDA+W4//77s75LO5gKESoqtiiizLiq5aY/snhK+wHv0csvv/zfxAv+t/vekA/jguFH/bj2AgT6nd8NJAzlohzNdk4KiqhbQkAICAEh0AMEKhNyiCkDf7O/Roe8rL7pwas0zUbEHhLlJysfF2L19ttvWzaZ77+s6cPa9UEHHTTK5GbPzOdjL0cddVTDuqeLAKxhlJFEFjSeXNcVOP5Akmef3aYMkLoyFYd28WBhYPUq8sukcZQR0lNUJ4hiqrZAuYrSt3tIp71Or903v9mOSYoZJC/tFxBWk/wbIScMizO+4kp9LL8iH5KaLgLTcH7hACGyhaEPR9533nlnfqgTvNjhSPtMWqf0N/E23HDD2hFHHFGD6Po80msIa7p7Y+l5Qk7ZUqJPWh47i5f6LFq8JNeXAZzJx+ND/G71C0/Ifb52zc4NEuoiV6XcfpFieXifxVCZa+e98btjPn2uaZNm43Bq6rWsTLovBISAEBACvUVgGNnHwX3Qu0joQpSGhSgdDdNMM02IktgwySSTDLh6xQVCiNLLEAlgGD58eJh99tlDJKItlZO4/M0xxxxNw/cnHs8//3y47777QpR8hnnmmSfMNddcYdxxx21axr4OEKWDIX5CPESiG375y19m5RpjjDGybOOuRYjEM/zmN78JY401Vp8WJUrdszaPxC+MGDEia/MxxxwzxIOc4ZNPPglxsRXGG2+8tstw+OGHhz/+8Y9h4oknzuKCf9x1CXF3J7z33nth8sknD7PMMkuIqgxhwgknLE1/7733Dvvss0/2PJoRDfyO0t8QVVPC+OOPn71LM800UzDsShP634NvvvkmRDWREIlnGGecccK0004bosS2T/tE/B5AiGQ//OxnP8vqT5vTL8GGPgkOzVx/l3ugvjfNcNJzISAEhIAQ6D4CQ4aQdx8apSgERg8EUkIed39Gj4qrlkJACAgBISAEBggCIuQDpCFUDCHQKwREyHuFvPIVAkJACAgBIfBfBETI1ROEwGiOQNQzDvEAboZCPLgcjj322NEcEVVfCAgBISAEhED/IiBC3r94KzchMOAQQG88HlTOyhUPZYZoMm/AlVEFEgJCQAgIASEwlBEQIR/Krau6CYEGCHDoNdo+D6uuump2EJKg0RpKiLa1w7zzzhvGHnvsBrH1SAgIASEgBISAEOgWAiLk3UJS6QiBQYTAl19+mVlh+eijj0pLjcWiKtZfShPUAyEgBISAEBACQqAQARHyQlh0UwgMfQSiXXK+Q1BY0WHDhomMFyKjm0JACAgBISAEuo+ACHn3MVWKQkAICAEhIASEgBAQAkKgZQREyFuGSgGFgBAQAkJACAgBISAEhED3ERAh7z6mSlEICAEhIASEgBAQAkJACLSMgAh5y1ApoBAQAkJACAgBISAEhIAQ6D4CIuTdx1QpCgEhIASEgBAQAkJACAiBlhEQIW8ZKgUUAkJACAgBISAEhIAQEALdR0CEvPuYKkUhIASEgBAQAkJACAgBIdAyAiLkLUOlgEJACAgBISAEhIAQEAJCoPsIiJB3H1OlKASEgBAQAkJACAgBISAEWkZAhLxlqBRQCAgBISAEhIAQEAJCQAh0HwER8u5jqhSFgBAQAkJACAgBISAEhEDLCIiQtwyVAgoBISAEhIAQEAJCQAgIge4jIELefUyVohAQAkJACAgBISAEhIAQaBkBEfKWoVJAISAEhIAQEAJCQAgIASHQfQREyLuPab+l+OKLL4a//e1v4fHHHw9ffPFFmHnmmcOmm24a5phjjn4rgzIaugg89thj4YQTTggPPPBAuO+++8JYY401aCr7yiuvhBNPPDFcd9114fzzz8/ejUFTeFfQe++9N2uD559/Ptxzzz3uSfPL1157LWy33XahVquFQw45JEw77bTNIw3xEP/+97/DySefHK666qpw7LHHhgUXXHCI17i31fvnP/8ZDjzwwDDddNNleI899tgdFei7777L2u7vf/97mHLKKcNJJ53UUXqKLAQGEgIi5E1aY+TIkWHppZduEiqE8cYbL/zoRz8Kk08+eVhggQXC2muvHaaaaqqm8aoGuPzyy8Mqq6ySEY0f//jHgYnb3DHHHBNWXXXVcM4554Sf/vSn4fe//31Gpt59991w1llnhQkmmCCsv/76odPB0fKTP7QQuOCCC8LRRx9d16dY8I077rgDvqI333xzOPzww8O1116blxUiO9iIF6SRxRCLInMQ63bcTjvtlBFx4my++eYZIWon/lAKy/h42GGHhUsuuSSv1jXXXBOWX375/PdguGg2H4055piB+WDCCScMc801V1hppZXCoosu2rOqLbXUUgFSjrv++uvDsssuW6ksn3/+eTjiiCPCKaecElhs4xZffPFwyy23VEpPkYTAgEQgDvJyTRD49NNPa2eccUZtiimmYEbM/uKgV1tttdVqUQJV23XXXWvrrLNObYYZZsifE+5Pf/pTLRKZJqm3//j+++/P8okko/b9999nCey444553pQtDnz573PPPTcLs9Zaa+X3jjvuuPYzVozRAoHddtutts022+R9hb7cF/24L8CkX++yyy413gF7VyMh74us+jTNLbfcsrbxxhvndaAu7booPczjx0VKu9GHVPgzzzyzxhg56aST5phEQj4o61g0H9E/mA+i8Kiu73M/LsZ69v4yR9p7GHfaKuP90Ucf1TbaaKPayiuvnKcXCXnl9BRRCAxEBNof5QdiLfqpTHvttVc+GESpwyi5Qo6jVLpuQCSckeZRIlS8Ebf/snIw4Xq33nrrZfch47PNNlte1oMPPjgLtsgii+T3ovTMRx2trldcccVaVPcZrepcpbLzzTdf3l/6mpDfdNNNtS222KJKMQvjrLvuunnZByMht0pNPfXUeT3sXqt+3N6vXXnllbUoFa59++23rUZrOVy326zljDsIiADFCOJgJeRWfRbOVhfGfHO0NfOQPcNnPnj//fctSL/5EGnmqTvuuKMreb711lt5vaoS8v333z/DpysFUiJCoIsIiJC3AaaXOBURcksq6q3mgwaD4amnnmqPOvaj2kmeNpNt6l544YUaEzGTzdxzz12Lai21//znP1mw2267rTb//PPXlltuuVrc9kujjha/IWe0SdS7Hy3q20kl6Sc2qfc1IYdQRDWrTopbF9cTr8FMyP2iqK6CA+BHt9usP6p00EEH5X16sBNydoPs/fSE3HCMZyjy54Rj12uwOxYbVucqhJzdBXZJokreYIdC5R+CCIiQt9GobHvaYNCIkJMk24cWlm27bjmkUpYuxF+udQSiHmK2SAE/EfLmuLGTYH2tLwl5PHSZ5dNNQs4OkJV9MBNyP440b7H+C9EXbdYfpY965Hm/GOyEPJ4zyOtSRMgRzHjVLXZbhoKz97oKITc1MBHyodAThl4dRMjbaNN2CPmaa66ZD5ZIqrvl4sGWPN14gK1byQ75dFAbWmONNXLsRMibN7nX1+wrQo5eqU2w3STk6JFbuoOZkC+00EJ5PZq3WP+E6Ks264/S+/FzqBNy8IS02nuA//XXX/cHzH2ah9WnXUJ+/PHH51iIkPdpEynxigjIykp8u1t1WCjBOgkuSshDVAEpjTrNNNPkp8GjpDFE9ZLCsBdeeGH27OGHHw5R3y7MMsssIaoKhLi9GDgxj8PU0+677x4iqQx33nlnuPvuu7P7q6++emZOih+zzjprePLJJ7P79g8rL1EvN/uJhZVDDz3UHmV+3A4PkaTm9z755JNw9tlnZyfZo85hiAuQcPrpp2fm47DI8rvf/S68+eabeXi7iIdFw89//vMQdfPsVp2/wgorhMUWWyy7FwfF8Oqrr+bPMdEYD8Tmv7/55pvMEgJYP/vss2GcccbJ6hZVbcIGG2wQJp544jysXZBeVCcKWAeJB7cC5cFKCOUn/e233z7D79Zbb7UoIeoYZxZouLHZZpuF4cOH588wjXbUUUeFBx98MDzxxBNZONIhbXDxrhlm++23X1hyySV9lPya9v7rX/+a/+ai3TZ7+eWXs7pj2m+PPfbIMKKPYGEHk3/TTz99iIvDEA9E1eXjf2Aej3a+6667wqOPPprVd5lllgn0SbOQEAl5W1ZWSAtzZ+BH35l99tmzv/POOy9EfdIQt40zKyJRDzbr95QH02j0adyMM86Y1SX78b9/mF887bTTwkMPPZS9W4THohH1TvtFPGid5U/USMjDiBEjMhOhV1xxRWYmdIkllsgw4T0uc628m8Slz/J+Y2YRCxDPPfdcVqd4EDxceuml4fXXX8+sS9APaY923MILL5y/73GMDx9++GFmRQaLFe+9915mRWOrrbYqNGlIObDWQt/g3cfyk7kqZSZ/LL+002atYki5aF8wvPrqqwPWcnj3sYxCXX/9618HrEfZmGj1KPO/+uqr7L3gXYiH4LM+OO+884ZJJpkktzYTCXmhlZV2yvzII49k/eqyyy4L//jHP0JcQAUsYIETfX+eeebJxs0//OEPYdiwYdlYHlUYMytAlGvOOefMxj8/BpbVKb2P6T97r6OEPMMpDcPYaxaHorQ8fPDBB3k5eBcYNzGpiQld5jP6Cf1m6623zkzoWnpVxmXiMldhmpc2pC2i4QNLMvfjIiEbrwkLnrQx4208ExV++9vf5uHsAhxxkZDXWVmJ6khZ/Syc+cyBjEW0iTniMibgmG/LxmgLL18I9AsCFYn8aBmtVQm530qMjZhZaEkB47CLSdFRDcCqgrfSgu6oHcKJk0st2hjPnvstSHThiMMfOrPoDMaBJZcCcJDHXByIM725OAHkz5EY4955551aJLt125txAqxx+IXy218k3ZkOuv3Gp+xPP/10Dd08wnsrBjzfcMMNa0jUzEXCn9WFZ4TltznKYQdPqT9qB8S3/DjMGs3AWfBaJMy1aLYsf044DrCyfWtx8CNpyw41eexIC3z4iwQvTzPaJ87KhUWdSHQyHXyfFm2LaxUz3wZ5Jv+7+PLLLyu3GZh6HW/KiPQvLiTq6m5lv/jii9Pss9/U3awHYRWI+Gm6pNGOhDwSmqwM1P2AAw6obbvttnkepMX5hbjoybCnX1sZ8a1N6I/m2N0gHZ7TLyKxzfsJ9+hHvo8Rz0vIUfPy74XlR3+IC0zLJvfbeTfjQrmubpYm9bB8zGenrF0JpZeQ8575Q56WLudCUE8wxwG6tL6cfzFXtczttFk7GNJfwMbqg4/02vql3edwaiuOMzOGGzggDcVCh6Vjfiohb6fMnN8Bd0sLHxVCrG35e3aNlS7SR9XR7nk/kuZWqlYXxs8zRSorzBseQ7DA7bnnnnX36bOcL/Ll4ZoDlLh2x2XiMK6n70DRruQzzzxTszmJd/7Pf/5z3RzC79RZOVMJuT/jRRjUU7jH2EdZPBaMGTbW+HcjzUu/hUB/IiCVlTbQ9oScAd9PgiTz0ksvZWTBBgx8Bso0HGGNjHvzgwygNpEQ15MS4uCMmPA8Snz/e9P9//jjj/OBlQEndQz8Vj4j5Ay8WJCxMvHcyCsDol0zoEMo/MIhPVh6ww035OlDeoscxI88MN9ojsM6kC3uQ8o9cYFgWBl4HqW4WTTuR8lHHs/KDWmJkta8HPvss08W3h/0K5ocuEcalJsFjDnqyH374+BsO5hZOmV+lTaL0qSsL3giY4shzJxBXnbeeee8zDxLLW1Axg3X9OAx7W71xW+VkNPXrRxRMpxXmbytb/sDxSzkLJ8ylZUoYcvC0F/9uwQxt7gQe99nPCEnDJMxxIy29As2rLGkzt6DVt5NFqFpXvQf+jKLG9rBLzpYNLXjDDOrAzrljEPocJOP1d+3H6psHF70+XrS0WmZW2mzdjCErLKQtr5InehD1N0W6Ny7/fbbm0JH2Wx8wuqU7y/kY3jhp4S8nTLTrpTZkzzKT7mjJL/G++nHG+7TJ/DRY6eN0uftWuNqRsi9VTDqS5/B7bvvvjVvoYVn1IP3yxZ81AUsq4zL5FHUpumYy5hi+dmYTtyRI0fmYwhl80IbnnOPv5SQ29wIzhD91PlxXCorKTr6PRAQECFvoxU8IbdBgQGWP/vtfV56TxIsq7h1l4UnXvqcgcmnkUrwbNAhTBEhJw+b2IoIOdIjS98IuZXLm5QijJlLRLLDBARxxEXVkDwNpBCp8yQiqtHUPaa+1Ds96OoPW3kiZ5G9nXWT9NgzJhqrEz6TIY6BnUnXiKifANPJgfDY8CV+0WCNtRrLA2mbuVYxs/BlftU2g4hZucDV6m75eEKT1pkJjbhI+lJHm1u6+K0S8qeeeiqPl7YjUmzSaoeQRxWN/P3yuyOUF7JluJGu2dvnmSfJTND+PWKxZfEgBN5VfTeNWFAOFtL+vYZ8cZ+/tN/7vIuu/bvEQtane+ONN+bpFi0s/DvlCbnlU7XMzQh5VQy9FJv2sR1CzgD4xbuVv8jfe++9M0yIb9alfDj6grWFJ+RVy4ypTkuPd43xwDsvEee574eE88+jqoiP2vTaE3LqxftN38aPX2zOy0X56Dups4ULz9lpxDFWRpWh/B31fSh9nwnfaFzmuS1yyCMdf2wHtmghfuSRR+blp5zeGd6ekNv7zs5u2VglQu5R1PVARECEvI1W8YQciQIfBIIgY04KMpcSc37z3AihZcUAxKACYWai9H9IV2zAwY+6dxYt81sh5FaOIkLOgG3pp4QcKyT2jG1EL13yhUCSb3kw8aF64R0SGEsHVRzvbFD0kyGSIZP2gWuRS4kvE6g5JhDLL+qD2+1R/EaEnMnC0oifGa9rE9rHE1uklOZaxczCl/mGZ7ttFnVX83IXffzFT5hsS5vzOyXYLC5yvs5lk1waD1JhODJhpgQE4uBJSzNyx+LI0vPviV0bboRhR8CcTdDcLzrU6YmZxcGv+m7atjvvQ+rAzurgSUQarui3J+Tp888++yxPt0hlwUuEwSt1VcvcrM2qYrjDDjvk9SlTsUrr4H+jWgH+YI2qW5HzkmE/BlUtM7tv1raoRqXOv39Fz/0HuIr6aZqe/+0JuZUh9SGzF110kY+WX/t3AHWk1HU6LpMe47GVKSXk9u7ywTp7n823XVSL68cfu8e7xNxqao0sSv2CNa2PzT3ELxK6pOH1Wwj0NwIi5G0g7gk5ko0iFw/C1bzkiZc/lV5BurgPCUU62ejPTxrk15eEnMHMBjskDY2clwyhA+qdV6NICTuSZki3J/voglu+LGzKnFc1QB3AHIsWiw+ZLnONCDkEwNJo1B48Y/I21w5mFqfIt8mpXUKOzruVu0gdApUee446kTkvjUz1ry1MVSsrXlWC9occF0kryacZufMTerN2iQdoreh1EvIiosNkbrh4VYGq76aRmyJCTqEsLwh2O64RIffpFo1H/uMwRYS8apmbtVlVDL2KVVmfbIQdOySGs+3upeHLrKxULbN/v4oIN+WwMrGjkTr0ue25XzCn4Yp+e0LO2MiuVjwUme2cMg/RTo2cmdQs67OdjsvkzTkcq58n5H6nloVhs3fbL+ItPcpvO5fMsf49Lqq3CHkRKro3kBAQIW+jNVoh5CSHpMYmOxs8kOLiGDTsXjzRnt1r599AIeRetca2O6mHbaMbwaSupgMILvzmUJl3XuUkldr7cJ5EelUZr7delZAbrmWTky+Hv+41IWfBZv2piJCDhz33hNxLv4ukY9SxKiH37Wl540PMkep614zc2SKs2QLRp8l1Mwm5pUu5TKrWybsJoSCtsv7DfZ73FSEvSte3QxEhr1rmRm3WCYa+zaoQci/99upLvm8UEfJOyuwJdxVC7vW8OyXkvp6tXNtir6zP+v5TZVymDBzopt/z5wk5qnV2H+LfjrN43qcvs3PbyImQN0JHzwYCAiLkbbRCq4ScJCGhfsBAooxDJ9bub7LJJtm9dv4ZcSSNMh1yI8PtSlvbJZdeEm4SDIgOkn/TF6acJr1DpYLf6HZ75+3DWlj/3K593f2WdDcIOao11i4sHFp17WJWlm7VNqtKyC0/6ozed5GrSshJC5UiU4kwXPGRannJXSNyRzqWBlL3dpwnd0UScm9Jxgh5J+9mVXLbrE5GmsCuyBm2A4WQd4Khb7MqhNwf5GZMKXJFhLyTMg9lQt7puAz+ZYQ8mgPNx9t0h7Wo3fw96/OMDX432p/t8eHtWoTckJA/UBEoHuX7qbR3v/1x7ZpX32/49/gH9RK1fipaYTbtEPK33347H3AYQLwU2aRlDCaNVvUcZIp2puvK4klprwm5/3Qz0n6TmmN+EecJe7QpnunMpwcyCYe5MBtkwaTMGaEnLHrq5rpByH3aWPUoc0jTvH7rYCXkprMPlqlalNXdE3J05dt1qCVFu+F1lijID51Rc80Iuf9aaNnCgbTQVcfqjjlP7lol5MSt+m6KkBvy1TH0bVaFkHvLQOhuF7kiQk64qu0+lAl5p+MyuJYRclRqbMz34wFxUgeR9uOPxUPtDEtR9hsfNZ4yJ0JehozuDxQEekrIl736sdpUZ9zV8G+zu14YKFhl5sbs5W8kyaXA3toEcbyKhVdnKTqIR3yIHxJuT/643wohR0ebPNPT6cT3hzpTiw/tkkusIBgelDV+eCQ77GkHcLyExXR22QZNHVY3LB18bxfch/UHpDz56gYh9wdDkR6nqhVWDtrD7zy0i5mlk/pV26yqhBwVEMO8bKfGE3Iv1U7L7n/HD4yMYkmE/uCtPkB+TCrdjJD7g36Q8zKHrjnmHs15ctcOIa/6boqQG/K1OnW9dsY332ZVCLlXz+IdZQxNnSfkEDRzVdt9KBPyTsdlsC0j5P5AcqMxP360LBun/BkUG7eYU3As+u0efplFHhHyDC79G8AI9JSQD2BcCovmTcw1I+SegDBI+A8/+IMuPCvSd8SCC89SIuQtmKQWWKzQZs4K4pNOSl7qkerlenKJ6kkrDt1Cyml/6ESa81vBPKc8qUUWC2uEnXCeWNlzfCORSHd9vTwh55BVmfPkLiVpqRUXJPnx66Z1SbFbAXGmbcxVwczier9qm/mFRBH58STF9xd/mAzMvSlCK5cn5H5CtOdFvlmrSa2rENbUT8jP9Na9lRrUSFLnrcgQj4O5qdUiW5T4Q3Oe3KVtTR5eh9zvUlV9N43Q0ceLHPcpv7fQUxQuvdeqykpRuv6QY5EOedUyN2uzqhg2a7MUm/Q3O4ZgbH+YZ02dJ+Te+kjVMnd6qNPrkJfteKZ1sN/sRFpdjZzas1b8Zn2LNDoZl4lfRsh55scDdkY5kOod7yXjcKqOZXX2c7A/X8QYbeOLT8+PldjplxMCAw0BEfI2WoSXuGgw8EkgDfSmsAifEg3IjU3Qlh6nxZksmJTMSgUfPkmdN5NVZq7O68di3gnVAf68Wgb5MghCbkyi7aUWkN5WnLdwQpopceP0u9WxjGiTT/zUeh6O8F4CznMkr5YONtG985ZGij6mZGH9VyxZ2IAJ29zYw8XFT7DneZAX+NAGSPrNLBrthtTGXBXMLK73q7aZP3jF7knq/I6Kx43Fktcjp8959ShIrO+jtDOLKb8QSvPitxHydPeFZ2aZhwkT7M1ZPpSHRRBpgL3tUjDxWtvjQyR5x1hs2DMk1J6o+zMBRUTHbM6Tnl+MVH03bUFFekXOyg8Jacd50lKEvaVb9L568sl16jopc6M2q4qh/9CTHQRPy9zst19oUUYW6+YgabYIATesutAPIX5Vy+zHYy9xtzyx/GNtVPTcBC+E8QsEi9/I92n7XbtGcfwzj0WRjXHCdjIuE78RIff2+Q0jzgYx3kKwbXzyuJlhAMLzzpujDX19eGbjh4XhOwaWD+MtwhSk6+n8bOHlC4H+RqB49ujvUgzw/JgIGRS83i2DPaSDAYfJDkkJg4ipHtiLz8l/25731TzrrLPywcHCep+JOJUmY+PZBinCQkZGJgckycOb8CMccWwC9Vuslh/SNcrodcJ5hnSyiAT4ejChQZ4Iz65A6vi6nuXjv8aWhuO3V3GhzCw4mChJw7C3w7EWnx0EVGUsD/Av0zVOFw/EIV0buJH8eb13S9P7fhFUFTMru/ertBnk1RYKlBFJki2uSBts/CTF4sgTYU/miU8fQS3ELw583blOP/Tk68C1EXLCrr/++vnHXdAZtb6b2gCm/6X52DkES9PipuH4Tbn9l/noM7ao5Tnk3L+DfGnV3geen3LKKXXVaPfdTImFJxAkzKE1X24wasWl+rGp+hoEzqfr+z2LE9+OSDr9TkCnZW7WZu1iCFn2CwTKi3pdu+7pp5+ua1vwYZzkwKdvc4+b7R60W2bGDb9gwna2f79Y9PrxhMW/74f00zS+f96o7ggFfB+nPuzgel3rRvFZcHsMdtppp7r+4eNWGZctfiNCThgv2fblsWuemwNbv0tNeyKoMYcQx+LhQ8r9/Eh7+ed2nX5wzNKTLwT6GwER8iaIv/TSSzmRsBe4zGeAgBAyEEAc068mpllhicLIrE+Tr5vZVzEtjh/YfViuIZWpziU66z4cZWNC9zrkTFSQsvQAahrPylDmm7kxPzj6sEy0EMNWHNLudFFDebhnE6el4yXjvsxcl+kb+wmAdkrVGVgEoVOdpgch9Icfvf58Ghasq7h22sy+LJjmzW/aw6s2pWH8J8ghZkVkF0JsKitgj4pLkRpKWk9PyC1fSx9cUjJOfCZEH4ZJPHUQEJOGW7r4EBoODJvzOwI+HNf0Fy8Z98/J37tW303DyKfFNXWlzFav9HkzqZyX9Pq4pNtoTGLsSNV8fHwWB90ocytt1iqG/myILyvXfCmyXcdOj1+IWpq8+36XE2lsqibRapkZiyzd1EdVqFGdWNR7m+tp/LRMvv60fdH4aGnQP/jKZSPHuGfhU79M/7qdcdnn7Ql52WKeQ/RpOfhNW5lAiEV0URju2dxiQps0nFfn8R/LIjy/5YTAQEFgGAWJHViuRwgAfyQUIdpiDRNMMEGIg0uYcsopu1KaqBcd4pZtmH766cOIESPCWGONFb755ptw+umnh2iHOswyyyxdySdKt0Lc2gxRClWYHs/GHnvsECeCwudFN1999dVw7733higxysoPLpS/Gy5KpsInn3wS4oBcmlxcEIW4yAlRnSHMMcccYfbZZw/jjDNOafhuPeivNvPljZKnEAlWiDsYGda003jjjRciWQ9Ryh5WWGGFlrGnf8XJM0TpXYiENETJdaAthw8fnvXBSBh81vl1nHjDE088EWaaaaaGOL/xxhshkoYQJYFh3nnnzcIPGzYsT6ebF335bnaznL1Kq5U26yWGUUCQjSH0uSjRDz/5yU9ClKBn/SeqCIayvtjLMveqLVvNt91xOZ75CHEHOUs+7uiFiSeeuDArxnnGoLigD9NMM032bpe1T2ECbdxk7IgLmzDrrLOGvho72iiOggqBHAER8hwKXQgBISAEhIAQEALdQmDrrbcOcVcsW/xEFZ5uJat0hMCQRECEfEg2qyolBISAEBACQqC3CPzlL38JUSUlRJXLEM+R9LYwyl0IDHAERMgHeAOpeEJACAgBISAEBjoCN910U4jWccJKK62Uqy9yHfXPQ9TVDvGQ90CvgsonBHqKgAh5T+FX5kJACAgBISAEBj8CnFVCNxsXv74Z4ncjQrTslEnHOSM1xhhjDP5KqgZCoA8RECHvQ3CVtBAQAkJACAiB0QGBaJ0qROszdVVdZ511sns//OEP6+7rhxAQAqMiIEI+Kia6IwSEgBAQAkJACLSJAJaSsJYy2WSTZZZSJppoojZTUHAhMPoi8P8AAAD//9CLockAAEAASURBVO2dB7R1RXmGBwkgZqlJAFkIKkgMaAQLijUiRjGiMWJZujT6W5YlYom9d0Ws2AtBxd6NiYKd2ECWnYC9IVZUQEFsqDvzjHmP7507+5R9z7nn/v/9Zq179zl7+jsz37zzzTdztuuyS+ECgUAgEAgEAoFAIBAIBAKBQGApCGwXhHwpuEemgUAgEAgEAoFAIBAIBAKBQEEgCHl0hEAgEAgEAoFAIBAIBAKBQGCJCAQhXyL4kXUgEAgEAoFAIBAIBAKBQCAQhDz6QCAQCAQCgUAgEAgEAoFAILBEBIKQLxH8yDoQCAQCgUAgEAgEAoFAIBAIQh59IBAIBAKBQCAQCAQCgUAgEFgiAkHIlwh+ZB0IBAKBQCAQCAQCgUAgEAgEIY8+EAgEAoFAIBAIBAKBQCAQCCwRgSDkSwQ/sg4EAoFAIBAIBAKBQCAQCASCkEcfCAQCgUAgEAgEAoFAIBAIBJaIQBDyJYIfWQcCgUAgEAgEAoFAIBAIBAJByKMPBAKBQCAQCAQCgUAgEAgEAktEIAj5EsGPrAOBQCAQCAQCgUAgEAgEAoEg5NEHAoFAIBAIBAKBQCAQCAQCgSUiEIR8DuCff/756ayzzkrf+973Smp77LFHuvKVr5x22mmn8v3CCy9Mn/3sZ9Mhhxwyh9yGJfGHP/wh/cd//Ef61Kc+lb7yla+kS1/60mn//fdPd77zndP1rne9YYlGrECggcDHP/7xdNRRR6V99tknvehFL0o77LBDI1S82lYROPbYY9Ob3/zmdMQRR6QHPehBc6nm17/+9fSKV7winXTSSekDH/hA2n333eeS7mZN5GMf+1h66Utfmn71q1+l9773vZsVhlJv5ufTTz89felLXxo9n/nMZ6ZrXetamxoXVR5e87CHPSx1XZee/exnF7kuv3jOF4Eg5APxZBC//vWvL5PEaaedtioVCO9Nb3rT9M///M/p3HPPLWT4y1/+8qpw6/Hixz/+cbr1rW+dPvOZz6TLXvay6Ta3uU36zne+k973vveV7B/60Iem5z3veetRlKnyOPjgg9M555zTG/bQQw9Nxx13XPF/whOekN70pjc1w1LXT3ziE02/eLk4BG5+85unD37wgyWDd77znem2t73t4jKLlDcUAignkH1yP/3pT9Ouu+6qrzM/TzzxxCKbIOJyyK69995bX+M5JQJ//OMf00te8pIyZ6GUwV3hCldIZ555Zvm8Wf9d+9rXTvTT7373uyMIfvKTn6Tddttt9H0tH373u9+lHXfccS1JLDXuox71qELEKcQDHvCA9OIXv3ip5dmmM8+rnnAzIvD5z3++y4Ksyx2j/GXC0T3nOc/pTj755O6b3/xm9573vKd75CMfOfIn3GUuc5kZc5lf8Pvc5z6lLJmgdlnwjBJ+1rOeNSrjG9/4xtH7ZX/IAqzLi4fuxje+8ah8YHinO92pyxNJlyeWURGz5r/Luw8rwl3jGtfoMhHs8kJoFC4+rB8CtJPGBmMl3OZB4Pe//32HnJHM++1vf7umyj/3uc/tHv7wh4/6E+lmQr6mNDdrZGTlkUce2d3tbncb4ck8Fq7rmHMks7JmfG6QPPCBDyzpMpf5vDW3DNYhoVe+8pUjbLLibh1y3LxZsA0RbgYE3vrWt446JwM4b/f1xv7qV7/a5dX3KDwCcb3dj370o1H+j3nMY1Zkz2SZtVnFn3JuNPfJT35yVHaw/vnPf94sYtb0j8LlFXwRrs2A8XJuCNzqVrfqvvWtbzXT++Uvf9m9+tWv7rJ5VNM/XvYjcN5553U3vOEN+wNsBT7ZfK97+ctf3mXN69xKe4tb3GI0xjcbIf/whz/cQezm5ZiHJPfHEfKnP/3p3Rve8IZ5Zbuh08kmUaP+9cQnPnEuZYWAi+TzzDvkc0l3vROhv6BkRMnFgrvltgW51arXer8LQj4D4l/4whdGAwyBlm1lJ8ZGIy2NkWunJ0acU4Bsbzkqc7brXJUq2mQJjY22gkcbrrLxbLmvfe1rZfcBf0hAuMUjANEG72x3ufjMNlkO2Xa1kKVNVu2J1b3rXe86kgWbjZAfdthhHbuw83Ta4e0j5Cyq2dV94QtfOM9sN2xaxxxzzKh/ffrTn56pnLQN47bl7n3ve5d0UXhttPm1Vd6h70JuDUVuZbw2y1kZJr5lBH796193+aDmaNBmW7ypcWFlCYFZxgr5Va961ajMaFpqd7WrXa34s8BYhga/Lo9/x/wH3PTnfnxmYtbEwrZauMUjkA+BdVrEBSGfL97sqDEO+Qu3EoF73OMeIzmwmQg5ShTk37wJ+RWveMWSbh8hv+9971v8Nwshz+e9Sn1ZhMxCnPNZphLvQx/60MoOa9/OPvts+7btfQy5Nb82DUI+JZZPe9rTysBDODJh5kOdU8bsCtFFAE6jUZ860SkDPuUpTxmVuzYhwG6OulAn7H43mhtHyPHTzkO+LWCjFX2bLA8T1R3ucIdRfwpCPr9mZsv3Sle6UsE2CPlqXO91r3uN+t1mIeSco5EyYj0JOfJU+W4GQs5ugOrLTsy0Lh9cL/EYr2s9KzFtnhstXMit+bZIEPIp8ISISBPLwH3EIx4xRayVQfIJ7u43v/nNipe8e+xjH9tB1vOVXsVGGgLN93wTSoe/Ozo/h0exMSXMVa961Q7NEVrwPtsu7MYlbGpCnq8nG/lhG99yCJp81VEpDxiobO9617tawTs0qNSJgzEQ5utf//rd/e9//3KQKN/m0ozT97KPkEME0WRQr3ytXl/0se9ZHOUrHwuG1Ilt4cc//vFdvvpqbDwWMWitsGklHrsmt7/97TsOyP7sZz9rxlU7E5ZJFozQ6JMnGN3ylrcsaTYj///Lt7zlLd1d7nKXkh9x0OjQF1rtzpYr/QKMwAr7SA720n60hcdh9wZ7cPqS0qXP1Nu23/72t1cdsmXy4vAyf95X85VqZYFH/v7e6zcER4jYox/96FIPNFO4fItOhzaPut3kJjcpuHo+/plxwuEq6snOEOUnvfr8RL4ppIOU0Ie1E4YNJfgT90Y3ulHHAp069Dns6x/ykIeUNCgb4yBfAdhhQla7j3zkI6X8Gqc8hWt97oO4tM397ne/Um4wvu51r9s9+MEPbva/oZhxUFplmPQEQ/Up5AXjA4zYSWm5H/7whx2yAEzAk3GEQoCxXMtIxV80IecAOPVU/2CsIoM5IzRJYzpLe1CfSf2Q/Oh3UpbQH8BI7aC+L2w+97nPlb5Jf6U/0LcZ729/+9sVZNWT9EiXvikHMUU+eD8ED+VLP3U3y9zA+R/al7Ihm3DI98c97nFF9tBXmDeQjWt14Ifcox9KnlM3+nS+tWdV8u9+97tHdSYOO8XUrfVHZMaUTFHAKt8qVcJqDCgD6sKh9pb2HPNV+tb3v/99BR89kSvIG/KZxlE35hPanz6LI33kDXKdhX6+KaXMA0oPXJBPtAf+hM3XG8p7xROz0HztYRmrfvnDrHJrRaLxpYlAEPImLCtffvSjHx0NWAbgOEG3Mmb7G4LBDymRJoQOgubCkAOKchA5Ji/88xWGRZBBpBQegta6VaRFyCHT2pIk/vOf/3xls+LJVhQDljBMiPe85z1HRJh3fHeHIJE5w5YtWzrs8rQVSHgJYo8z7nOLkLOo0EQlsjQujdqPMnLTAOVhMgJjCRve8de3OMlXYZXFEGEQfgg5F8xMcvkKzFGWCKy6nRG0LKiUlz8hVbX7xS9+0d3xjncs4WlvBKc0qSqH2p1yC3+lywSkfqN3kHAmndvd7nYlXSZxSBV1EbaE9QUcixWEu/tTX97xBymAaLhZF2mwGKjdrDjS95n0VH6e9NkXvOAFK97JvzU+1eaMMfol5Fp1oR44+hv9XO9JjwNekEel7U/akcmwdhxoJRzp0OfpJ/QXxYXguHkYdQND+fMUrow/OYjGM57xjBKO9Lh9xPsS7QhWuLVi5jcreDurXF5W/DHpo16UQX70u9q5LGVscHDQsWFx69go/iIJOQtIlZuFFt+pi+rhT+ovN0t7KM40/ZCD+ORTjyVhDxZyflMWJBx57+O9T2FBm1EvJ+TIJvLw+OCifN0scNq5AXMNxoBjyPzFQtrHmfzBZy3ulFNOGV2kQN1Il3GiPqax7nnoFjLCIkvzdcaj/qBy6anxp+/+ZIGPzJSyRn5amEJsWXgKe/zztb1elPIZmaO4xOlzLHJYQDmOyAMuQ/B3Sot5g/kPUq13/mSB7IsK2gglh4fxPjCt3Oorf7xfjUAQ8tWYrHpTT/ya9FYFnPIFHZ1DEBISdHgGEAKECUkDAG05jlsLNMCY3N35YRQGXK1haBFyz5e8IGJo390xwUqgffGLXxx5sWrX5EVchJecygLZdwcpJOxaCbkfUB1qpoJWgLJQB3CVQ2vnEyC7B+4QVMINoYdgk6snF+F1/PHHd09+8pNX4CUyDTFEOKtdKRN/tZ2/yLgvPtDcIDwVRxM0+TFBe5rUk7BO3NgdIKzio32X8yskiVc7Fi+KV5usgJkTBMLVhHwIjkyyTIS+2FAfZEHFAoMFhcqFn08sOoxN+0Ki5NBOgZUmaa4tZYJUO5Oe2ot3XBfnkyn+aPjcubbNtXH0Fx/b7M7UTvlSppZjF408MRty0urXAlJH8lorZvQ38gK72tUTOlpAcK0XLzUhp8ySKXVbsEtEfvxhClC7RRFyFofelzzf+npAxisLU7lZ2oM40/ZDpc9iT5i0TFb8ZhCXuchu1Yn49ZxA+urHtEftIObKt2WyMsvcgKaWMeV9X/KJOiGHkBt6R75Dr0plLiI+/Y7+j0NBorrwbN1WowWIyzsUIcKQxTsyHZmSf9OjXG/s/RUFF7KD+QT/97///Suu6tQuF30NZQH9SGViHNSOqz7lz5za5+gfyJ8tW7aMwhMPLMnjhBNOKDsCGnP4SemHMga5ibxSX8Df51UUSkcfffSKedEJuco1SW4pXDwnIxCEfDJGqzRkk25LYYBqQLWeOpHN9pj7S4hAepnMRSqkCYcc+ESsovvVik996lP1ujxbhJwJG02VExw+OylHc0XZWhOBiDf+lElO9sVoHGqHAFsrIXesXHDUefV9ZyGlNHwhofB+fSJCza9ZdCHZ2mZ0jRpaBXdOYsnfzxIwqWpCwM81orr2kYnBFwCkzQShuvBkQSHnGh/qIQ062huZomDyoPi1Fkbl4Vk7r0tNyBVW/ZX0a0K+FhzRwKvMYKLxonx90eFlo68Qz/uq4mCOJUKud05IiOeTIpNgrTVSf8BPk7gWSUqTJ3JD5efp/QD/cRMbfVFp+y4M8ZAJTmh8W3koZtw3jAasdjrApXq0bjZSWer+Qx9VPAiDO9fItyb9RRFy2l9lQia6Y1tffrVZ05D2mLUfTiLkXEmo8tWYOemrxzd1FAkbQsiHzA3MaSorz7q8LHTk36fV97apP6v/0PfqyxO0qCZ9ZLw7J+zsjuBYcGByxXiDlLacdo5r2aGwKg951uOcMD73YiLnzhUufbu1Hp55W9jxZMy7ow7uX2Pvu1b1uCQdl9l1XPzHyS38w02PQBDyKbCqt9xcs9oXHVtIbV1rMLD1B8mSYwUrv76tOhdkLa0aablWDoHkdpgtQq78sXlmha4yaCWPvyZ/BiiD0P9qPBBgOJ8E0Hy4Q7Cs1YZcE73K61pjz6vvs2sSME9oOReUEtBo/zSB1SRDaaAZUbl4ejujJZdf615fNETy5ylyzWKI7/Qbx5/PTFoex22TOeMgv5b5BmXmPWFaizxNNuBdu2kIuePshHytOHo/b/1AhS+KMDuQAy/hgVmQ+iv+2E1ig+2OuArP7lHtIKXy56k29V0H2rTlyF9xMedyN25iQ1OpeHVf4LvGK2HYLZAbihkLvpqggpv6Bvm0Jm/ylUauNVY0vmr5gLZO9fMFkOqxKEIusy3y9kUc+dJfVSae7oa0x6z9cBIh53wGY5Q/roh1px+kodzasXN/ybMhhFx9bZa5AY2zsGTBXjvtohIGeTmLo92UNv29dk7IfewTzk1Q0MxDbnX+QQvtOj1khvJradwJrx0B2qZWpuDvZiluGogfjkUPcScp//4UuhuVB6VE7eADKm/LnwWB/FuLcJdr9OHajZNbddj4Ph6BlVJmfNhN6wsxU4fl2RpAfeBociIeh/DcuQkGmpqWI47yFkGsw9UTh2vQxhFy0nEtCwIA55o8JmC0Q+P+IKM4TB9UVp4QHbbvhrrahhyBSRk9j1m0KR63tdNAOdm9UPo6IONmHDWJ8rppO5D4mDnJsWuhNGuSQxgENuSlDgMR5x2T5zj88XPzCDffGGdexYJMuzBMmGg7RZjIV/1B9eA5DSF3u3on5GvFkUNQwqh17sHbzs0e/MexiM+YZGJBE9VymCApHybOlnMi96QnPakE8W1sX5B5fGSH0q7xHTexyfaYuJP6gsuJoZh5mfXZd14gORDGlhMBahFyxp2TDMw4MLfwsdlabC2KkKPkUHu0ZJWPS40V6jykPWbth5MIOeXgti+1A9ii5PEdKurWMgEZSsiHzg2UUzhjQ147HxeuGKrD1d+RnVoktmSzY4htd+20q0Y7s8BB5iIfhGkdnu++sHJFiMJSJvXn1g4z4XyhXGu0kUuUx82jlHbfU9i2CDdx5O9mOZ6W/DnEWzvnCEHIa3Tm+z0I+RR41iYo9QAal4SEBR0ejbk7XZuEXx8h90mwtT2s9DQJkpbbBE8i5GgMJDyIi50bpgB85g8SNa1DiIlUKD5PiLkTs2nTqwk58ZjApaFRHi07xzoP12ATv8+5GZHs+/wdZjl9ztvKbTonEXLSczJP//JFVr2Q68tf773NxxFywnPoCo06fYA/DgkJX77XbhpC7jh4u68VR9eitQi5mx84IacO2Jqrv+jJpFePScJOQ8hds6ar0nwM1hpL0sV5P6Qcfkexxk4Ld/UPSP8sbi2YeT4+KVPuWpvsYYUD+PY5CAkLC9Ki3k6M15OQu/avXnxBcNVX6l2Uoe0xSz90MtlH7MAXDSjjASJJeVEkiGjyfZ6EfOjcwDwjLFuE3M0JZyHkshsn7Zas87Fc76hiyqcyMU/TX/nO+GtptdWXwVfhWot632Hr2ynzua2+tU2Ho1GSTOtUj0UQcpfbQcinbZFh4YKQT4EbNnjq8DxbK+2+ZDTJEu91r3vdimDTEHLZZRO/dSJbCWqCIJy20PFzctan2WeyIR5/3JbhC5BpbNhUBp5oQjh4qvT0RMi97W1v86ATP7vQIh05dgBEGpV+a5tb4XliV6iwPF3b5eF8woFY4GT7STy2M/uckzQ3dZiGkDuJZfseG1WVF3vvWZy3eWuSUlr0R9qFfMhDZwhElFrEcC2EfK04rpVcstCp+w11hyS580m8JmkK5wcbtW3taffZnvpCi7xlnkS6khUt3LWw1yJR5Zj0XCtmpF/bjU9SSIwj5CxA2Ban7hAgHWL28xvrScgpj9oN3HXegnozPignf7Xp19D2IN1p++E0hJzxLW03ZEwLYDffmichHzo3LIqQo/GlfdBst5xMRwjD1a3unGjirzblc98Ol2u/W6Y3pO/Y95m3kg758MehUTnGA++YA2ZxSisI+Syobbywf2Y5SyjbKWef35141rlj/04/78IllGx1lmzlqNPz9G3X1aH//EaTLHGGEHInt9LE/Tn1P3/ybUoIhZyTsz5CrhU/ZURoIcBV1z47UaXPAbjWKX5s392mXOmhgZ/W9RFy4qOh00SqtFtaU+VFGRWOJ+VrOa+7Dmeyla24aKH6HERC4fxw7TSE3DVnOpQkskyeLU2MysFBzTPPPFNfVyzC+gi5n2+od14WRcjXiuM8yCX2ktxMoHbS0zU/0xBy2eATn4UGzhe240ir2pW4EHQ5yYoWIffxrf6heP6E4Pv4XytmECknKtw8Msn1EXIIpsywSFOmbqS3LEJO3pBYaUcpO2ZwKD/UN7g5qHZD20PpTNMPJxFyFBPqS5A61+o6KZwnIXf5OMvcsAhCzl3/aiOXt8LYDzNKuSI/nsynis+NOZis6LtuOPPwfPY0XWZ4OPXxvkWCwmr+kt22bvyZVQFDeip3EHKhu3U+l0rIDzvhtG6v408e+3fkye3Dd+sNt66sUsef9sYQTbLEG0LIfUuVAexC1zFwEuUEeRpC7td7oTl2ez/Kjda85XS4RYsTDqz5YTriQA60lUpa9bZhK129G0fICcMtCBJqahdOhPc5L0dfOCcGEvIuqMfh4ZOgkyIn5NII1mX0CV5t7H2npTUkDQgdgt81eN7mfYRcWjUwqZ33pdpvLRryteI4lFyiza5JFZordjvUbzQpUl8n5PW1hsLDF1/Shm+x68doz5bzA1Za8Cmc2rtFyP2gbl/apINts2v8h2KmMvl5APoZssEdfZU83PURcjcvqA91+rhrjc1F2ZBTbvoC44DzE8h12oXrRtkdgfS13JD2mLUfTiLkjgljy53Lopb8Hjf+/Zah2hxw6NywCELu5aw1yvRL9UPGONfdusMcSXOHk1jNEX07oS7/Wj+kQ1+STCHsOCfizkKe8pInZZH8Hxe39lOeXhcPI/8hNuS+k9BahIyTW16G+DwZgaUS8snF21ghXADSwVsHOuoSq7MSfhwh11WIdXzMCKQFIY1a8BAe7anCQArc+QE/NOSQDSZ01+BpC9kHq2vFEFIsSNyRJxOXx8HOEdOL2vk2p5OFOlz9vTYzqf35ThgJVgmdPjMDDt8pTJ/2wu2QfYvTd0j66qBDfUx2rvl0Qg4WtUMAS0PnNup+Iwfl9uvslAa/bocfk7ecE/LWrgiaGOFA29bO2772cyLSSpvwbn5TX7m2Fhz9VqLWAsXbzscmpKKlIcNcQTi4vxNyfoip5WRKBn6QDZxfH0a6bh+uNFggKc+alLqsUHg9/RAY8Znsa7MrkW//ZcChmJGv240jX1qaed6xgHMnIkSfdudXbbr8IQxyTbhw93Ht/GYnH5cKh4kXu2YQrVkc4wYzIOrn5iqT0hjSHrP2Q9/V8wWjyuY3ZNU7fn7LSmucjiPk3mdabeHyYdq5wevSWlD6uPBbglTX1tMXxb4oZFywY6D+xBPzUHaPdFUqmMgfU0M5V05JpjKuJbdFosEAh6zwK3R1Nz1po3yBtPfdGsP8STjakTMUYDnLDrLKzFN1WQQhd/O8cYScMoRbGwKB4Az4od0S6dIAcM1kKymfZGtC7jcgQPb7nNsmtwatzA+YVGpNiZtCIIR0OwQkFofQEZlH4yDnW3OqK9oytuchXCLBHkfX9NUaGbeHridi5dd6cn+r8uZZa+cUh2u9VAeFZwKvw7NNrHITrj5IiyDXRCW7YOXBDz8obZ4IYne+fVovmpyQO+FWfDBR2m5zyM5DXS/MizDNgXRrQuaHYdz5D8X4ZKEwrq0iX/JnAcHkwWSpsvCE/EAGtCDzH8miXhAgfrGVa7rkOLSlNBRPfmvB0TU1PokqbR8n3gYQIcrT2p0RufB2cUJOf6j7kZ8pqce/n+UAy5ogasJHG1sTajcdowz0V8Kpr7lGn/ogW9hapx/LD3Ls6Q7FrLYbb/UjcAfz+mYG9Vme7lw5QNkhSODz2te+dkU/50A0stFNIlzu1gdKnTCQroiU5933WbITPBnzfOesC3INQoXMrMmu0hLm6uuT2mPWfkg+whK5xa1I1J05gD7pJlLIZkgvf64dp2wc8scEx036PF3VR0+/m5uxj8IAXLQoGDI3+GFmxkjt/OxOLXvrsPru7a4daxZVjGXw8rHIe5RHKDBwfu+5Xwvpuzh8ZqEAViye/b5vZCymTuTjC2s306TOEPi+6359vJNOa8Gruo57IifUB5EXLSd/+mjtkBfyZ06pHf1G/t6HFM7r0ZJbChfPyQgEIZ+M0YoQCCfXPtBRmXhZRUtTxoSA0PIDJYTzVTxh/GYBtEl9A5I83d6NSRcNIAKayUyDxW9XodAQLBFMwjC56P5qhAz5iaBT1tq5plN5+LPWhouQUxcRdeqpbT4GO8JjGsfE45Mw+UJCW5Mt70SsvHzUne1vv/GCwzoIP4VjZwL7awgIEw7vEdytfPxQImmgQYQ0s3AQzq3JxAk56UNipAmhHTU5+lWJwohFnMraelJvFopyXK0mDSXhIUs6rKkwPKWdUZrChLgi+vIDD5FSyqv3ejppBQ9p+/FnAvTdAvIegiN9Xf2LdCmTxhtp0l5MNioT40VkWEQIP8gr44lJiAPLCq8fTCItJ+T4M8GrD7HwUl+jPLWDZDIpKl3KwQKV9zoPAj6YW9XOCavi+0KBMaF2kr8/6Uf0Y7mhmIGr6kj6EEA0wvpDW0jf18KPcSpXL7j8tpt6gU3a6vv1QhA/LXZafUptS74ysRIWfYsHldGfvsBU/NYT8kv93c3aHrP2Q/Jy0q1y6cxHLVeEJU/fiSIe/UZ9AxmotHj6bhJ5MtbdX5/9Ot1Z5gZ2U32xTPlcccR4dMUR8meaG0b8bnPKSD/Vk7IiI1R2ZANkWbJIsoKx6I4xoziUkz/mHZzbz7MYA9P690Nc9vIZTb3y9Hz4rDmdPFp2/nX4vu++k0XZnUeQt/uTl7cj48gVQsR32YSc1LyIH/2qPs80SW71lTver0YgCPlqTKZ6Q6dlQNUTJB1eA5onZIVtP9++ds24h+UzE1OfQxtWp08chEttu82qvU6b1T7ClklefpQf+zqf4Dx/34JTHJ7UqRY0TpgI42Xljtg+TZPnx2cnNJ6nPksbQtjazlxh6qdrR4kjgezhKC9YOMElD3e0nRNOxeddazuPuD5xusAWPrSBFjCelz4zgWqyUX48sXP1BU6tGfOwtV0uxFLbrwrHLg3E1vsOWibPgzL5ZAwZYqGHG5e/a/4JOwuOpK8y1k9svB3f2h8S6ERI/sKe9qjt+p2Qe1v7WGdHoO7/1AsHhvViXPmiTaqx+FOsrpAQJ5eEhYy6Y5Fda2ZJGwLt5kFrwczJk8o97qnFfIs8qmyqQ5028hFCCJZa1NI2aPZx9W9AeDnU77w/4t+6Vk/510/kIdv8nu64z052SGva9iDsrP2QOJAn9TtwcW0rcqqWufQN5BsLSNWDPs7iAedaY/nzJG3vzy4DaBfXApeE8r9p5gbItsrv+fGZsra07QrXZ8ap/Hn6ffDEQ8EkZYcv8pgzKAuO8ak8/Das4pn/Oab6jQHFk9wgPkTUMSOMKzpIW3niVzvKTnrqx7X/NN9b8wJlQ7YjO1TP+smiB3+vj4eBI9RmWe7vt6+xMJokt6apS4Tpuu0AIQMdbiACeUCmvOWVsmBOWRCkLODTnnvumS53uculvffeO+2+++5pu+22G5j66mjklyeFlLVu6S//8i/T/vvvn/LgWx1wwpu8tZl+8IMfpCysJ4RMKQuVlCeGlIV6qdNBBx2U8kBeFS9rPdJf//Vfp7/4i79ImRykPCmw4EuZLAwq46oM5vwia47TqaeemrJWudQrk/R0qUtdaqpcMqkqccFm3333TcTdYYcdmnEzqUjZrr345Z2UtNdeexU8L7jggpQXH+nv//7v0/bbb9+Mq5fgCKb5Xvh0yUtesuRHP1uLy4uwlBeWSeW4xCUuMUoum6qUMmWBP3rnH7IwL/HyZO2vZ/48C44zJ/7/Ec4555yUtb5lLFKvrClMvGPs5IlkVbvlBVD6h3/4hxKbdssTZxnj+Zf70n777Zeuec1rpp133nlicbImqbQX+e2xxx7pwAMPLG0/KWJeLJXxteuuu/YGZexmrX5iHDMeKdc85UxvxnPwyFrI0u+Qkd5/LrrooiLXqE/fWGplzxjMds+lTbLNf6LPZjv6VtBV72ibQw45JGUtfzrqqKOKDEcuIMf5y+Z2KStTUl40JPpFPteRslZ9VTrTtMes/VCZIPPPOOOM0sY77bSTXo+eWdGR+KN/eZ+hHsjkq1/96qOws3ygbzFekE99fWvauWGWfGcNmxVNpY0OPfTQMicqfiaKCXl7gxvcYAUu8u970g/zzk66znWusyoec3wm0ClriptzIH3mf/7nf1JenK6KW+cHb7jYxS5W2q322xq/TyO3tsZ6rWeZg5CvJ9qR16ZEoCbkEIBwGxeBmpDnnamNW9go2QgBiP5uu+2WsplUypr40fu+DxDOAw44IGWNaSGuF7/4xfuCpqyNLkSfsZttzHvDhUcgEAgEAkMRCEI+FLmIFwhMiUAQ8imB2iDBgpBvkIaYoRhoQ//1X/81ZXOjhKZul112mRg73xiUsilXyrbGKdu+jw2PJj1v86fjjjsuZdOusWHDMxAIBAKBIQgEIR+CWsQJBGZAIN9wkLLNcYnB1ne245whdgRdbwROOumk9I//+I8l22wnmrIt63oXIfKbAYF8WD5le90Sg8+YyE3j0HbnMwYlaD4PVMxRMJdxh0lGtmcvWndMEDGBmMWcxtOKz4FAIBAIjEMgCPk4dMIvEJgDAvmATHrHO95RUkIjl2+dmUOqkcSiEHjZy15W7MZJPx8MS/nA7aKyinTngADjizMc+Z7zpl1vXxb5tpiUDwGu8M4HEIu9P2dkOCeRb8dJaN/zAdt07LHHFpOYFRHiSyAQCAQCc0IgCPmcgIxkAoEagXxna8r3Yad8x+4Kr3yNVMrXI5aDZCs84stSEci/FpnyTRjlAJ8XhANaRxxxRMq3yPjr+LwNIMAh6fwDMylfGdusDdp2DnsefvjhTf94GQgEAoHAvBAIQj4vJCOdQKBCgNP4nMpvOW5E2GeffVpe8W5JCOQf+ig3A7Wyz9cflhtZWn7xbutHgJuGuFEk/yZB4pYNbuDhBqrWrSZbf22jBoFAILAREQhCvhFbJcoUCAQCgUAgEAgEAoFAILBpEAhCvmmaOioaCAQCgUAgEAgEAoFAILAREQhCvhFbJcoUCAQCgUAgEAgEAoFAILBpEAhCvmmaOioaCAQCgUAgEAgEAoFAILAREQhCvhFbJcoUCAQCgUAgEAgEAoFAILBpEAhCvmmaOioaCAQCgUAgEAgEAoFAILAREQhCvhFbJcoUCAQCgUAgEAgEAoFAILBpEAhCvmmaOioaCAQCgUAgEAgEAoFAILAREQhCvhFbJcoUCAQCgUAgEAgEAoFAILBpEAhCvmmaOioaCAQCgUAgEAgEAoFAILAREQhCvhFbJcoUCAQCgUAgEAgEAoFAILBpEAhCvmmaOioaCAQCgUAgEAgEAoFAILAREQhCvhFbJcoUCAQCgUAgEAgEAoFAILBpEAhCvmmaOioaCAQCgUAgEAgEAoFAILAhEejCBQIZgd///vfdAx/4wO6www7rPvShD21ITM4888zuUY96VHe1q12t+/KXv7zuZfzmN7/ZPfzhD+9ufvObdze60Y26+973vt1pp5227uWYlOHW0JaT6rAZ/L/4xS9297nPfbprXOMa3e9+97sVVd5MbfjKV76yu/GNb9y98IUvXIHBNF9++MMfdk9+8pO7a13rWt2nPvWpaaJEmAkIXHjhhd1xxx1XZNyLXvSiCaHDGwR+8YtfdGB13etet3vd6163zYPysY99rMyD97vf/VbJrkVWflsf72mR4G0LaX/729/urnjFK078u+pVr9pd//rX725729t2z3rWs7rvfe97W1X13/e+93V5xVj+qMtGch/+8Ie7W9ziFqPyUc71nnzf/e53l/yvfOUrF6ErrHhutElrI7flsvvVpz/96e6xj31s95GPfGRUFBZVj3vc47r3vve9o3eL/PDmN795VR/69a9/vSLL9W7D5zznOb0y7kpXulKZdBlz42QhC3p33/3ud3vDs+DAQWR8LP30pz/1JHo/U5bb3e52K+KeeOKJveE3uscvf/nLsiB57nOf25177rmluL/5zW+6V7ziFWU+OfvssxdehbPOOqsoZS596UuPcH3kIx+58Hw3Wgbf//73u6OPPrp77WtfOyKb9MvnPe953bHHHtv99re/HRX5q1/9anfPe95zhBd9mfl/W3co7jRu3/nOdy68utvaeO8DLAh5HzL2HmF5/PHHd5e97GVHnRChxYTwsIc9rEzwd7nLXTomLnVSnve4xz26eqK1ZDfUx6985Sujst/qVrfaUGV7yUte0j3mMY/pfKJYT0IOiaM90X788Y9/LNgwUamtKddGchu5LZeJE+PY+xCLZjTTPq7XY+cF8v+Qhzxk1H/oR7WcWO82JP9PfvKThUCrX/OEZIsk0/ch2be//e1XlP0yl7lM95nPfKb7wx/+sKp5ITeQfaWJTPzOd74zCgcxF/6k42RnFKjxAbLEGCSO0t6aCflTnvKUUT3YNcEh91S3O9zhDg0U5vuKNqS92W1QvpuRkDvZfOMb31hAvtOd7jTChHaR++AHP1jGMooaYbYZCLnj8fnPf15wLOy5rY33PqCCkPch03j/pCc9aTToMFmoHRPWG97whhWTPuFE4urwG+37Zz/72bJVidaqz0HWv/Wtb/V5L/T9Xe961xH+60nI0QoibNlad3e3u92tvEeAn3feed0Nb3hD917q52nacqkFXGDmfX30Rz/60aj/0J6f+9znuvPPP3/FO0jJejknPjUhpwzLaEO2okUseLbM19DcXuEKVxiFo/+Pc5By0sI0R5pxD49m9uUvf3mHSdqsDoWIyrvRCTk7ffUugurL1r/qIYUISgi9W0/Z8p73vGeU72Yk5OwQC3eRa/DXO8wma/fqV7965K84dZht6TvKDeq8nvMw+G1N431IewchnwE1CJkGZYuQK6n3v//9o3CEf9WrXiWvrfrJ4KM+p59++lLq4YNxvQTBz372s1FbMlHVDrtyNIPPfOYzy0Ks9o/v64vApD6KthZtlhMNzAKYhI888sh1XTxzFkHypEXI1xe5P+fmO32cmWg5tu9VdnYdWkRb8V7/+teXsGz3z9thWqBybHRCzsIFk8aWQ47obAoLMRw7OJBzduZYKK2X0xgCVx8n65X/svOhH7F4vM1tbjPaHQL/a1/72qWN2CWq3QknnDDqh5uBkNf1X6/vW9N4H4JJEPIZUGPbRMJ/HCEnSYSowmLasrW7X/3qV0VIUadlEXI0E8J0vQg5Wi3lyUKr5bAjhJRsNNOVVlm35XcboY/Ogi9kS31rIxFyN59AE95y9W4D46TPQUKpJ7tI83bYXAvDjUzIOTdAOfsI+bxxWUt67BwJ081IyIdg94EPfGCEWRDyIQhOF2drGe/T1WZ1qCDkqzHpfTMLIb/jHe84GqCstrdmh8kNNowS0ssi5L6Fu16E/PnPf/6o3n4QUO0JyZBGMQi5UFn/50bpo7PU/Na3vvWob20kQs5Bdo11nieffHKzWtyMonAcbGs5mQTJDKMVZi3vfHxuVEKOGZRw2hoI+Re+8IVReYOQT9c7Me1SGwchnw6zIaG2hvE+pF6KE/eQ51E0rcvXGaUtW7aU4FlDnvI2Vm/UvffeO+WtreKfJ6OUzR2aYd/61rcWv3wwImXb7XSVq1wl5a3LlA99pe23334UJ5tFpP/+7/9O2WwmfeMb30jZjrvkn7fg09e//vX07//+7+n+97//KDwfpk2bsOecc07KB1fL3yGHHJLywRVep3wAK+XJNn30ox8t3/mXbbnTHnvsUb7nbf50+ctfvnzOE3fKphvpjDPOSDvuuGM64IADyt+b3vSm9IlPfCLtvvvuJZz/yyQ3vf3tb09ZK5PylUYJ3A499NCUJ4J0qUtdyoOmfDtGSZ+XmZCngw8+OGVzg4JLXiSUePlAVKJtWu5d73pXes1rXpOyrWrKNxkUrPM2ZDriiCMSTzmwfvzjH58yyUv5oFs65ZRTilc+zJayPXn5TPi/+Zu/KdionfGg3Dja7qijjiqf5/FvHm1ZlyMfHEz0H7DLdrxpzz33TFe/+tVLXzrwwAPr4Cu+T1ueiy66qPTvbCNcxgN9lX5OX6M9sn1xylv5KZtGpH333XdFHnzJ2/bpCU94QsoHa1PWgKf99tuvlDFv66d/+7d/S7TJLH00a3ZT1rKkU089tfSDi1/84qUf5RuSEn1np512WlEGysq4z2Zn6ZrXvGbKdpNl7NGP/uu//ivtsMMOKd8AVPrLzjvvvCKuvlAHwjM+8lWHZezc7GY3S4z5k046qQTLhDxRFrm+8Sh/PdfShkqj9bze9a5XMMLvAQ94QHrxi1+8Khhy4uMf/3h5nxej6Sc/+UkZ9x4wKzHS3e9+95TP1qR88N29yud8qLb0A/rHBRdcUDBZFSi/yIc9i+xjPNIXkC8HHXRQ2m233UZly4S8tEUdPxPi0m7IGMYqY/g617lO6Ve77LLLiuCEpSzZBCEhm+gP9JesAU23vOUtU75RaSSX6QvZHKfIX8rBmGEMEY8y5kk2vexlL0v5EG/p82RE3vRZ3N/93d+le93rXuUz/6aVT4Rd67giDdw73vGOlA8mFjlHX8+mW+mf/umf0kMf+tDijzzLBLN89n+Moxe84AWJcYi8Zz6g/oQnjWkdsp80pnHkQb7u9tprr5Tt8surbF5Y5Jn753MaKSuT/NWqz9S7ltWzpkub3/SmNy1pgxfyjL6fb+cq9WMuzAvwIrO22267VWXgxSyYIq/hAm95y1sK5vmQZcrXhpY8aQfGGn25doT727/92/T0pz+99irfDz/88MS4xr30pS8t80L5kv8pXb4z7hknyC/yEQfAbx59c73GO1wAHPMOVpEHjEdkDPIq74iXOSkrV8vcQN0W7sTM4zkZgWk15NhK5oYb/WXysSrxLAQ6adHRHj3oQQ8aaVqJy4EvXX/1xCc+cXQTAX5oYuvDV7z/8Y9/XPKZJW3s4bghxsvLCWq5TEyLfS15KgyHHLG55Y/tTVwmaMWfd894xjO6LNBXlJl83HEw7MEPfnCJw73i3DwhPMiHmxfqOK4hZ4v8Jje5yahMKhvl5K5Sd9h464o0bmV49KMf3d373vcuOCqea9y56QE7YzTfXm/i8o6/PPEUe0LqqzR4ChfqNA83z7b08uTJtJSbOnEQGQ1PJhwr6qJ6ZUI2ijpLeeg7ukGDtNQ2NWb4te7i5vAwcSjjIx7xiO5pT3tauYNe5dK4mraP5kXlqH5co5knpRU3SnB7CH0FxzVz3AiivHii0c4LyxV9Qv7Yn7cc40MYkB64u+244ktDPmk8eh5D29DT6PucJ+NR3cG/thHXQU2Vn2cmlKuSU105BOaO220YQ6StNMCp5bjlhStlCceY575ybiJRPD1rDTm7Jsgi/JGn2MP74TzyzmSiZIn8og8qLZ6kp7bTe13xRnvzDrvwY445pshQyQrkIy4TrCIP/AYO4khG5Mm/hJtVPq11XJEp7ZkVOKUOlBetLnLR24Oy0ka143pQwoENMhxba+HDc5azAn5bB3JV2PCkXJ4uh/ozCVwh9wknx24lfQPZq3jT3E7DXLTWdN20kfNE9Zyq8oAV97zXblpMOV9QXwFM29EPlQdP6o3Nu7+DZ3B7E2MR2Ve3NXOixgPl4+yH+i5h+c55OL1T2lnJMqrOPPrmeox36inZpHqgfZdM1Ts988JxVMdFfgiTlRnQdULOBKHJW0mw1YvQVyPyZKDU4Qgv8ulXKEEENfEQVwL7qU99aiGsni7CkEGHjSfvmQw06c2SNgSA22MYrErfCbnq5gcqa5MV6qfBzUQth9BXfWpyrbtbES7UW84FNATRnRNyygoGCGAOW7pAQnC7g7ipblmjMPJCuOk95Ww5TeiEg9C1nG7LoA3m7RbRlk5MXdDQXj4JYpJw5zvfuRB21WuW8iD06zYjffBC8EFuXLgjEN1povc2wx+SQHuIkCvOpD6qsUKekDU5X4hwjRmOSSFr5ldc8SfChdkBeUM89I7y1Nd/QcblXx/sVv9X/3NCPs14XEsbqt7jntRfZeNZn5/wQ50KV5+VURotUgT+KBpYuCs+47l2yDSIGmG41chlqY9r/GtCzmFd3pO/x3MZTV9gcUBaEBu1F/GQacgFJ/FZM9jJpKPuR8g+4tPH3VEH0uOvZbLi9fC+3ief1jquKJvkLIT25z//+ai43MnvGNSEHNlPPaijnwnwm1nw55DqNI4+Qxk8LcXzRRf5Yf6EkxkU+TghVzy/w7/V9xSufq4lXSfklIs/CB91oOx6xxPS6m4WTFEIQPg155Ae7YVsQ6GgfDgHQr/W2OF9fSkBsk7h6z6r8kkpwdW/OGQe40TxeDohX2vfXK/xnne9y2LdF+HiMCigmJtYoKqe+NVKCWE0z2cQ8hnQdELuDaWG1Ds9IYsMitpx3y9hiFf78+t9is/Ttb0+uCCyODoJJ7xFeIemDXlQvrMScu5uVlwn5JSPlSh+Kh/vECoKXwtuF2wIGXdO7hBIjg0CXRNJHc+vFPva177mSY40YC0yQMBlEvJFtaUT0FrI+N3H9WQ8tDy0h9qbRab3+bzVO/KrCZ3Gle4CVsOxgKOtITLuxhFy+orKUPdvvz2Jz+6yOcwoHvFrfyZXpVv/QJRsrNFU1Y6dBsXjKUKucJPG49A2VPrTPD2PepHL+KMNmLi8HiJNpC9C3NKce/4at60xyK9wkj5hIPi1c2LihBySqf5T/5ou5Fx5krb3LyeBhNEuJTtoIiXaPUAe1+7Zz372zIR8qHwaOq58dxXyWjt2o9SmtQzIZhnFj7mtdlpAExccp3EogiB4taNNVAaeLILcqf1ahFwLQeLNQshJf2i6Pm/R73zHlcPmjg3l8rlrCKY6JCyMIJg45BXjQHKdBZ7C8MvStZPCjDBf+tKXVngjp6lLLZcJ5Ao8J+RKYGjfXO/xjqJE+FBX4ah6+GK8VkQqzDyfQchnQNMJOZMHv/gHYeNHPhhUmgC8gfHX4FBWaEkIgzBhgvc/JnXF58npbTmffNgObbmhaUOYlW9NWMhnHNlhQCouJMSFDXEpt8xp+C4B1LqpBiGAZpJbamrC5YTcBR5p4hyfP73503+0wJSPCdQ1ZfhqexNB3HLLJOSLakv101adRbrBCw2Pu6HlGYcxRNT7jufHGMOPp2+lEgYTL5kPKM64PkoYaUPqfuWkEvMDd06cmYRqx+Sn8jOZyLmWDpOglnNhXxPySeNxaBu2ytH3zidz+orKyCKaOmtxpbLwzrFFFhAPk4BxTpN3TcizTfqIILGd3nKYugl/J+QQRr13+arPXmY0YXJORn33SP48SUNpY7IhXPDjqkJkl7tJGvKh8mnouJIpQ2tBQbmdXDohlyaXurPwEJZ6en+uMXA8/DNaW0ikO91aJYxJv3ZqvxYhRzmjuLMS8qHpOmatBQYLVcaCyoX5B24opn7NYp+5HOmjvFCdWmOR3XeVCZnqTrsePq7kv2XLllG8FiEf0jeXMd71C9xgwK5f7ej/woeF7KJdEPIZEHZC3iKTJMW2tSYYNWStXUKI4Mc2EcJx3J8PBl2lyMDqc0PTHqdBJK9JZMdNDygf5Lml0SItCQi27Wdxkwi5NJJg6yYJ5MF94loYQbKwGRRBI3wfpssk5ItqSxFd6l2TpXpx5e0ztDxaKPVhTDn4q82G0OjIjycLxXG/pDmpj7IY8z6J1o08KJfyqYUy9p7yw4a8diwM5U//lHNNa72YUJhxt6xMGo9D21B5T/NEs+fYvO1tbyvRNInLhEu2yOCA6RhO5WfinuS081cTcteStkgO6fbduiAbb8o0Tr7ix9kEOd+m7ms3lCFqc57Ie0ijm94pPZ6TCDlhhsinIePKy65dVvJ3J5Mc6uaEXAuHaTBl8T7EsbgRmSMfTOZaTnMIMql2G5GQU0afv7R4H4qpX7PI4mic48eowJI/zkq4q+dAnw/Q6jMmayUW8VkgK80WIR/SN5cx3rHdVz1qk0nqiXmQ/GXOyPtFuSDkMyA7DSEnOVZ66pBqTFa0OIii3vEjJbM4bS/1EZu1pI0GW+WaVUNOHeotNKWFEPJDLGwBy69P69WHiQu0lobc7cjdLELpcVAPDRj48QeRkGDvw3RZhHyRbenaDZEqYeTmRP6LdGspD6SHNu/DmPf414Qc7ZHaR32GJwtcSE7tJhFyhUcrojIxTpn0lX5NyCEI8msRcplkEcYJuWsL+3azxhHySeNxSBuq/rM89Wu01I8JGsfim4maPoHjWkRhxJNxJqJc256XCNW/PkLu2m83K/Hoyod8XXkhWYDZzSzOZUwfISc97Ey9znwGE369sHbTEHLizCqf1IdnGVeuye0zK+kj5JKFffnV9R7y3Rey9LPWOCddyYWtiZA74dRCdSimbv89iZC7GawvwnRVo7CkD0tzD4fhe23vrjb1dmoR8iF9cxnjHZmhcdwi5GAr/yDkav0N8pyWkFNcOrYakqd+MhnbRr3HdnAWN4mQryXtSQRgGrKDuYNrN1RPNPsSrNruxg/TlVmcT5YtQu6npmtCnq+uG2n7wF2HiCYJDglMyluTV5Vdi695TlSLbEsX5txa4RoQHTakLhxSlltLeSZhTF7gWxNy8sZ0AxtG9SU9IXG1bfCkPgrhUR+BPEFOcG5eMi9C7pNcn1Z/LYR8SBuWys74T5O2cOdQI585GOnOD65xYJc2BwPtSnnY+nMfIfdDathtt1wfIZccgtTN4lzGjCPkpIn9qbezMPJbiQg3DSEfIp+GjCvZv1NW8G25PkKOSYPqCGGbt8O0S+nzHGezK9y3JkLuB7G18zAUUx//kwg57eSacJmPsmhl3LpSQTv/yEHaoDYnUpsvgpAvY7wHIVeL5ucpZ5/fnXjWuWP/Tj/vQoux3I+zEHImfxcuvjIVAWGrs2+bk5pyiCjfkzmq9CRCTsChac+DkJM/5A4tEYTH6y+tO0RZ7ymrHwIjvju217z+PlnOQsgpj/LEVMXdpEltWYScMi6qLUlb9oHggmBmy11aVya7lmZzaHkmYax0W4ScsuIggkpHbVlPxuMIOaSI8MSFrGlSIu1FEHInqK65JT85J+SYh7ibNB4JO6QNPY9pPjOefSyLCEHa3HGeRu2iMNMqHPoIuRaHpCsC43nyuY+Q+6GzvgUR8TGtYVdIzmXMJEJOHOSXa/aEgds9TyLkQ+WTxgPjp+Va4wrirzISv+X6CLlIGvE5sNvn2Dnps7/vi1Pbjbd2Gjyu+lgtAwizUU1W3DxFOz5DMZ2VkPthfXbmpTXXfOiEnYsPwBVlTZ9bBCFfxngPQm4tfNgJp3V7HX/y2L8jT57u+iRLdmEfZyHkfvMIAsxPOEujyvtaI6fCI9QYFC7YpiHkQ9OeRADGkR3ui65PYrPV77alTA7SWjtZ4adwWw6bSuLMg5ArPxZAtZs0qS2TkC+qLcFAt5tAClksIXy54or+2LdIGlqeSRi3iANlRFujnRW+4yA6IhQ8/WaAcX3Ud6z84CFpOiGv++NQkxW/oaSPmDohr+s5aTxS7iFtSLxZnV9NCOYtrXMt7wjHImoa10fIfbsYWSgTGU/TCTkLFDk/nNk6jKtw2Jq7RnsaQg6Zqm3a8w+1lP6qvukHoicR8qHyaci4cm0oZaXctXNCTtvL+UFCCLGbIioMT+asFlH2MP65thtHDtWOnTJfBGqRSN+pnRPyel6qw9bfh6brpkB131AeEGH1Dy0Sh2I6KyF3U1HaBjM92hDscb5zorNYmKH2uUUQ8mWM9yDkfS28Fbz3K3K0tdNXbCejDEImfTn9II4Gp1bL8ucpjZNP1CLkxOtzQ9P2wz7SZnsePsHV2mmdFEfbVDttHVNm2dLqblPeQcbqq4Yg7hCa+qS+T5Z1GchXdqOkq50H2cLxrkXIvXx12fmuA2zE9xtvPKwTVX/vnyGOfqDQ/fo+L6otMfWgPvThFsmZd3mED23dciLkdXvzvjUp+DavL1jH9VFIMXXmr74T3G9ZOfroo1cUEc214rWInRMcv62DO7YVjyeEonZOyOu+MWk8Dm3DugzTfPcrGKmLH4L0+K5lg9hM27f6CLlv8ZOv39GtfJ2Q69Apfn57AnFZrNXmM5qMMcuRmyRjCMdw/QT3AAALrUlEQVQNLi0i6Lui7u99yIk6aa1FPg0ZV8wnGm/g4ooiyoNzQs48JueLROKyiEdx4g4FCm3P/DWt8wOCkMV6t4h0IIy+S6I+Q13qfsbuHuXjb9YzBEPTnYaQa65xuTsUUyfkHDycxnHjjHDhye8dyLlJIn7g6gc8FU5PJ+T1VcKEGdI3lzHefUHUUo76IqFv/hcm83j2M7t5pL6NpcFkrQ7dR8hZcXIpv8LxrIUwk68LRcJwYIrJhQkBDRTvajtNdXL86vu+BfXQtF0IQxRq579gBUllK5stJn4IQIS8pY3QCW+EtGyVuRqMOugPLKg3Gi7IkurvEyzlcSLWsufWdYqkKwLkGk7ekz4CnDL4tjZ+2EzTVq6J4UpLlbPv+jq/Y5btbzTMkBM+s7jwdqu1szXO/n1RbamDemhIOO3PNjbEFuGE1pUfJIFc1G5oeTTJgWPLCV8mLHf0C7SH3Irjzgm02ziO66N+ewbtweKR/siul49FCAon77Uo9QmTBV/tWEyq/DonQhgmOG2r40+f9t0eFpSeL8KeCVDkYtJ4HNqGdfmn/a4xSV0cc4/P7oKwgABP64QDz9r5Iht/iIgcixYfW7QxbarFODJa5eFJWGQzk6z80DI7UfcfDdIBN+Wnp65U9B91k59IV33dnupIn4DEIjNREPDZyziLfBo6rnzXj7yd0CGvXGGiRbI0qVxJ6+WlDmAGYda1qNQV+TqNc7tx4vFLkrVjTCCXdTMJ/nxXOWgP2p0/NwHBn/LRvip/nXb9fWi6Tsghq7XTgU7qqLlJYYZg6reD6AcElV7f029mARvkuTsOywtT3zXyMPrsygSfL+U/tG+u93j3yygYF7XzsVJfs1uHncf39gw5j5S3oTQQCJBFbS3SaRlYEFC29CDSCDUGora81LGxL5SphkPitnwK608Eu69QmcDdnxswNPF4unyeNW3ieMdj0qgFaj2YKQt4sG0pQs67LfmaM/2YBldAipQgNN05efJ66XOtuUF4OCmAnDuuHBalTRT/uOOOG2WHJkfveapMCA1PEz92IbQVy+lxhcWPSfw71Z25ZOJkT/loQnY7X/zAbBa3iLb0BYTK23pSB2wN3c1aHplVKH03KyBdzgnIjyd9SU7tCWnSFi/9Uu1ZX4k2ro/qMKLnpfTrhRlhWKAwvnxcEN4nU/qf37ZBX/LFgwt70iQ+efmk7+Xhs0xwPN/WeFxLGwrfWZ4svCmfCForrq46JNw09tekUd/Q4oQbfwia2klYMQ45AFa/l7/st+lLPn7lryfxsV2Wg+A7kWDrXoe/FYanCDnpQO7pB5A+78v6ESHFAzflq6fsd9Wf9V5lHief1jKumFd8N4N8Zcbgc5zKA05aoKK9ruMqnJ59igthoWdtN468YWdDfxAgFBgi+mAtx/hUfjzBTP0BkxH34/O4fqs0eQ5Nl/b2PBnnyBzklc91LVI3K6bscvjNUHAOyUevS/2ZBQsLFMrpOx8K5zKylvsKw5O52HkOuyFSJOC/lr65nuOdxbD6Fpgw9/vCDZx9wc+CBQwX6YKQT0AXrakEpA+41mcEAh0VAoG2rDbFqLPiVhINEE+Pnyd3O17ZCnoYfa4Fv/KYNu2W1lNp16tk36aiTDIbcUKuuMIMTGoyrjJCziREFY8nAtW1Vk5OPByf0RS4Ztz9KQMOG3cmHPdDq8CAQ+DrPatz4T5u0mHScsIBCfM2gixJ+4BAVvp6tjQKwqT1nHdbztKn6c/eFpRv2vK4FkV150mbg4v6iPvxGcKKq/uGh2fB1tra7uujpFf3I9oREs9kIiJCnhBpSJbn52WEENaTjvu7xpFwrXQgY8IHjDFxgdBOOx7X2obgMYtDu08dW1phTwdyCZbTuBZJJY96p4S8fWIU1rS171pi+lCPLfqZtOGKpzx8qx1zCPf3z/W5AifkCqe+ConW7T2OASZG6geEddvsWeWT+o3y1pN0pxlXlIuxo10WxecJKXHtK5cR8N2JCITeTcAUn/r1HWB2LPTZdzyVxrgnWnh3yAAPT/0h1G5DTttrPHvccZ+HposCh4WLl0mfGReM2T43LabeNkpbTxYBk5wOINPnWo7+y1jrc+PGCecR5tE312O81wpOYcgTjNxU1f34PO3ZmD4Mx73fDs+cSbglIQD8eWJI2UwgXfKSl0x5MKQ999xzLqVZRNqZMKQLLrgg5Ul3VMaLLrooZQ11yhrClCeElDUfKQ/OdPnLXz4dfPDBKQvKUdj6A3H/93//N+UJK+XFSTrooIPSX/3VX9XB1vw9Tygpax9L2TPZTpe4xCVGaWZBmbbffvuS/+jlgA9ZyJW67rrrritif+Mb30h5cZbyijzl7d2UCW26wQ1usCLMpC/zbMtsCpTyoi/l7fGUFzOJNs2LipQn6ZQXKSnvcJR2JBzYZI1V+pd/+ZcVRZxneVYkbF+y1iftv//+KU+wpU/lCa/0DcbI5S53OQu58mOrjyoEbUA/IH7dh7OtdOl/O+ywg4LP5Unfo39nrVPad999U168lf6XyXrB+/DDD0+z5jmPNpy1cvSXvNhMu+yyS2/UU089tYyxm93sZr1hhnowvkgfeZLJfGKcZY1aykqJUq5xcuYHP/hBCUcfR8bst99+abvtthtUlHPOOSdlTVrafffdy/hA3vGOvkrb9rVlXvilM844o+S90047rch7PeTTigz//wtjBdmUdwULpowJZEHW9ifacJ999mlFK++y8iJlxUTKu0bpwAMPTAcccECq69UbeU4e2aQs5V2VMq6Ya8CeOeU1r3lNyr8FkK5ylasMymkt6TI/ZiVVkVnM5fS3ek7oK9SiMc27QCnvSqW8w9QsAn477rhj6cfNAOv4cqOM93WscgpCvp5oR16bGoF86DBlbVtC6LL4WoZj8ZM1kClrU1LeoRhbBIXN2tyUNWJjw4bn+iGgdok2XD/MI6dAIBAIBBaNQBDyRSMc6QcCGYF8y05CE5pNE1I+WLY0TNDgsRuTD9Gmo446amw58oHHdPe73z2hqXBt8thI4blwBKINFw5xZBAIBAKBwLojEIR83SGPDDcTAmz/5usLE+Q227wmtM0Xu9jFlgIBW7lsR8rla69StqVfZf6BWQflZPGAVj8fplKUeC4ZgWjDJTdAZB8IBAKBwIIQCEK+IGAj2UAABPIBr5R/1S7lgyIJ2/Vlu3yYLB1zzDErioHt/m677VbIOraT2I3j8u0xKd+uUezrV0SIL0tFINpwqfBH5oFAIBAILASBIOQLgTUSDQQ2JgIcxvzP//zPQso5XNpy+baZlK/qKod0W/7xbrkIRBsuF//IPRAIBAKBRSAQhHwRqEaagcBWgED+lcCiDedmnJ133rncSLD33nsvzaRmK4BswxUx2nDDNUkUKBAIBAKBQQgEIR8EW0QKBAKBQCAQCAQCgUAgEAgE5oNAEPL54BipBAKBQCAQCAQCgUAgEAgEAoMQCEI+CLaIFAgEAoFAIBAIBAKBQCAQCMwHgSDk88ExUgkEAoFAIBAIBAKBQCAQCAQGIRCEfBBsESkQCAQCgUAgEAgEAoFAIBCYDwJByOeDY6QSCAQCgUAgEAgEAoFAIBAIDEIgCPkg2CJSIBAIBAKBQCAQCAQCgUAgMB8EgpDPB8dIJRAIBAKBQCAQCAQCgUAgEBiEQBDyQbBFpEAgEAgEAoFAIBAIBAKBQGA+CAQhnw+OkUogEAgEAoFAIBAIBAKBQCAwCIEg5INgi0iBQCAQCAQCgUAgEAgEAoHAfBAIQj4fHCOVQCAQCAQCgUAgEAgEAoFAYBACQcgHwRaRAoFAIBAIBAKBQCAQCAQCgfkgEIR8PjhGKoFAIBAIBAKBQCAQCAQCgcAgBIKQD4ItIgUCgUAgEAgEAoFAIBAIBALzQSAI+XxwjFQCgUAgEAgEAoFAIBAIBAKBQQgEIR8EW0QKBAKBQCAQCAQCgUAgEAgE5oNAEPL54BipBAKBQCAQCAQCgUAgEAgEAoMQ+D/KXvO60qi/VgAAAABJRU5ErkJggg==;" parent="1" vertex="1">
                    <mxGeometry x="-80" y="10" width="330" height="91.86" as="geometry"/>
                </mxCell>
                <mxCell id="Yr3t7ejNtm0bVkwtEUdj-9" value="" style="shape=image;verticalLabelPosition=bottom;labelBackgroundColor=default;verticalAlign=top;aspect=fixed;imageAspect=0;image=data:image/png,iVBORw0KGgoAAAANSUhEUgAABIoAAACcCAYAAAAQ0UBgAAABSGlDQ1BJQ0MgUHJvZmlsZQAAKJFjYGASSSwoyGFhYGDIzSspCnJ3UoiIjFJgf8bAwiDOIMggxGCdmFxc4BgQ4ANUwgCjUcG3awyMIPqyLsgsPtWzVeum9hlMe3Kw4m9l1ldM9SiAKyW1OBlI/wHi9OSCohIGBsYUIFu5vKQAxO4AskWKgI4CsueA2OkQ9gYQOwnCPgJWExLkDGTfALIFkjMSgWYwvgCydZKQxNOR2FB7QYDXKTUvUMHVx8jC3CCUgHtJBiWpFSUg2jm/oLIoMz2jRMERGEqpCp55yXo6CkYGRkYMDKAwh6j+HAgOS0axMwix/EUMDBbAcGSegBBLmsnAsL2VgUHiFkJMZQEDA38LA8O28wWJRYlwBzB+YylOMzaCsHmcGBhY7/3//1mNgYF9MgPD3wn///9e9P//38VA8+8wMBzIAwByn2J9ux33gQAAAIplWElmTU0AKgAAAAgABAEaAAUAAAABAAAAPgEbAAUAAAABAAAARgEoAAMAAAABAAIAAIdpAAQAAAABAAAATgAAAAAAAACQAAAAAQAAAJAAAAABAAOShgAHAAAAEgAAAHigAgAEAAAAAQAABIqgAwAEAAAAAQAAAJwAAAAAQVNDSUkAAABTY3JlZW5zaG90c3R28wAAAAlwSFlzAAAWJQAAFiUBSVIk8AAAAddpVFh0WE1MOmNvbS5hZG9iZS54bXAAAAAAADx4OnhtcG1ldGEgeG1sbnM6eD0iYWRvYmU6bnM6bWV0YS8iIHg6eG1wdGs9IlhNUCBDb3JlIDYuMC4wIj4KICAgPHJkZjpSREYgeG1sbnM6cmRmPSJodHRwOi8vd3d3LnczLm9yZy8xOTk5LzAyLzIyLXJkZi1zeW50YXgtbnMjIj4KICAgICAgPHJkZjpEZXNjcmlwdGlvbiByZGY6YWJvdXQ9IiIKICAgICAgICAgICAgeG1sbnM6ZXhpZj0iaHR0cDovL25zLmFkb2JlLmNvbS9leGlmLzEuMC8iPgogICAgICAgICA8ZXhpZjpQaXhlbFlEaW1lbnNpb24+MTU2PC9leGlmOlBpeGVsWURpbWVuc2lvbj4KICAgICAgICAgPGV4aWY6UGl4ZWxYRGltZW5zaW9uPjExNjI8L2V4aWY6UGl4ZWxYRGltZW5zaW9uPgogICAgICAgICA8ZXhpZjpVc2VyQ29tbWVudD5TY3JlZW5zaG90PC9leGlmOlVzZXJDb21tZW50PgogICAgICA8L3JkZjpEZXNjcmlwdGlvbj4KICAgPC9yZGY6UkRGPgo8L3g6eG1wbWV0YT4K/sFd0wAAABxpRE9UAAAAAgAAAAAAAABOAAAAKAAAAE4AAABOAAAYxibg6xYAABiSSURBVHgB7N17sFbT48fx1W90ccllxk8jKYRhMiG3GKULyrjUKMZMaKLIpfoJySVULkWaMPNFQz+6MOTSkEIXty6o6KLonoqKSE3SSezf+qyftb7r2c/znJ7zPcc5j+O9ZurZl7X2Xvu19z/nM2uvXSOxxVAQQAABBBBAAAEEEEAAAQQQQAABBP7xAjUIiv7xzwAACCCAAAIIIIAAAggggAACCCCAgBMgKOJBQAABBBBAAAEEEEAAAQQQQAABBBBwAgRFPAgIIIAAAggggAACCCCAAAIIIIAAAk6AoIgHAQEEEEAAAQQQQAABBBBAAAEEEEDACRAU8SAggAACCCCAAAIIIIAAAggggAACCDgBgiIeBAQQQAABBBBAAAEEEEAAAQQQQAABJ0BQxIOAAAIIIIAAAggggAACCCCAAAIIIOAECIp4EBBAAAEEEEAAAQQQQAABBBBAAAEEnABBEQ8CAggggAACCCCAAAIIIIAAAggggIATICjiQUAAAQQQQAABBBBAAAEEEEAAAQQQcAIERTwICCCAAAIIIIAAAggggAACCCCAAAJOgKCIBwEBBBBAAAEEEEAAAQQQQAABBBBAwAkQFPEgIIAAAggggAACCCCAAAIIIIAAAgg4AYIiHgQEEEAAAQQQQAABBBBAAAEEEEAAASdAUMSDgAACCCCAAAIIIIAAAggggAACCCDgBAiKeBAQQAABBBBAAAEEEEAAAQQQQAABBJwAQREPAgIIIIAAAggggAACCCCAAAIIIICAEyAo4kFAAAEEEEAAAQQQQAABBBBAAAEEEHACBEU8CAgggAACCCCAAAIIIIAAAggggAACToCgiAcBAQQQQAABBBBAAAEEEEAAAQQQQMAJEBTxICCAAAIIIIAAAggggAACCCCAAAIIOAGCIh4EBBBAAAEEEEAAAQQQQAABBBBAAAEnQFDEg4AAAggggAACCCCAAAIIIIAAAggg4AQIingQEEAAAQQQQAABBBBAAAEEEEAAAQScAEERDwICCCCAAAIIIIAAAggggAACCCCAgBMgKOJBQAABBBBAAAEEEEAAAQQQQAABBBBwAgRFPAgIIIAAAggggAACCCCAAAIIIIAAAk6AoIgHAQEEEEAAAQQQQAABBBBAAAEEEEDACRAU8SAggAACCCCAAAIIIIAAAggggAACCDgBgiIeBAQQQAABBBBAAAEEEEAAAQQQQAABJ0BQxIOAAAIIIIAAAggggAACCCCAAAIIIOAECIr28CDs2rXLLF682CxcuNAsWrTIrF+/3tSqVcscdthhplWrVqZNmzamZs2aezgKuxFAAAEEEEAAAQQQQAABBBBAAIHiFyAoynOP/vjjD/Pkk0+a++67z2zdujVPLWMOOOAAM2DAANO7d28Co7xK7EAAAQQQQAABBBBAAAEEEEAAgb+DAEFRjru0YMEC0717dzN37ly394orrjA9evQwp556qqlbt65ZsWKFmTNnjguIVq1a5eqceOKJZuLEiaZBgwY5jsgmBBBAAAEEEEAAAQQQQAABBBBAoPgFCIpS92jatGnm3HPPDVtHjBhh+vTpE9bjBY00uvLKK11ApO3169c3M2fONEcccURcjeUiFNAIMN2v/v37F2Hv6BICCCCAAAIIIIAAAggggAACVSNAUBS5b9682Whk0Hfffee23nPPPWbw4MFRjezFJElMkyZNzFdffeV2KmSaMmVKdkW2FI3Ajz/+aBo3buxeFxw0aFDR9IuOIIAAAggggAACCCCAAAIIIFDVAgRFf94BBT4XXnihmTx5stuiuYdWr15tDjrooD3eo9GjR5uuXbuGeqNGjTLdunUL6ywUl8C1115rdI80txRBUXHdG3qDAAIIIIAAAggggAACCCBQtQIERX/6P/PMM6Znz57hbtx1113mwQcfDOulLfz+++/m2GOPNX6+IoVMS5cuNfXq1SutGfuqQEATlOu1MxWCoiq4AZwSAQQQQAABBBBAAAEEEECgqAUIiv68Peedd56ZOnVquFkbN24sU9AzbNgwc/vtt4f2+lra/fffH9a1sHPnTjN+/Hjz22+/mWuuucbt27Ztm3nrrbfMwoUL3WtvLVq0MIcffnhGu3hlyZIlZsKECUYTbB911FFu1xdffGHefPNNs/fee5vmzZubM888s6AvsM2bN8988skn5vvvvzcHHnigOeOMM0yzZs1MnTp14lNmLX/55ZfmxRdfNK1btzZyU9myZYvrw/Lly02bNm2MrqNmzZpZbeMNJSUl7rrVj2XLlpmGDRuapk2bltp206ZN5oUXXjD77befufHGG93hdu3a5e7dRx995CYcP//8883+++8fn8roK3ZPPPGEueWWW8L2m266KdyzWrVqmUMPPTTs8wvr16836p/+7d692/XvrLPOcn31deJfjUx777333L+bb77ZHHnkkW73mjVrzKuvvmoUKrZv397d67gdywgggAACCCCAAAIIIIAAAggUhYD9w/YfX2wAkNhRQIm9Ie6flsta3n777dBex+nYsWM4hJ2/KLETYodz2HmQEhtcJH379s1o48//7LPPhrZasAFTMmbMmOTss88O9W1YlCxatCg55phjwjbfXvU2bNiQcYx4xX7VLTnttNOy2vn2diRVXN0tqw82oElsSBLa3XnnnYnsrr/++rDNH+OEE05w/c460J8bZs2alTRq1Cirndrbr8slixcvDk1lZUO8pFOnTqG++qFiR4IFV39u3T8bPIX2WrCvFYa2vl78m77nut5evXrlbfPAAw+4a/cnsWFbMmTIkMSGd6GNDYwSbW/ZsmXY5s953XXX+ab8IoAAAggggAACCCCAAAIIIFA0AqZoelKFHfn8888z/pA//vjjy9wbhS8+BNCvAgMVO6okY7v2KSiyI1uytsftR44c6dor8DjkkEOy6g4fPjwrIInb6/wKO9LlnXfeCe06d+6c2FfkEjsiJ7Ffe0vsV8DCebTvl19+Cc3jff48CrouueSS0CYO21Tn1ltvDe3jhaeeesq1UVBkR1MlP//8czJp0qRE4ZI/to71zTffuGZ29FTY7vcrKHr44YfD9rSRgjCFWL689tpriUztaKfQpl27dm6bto8dO9ZXTeyk5u4e6VwKdOxooMS+VpjYyc1DW+1TkKSiwM73K/5V4JcryPN1dO0UBBBAAAEEEEAAAQQQQAABBIpJoEKDoscWrU9OGj832e+ZD5PaT32QHPfSZ8kts1cmO3//o5iuOasvjz/+eMYf+goQylrsq1cZx1AYsGPHjmTlypXun53cOmu//UKaGymkECMOMNRWwcf27dtdiGNfe0pmz56d1V5hin29LbETcCdDhw7N2q9tcdHoFh+oKKz69ddf490umInDHo0U8uXrr79O7GtfWcGH6tvJvBP7Cp2retttt2X0QwZxUfjjgxLZxEX7fP9U56KLLnK7165d687dpUuX0NYf4957703s62GunoIXv12/GtGTLvb1wFDHzlGU3u3W7Sttrk58/b5iv379QnudY86cOYl9ncyNgEqHhdqv0PGDDz5w91HBWzy6yI+K8sfmFwEEEEAAAQQQQAABBBBAAIGqFqiQoGhLye7k1FfnJf/1r/dz/mvw/Mxkyc+ZgUFVX3h8/vQf/z169Ih3F7wchywKCTRSyZf0q2kKI/RKlS8a/aJgRO38v4EDB/rd7levZPl9OpdGssQlHSapjsImX+y8SKG9RhblKnfccUeoo3PZOZEyqmmEje+DRi0pQIrL1q1bw37Viw1U77LLLnP7FSjlKumgSaN7fBk3blzGsfX6XbrEr9Q99thj6d3JnoKieHSQRjqliwIxf/361YixuMQjiC644IIQoPk6Gjnl2+v+UBBAAAEEEEAAAQQQQAABBBAoJoEKmcz6kncXm7dX/WD//s1fjqhbx3zd5QxTs0aN/JWqaM+jjz5qbFgUzq6Jol966aWwXuiCvnKmiaF90QTG9vUqtzp9+nTTtm1bt2wDFrNixQpTI2VhQxdjR6D45kaTMr/77rth/ZxzzjGasFnl+eefN127dg37/IIddeMmmvbrNjxyE1zb0SxuAmi/fd26daZBgwZ+Nfyq//HX2vQpefsKVdhvgxxjAxi3bucoMg899FDY5xcaN24cvgBnR9MY9Vsl7oMdWRO2+3b6ff/9982MGTPCpo8//tjYOZfc+sSJE83FF1/slu1oHDNz5sxQzy90797dPPfcc24114Tius+63yq5vnoWX5/25yqDBw8OmzVxt31tL6zboMrMnTvXrWtSaz/Zt6/w7bffZrhrku30c+Dr8osAAggggAACCCCAAAIIIIBAZQuUOyh679ufzQVvzi+o3/c3P8oMOLlhQXUrs5Id5WHsZMfhlPlCiFAhx4K+ZKYvZ/liR4u4L4H5EODDDz80rVq1crvta19m/vzcZnZuIGNfRXP1FCjZ17P8Id1XxhS8qOjLZx06dHDL8X/6KlqTJk3CJn0h7Oqrr3ZfW7v88svddvXNjpYJddIL8Rfg7CgmY1+vClXsiCPzyCOPuPV8QdHpp58e2ijoUuCloq+z6atqKvYVs5xfGXM7o/8USvmAzY6CMnaUjtub7x7F/evfv7+x8xhFRzMuECwtKFIQpUBKRfdpT+Xoo492XzPz9eJrzxUU2Xmj3NfpfH19sW1PX4fzdflFAAEEEEAAAQQQQAABBBBA4C8XKO/wJs1BlO+Vs/T2syd8Ud7T/SXt43lzLLib1LmsJ1q9enV4pUjH0CtQcdE8Ndquf5ofKF+JJ2hWXU007YsNmsIxcr125ev58+jXz8OjL5n57XplrLRiRxGFuunXo2z4Evbpq2e5iube8eeyQVGo8vLLL4ftdsRW2F7ogo7lj6tz5Crqk6+jvqbLnl4905xCav+fTGiuczVv3jycP9ccSbqfvn/6je9vuq+sI4AAAggggAACCCCAAAIIIFDZAuWeo6j1W/MLDor++7mPK/v6Cjqf5gpSIFKeP+DtiKGM9poPKC6FBkUKUOJ+aKJkXwoNiuJ5cuxrUq55/PW1dPjjj+9/Bw0alNGH+Oth5QmK7EikcFx9Xr6spTKCovg5iOeQKrSvBEWFSlEPAQQQQAABBBBAAAEEEECgGAXKHRR1mrKk4KDo6LGzi9HA9cnOgxNCDAU1dv6bMvX16aefzmhv58nJaF9oUDRlypRwHH0uPi6FBkXxiJ7x48e7Q6RHKmnS6Xwlvpb69etnVCtPUGTnVQrX5r9olnHw1Er6i2mVERRptJUP6tITcae651bTX44jKMqlxDYEEEAAAQQQQAABBBBAAIG/i0C5g6KhC9YVHBRd+t7ionVRMOQDAv3aOYsK7qtG/fhXltRWXyeLR+HoQIUGRXZOodCPTp06ZfQhDopef/31jH3xShx2LF78/+aqH1+fvsKWr8Svqdn5hTKqlScoSn+VTeulFb2+Z+drClUqIyjS9XonfbWstKIvmKXDPIKi0sTYhwACCCCAAAIIIIAAAgggUOwC5Q6KvttRkuz3zIcFhUUfbMj+3HgxAcWffldYMG/evIK698orr4RwQe3spM1Z7eKgqLT5bwYOHBiOpcAmLnFQpPl+chUFVD7o0GtUfg6ctWvXhu3abyfNztXcbYtfU0uPjCpPULRly5aMPihUsV9Cy9kPBUTqp+aP8qWig6K7777bHzr89urVK6OP+QI5uSoQ7NatW2irBYKiDA5WEEAAAQQQQAABBBBAAAEE/mYC5Q6KdL3/u2zTHoOiG2asKHoaBRn2a1whKCjk9Sj79TA3qsSHM5osOVeJgyIFOPHcQ75+PDJJ/di2bZvf5X7joMh+DSxjn1+J5zgaMmSI3+x+40mq1d9169Zl7NeK+uBHJKkP6VfU4smg7RfGstprQxyWaNRNXDp27Bh81QdN7L1q1apQpaSkxI0iklF6QnCNgvLOOkeuEgdZ/fr1y6oS71cw6MuMGTOSTZs2JXrdzJ/D/w4dOtRXc7+auFyjvbQ/fX0Kj3w7+5W2jHZaSU9mnX51LasBGxBAAAEEEEAAAQQQQAABBBCoRIEKCYrU3/Grf0gOHPlRzsDooflrkz8q8aLKc6qpU6dmTGytkTf5Rr3ota544uh27dol6Xl1fF/ioEhBQjp8UL1x48aFkCE9kkf746BIcwcppIqLQgj/CpzCHoUucUmPKjr55JOzrm3MmDGhD1pOl6uuuirs79mzZ3q3W9frWD4sGT16dEad9NfhfD31Ra/7xZNJp19Nk4mvn29UVjwaKj2huDoid38MBWHTpk1LRo0a5c67bNky19f0yDLVV131T8GWb5/r9cRGjRqF/blGff30009hv46TK6zLAGMFAQQQQAABBBBAAAEEEEAAgUoUqLCgSH3eUrI7eWnl98n/zFqZ3GhHED379cbkm+07K/FyKuZUenXMj6rRH/MKPoYPH55o1MmKFSsSvWrWt2/fjFCjd+/eWfMSxb1JB0U6rkb8KJzYvn17EocgCqdyfXErDorUXusTJkxINCpl6dKlSZs2bVwIobBFX2HLVebMmZMxakoTX2uSaW3XF9J0XP1LjxZSCKXXwRSY+DpaXrRoUTiNriOesFr1dPw1a9ZkXM/IkSPDMfyx0r/pr6LNmjXLjTCK6+k++JFZ6p+CpThoUv90Xdrny2effZbz3Lq/vvzwww/utbL4XOllBUIbNmzwTRKNRtMor7hey5YtEx3Ll40bNyZxkKW6em7iOr4uvwgggAACCCCAAAIIIIAAAghUhUCFBkVVcQF/1Tk1GmfYsGEZgVEcAvhlvZ6Wa06idL/SQZEf+eOP439HjBiRbhrW46AoHrXj2+pXr2TF8/qExtGCgpv4y2hxe/VLr6+liyZ2juvFyxrdpJEx8bb08oABAzIOqcAmDuN8fQU9/kttvkE8CsjXi38VtsUju+J9WlZgE5c40FGYpNfp0sGcwqU+ffrkvCbd882bN4dDqm0cUKXP36VLl2Ts2LE5j+XramQTBQEEEEAAAQQQQAABBBBAAIGqFqihDtg/VimlCCxZssTYMMjYESHGvoZm6tWrZxo0aGBsAGHq1q1bSst/77IjfIwNetwG+/qSsUGJsfPhGB3bhhLmlFNOMU2bNjW1a9f+d6PUUuvWrY0NnNxWO5LINGvWzCxYsMDYUU7GjnAxdk4f169Us7yrupZPP/3ULFy40Bx88MHmuOOOc/2oUaNG3jYVvWP58uWuD3Y+Jnc9J510kqlTp05FnybreLp22et8NWvWzNrvN6je3LlznbPuuZ2DyDRs2NDv5hcBBBBAAAEEEEAAAQQQQACBaiVAUFRJtzMdFM2fP7/MZ04HRR06dCjzMWiAAAIIIIAAAggggAACCCCAAAII5BMgKMonU8HbCYoqGJTDIYAAAggggAACCCCAAAIIIIBAhQsQFFU4ae4DTp8+3bRt29bttPMLGTsJdO6KpWxt0aKFsRNquxp2Ymlz6aWXllKbXQgggAACCCCAAAIIIIAAAggggEDZBAiKyub1H9d+4403QrCj+YTshNJlPpbm09GcRCr2K2nGfv69zMegAQIIIIAAAggggAACCCCAAAIIIJBPgKAon0wFbrdfITM33HCDmTx5cjiq/Yy86dy5s9l3333DtnwLO3fuNJMmTTKdOnUKVTRxtf08vJvEujInnw4dYAEBBBBAAAEEEEAAAQQQQAABBKqdAEHRX3xL9bqZXjvLVxQetW/fPt9u19a/sparUvPmzc3s2bNz7WIbAggggAACCCCAAAIIIIAAAgggUCYBgqIycZW9cklJidm9e3fehvvss48pbURQkiRmx44dedvvtddepnbt2nn3swMBBBBAAAEEEEAAAQQQQAABBBAoVICgqFAp6iGAAAIIIIAAAggggAACCCCAAALVXICgqJrfYC4PAQQQQAABBBBAAAEEEEAAAQQQKFSAoKhQKeohgAACCCCAAAIIIIAAAggggAAC1VyAoKia32AuDwEEEEAAAQQQQAABBBBAAAEEEChUgKCoUCnqIYAAAggggAACCCCAAAIIIIAAAtVcgKComt9gLg8BBBBAAAEEEEAAAQQQQAABBBAoVICgqFAp6iGAAAIIIIAAAggggAACCCCAAALVXICgqJrfYC4PAQQQQAABBBBAAAEEEEAAAQQQKFSAoKhQKeohgAACCCCAAAIIIIAAAggggAAC1VyAoKia32AuDwEEEEAAAQQQQAABBBBAAAEEEChUgKCoUCnqIYAAAggggAACCCCAAAIIIIAAAtVcgKComt9gLg8BBBBAAAEEEEAAAQQQQAABBBAoVICgqFAp6iGAAAIIIIAAAggggAACCCCAAALVXICgqJrfYC4PAQQQQAABBBBAAAEEEEAAAQQQKFSAoKhQKeohgAACCCCAAAIIIIAAAggggAAC1Vzg/wAAAP//HH3BNwAAQABJREFU7Z0JvLVT2f8XesirzJIxU8aISDKWqUlJKd68eqRPk0qGEJkjGUJEKkOUDJUkMkUR5U2FoqIMZUiGUqTypP2u7/r3u//XXs+69773vfc5zznnua7P55z73veaf2v+rWutNUcnSnBxBPogMGPGjPDtb387fOELXwirrLJK+MxnPtPHxdQyfvbZZ8Oee+4Z7rzzzrDPPvuELbfccmol0FOTEPB8Hrwg0Cacd955Ybvttgu777774B40dPHEE0+k9udHP/pReOSRR8Jyyy0X3v72t4fXve514etf/3o444wzwsYbbxwOO+ywhj66tToE6rDedttt65z0/f6HP/wh5d+ll14aTj755LDBBhv0deMWBkfg/vvvD3vvvXdgaHfMMceE5ZdffnBPMhe/+93vwuc+97lwxRVXpLq+2mqrZTYm/0/wIn2nnXZaWHDBBcPZZ589+RM1Timg36Tt//Wvfx3222+/sPXWWw8d8t/+9reUB+eee27YZZddwnve856h/RzWg+uvvz588pOfTHXqpJNOCtOmTRvWy/D444+HM888M3zta18LBx98cNhmm22G9nN29GAilpfZMR8mapqvvfbacNRRR4UVVlghjT/mnnvuoaJKm8dY5otf/GJYaqmlwuc///mh/JvQjiGKXGY/BC6++OJOnFB1IvFRJf7KK6/sxI6q84tf/KL6FicMnQMPPLCz5JJLQiimvzgxq8xnl5fLL7+8Sv9LXvKS2SXZs106p3o+f//73+/EjrL136OPPtpVJv7yl79U9YL2ITfvsjzEj3vuuafzghe8IP1tvvnmXWE+73nPq37vvPPOQ4TiTkGgF9Yf+tCHBgYpEnudt771rVUeUU6+853vDOzPWDj41Kc+1bouxMWCsYjS0H7uu+++FdZt8stG4Lvf/W6H/l59P0/ycyrJ3//+947KgdL58pe/fJYnMRIvPcsm45ANN9yws8MOO3Tiwl2HtnhWSZwwVWVk2PHRfffd13n/+9/fWWCBBSo/DznkkFmVtK5wIwFWxekb3/hGl9mgPxhn01+pzPGMix2DejPb2x9VeXn66ac7kQzvnHDCCZ0//elPCddnnnkm5cmxxx7b+eMf/zjbY20BYJzQayz54he/uLPeeut16Cc/+tGPdq677jrrfNzf7biRuW5biYRk5xOf+ETnRS96UVV3X/WqV7X1blK4Y9XJZTZDgIGeOicqMxJXgqpvkEI0kEhcney8733v67zmNa+pzGdHouhXv/pVlf644pOw8X9TD4HZIZ8hc04//fSugTiD+6iF0PW31157pQF71Pyoyv5vf/vbrkz/17/+VZHIEDn//Oc/u8xH8eOxxx7r0E4xcdBgLWo3VnFSW8bTiaLhEG+CNQPEQSRqZnQgLygfyquJQhT9+9//7lCmWSBR3HjS3+X1IWqUdnbdddc0OMYO/eRElLiyWaXl05/+9FBR/OxnP9vZf//9u9qKqUYUPfXUU52ordJFZk4Eooiyeeutt3amT59e5afKHROTqNXV9Z2Jyw033DBUfrd1DOmh+jPs+JDyRd/z0pe+tPJzohBFO+64YxWnn/3sZ23hSu4uu+yyDm0Kk21h50TR4JCOqrxEbZMqH9773vemiNi2lMUOl24EaDu/9KUvVWNAlWPGjBBEluzFjIULiPlZIXax6uabb24dBQh5yseb3vSmqrw4UdQaTnc4URGIKq5VAaciQwpdc801M32z8Ye1VyMw7EDA+juZ3n/yk5+kCfasXLmbTHhN1LiySv7hD3+4NnqzSz7b1UxWcHvJxz/+8VT/S4Pj3//+92kljjZiLITJOW0Pg3QrDKr5vsgii1RtkxNFFqHB3/thDdnTtv2DeFEfMlGIIouQXSG84IILrFHXO4NjNAvoOyeiRJX4DkQqGg8QuaMQ21ZMNaJI+JCvKp8TgShSvP7xj39U8SJ+Fn+I87jdtsv8lFNOkdNxfRIvJtZ//vOfRxJu3M5cpasNUUQ8wGaUQhmJ28S68mBY/48++ugqnU4UtUdz2PLywQ9+sMoHFgqQuHW3+gb54VJGQOND2if6Rgn9z1e+8pUKQ8xZlJTGluyNx5NxC+3TD37wg5EE9/DDD1fpaksUHXHEEQmfkURoDD1xjaIxBHeies2q/zvf+c60IgUbjLB6xWSRlfu493qmqKOWqUHU7EoUzQSKf5iUCNCRveUtb5mUcR9lpFm1VZ3uRxRBJjMxnhXqwwwsiCfxzeWBBx7o3HHHHVU6nCjKERrsdz+smSi1Fbb3qLxNRKJonXXWqeLXiygi/T/96U+T3bZYTDZ3luSzRMVkS0e/+Kp8TiSiiDhbbbwcfwiRXLsongfWL6kT3vzqq6+u6mMboggNkYlK5lrwteBB2XOiyCIz2Puw5QXNUrRgIIRUxxhfvOENb0hbqFhMdykjgOap2k5LFMk2W/pkzhNNuskukGBKUxuiiLEU7Trbhie6OFE00XNogsSPiaIqhRNFEyRTPBoDI6BVJyeKOp146GhVp/sRRQAdD3FPWyEGBn0IB3Y1nfiWBI0mtU1OFJUQavatCdbNfCrbOu6446p8mohEkd1i2Y8oYmGFCcSoNHbKiE2cr7at0CRq4sRudDGBWKAtmWhEkT0jsoS/1Uoh/loAHB0y4+8T5+mpXR+UKOIoBfJyMhBFbM1VOp0oal/Ohikv7UN1lyAQLzSpynCJKELLVW0rZR3t3akgqrdtiCKOdMG9E0VToSR4GhIClj11osgLxWREgH3JatidKBqcKJoVeX7LLbdUecah+iVh1U/56kRRCaFm35pg3cynsq3jjz++yqfJThSVUzh1v3JOkepYiaiYKinXZGayEUVoeip/eLIVZLKLTdMgRBEaVmjGg8NkIIq+/OUvV3nnRFH7Utu2vLQP0V0KgX5EEfYgU2wbpXNw5cdkfCo9gxJFbA+W28lAFM1B5sQIu0xxBLg+Ok6Uu1L5rne9K6y66qrp21e/+tVw2223dZl/7GMfCwsttFD6FldQw1xzzZXeI1EU4kA/RFXMgDueXA+46aabhjiZC/PNN1+XP/oRG4YQK0X44Q9/GOKkJPm31lprhbgNLl2tLXs8Z8yYEeI5C+lKXq7mveuuu0LcYxriSlm46KKLQpwcpitY42n6YcUVV7ROG7/HVeMURjx3Jfm9+uqrh7g3OUS1yCqt8owrTAmbv8022yxEVUsZpedNN91UXR8cVzbCKqusEi688MJ0bXccWIeNNtooRK2NEE/e73JnfwwSn1GEZ8PW+yj8HSQdCpdrJrmOOG4jSnmx7LLLhle/+tXhIx/5SFh88cVlresZNSBCbHBTWYzn4wSuq1x33XVDHOSHnXbaKSyzzDLJPk3cqaeeGuLgOfnNR67I3H777ZP5yiuvHN797nen97p8BpdvfvObyU7+jyttVea5gjPeqNBl5YADDghxwFp9GwSfUeRHFXD2Qv2OK9HpK2WT669LEg/EDVwlGs91msmYOk19xO2TTz4ZqEtWyJe4LzxdqX3QQQclnOOBqyHuW09XUVN34609IR4OaJ0lN/HQ5BC1hcL555+fzMhXygQSzyUK8YDk9P7ggw+GpZdeOr1Hoiicc8456Z2rwclPyRxzzBHiTY9hnnnmSZ/i/vAUZ5kvvPDC6Wpn/eYZD14M2LvqqqvCQw89FJZbbrmw9tprh6g2HBZddNEANlZuvPHGdAXr7bffnjBbc801A3+0k3FvfG1Ztn7onevkoxZOoAyA43Of+9yw/vrrh3jTUcJL6Ri2bSd/mmKtuPV6xq3NKf/I5x//+McJB+rlYostlq6lxS39B/2IFcpOJJNCvIkz5fsSSywRXvGKV4StttqqqqvWPu9cKx0nWql/wH/6E/oi+iTCHkRe+cpXJqxxQx19+9vfXnQeD8VM/VzcqtZlTvtzySWXpLT/5je/CXfffXeIk5cQb8xJ8dtjjz3CbrvtlsoccY4Hyoe41S+1e2eddVaqQ9SzeKNKVz8xSL9JhOgr48A91TnCfsc73tEVT/0AI67kjtvoqrJN/aJezT///LKWnrRhXC2M0J9RDrlGnvTGg4xTvaQOMwaok6bt3nj0/YyFiA/1lbK/0korpT6DdDLOoK0plZ9B8oL2cJB8rsON75Rp2h8E/KP2W3rXv3iuXoqzfnN1u9pr2lDqOO0oeRvPekvjMPpb6gtjMvpbCXgwvqG9ihcfpLDj7UUhatDVXnuvsRnlmLJB+SsJuFNnKXOM6+iHqeP0DbTpVghf5SkSReHQQw9NxrTptO25MFYl7HjOWvJb5uonGL9ytT1hMzZrInPOOWdq/zX2vf7661M9pZ8nLRY3+TdIGcENfSH9FhKJohT/9CP717T+ZM6KP5v2LbTJhGuF8e/rX//69Kk0LqLdpL23Msp22vpr39uUF8ZAVgYt+8O0VdQZxirk+cte9rJUL+gzqEPf+ta3wrRp01IfyZxq3nnntdGs3snHE088MVD/GXPQZ1KnKfP0LVbajsWsH3XvXBGvMVzUKJppDIw7yky8VTh5wXg4ErqBMVnTflNhg3k8fy9hx1iBcdAaa6yR2j/G8Xk7InfMO+mzGJ8zNolksoyq56B1l/gjkSgK3/ve9yp/4jb7lL7qw39eaJPpR5mPSHBLu4Uw/7RzxEHjIz9H/pyMLJ7HeXAE4qCnEzvjisWMBanDodYSDvi15xBgzg1QElQH+cYfGkWxwlW/9Z0ne+VjYydn1RNVYN1iEStzuj3G7rvnEFUJmgNW1ZpVoThISoeg2bB451yJWJnktNEzNtDpSlncc4MZ19BqBYpvXOmow9biYKYTSYeutNpDddnKpHQpbmDNlbX6rSfpuPfee2eK4yDxGUV4M0UgfhiFv4OkQ3GgXOkmEfKS6+k5iNXmh/DjqTLLzV2yA/4cCsdWENnFTFe1c14DZ6/k5zjwjT/KY7985laXvBxQfmMn3WHLjgStjNhJV/Fgu9Zf//rXZDwIPqPID8Wp7mm3k/TaesbBjkceeWSXN9Q50mnrsL0FKg6iu25KJF/QKAEv5ZF9Kl8VCPWHPMzbAb7xFztXWe3UaRRxmC95a8PhVi9JJH3TWVUyJy1WSKPOrZkebx7i2lzOMJD9SLRb6504oE5mlCnw4kwlG3/KWFOxavS0t5Rv2iWFHUnODnUHGbZtHwTrfvGnznFlN/HkOlpWy7ghRPHWM9cosltnsI8Gi8WudG6eDh9F1Z28oX7SxhIGNwkNKk22nnE1LmHEQWeX99yaZuOLHbvCrXRH0qaKI99os8hbmfOk/EgG6TfjRClhbv3i8M5caK8iAZ/CpO1E+8T2V6QjL6tWo4ixgr1qWOGRZvrpXAZp98a67ydu1HviTHwjMdTh7CwwVzp4ljSKmubFI488ktod/Jef/fI5xyz/bctWSaOLeqaweEZCo8OlDLQd9jv1jPpiv3ETkYSDmjEj7rRv9BG23aHNV7uDG/pW7Fn/SrdDsVWTNhF7+Md12fYQbtpe+gwrpEH+Wo0izvbgljqZsY2FeNGH0Ffleclv/ijrCHVCbmknZK6nzHhijjY9mj75+CESsja66b1pGbEOI5lYxaekUTRI/bH+1r0P0rewrZsDncFBuNjy8stf/jK1X3YcwHk0VkbdTlu/7Xub8mLdD1r227ZVHECf1xlu0KL9tm2G8Aa/ksTF1TT+om2gPX/zm99c5RFu0fJBhh2LlcLOv/XTKOJcXNuG0X8gTftNDo5GaFvVbtCO0D7ZtoByGhUekl39o35Rt4UnT8bzubSpu/LTjkfx17Yx2GGbGd9oo4iLxYK6o7bH9tdt4pOnaVS//YyiUSE5SfyxB9jmkzOSwABJhb+OKJI5dplg2gE2ZvlNE1yHSGeOGde9SiBNbAdDhUYYONuBKe5oAGgYmGgyAbSdNhPQQUSDYg5gk9CQaYJDeEwwEQbMDFIglPjOnyWKiDODL9vA0wjwh7uLL7646xpFOoRcBonPKMLLw+f3KPwdJB2KgwaP4MqEX8LBgsJbmLOtiENkEdvR3n///XLWiSvolTvKkBUGmPIz33rWL5/lD4fwyY/SXmzsMXHHjh1Q8X0QfEaRH4TZSyxRBLZ0wvqjY6Yz1bXhOVHEwB8z255Q5iVMpHEjogU8VNfBhTocV/MqLDErnfeCP8Kb8EpSRxTJro2DJYowt2WCOFiBfCBsOnkrkBx8pwxKmDwpfbYckya1K/nkW27zJ36pvaSdA2uJJUOjlpM+p6fNi0HadnnSBGvZLT3BEhIPbLgswU4oNTlXXlqiiAmXvlus6TeEKeZcqCDRNrkcH7CnLaa/GFRsP8aATXWBJ20ME3TaDeKSE0WHH354IlyUDp7Uh7e97W1VXhIviAm1A9hRv8FCid41iB6034waQon0sH2jHXgKD8IibEgE+j2JCHvMKGdW8v6YtEFOQOpb4oF2JBelt0l/O9Z9P3iQPv7sZIHJuG0ncqJokLyg7aTvV7oJS3lbyuccr9Jv8Fa8c6IIctbWE9IByc3EkwOdLdFDPGhbIJrlX9SyTEEyVtE3Wz/xy9qH7JRAFNEu26unS0SRFhapD7ZdgDBSmJRbwpLUTfwpsxqPUd7Iu1yUZtKbC+WQMGlDcjn33HOr+GAnatQkK0yELZmNWU4UDVJGbLj09cKgRBSpHDWpP9bf0nvbvoV6rjjm4xrCsYtjligai3a6lC6+DVNe2pT9tm0V9ZVFe1un1D7Qv9BXUt70zZZDpZ22i+/0c2y1lNh8wpxx9KjGYgqj9OxHFNEeqvzwZCEUadpvMrZgLKV6zRzTthU5yWbnmeCZz9Fs20882tZdpSknijSvIb4QPrnYfKIfzaVtfHJ/RvXbiaJRITlJ/LErT6XJhNh/KkAvoiiqzXelWBVDFYeGV6IV03xyjrkmY7hjkmFFkyXMIG5sw8CgWGGVBibWH/seVQ6TOwZW1j/s0LjIT552dRSCQmaWKJLfDFhkziCTAZSk12S0bXzahqc41T3b+tsmHUyA1RlGFfOZomQHn3bgikVNhiw5wfeoilrlQ55PNh9KZRH3/fIZokH5TNzxMxet1tsOvA0++Ns2P/I4lX5bokhpqnvmRJH1T3mY5wV2GPjKT+pcPsHW6hB28s4b903Ii35EkSb3hJETRYSh1SbiZ4VJDW7QcMmFibQlilhZVTotUYQ7VvQwa0oU0e7Ir7wM24luTgK0bduVtiZYy27pGbeGpHhTHqTNZ+1pkEfabH221+fmabLkBXVboj3+eZ+BuVbAZbfp0xJFwr/umZdjhSGiDHcQMQgD3Msuu6zKf3utLvYYxCJMeCFQpYHYtt+0h4bneDKgVpqYRFhBU0hm9L1WLFFEPtq+kXZObUDurm27NxZ9v40nE9tcyCOlPyeK2uRF03zO41H6bYkiyj7EJZoJlBeLFfmQt6NMypQuniq7LNRRDymf9GMim7RIZuNBfbZ+MCm3wmRI5vl47Iknnqj8zlf7IS5UdnAPUSMpTfyJp7Q6mWTWidoa/M4lbhdOmkf5d9Jg42IJD9kVQUVcc6KoTRnB315EUdv6o/jmz7Z9i4gJ0l0iiphLKP8tbmPRTudp0u+25WXYsm/r3yDzFOqfMOOZt9VoLMk816hVHSiRDFazyI5dhh2LCefS0xJF1D3KC+0tz7jdukoH6bHjJvnVpN+0/Vo+xsIfS1ZqsUX+8xThShzyNrJt3VX+WKJIfSVjRAifkvQjitrGpxTWKL45UTQKFCeRH2q4KeAloijuoawqdR1RpAFwnmw1XvhtBxsagDDopzG0f1YzBHe2YmlLV6mzx16pkuZxyn9r0sjk0MaDdxpj+ckz7mWtnDPJk1k+ecOSyAHsaBWqchxfGHjKvf3eNj5tw7Nhl97b+tsmHZQvYYL7XOJZHZU52wOsKJ62nGFO5yQ/6TCtMCCQWSk87PbLZ+wQpvyhPllB64HymneGbfDBX6WT8AYpVzZOde+WKKLuxrOGqr94hkPSTpA2TC+iSAOlElFkV+oYoOdiO3e26uTShLzoRxTZlbsSUaR2JieKLEnBqpQVtpmhwSOxWjEMGuxEGjsMnpg4NhVpN+ThMjFU2YNkt9K2bZcfTbCW3fyJ1o0mWaiCl4QtToq7JYqoc7jlz/Y5+GH7I7tKSHstv6gjtt9gEg3pM6hYogg/bX1gMsfAXWVdk+08DE1QiZtdLLD2aCMUd8qe1bCw9tr2m5QZ+Q9OVtRHl4h5Fk5Y6QaHvNxp8Iu/uUYL/tt02/Datnuqk5SJXNr2/batyesnYdh8yYmiNnlh/euVz3n6Sr8tUaS8zZ9o8ZXaGEuA1W1jsWWGSV9JbF9EObJiiaScKLIEdj7m4rewJT1omUryiT9hqJzl/a7c6Cl7pfJDO8L2KyuUKZU54lEa42F/+vTpVd3KiSKlY9Bxbi+iqG39sWnL39v0LXYhpEQU2X7JEkVj0U7n6dHvtuVl2LKvclMqa73aKhYGVIchIHOhj5Q5izASS9qxKJLXKbv4ZvvBYcdiCr/0tESR4pw/IYMYV5ZE9RU3pX6TRWW0pzAvjTPxMyfmIVmtWCWInChqW3eVRsZ8EO7aBscCb66IYOPSjyhqGx8bxijfnSgaJZqTwK+2kwkGs6oUdUQRWyFkRwyrHUDQoDIA6/VnBzpqPEoNMFArLCazTUXaAzQ6veKBmZ3M9FqJIWyrQl1Sabbq+bYBaRuftuH1w6mtv23SYbeX2Q5NcbSDjBJRwYqqhMkmkxw7oM473yZEUb98JjyreYZmkxXtc+d8CCtt8MF92/ywYde9W6Ko7owi1PyptyX85a9Wg0odOPvoVU9LW0TZGiHzfCsV/jchL8aKKIqHv1ZxI46U0SuuuELJnukpLTfs0mYxuab9ayO0t9YtbQrbsvBXeOXEW9u2XfFrgrXs5k+7ZUMaMrkd8l9xt20r9jj7h/qJkHYmt3b1HneWKGUwKb94QuDQXtitVMmzAf6Rv/ITIrAkkFDYqSOK5Eddn4WftP8KJ9/ipTCH6Td7aWhpAGrPBFSYvZ79iCL6e6XJbpVs2+6NRd+vdop41onqF/2/pG1eNMlnhdHvafu1eAB3Jx66mwg7yHX6Pot57hcLXsobJpYloRzKTj7Bkn0IQtnJy7ed9OZEkZ2g9RtzsTgksRN/Fl6UfxAr/aRf+cnd23PUCEdtUW5PE0FwsERR2zKC/72Iorb1J4+3/d2mb2lLFI1FO23TYt/blpdhy36/sqY6k89T6PNkVjqSwtY32l+J1d7qV5/sguiwYzGFX3paooi5Du0BYxYIWfrtuvokv/r1m4ynhVVOUssPnnaexTElVizRbYmiYequ4kT8pckFSdSrPSZOvYiiYeJj0zvK9/oec5ShuF8TBoG2k4kmRJHtFBi4I3bykU+ek4Ue/2gEqYj5oERONKjLG2CZ508qryo2Z9kMIpatLq022dXKElFkOyMRRcPEp014TdLbxt9h0qEVevKSzsUKquXKr7oJOg2+NEbwyx7Y3oYo6pfPip9dtWEbpEQdt37zHAafNvlhw+713oQowj322hJFdlWsRBQxcVEeTzSiiMGNBoGKI08GBXaSIIzzLR5ywyCPQWEbYRVQ7SBx4XwQ+TuRiCKrLWS3j9g09yKKsMchy9hRm8DAy9YzSxRhn5VtYaEnE2rI2jaiwSp+1RFF+Iu9OqJIGnh1fRbumxAIw/SbthxCnkm4oEE41Wl9yW7+7EcU2QH6KPo3lfk6HAft+yEQlXaIgDqRv4QvaZsXTfJZYfR7WqKopNHVy71dwKsjikTCgFGu1Se/bd+IPbtQQ1spfHOiSGWjjhSV//nTTvzlN08mfP1E7XZd+bHuLbGK/3YSae3xbgkl2we0LSP4WUcUDTNuwN9+Mkjf0pYoIg6jbqfr0tW2vAxb9tu2VVbbqEQUacs6ZdISRYzF+NakbFushh2LWb/y95woys37/e7Xb9o+jSMB6sTWT3veIfbtGY62jg9Td8mH/I/y0G/BqhdRNEx86nAZ9rsTRcMiOMncjyVRZDs2DbRQ31dF6jX4LsHYtgEu+cU39sorLnUaFHVu7SBpVETRMPEZKwKhjb/DpMMSOxx4J2GQrQ6ccqDJhzXnRjHlJ+UaO0w29W0siSLKssLRqg0TWb7lE9Vh8GmTH8Ko37MpUUTZt5OC3F/lU0mjaNjBie002x5mLSKRvBlk6xnphOCxOCnPGaSV1KhZjZcquuzyhFzot6pmcQVvbvDBLbhyfgzCrYDydyIRRRZj6mJJehFFDIqlWg45pEmYLf85UUQYnLsgLRnhwrO0PaIUJ/utKVHEWUkM8kvSb8CLmyYEwjD9ph1UW6LIanD2WpUtpasfUaSyCvZqq4dp90bd99uJLuWlTkpEUdu8aJLPdfHIv481UWTrkF34sPGw4zvy2W7f60UUqT3MtW+t36V3O/G35YuwIXd6SVOiKD+XqHSYtA3HTkTVRmHetozgto4oGqb+4G+dtOlbbP0pta11W88Uh1G20/Izf7YtL8OW/bZtVVuiiFuaqQP8seW7qQw7FusVzlgTRXbeWto2rbiJRAObfDGkjigapu4qH2jjtMDFN9qJXtKLKBomPr3CHMbMiaJh0PuP2x/+8a+d7/z+Tz3/fvHndivKI4helxe2wo36jCJ70K8qiibPVJ4SwWIjR+VhX7+kbQMs96WnBoJU6l6sLzdX3XfffZUXY0EU4Xnb+NgJVFMNpioxPV7a+ts2HUTFkkUcfMfkRpoE7Kfn0L9cOI+BMkW4doV1vIgiJgF28M41spR54lOaRLbFp21+5HiVflsCpClxitZXvuI8lYki4UYZpP3SwEDP0kAN7UvIQls+mrR/CotJl7YcMACh7ZFMVKJIN2mRTspsSeqIIg64Vf3ginsRDfhhy3+JKMIOhz9bjSbljSVJsNdPmhJF1h+2/dj8GRVRNEy/WUcUWeICvHVotk2P3iHCbf/XhijCL+XroP3tqPt+bRlU2bDjDKXZxpfwJW3zwuI9qDaNwtbTtiW2v5N5r2cTjSJb9nuRJcpPcIQ4kvQiiuwWUgiHOoF44rB1iZ34s4jE2TfKP572zDK50bMJUUQ/LRIL/xhT9JM6oqhtGSG8OqIIM+E9aP3BbUna9i3DEkXEZVTtdCldfGtbXoYt+23bqrZEEQtEqgfcJlgn1E87x5vMRBE7CpRm6kKdWGzyw+7riKJh6q7ixNZrexEO3yHP6qQXUTRMfOrCG/a7E0XDIhjdb33ZbZ2lv3Rjz78P3th9w8gIgm3lBYNnFe7SFgF7eOgdd9xRhdFk65ndR6pVZbsPl3B1vXnl8X9eNJBjf6akbQMs96WnBhDEJV+Rl30aWCZqtpEdK6KobXzsBGoiEEVt0wHmutKeFQC2m6CqzqrVOeecUzzo1Z5JMz0eLmllvIgiwtQtT5Ql4sugbu+997bRqd7b4jNW+UzE2hBFDJTzg7onOlFkCZ7SQYmaLOSaBmxxyA/YZiLDQEVtqK4svvvuu9MV0VWGxxcGgvbGD8qHJUGsXftuJw75ocKWKOIWECtt23b50UR7S3bzp91CSNtpJ5Gya4kiBkoSezg8xIsVW/5t30HflZ+FBFnLaqPyBi2EQcROGJpov5KXaEnYPBoVUTRMv1lHFIGFtLbAKC8/wooFH8rqKIiitu3eWPT9mnST9rr8lR0WKCRt82IyEUX0o6o3uSaucLB9a36rUC+iyGr+1vlNGJxlZLVV8ok/drRARFwpy2ynLInKHflZJ/a8Idos8tkK+cfk2kodUdS2jOC3be9zkk7pIL2DjFdtnO27Dcu2W9jp1bfY22TBIBerUaQ+ETtj0U7nYet32/IybNlv21a1JYrs4fSMWfJyKzyYv1CuJZOZKGJcoPaJpx0LKH087XjBks6Y1RFFw9RdxUln8uqMUn1H4aAkvYiiYeJTCmsU35woGgWKk8gPux87H2jTcNlDKdkOIGlCFEklksbLrrJqIkblYZKVExto9jDwYJBtRZ1kXWevQR0D/KZiDzQjPiWy7IADDkiNEoMfiT1/qaQZZQdDMMK5lM4owk7b+LQNL49X/rutv23TcfrppyesuVGoqdhtXxwcZ8UeqplPFO0tNLmZ/OiXz7LH05KH6hjyK6dlvy0+bfND4fZ62k41389dcsfBhKQzPy+qF1FkBzWlga4lGOwtgwrfDv7sPn2Z84QgEP55ecDcTghsm4YZAxCpnuftDFsKS4NiqxqsiQ173omD3Y6B/4ht/0pE1f+z9f//o92l9OQTBzsgz28CbNu2K+QmWMtu/lTZULw5CDwXSxTZbXv2EHA0t6zYhQurScFNSpS7XNhWoTiUzHP79rcG/Lgvxd/a5V1nqNmz1UQU4UedWAIBUrxObLkZpN+kTxMGuVaVvWWU8g45aIW40VflfWo/jSKdQ0O4VlO3bbs3Fn2/JRGZQDGmyUVjinybVJu8aJrPeRxKv9VGgW9OXpfs229Wo4jLA0qS19/SVmN7ZkpOMvQiiuxtS8SfxRRuCLKiSezVV19dfbZx0rZjxqg2L9hCmfuFByo/hFcS21aS5yVNJ77RJlixRBHkiRUbr0Hq69lnn13V17y9b1t/bLzse9u+xV7yUbrMxi462XOw2rTTbLmjPy3VT5uW/L1tebHuKC+Dln2VtXz8oPipTcnbVDseLRGotr7Z2wDzcSdzp3xLPSQ/WojMZSTDjsXkT+lptf1EmpTs1X1r0m/auanGXbl/mmdBIueLVXVEEX60rbuUF/7sdjjbRpAHpTGfzYt8HDdMfHI8RvW73IqOynf3Z8IhwGBbhZvBkCY2rIjr2kyZM8hksENHbIkiKlWuum3PP2BgYIU97/JTTyZvaB1RqTQIsqvMuNcEFDclkV/Ep6mgsaSGW+7RYmESw2BYkxZum7ICuSX7pYPnbOOQD77xxw6kucJd0jY+bcNTuHXPtv62TQcDKnAlD7numwEcE3HICAbEbEuxhB3xtre4kJci5ijbyj/85J1zBOzqsPKeMkfnyoCEOGhVpl8+57hZbZVek762+LTNjzyepd/Wb7b89BJWZ8CMv3xgLkx55mK1G0oHYts95ZAgudhJBm1GSawmY36QKvbpiFV3yS/lNRMotT0yp7wwGUF0NXG+emXPjtDAXkRRKXyRHQwamgx+GRQqPgxCaaNxx4RCWGMOucdNJiKu27btKbHxXxOsZbf0tG0c8QRfCYMlDaiJO2kkTZAKVpOHPKZv4c8SmbiBvGGbKm21rty2q9cKS4O+Xodeyq592v4GAruXoPJPnOg7rNg0ovlYErtiyIC2Ttr2m5aQ492KNHeJO3/kE/0efS9lWe2nJfJwr0Ug3DCxyoUJu/y0WmFt2z2bF3lY/FZYg/T9nB8mdzyp33YcY8/ZwJx+Wm1Bm7xoms+l9NlvtLc23qV20trP3+1tR2jv1Ymtv0xc87ZK2jz0p3kf0IsoIjxL0pEW6slhhx3WgVSQGaSM9dcuCNEWSLjxzbaDpUkj9VKY0Xex7Yl4856fS4SWTUnom/JJL2M/+ZsveLYpI4QrjWr8Pemkk7qi0rb+dHlifrTtWygLSjdPkfbku71gATP6IybpaKAN2k5bkpsyko/9TFJmeh2mvAxT9tu2VZbwKY0drYYvYwgr9rgGMGcMy5yFOZXGLdQR2nvJsGMx+VN6cluhyofVYirZLX1r0m9y26PC4JlrDDGHlXmpjexFFLWpuxw7oPAsocyYxqYHM405lXbmNXLLojXzbLSRtIDdJj7yeyye5Rn4WITkfk4IBCiQGkiroEodne95o48dVFLpKGznzICSiQWDYQaZmnCxslASOylVuPaJuZW8ouQkku0U8IeJWlNhS5MNO38HBzo5K3ZCS1ptA8zkUhjiF1ogls3G3GKX710dND7DhmfTZd+H9XfQdFCmVG7yPLC/wY5OUFpqTNQtntiVPzS01i3vrMpJ7KRU9lgNkfTKZ9mxT9uZ5wSptcf7oPgMmx95+PY3q1XCTDgwYWSgoT8GreAB+SE7ueZR3nlbcgAiToMW3LNqpIkXcWEQaDtUtIHs5ARzu4pEfEtXN9tBCnbQMLKClootL7zrzA/CZGCj9PHEnDKmuGNX7Q9xYkUce7SBOudFRBHfp8dtHNoSAYkpnBk0NxGr2aN4Kf5M4PRNT22Rbdu2E6emWPeKP2dXKZ6KG5NADrrOv8ucxQhp5uib7PK0+Y85WDLR0wSEb0w2taBh+4U6te88DbjN6ybt+RFHHFHVBeoERDYDdNuGWM0jS9QRL/pCq11DuIQFuaW08qTdsP2Fjd+g/SYTbdsGgl8eB64NtuHn73kdZ7IqAgm7kEakQ8IikfIM85xky7HNw8v727Hs++1WUOJB3d5hhx2qmwXzuGEuGSQvBs1nhZE/aQ/tuRvEjzxtOt6hXtsxHekpac8QLoS0XSykbYQk57s0RnBvjyRQfAlH2JXIcuKrdlD27JPyQ72WUGat9hvxsqSe3faNP9i1kzFLiCgciONcI4kJNvVPfyxSsVjFeAN39mwp6gHpl39oa+T1dpAyQlqpr5akIG/zseeg9UcYlp5t+xb8Ymug0s5TY17yzmocyg55MGg7zaRa7nnWkXh52oYtL23Lftu2ivjasSYYWoKd9gMCVFjQ/lrNVeqCrauyZ5+UY8mwYzH5U3oyF7L9A3Fg0cHW15I7fWvSb8ou/bDSSHtCGqmXlGuVx5xUk9teRBF2Bqm7tMukUXEh/yCqJJBYMuNJubba0nYRwdqDQJIMEh+5GaunE0VjhewE9rfUabNSwuRGq98UfCoWk1UJK2x0jpjZws07lZRGs5doFTZ3y4q/7XDtqo21S7g0SnUDDrGxveIgMyacDBKs/7wzaNTkD7ulFR25oSHPB3Ey4wnBZgcB1oy02AF80/iMKjzhoOeo/G2aDoWLqrnFpde71RAAW1sOeWf1nHJkB5i5ZhgNscoPbijjSL98VnxLTzpsypIlOUr2+NYUn1HlRx4PtAEsbr3wLplZbQI7YbZ2mfjlnb815+DhnByw5nT6dpBkzXhnsA6JxaC/Li25pgdbJXJ/2O5InhFfzGjDOLdFJI+IIrmzYaFBYTt+SxTJvi1nTUki5ZcdRCpuaNJRvjUgIj6sElpp07Y3wdqG0esdlXdL/gkLBj1WswvNIa3IMzHKsYZggoCAfJIfrNySPsROQGSu/MGebonrFVfM2Ioj922empzmExzrlwgrypX9bt+Je5007TeZ7Fo/7TsEmhWIT+Fl7bEd3Wp15OXQ2kVTxWoSWTPKvpWm7d549P0QfjauvNOmMLgXJrQJkJjKX6WlSV60zWeFoSf1UvHJ48tv+hybV3Knp9Ukyt2XtrrgDsLH3mBo3dGm5iS8wupHFGGPsZu0h6y/YG23cZXaatmnv0ajSL/zJ30LwqTa1kniTh9vtw3nbku/wQLJtRut3RyTJmUEP/MtT9bP/PywpvUHf/tJXqfpT5r0LdSFvG2HIKBNtluiGUNre+Sg7XQ+OaY96CejKC+EMWjZb9tWMSfQ2MDmOe/Uj5x8snbs1lH6TbuVUPbw256tNexYrA5/6qElThW+nrRdtLW9xNZRudNT/WbunnatFC7f8q3W1q0likpkN3ab1F27e0Zx1ZP6gWiMpu96QgRLbLnFPr9zaRKf3M1Y/J4DT2MiXGYzBOKEI8SBUYhbAsImm2wSllpqqYTATTfdFGLHF2IjGJ773OcWUZkxY0aIA/jw85//PNmJlSMst9xyRbv5x8iUhzhZD7FzSW7WXXfdEBuU3Nq4/KboxwFKiFtXwvOf//xAOoTDuEQgC2SixSeLXuOfg6QjEpMhrhqF733ve2HBBRcMcX94iAOSEDvtEAm7EMnJEMnKEFcOQhz8hTjYC4suumiKS1yxSGVwnnnmCWuttVaYa665qjjGldCw4oorJj+rj/95oezffvvtYZVVVgm4HVYoP8R5s802a+TVIPg08tAtNUKA8hK3NKY8jwOyVOdxGCcPYf755w9bbLFFmGOOOSq/4gpfWGihhcJznvOc1E7Q5pF3cWITohZSZY8X2sQ4gAhx4BzihCjE1fHUji677LJh/fXXb9XGxVXAEAc0YZlllglxIFGFR1iUb9rOadOmVd/1MkzbLj+GfcbVtUBfQtseCcVUZ8EvDv5CnLQV8YjEW+CPuqw6TjxoA8iLtddeu4rW448/HiJRGBZffPEQB6wJb76tuuqqIQ4+i7hUjifhy1j0m5Qj+nD640g6pPJEGzxWMpHaPdqCqFUZKKeR6K/6j6i9EVZaaaUQtR9rYRiLvKgNbBYZxEWsNC6iHVtiiSUSPksvvXRtbOj/nve85yXzSHCFk08+udbugw8+mNoB8oA2jH7Ytru1DlsYkL+0QbY9aeHNwE7GooyMsv607VsAImqkpbpDO7v66qsnbOjz4qJfiARkiERFhdeg7TS4xfNbwrzzzhui5mJql/B3PGXQsj+ecSuFxTiZtow+kr5zzTXXHMm4thTWRPrGPJUxBmWGsT7zt9J4SHGOmuAhLiann5T/RRZZREZdz7Gou10BmB+0gYxf1lhjjdo2cDzjY6LW9epEURcc/sMRcATGC4HI/oe4IhLi6lmgEe8lNPDYoVFdfvnle1l1M0fAEXAEHAFHwBEYJwRYxBHJGLeChrj9fpxC9mCmIgJM5BdbbLEQdzCEqAE1FZPoaRpnBPbYY48QNdwScRyPFhjn0Cd3cE4UTe7889g7ApMSATSHWElkgBnPtQlbbbVVz3TssssuIapqh7i1pac9N3QEHAFHwBFwBByB8UMATV9pksQtkGHbbbcdv8A9pCmFAGPC//mf/0k7HtAIq9P8mFKJ9sSMOQIf+MAHQtzKlTRI49mRYx7eVArAiaKplJueFkdgkiAQ92GHeL5Fim3cWxzi4ZQh3pZRbQdSMlB9j4fKhngbRojnEoXXvva1MvKnI+AIOAKOgCPgCIwjAmwzi2fMhXg+UogHFifNDyZebCOL54OlYwnsNvBxjJoHNckRiGfrhHh+XUoF72zzdnEEBkUgnlGYjrR44xvfGOI5Y8k57/F8oxDPAgrTp08f1MvZ2r4TRbN19nviHYFZg0A8iC+dAxEPtO2KAGexvPCFL0xnvnCWQbyNIq1UxkPxQry9pcuu/3AEHAFHwBFwBByB8UPg7LPPDmj4IizyHHLIISEejp4mYfEGxmpiliz4P0dgAATihSXprBmOJJhVZ5cOEF23OkER4MwijqlAWICOtxeGeItj0ibiTNE555xzgsZ8YkbLiaKJmS8eK0dgyiPAQW7xKuW0b1iNuk00AwUa+XjTQzpU2Jr5uyPgCDgCjoAj4AiMLwIPPPBA0h565JFHqoDZdsalFPFGp+qbvzgCjoAjMCsQgGjkDFQrO+20U/o233zz2c/+3gABJ4oagORWHAFHYOwQ4DYPbjDg/CG0iNAo4jYNni6OgCPgCDgCjoAjMHEQePbZZwPawCzwcAMktw36Kv3EyR+PiSMwuyPAzcbc6MnNqGyL5QZbl3YIOFHUDjd35Qg4Ao6AI+AIOAKOgCPgCDgCjoAj4Ag4Ao7AlEPAiaIpl6WeIEfAEXAEHAFHwBFwBBwBR8ARcAQcAUfAEXAE2iHgRFE73NyVI+AIOAKOgCPgCDgCjoAj4Ag4Ao6AI+AIOAJTDgEniqZclnqCHAFHwBFwBBwBR8ARcAQcAUfAEXAEHAFHwBFoh4ATRe1wc1eOgCPgCDgCjoAj4Ag4Ao6AI+AIOAKOgCPgCEw5BJwomnJZ6glyBBwBR8ARcAQcAUfAEXAEHAFHwBFwBBwBR6AdAk4UtcPNXTkCjoAj4Ag4Ao6AI+AIOAKOgCPgCDgCjoAjMOUQcKJoymXpxErQ/fffH375y1+mv1//+tfhrrvuChdddFFYaKGFJlZEPTYTBoGnn346nHfeeeGcc84J22+/ffjwhz88YeI2ESMyY8aM8Nvf/jbcc889YfXVVw/LL798Fc3HHnss3HfffWG99darvrV9+etf/xrOPvvs8NWvfjW8//3vD9OnT2/rVWN3X/jCF1JZ2G677cLuu+/e2N1ktWgx3m233cLOO+88JkmZ3XAdExDdU0fAEXAEHAFHwBFwBKYwAk4UTeHMndVJe+CBB8LWW28dHnroofCXv/wlRWfJJZcMDz744KyOWhU+k+y55porzDnnnNU3f5k1CEAqHnvssYkgUnnZd999w9FHHz1rIjTBQ/3b3/4WDj744HD88cd3xfQFL3hB2GSTTcKWW24ZrrvuuvDUU0+Fb3/72112BvkBuXvMMceEM844o3J21FFHhY997GPV77F4gTRZYIEFKq8fffTRsOiii1a/p9LLnXfemTA+88wzq2RR7in/o5bZCddRY+f+OQKOgCPgCDgCjoAjMLsg4ETR7JLTszCdv/nNb8LKK6+cYvCud70r2MnQLIxWOPfcc8MHP/jBsOCCC4brr78+LLvssrMyOrN92D/5yU8SSfSjH/0o8I44UVQuFkz20RKibkEMHXDAAWHVVVcNP/3pT8M111wTrr322srhNttsMxRRhH9XXnlluPTSS8OvfvWr5O94EEXPPvtsqpMQzaQRInHuueeu0jWVXq6++upw+eWXhyuuuKLCeKyIotkJ16lURjwtjoAj4Ag4Ao6AI+AIjCcCThSNJ9qzaVhMMN/4xjem1F944YXhbW9724RA4jWveU246qqrUlxOOeWUwFYPl1mPgC0vThSV82PHHXcMF1xwQUBD75ZbbklEirXJFrFddtklfRqWKJK/ELzvfve708/xIIoICHLosssuC6973evCi170IkWl63nkkUeG5ZZbLuy0005d3yfjj7POOivsuuuuKepjRRTheRNcJyN+HmdHwBFwBBwBR8ARcAQcgdEg4ETRaHB0X3og8KEPfShAxCB//vOfkwZPD+sjNWJbDtoVkA+5aFKGtsL//u//pslmbsd/jz8CN910U3jlK1+ZAnaiaGb82ZaHFhzSi0zgLCHIk1ERRRA2+IWMF1GUAuvxj+13K6ywQvj4xz8+Jc4w+s53vhPe8IY3pBT3ytsekLiRI+AIOAKOgCPgCDgCjoAjMDQCThQNDaF70A+BFVdcMR20u+GGG4Ybb7yxn/WRmd9+++1hzTXXTNty0DooyRNPPBH+67/+a8puaSmleaJ/+9nPfhbWXXfdFE0nimbOLYjPLbbYIhlwwPNnPvOZmS395wuaNtSBYc4okudsP3vta1+bfk4UoohDtT//+c8nDKbCYddoOKLpiDhRlGDwf46AI+AIOAKOgCPgCDgCswABJ4pmAeizU5DcdLbaaqulJH/iE58IBx544Lgkn60VHOj7u9/9Ltxwww1ho402GpdwPZDhEbj11lvDOuuskzxyomhmPDmg+lWvelUyQBuOM53QqikJN8Zx69koiCLO0eFwemQiEEWnnnpqOmOM+ECWTQWi6Lvf/W7YaqutSJITRQkF/+cIOAKOgCPgCDgCjoAjMCsQcKJoVqA+QcLk2nq0buaYY46w6aabhsUXXzxt0Vp77bXD0ksvXYxlp9MJd9xxR3K31lprpeu42f4BIfTII4+ks0Ssw+OOOy7ss88+6RMH7b7sZS8L3IbG5HahhRYK66+/fph//vmtk+I7W9aIK8QPk+KXvvSlYb755pvJLof8nnzyyeGkk05K8eHWpD/84Q/hOc95Tpg2bVplnwNduVKceHP+Sa9Dcv/9738nu9z+9Kc//Sm8/OUvr8ivysP/vPz+979Ph9GCzRJLLJG+Pv7442n72yte8YraA7P/+c9/prhwOPG//vWvpDGy2GKL5d4HbmnjQGGuPd98880rc8JlyxYHHNeRBpXl+MItVsRLQhk47LDDwjzzzJM+HXHEEeHJJ5+UcVh44YXDfvvtV/0mHpAPn/vc51KegA1bor70pS+Fiy66KOUxpMJHP/rRgEZZnXz9619P50RB5uH+JS95SdJa2WuvvZKTQYgiNDDInybC1jbKoBXKPMQKAr7cwGYFbO35Wtze98UvfjF8+ctfTtfFU84po2B38803h0UWWSRwlhBnzmirGAcWf+1rX0u3kWHO2V3cHmbLpg2z9P6Pf/wjzDvvvJURZBHbzKRlVBnElx/84AfpjJ9PfepT9nP1TnnjqnQODycPKXNoc3E4dp5vJaKIw5c5DwksV1lllfCOd7wjTJ8+vfI/f+FcJcoNWmPk9+qrr540aPbcc890+6C1/8wzz6SyRBmjLOIGob2hXEAUSSDOaEsQNHJs3cAfiKQf/vCH6Twnbjmkfr7zne8M2223nbxIT8IhP08//fRUFkkbW1SJA20EZDd+E/dzzjkn3QRHm8b5TXfffXey+61vfSvlJ+0KxLjNq67ACj84OJzb6hDKM/WHOFx88cUpj9AOe9Ob3hQ+8IEPpHbbekEbgHbV+eefn/Ch7JFu3JNe3jmwvw5X+TWKtNFGUX9+8YtfBOK11FJLBfqVPfbYI8VFYZWeg5QR2jzyhnL4/e9/P5VBzsGjXaFMskCA1pktD6Uw/Zsj4Ag4Ao6AI+AIOAKOQIZAnPi7zGYIPP300503v/nNnVgUOpFI6bz4xS9O7/Gw2PSME8IiInGi1YkkSZfdOJHpxAl0+hYJipncxQF6MouT2U6ctHYiEZB+EzZ/fI+D/Jnc6UOcaHTi5LNyQ3zlLk4IZC094xXTKT3y2z5JW9xm1tl+++1nikMkobr80Y9I3nROO+20DunCLxt38JN85CMfSRgobtiN23SScTwbqYpT3HonJ9Uzkmud/fffP9nBfdS+qtIaSbZkL5IOCQMb/gYbbJDM4qS5Ew/hrtwQdiRdKv/rXr7xjW904sHEXe4iOVJZj4RP5y1veUtlTj5J4uS3Ew9RrsyId7yZqgsfYR81gzpxYiqn1TOSYVW8wTdOijuRMEnlQW55RkKgctPvRXESjuClP+sn75EI6MQJZkflk2/YlVAm4sS6EwnJKp2RJErGkSit6o/8jWfkdCI5WdnVd57xpr/kjnJiv+s9EnAKtvHT1gn5E4mBTiRhG/sRr7tP5Y683XvvvVN+2DIcyYkuv+K2qCr+UaMo5Y3Ctk/KfC6RfOjssMMOyX0856gTtX+qdge3tCGR5EvOKC/kO/GSv+StJBJNKa+U39jBrvI6kiWy2olEcJWHlPdI2nX5y2+Eeoi5TX88K6gTSb8qDoRD/SQ/FS+ekbhJbZt1K/N4q2IVlyYvUaOo8huM4xlT1W/5yZP2h7qPRJKvE0mpLnvUp0jUdn2jneiF6x//+MeRpO3EE09M4ZInX/nKVzr0J2Bp46/3eH5dBcsgZeS8886r8lV+/fjHP67KmL7xJF/uvffeKhx/cQQcAUfAEXAEHAFHwBHoj0Dob8VtTDUE4up9GrTHVfjO3//+95Q8Jo0aXGvCZtMdV9mTOZMzCCPktttuq9zgNmpjWCedqN3TZY4dJjRMgEQ4aSD/6KOPdrnlBxN5xemEE05IRE/UpuiavFlShLTEM5A6Bx98cOUOUoNvEE5MQONhsZ244l6Zl8gbwo5aSB3IGMKHMFH8ILUUJ/xF4lagRHaJaGNiAslkJ324AW8rccW7mrQecsghFaECcYB9/GEyeM8993QgdiAqFPbhhx+e7Eftg/RNZBbmEC5NBSJHflqiCPdPPfVUZcakT8LkGXJL7ngSPpN9JonE1RJe8UBxOa2ekBq4Y3IPgSehTNkJ9yBEEXFkYh01wORdelIuSoQPhraMWqJIHkQNoCqdIori1rhO1CzpbLzxxpWZ4gwulAfICotP1HJJv6PWUSorEJDWHPJpEIHstXVIfhGPeB5XVa/r/IzaMCl8yiwkn8TGG78syWeJIoUXNY868ZDrVPf1DT+jxp68TE+RRJ/97Ger79QR6p/cQdQg5B91OGqVVWaWKJIHEEZyC6mXC/muOkmeSSANKCtyS9v28MMPd6iDiidmylPIJDnhuLAAABfZSURBVL3H7aydgw46KBHOci8z2gkI1qihVdnHTtSEUtB9n3mbgXvKznvf+96KsFa4tG0IBDxtqgh7zIkTaYcYl/1DDz20J660ccOmLWr1VOFFzbkqvRDDto2iLYTshEiSCPsmZYQ8gwwT9qSRMsIf+QjJCYGntPPu4gg4Ao6AI+AIOAKOgCPQHAEnippjNWVsavLEhN8KE18G87lo8sigPG5X6zKWNhIDcibVViAMNFDnyW8rTBZkfu6551qjRHbILG5h6DJjkiyzuGWuy4wfEFYyj2cVzWSO5pHM43armcxxw4QDO0xWrVx//fWV21zzSliw2o8WEHgxORPeTGwklnDKNTeIk+InIg93aBjpe9zGl0gRwiRPIJ1kBsHWVKzWUE4U4QfkCf5aokh+K12YM8m3pELcQlPF561vfaucpCdEiuKalxksQKbIfBCiCLzRKsiFSbb8Ay/IISuabJaIIibPciuiSG5t+aa8kAdWmHTLLeYiWGXHEppWC0bm/Z7ErU5Tg7zJNe7kH0SwiBKIDSsQk4ozz7idqjK2RBHuRZTKgiXOIDclkLn4hRtbRjCHwLHhWdIKc+UN+OXSjyiSNhBlPBeIZ4VLmZBAGOk7T9VZtF3Ib5UdyCZrL88/SByZo2nWVCxRBF62TFlNUPlt8ULLRt95qrwRVwhyyBpJL1yHSZstjzY8woUAUvzyet22jOy8886VnxCnEPySOqJb5v50BBwBR8ARcAQcAUfAEahHwImiemymrIlIEJ7SlCGxaAfkk3o0cTS4zwkN3IgcwY4lNTBjJV5u84kU5mgByBwNGYmdALLqXBJpwjDhyUUr12iRlOSUU06pwoXQscLkRloOaBTZiS1aEhBTxBnstPUD90zYlBY0aJiox3NhktessqNBIi0LiChN1CFFrLD9Q2Z2ext2tL2EsJl8Eoa2GonMIw6aIFp/696txkGJKJImDnHKRWalPKAsCI9ck0qaMHaCbv22k+V8Qmnt5e9MRPPJKRoLigdPq1ki98K7RBSxBU3uc6LIkoZsPcvFaiOVzKlP8ltlJfejyW+0g1Sn5Z+ekCR5vRSBgh1bvhUW/kH65CSpJYrQYMmFbagK1xIcIiPBl3Jq//LtetqyKb8p4/hJ+nKx7URJo0j5ivaaDZP3fPuYMLIkNOVbdTYPG+JIaWUrXS4QMzKHLG4qtuyLpLJuIapE8uA/mjUSNLsUZr8tb71wHSZtwrzUJogMIo5oSVlpW0bsds6S5pbaGsJ0cQQcAUfAEXAEHAFHwBFojoCPnppjNWVs2i1MEB9sAUHQTLHECZNIkQFsccrFrthCYuSiySvETb4dCLucZaKJjbYbMGHTZAOzeBBq7m36rYkOduxkNx7IW/lZtwVLq96Ek8eLCbDiBEkmYQIJiSYzJnRWOPNGZhA8OeFm7ersEMK3cY8HdVdbtiwJhFtLvEBgMRFDq0hi85TteU1lGKJIW11Kk0LCFx52ex8r/vpeKjO4u+WWWyo7gxBFuLXC+TR2Ug1BUBKVt0GJIqvFVSKC0G5SWiFhc7HbdAYhE3J/+E1dBCuFZ585waWyUtIeLPmtb/2IItKgcNEok4Ar3wmPiXuvPwgWKyKiByWKrCYYbVivMDFDkwihPioNtBN1YjWvStuabNlgO2JT6UcU4Y/d9mnLDSSb4h4Pq+8ZZC9ch0mb2nzikbdDtm3OyeO2ZcSSk7QbuaitJT62rc3t+W9HwBFwBBwBR8ARcAQcgW4EnCjqxmO2+BVvpKkmFAyg4+0/xXTrXCLsWAJJljkbAzP+RPTIjNVdmdVpS9hzWqRJYAkXzqwoCRMQ+c0k34oOUsXcnl8kO5ZwybWV8FekASQIwgSSM0c0AWJSmG+/w549DwO79twdzCWWBGGSg0Bo2G1KaHLk2j1WO4W0cQ6NBC0aESIl7QbZKz2HIYqYYBOXOqJIcbJEkZ0IsyWsJBajtkQR+SySkzhydlGdKM8HJYosEVQiiqgzhM3fWBNFSlu8ya+4HY26JtGkvE6jS/byZz+iyJKs2EUgYoVBvoU097/0uxeh0UujCK06hcthz02lKVFk25ESUWTzftREEdt0lbbp06dXSbP5MwxRNEzaiI/iBhFqxfYX9gD3YcqIJUdLRJEWBYiTE0U2N/zdEXAEHAFHwBFwBByB3gg4UdQbnylrardfMYguaVtoC1ZpAg0wlmSwZ5JgxmG/mjCUiBXs2O0fIkbsOSd2+wr2JVYTw5IQmGsFGZIi34aEuSVc2GJjxRJjxF2TVPyCgCkRT7i3xBXumMDWCWf5CBcOfBZJgQbRe97zns59991XdMrtQHKHXTvpsVugBjmfiIBsHioPbAREtuSEHHbaEEW23BF2SUZBFIGl8AJnNG7qRHlQKue9tp7NKqKIM4by88XytNmD4MHBaseI9OR7rlGX+2N/WyKitPUMQliYiyiCMNW3eE259a7Ru+ogcc6lF1F00UUXVeHG69Zzp7W/JwNRZNs/S6Ta/JlVRJGNAzcK2q172opMe2r7i2HKiBNFtUXZDRwBR8ARcAQcAUfAERgKASeKhoJvcjtGk0iTuJxY4RBbmdnzg5Rie1hxSTNBJBOkRkmYkBEmYeiKauxp0s53O8mwfrC1S3Gzmkx2ywTnkpTEEi5ciW3FnncB0YAmEdvP+k2mLfmUn71h/eddxAvx5zBjDqBly1k/0blLuLPbenCnW9Iwa+KXDWu8iSLdtkVcIZpKMixRlJ9L1O9GMZW5yUIUaQuPtoyWMOSbPVCZuiaxZGyu9SE7PNGKsVssLQnQlCjCH9Vz2oJecYZ4y4nStkSR1WisawuIGwLhxNZSZDIQRdwmRv3hz14CYPNnVhFFYGgJPIh7FiGkaURd4yD/XNqWESeKciT9tyPgCDgCjoAj4Ag4AqNBwImi0eA44X2BFMmvr2eLgb3GnK0BEjvYz28rYzKlCRyTlT333FPO0hPNFE1k6rQILGEgjSN7kCzxKgkr0fKbyQUHr0psnHNtIdkR4aKtZfrOU4dF4z9beJoKB8cqTvlNULkfslfSkMjt6jdb0+SudMubyKcS0SE/6p66ph7/7Y1Bsi+/meDl0kajyG7JIczSGVSWKMoPVM7jkP/OzyXKb/XCPppqHBoukYZNifC0GkX5uVOzSqNIRBGHF/cSex6ULW9Wk6/XVkUIJYufJSIGIYp0lhX5/elPf7oYZchYyq+9Uh2Lamds/OWBre/5YdaWNCZce56X3PPkYHnMdaj/ZCCK2MJHnPlT20labP7MSqJIiwhsyaN9QbOIMkfe69Y44mulbRlxosii6O+OgCPgCDgCjoAj4AiMDgEnikaH5YT2STfi5Fo6+s6kg21BEgb1mozYA2bZzsV5LzLjyQSFW79025bV6GAylwuTOE3O84mjVpbzw07lhw7iJVw7icXcagsx8YMMQGtHYgkXzpRhUsiTrTyI1VTKJ6zyg20SXMkM4SFBU4L41GnIyB5PpQ/7uUaT7DH5YwIvLYfjjjuuwjvfRmNvW+MGNeJnzy+Sn3VPu0XLpgn7aCdJ24Z456LJXckMu0orh29L2AKm72Dwvve9T0bV0xJFu+22W/W930t+LhGT05JQhtACk4iMIF659hjaD8STP7t9C7f2wOJhzyg65JBDFJ2+TxFFEDm9NHTsgc72Bj3qjdLEs3R9O2UIM0vE2sOSS0QR3+Sv1RqxmnqYWy0YJZYznDDLtwgqb0pEkW27SuegieTEX+oo5coK2EFi2O2rlihCG6ZOLKldItssIVp3qH7Jb3uGV+nWM9woXZDGtrxaoqiUPza8XrgOk7bbbrst5WMeNxt26b1tGaHNU5kr3XrmZxSV0PZvjoAj4Ag4Ao6AI+AI9EfAiaL+GE0JG7oS+7rrrutKD1urNNC2ZwLZA1M14YZQYZINeaCzgHDLdyZbOrCXQ6Llp8gOBQrRxCHVmONXLhBEdW6ZOMlMcbLuNYGCwCBcCAq2PEjYAiH3bLkhnsRbcbTnKjGxzLVdIL34zqRbbix+pQm3wtaT2+MUB0sGYc4kVQSdPYOGySxuwB07Vuy5StwiB3lgt/JZu6V3e64Mq/+QeAiTTpFEii8EBWSMRJNNzEsid+SLFZEQMreTWtJH3spMJJMN1/pl3y3phXaK8sjaQUOIdNl6wHZBhYdmCmQqf8oLmZH3lF/FxV5vX9J8steB77333jYa6f3qq6+uwh2EEBNRRLyoL5bMsYHsvvvulf92uyJpU11R2sAcEvLCCy+sDsPO42TP/bEErMK09ceSuBBWlhwkTOrQ8ccfn27wklajDneXfzzljmcuIiXwjzyk7Jx55pnV1evSbFEaeVJGIMQ5SF3l25LZVhOp161wHHIvf0uEkj1MO9fkzNNhf1uiqHTYu9pl8Mi3mdpbJDkLrZf0wnWYtGk7M9hyIxuanZDukHrkBweLW20+xbFtGQEj5YMWKuQnT9tPUfddHAFHwBFwBBwBR8ARcASaIVCe4TVz67YmEQI6i2adddapthhxCLMOGGXblV2dZvKpAThPJsl6MkHTGUR8g5iBZJB7wpBdu4pvb2TiXB3ZtzDalXgmo0z22a5gbzPjzKSSW01+IDCYCBMvTeoJw04qMIdMsJMHkQjEnT/8Q3sIDSqRImgHWK0sS3rkxJJNl97twdOEwWSUeLFNg8kVYZ5//vmynjQsFJ/SxNFuvcAviBXytance++91WRcaZa2F2kHI4Uvc7SW8km4nWwTNqSDdQehJiF+KiOyQzgQd9oaqO8Kk/LVS6wWG24gFSFy9MdklQOeRZBY7SnMbHjKB/ljzXgHY8qfLU/E32rDoK0C0SK3hCvNNdJBubYHm+MeXJuIJYrwn7KJRpPV7LOad9yolwtbJFVfFEf7JL62HFGPKA+yAwZ2GxFp11ZE7GDX1hO71VR+2GceHvEljtYO6bNiSR1rj/ZJYvPI2tG7rVMQTZx5JjOelJ+8rSFvbb0HR0va4I/VboQIqyPzFE897XZGwodMps1gi5xtA/PtwOBvCXrqsN2WJv959sJ12LRZrUyLY/5O+bz11ltttBKplNuzv/MyQj2w7QXaRTavMLdlnDPnXBwBR8ARcAQcAUfAEXAEmiHgRFEznCa9LSaTTICZQDB4hujRIBqyqDSRsWfvMGDnjBZtl2ICo0E82ghMjiRMgplIyX9IJhEDrPAy8eklrIyLrJAfCt9O8HM/pHmDXbYc2Iksdg877LAqzmhisG0rF7Yv2MmH0oh/pXNOpCGEm6aCVoBNF2Hwm0lrvtput5PkZAzhWa0XJmmWrGgan3wrEvHhIGSreUL62AIH2QGpJVzskzQwoaWc2e96twd9U0akfSBznpRLqxkBgclvSzqU0sUk0vrT7z2fRLMFzrohLRBIkIf6znYaDh+3W+Nkpid1hnzS7/zJmV29zO3h7KV08k1EEWQYhEwd3tQ7tIDqhK2YORFIfKnPltTKyU2bJghfts3Zb/bdEsVoWBEna847GoZ5XYWIyu3xm3y2YssuZdRqMsneaaedVvQLbToRC6S3FB7fKAsS2rk6vCkfOYFq/bSac/Kv9CR/IUatW73Txtkbw3Bv64vs6Zlvi+uF6yjSRtzq8FGc9KSNz2+mbFpGbLsn//RkW6nVJNJ3nuQlZJiLI+AIOAKOgCPgCDgCjkBvBObAOA6gXKY4AnEyEeK2pLDggguGBx98MMQJXJhnnnnCmmuuGV74whfWpj4SMyGSF+HVr351mG+++Sp7kVgKcftW2GijjcKiiy5afbcvcRIWohZRuP3228MiiywSVl999bDYYotZK7XvcdIS4mQ+uV9iiSXCGmuskeJe6yAaRA2IELduhLXWWissu+yyM1mNZEOK81JLLRVWXXXVmcz1YcaMGeHOO+8McSIdFl544YRR03jLj37PSJSEn//85yESK2HppZdOcbb49nMvc+J67bXXhpVWWimsuOKK+jzwk/jEc2VSmYgT3vD85z8/+RGJhjD//POHLbbYIswxxxwD+9vPQdxyEuKWkRC1Q0KcxIY42Q+UraiRFLbaaquw/PLL9/NiZOZxy02IxFzCcf311w/Tpk0L4HvWWWelukP5nQgCVlGjJESiLUWHehY1UVKZjYRHiBPwVF9WWWWVlIZ+cY43HIa47TTV76iFF5ZZZpl+Tlqb091Qt+IWpFTGCI/6OIxQdiNBkdJcV0ZpT6KmUYiabWG55ZYL6667boikwTDBjrnbJ598MsWXdgiMiHNdWzvmkWkYQNy6GCLxF84444wQSfRA/aY+k0eRxA6UT9o87JFnUWMrbLvttl2+j0UZ6QrAfzgCjoAj4Ag4Ao6AI+AI9EXAiaK+ELkFR8ARcAQcAUfAEeiFAMR31PgKUYspRK25XlYTSY7duB00RC27nnbd0BFwBBwBR8ARcAQcAUdg/BFwomj8MfcQHQFHwBFwBByBKYVAPKMqaYrtv//+4ZOf/GTPtJ199tlhl112CWizoUXo4gg4Ao6AI+AIOAKOgCMwsRBwomhi5YfHxhFwBBwBR8ARmFQIsEVz7rnnruIcz60K8bD2mbYxPvbYY0mLKF5UEOLh0+GYY46p3PiLI+AIOAKOgCPgCDgCjsDEQcCJoomTFx4TR8ARcAQcAUdgUiKw1157hRNOOKEr7vHw8nQuHSQSZ4BxLhESb48MRxxxRJhrrrm67PsPR8ARcAQcAUfAEXAEHIGJgYATRRMjHzwWjoAj4Ag4Ao7ApEWAQ6i/+c1vJrIo3l5WTEe8jSyceOKJYbXVViua+0dHwBFwBBwBR8ARcAQcgYmBgBNFEyMfPBaOgCPgCDgCjsCUQOCRRx5J2kPccDbvvPOmGy+5bW7OOeecEunzRDgCjoAj4Ag4Ao6AIzDVEXCiaKrnsKfPEXAEHAFHwBFwBBwBR8ARcAQcAUfAEXAEHIGGCDhR1BAot+YIOAKOgCPgCDgCjoAj4Ag4Ao6AI+AIOAKOwFRHwImiqZ7Dnj5HwBFwBBwBR8ARcAQcAUfAEXAEHAFHwBFwBBoi4ERRQ6DcmiPgCDgCo0Rgm222CZtuumnYYostwrrrrjtKr90vR8ARcAQcAUfAEXAEHAFHwBFwBFoj4ERRa+jcoSPgCDgC7RE49thjw7777ps8WGmllcIGG2wQNttss7D55puHFVZYob3H7tIRcAQcAUfAEXAEHAFHwBFwBByBIRBwomgI8NypI+AIOAJtEbj11lvDOuusk5wvueSS4aGHHqq8QsNoww03rDSOFlpoocrMXxwBR8ARcAQcAUfAEXAEHAFHwBEYSwScKBpLdN1vR8ARcAR6ILDqqquGO++8M9lYeeWVw3//93+Ha665Jtxwww2VqwUWWCBtTYM4QuNoyy23rMz8xRFwBBwBR8ARcAQcAUfAEXAEHIFRI+BE0agRdf8cAUfAEWiIwK677hrOOuussM8++wS2okEWXXDBBQEC6ZJLLglXXnlluO6668Ldd99d+YgdkUvVR39xBBwBR8ARcAQcAUfAEXAEHAFHYEQIOFE0IiDdG0fAEXAEBkXgnHPOCdOnT0/nEq233nrhmGOOqciitddeu/LurrvuCpdeemm46qqrwlprrZXsVYb+4gg4Ao6AI+AIOAKOgCPgCDgCjsAIEXCiaIRguleOgCPgCAyCwIMPPhiWXXbZsOiii4abb745nHrqqeHoo48ukkWD+Ot2HQFHwBFwBBwBR8ARcAQcAUfAEWiLgBNFbZFzd46AI+AIjACBjTfeONx4443hvPPOCzvuuGM44IADwlFHHeVk0QiwdS8cAUfAEXAEHAFHwBFwBBwBR2BwBJwoGhwzd+EIOAKOwMgQ2G+//dJWsj322COccMIJyd8DDzwwHHnkkU4WjQxl98gRcAQcAUfAEXAEHAFHwBFwBJoi4ERRU6TcniPgCDgCY4DA5ZdfHl7/+teHTTbZJFx//fVVCAcddFA44ogjnCyqEPEXR8ARcAQcAUfAEXAEHAFHwBEYDwScKBoPlD0MR8ARcARqEJgxY0Y6p+iZZ54JDz/8cJg2bVpl85BDDgmHH364k0UVIv7iCDgCjoAj4Ag4Ao6AI+AIOAJjjYATRWONsPvvCDgCjkAfBLbddttwySWXhCuvvDJsvfXWXbYPPfTQcNhhhzlZ1IWK/3AEHAFHwBFwBBwBR8ARcAQcgbFC4P8A3v6xFyw1VQYAAAAASUVORK5CYII=;" parent="1" vertex="1">
                    <mxGeometry x="330" y="30" width="471" height="63.23" as="geometry"/>
                </mxCell>
                <mxCell id="Yr3t7ejNtm0bVkwtEUdj-10" value="einzelner Mitarbeiter" style="ellipse;whiteSpace=wrap;html=1;fontSize=14;" parent="1" vertex="1">
                    <mxGeometry x="70" y="-320" width="120" height="80" as="geometry"/>
                </mxCell>
                <mxCell id="6QgjwEE5GxFQWFkc3L0r-1" value="Student: Stefan Maier" style="ellipse;whiteSpace=wrap;html=1;fontSize=14;" parent="1" vertex="1">
                    <mxGeometry x="234" y="-500" width="120" height="80" as="geometry"/>
                </mxCell>
                <mxCell id="6QgjwEE5GxFQWFkc3L0r-3" value="Prof.'in Groß&lt;br&gt;&amp;nbsp;(Vizepräsidentin &lt;br&gt;für regionale &lt;br&gt;Zusammenarbeit)" style="ellipse;whiteSpace=wrap;html=1;fontSize=14;" parent="1" vertex="1">
                    <mxGeometry x="-7.5" y="-570" width="155" height="110" as="geometry"/>
                </mxCell>
                <mxCell id="6QgjwEE5GxFQWFkc3L0r-4" value="Hr. Torbens (wissenschaftlicher Mitarbeiter)" style="ellipse;whiteSpace=wrap;html=1;fontSize=14;" parent="1" vertex="1">
                    <mxGeometry x="661" y="-140" width="140" height="80" as="geometry"/>
                </mxCell>
                <mxCell id="6QgjwEE5GxFQWFkc3L0r-5" value="Dr. Stefan Freitag (Vize-Präsident der IHK Bonn)" style="ellipse;whiteSpace=wrap;html=1;fontSize=14;" parent="1" vertex="1">
                    <mxGeometry y="-619.5" width="140" height="70" as="geometry"/>
                </mxCell>
                <mxCell id="6QgjwEE5GxFQWFkc3L0r-6" value="Herrn Müller &lt;br&gt;(Informatiker, Usability Experte und Software Architekt)" style="ellipse;whiteSpace=wrap;html=1;fontSize=14;" parent="1" vertex="1">
                    <mxGeometry x="100" y="-460" width="180" height="100" as="geometry"/>
                </mxCell>
                <mxCell id="6QgjwEE5GxFQWFkc3L0r-7" value="Herr Dr. Meyer (Vice President Innovationscenter, Software-Techniker)" style="ellipse;whiteSpace=wrap;html=1;fontSize=14;" parent="1" vertex="1">
                    <mxGeometry x="120" y="-600" width="120" height="110" as="geometry"/>
                </mxCell>
                <mxCell id="6QgjwEE5GxFQWFkc3L0r-8" value="Herr Dr. Sedal (Wirtschafts-&lt;br&gt;informatiker, externer Berater einer großen externen Unternehmens-&lt;br&gt;beratung)" style="ellipse;whiteSpace=wrap;html=1;fontSize=14;" parent="1" vertex="1">
                    <mxGeometry x="240" y="-340" width="230" height="130" as="geometry"/>
                </mxCell>
                <mxCell id="6QgjwEE5GxFQWFkc3L0r-2" value="Studentin: Steffi Kaiser" style="ellipse;whiteSpace=wrap;html=1;fontSize=14;" parent="1" vertex="1">
                    <mxGeometry x="390" y="-250" width="120" height="80" as="geometry"/>
                </mxCell>
            </root>
        </mxGraphModel>
    </diagram>
</mxfile>